<?xml version="1.0" encoding="utf-8"?>
<!-- Generator: Adobe Illustrator 22.0.1, SVG Export Plug-In . SVG Version: 6.00 Build 0)  -->
<svg version="1.1" id="Calque_1" xmlns="http://www.w3.org/2000/svg" xmlns:xlink="http://www.w3.org/1999/xlink" x="0px" y="0px"
	 viewBox="0 0 1366 768" style="enable-background:new 0 0 1366 768;" xml:space="preserve">
<style type="text/css">
	.st0{fill:#B34750;}
</style>
<path class="st0" d="M720.1,640.8c0,7.8,0.1,15.7,0,23.5c0,2.6,0.8,4.2,2.9,5.8c10.5,8,14.1,22.9,8.7,34.6
	c-6,13-19.6,19.9-32.8,16.8c-13.8-3.2-22.8-14.4-23-28.2c-0.1-9.7,3.9-17.4,11.3-23.3c1.9-1.5,2.7-3.1,2.7-5.5
	c-0.1-15.8-0.1-31.7,0-47.5c0-3-1-4-3.9-4.3c-15.9-1.5-31.6-4.1-46.9-8.7c-1.8-0.5-3.5-1-5.2-1.6c-7.7-2.5-7.8-2.5-10.9,4.7
	c-5.5,12.8-10.9,25.8-16.5,38.5c-1.4,3.2-1.4,5.7,0.2,8.9c8,16.3-1,37-18.5,41c-15.7,3.6-30.4-3.5-35.6-19.7
	c-4.7-14.4,3.2-30.7,17.7-35.6c4.8-1.6,7.3-4.1,9.1-8.6c5.5-13.6,11.4-27,17.2-40.4c1.1-2.5,1-3.9-1.5-5.2
	c-15.5-7.8-29.6-17.9-43-28.9c-2-1.6-3-1.7-4.8,0.2c-11.2,11.4-22.5,22.7-34,33.9c-2.6,2.6-2.3,5.4-2.1,8.3
	c1.4,17.5-14.1,31.3-30.8,30.5c-15.3-0.8-27.7-14.4-27.3-30.1c0.4-15.4,12.8-28.2,28.2-27.8c6.3,0.2,10.5-1.9,14.6-6.3
	c9.2-9.7,18.7-19,28.3-28.3c3-2.9,3.4-5,0.6-8.3c-12.1-13.9-22.1-29.2-30.3-45.7c-1.8-3.6-3.6-3.9-7-2.5
	c-14.3,5.9-28.7,11.7-43.1,17.2c-2.9,1.1-3.5,3.1-4.3,5.4c-4.9,14.4-18.9,21.6-30.5,19.9c-16.4-2.5-26.6-14.3-26.4-29.5
	c0.3-22,24.1-35.7,43.5-24.9c2.4,1.4,4.5,1.6,6.9,0.6c14.6-5.9,29.3-11.9,44-17.6c2.7-1.1,3.2-2.4,2.4-4.8
	c-5.4-16.7-8.4-33.8-9.8-51.3c-0.2-2.5-1.3-3-3.5-3c-16.3,0-32.7,0.1-49,0c-2.4,0-3.6,1.4-4.9,2.9c-7.5,9.2-17.3,12.8-28.9,10.4
	c-11.8-2.5-19.4-9.9-22.2-21.8c-2.8-11.6,0.9-21.5,9.7-29.2c11.7-10.2,31.8-8.2,41.1,4.1c2,2.6,4,3.5,7.1,3.4c15-0.1,30-0.2,45,0
	c4.1,0.1,5.3-1.2,5.6-5.3c1.5-18.6,5.3-36.8,11.1-54.6c1.1-3.3,0.4-4.6-2.7-5.9c-14.3-5.9-28.5-12.1-42.7-18.3
	c-2.6-1.1-4.5-0.7-7,0.4c-20.6,9.4-42.2-3.9-42.5-25.7c-0.2-14.7,8.6-26.2,25.5-29.3c12.2-2.2,26.7,6.2,30.7,18.8
	c1.7,5.2,4.6,7.3,9.2,9.2c13.1,5.3,26,11,39,16.8c3.1,1.4,4.7,1,6.2-2.1c7.6-15.1,17.3-28.8,28.2-41.6c2-2.3,1.9-3.7-0.3-5.8
	c-11.3-11.1-22.5-22.3-33.6-33.6c-2.5-2.5-5.1-1.8-7.9-1.8c-18.1,0.2-31.3-13-30.5-30.7c0.6-15.3,14-27.5,30-27.4
	c15.3,0.2,28.3,12.7,27.9,28c-0.2,6.3,1.7,10.5,6.2,14.7c10,9.4,19.5,19.2,29,28.9c2.3,2.4,3.8,2.6,6.5,0.3
	c14.2-12.2,29.7-22.6,46.5-30.8c3.8-1.9,4.1-3.9,2.6-7.4c-5.6-13.7-11.1-27.4-16.5-41.2c-1.2-3.1-3-4.6-6.1-5.7
	c-12.5-4.3-21-16.6-20.1-28.6c1.1-14.1,10.2-24.9,24-27.6c11.3-2.2,20.9,1.6,28,10.4c7.4,9.1,8.9,19.7,3.6,30.4
	c-2.2,4.4-2,7.8-0.2,12.1c5.5,13.2,10.6,26.6,15.8,39.9c1.1,2.9,2.4,4.1,5.9,3c16.4-4.9,33.1-8.6,50.3-9.3c2.6-0.1,3.4-1.4,3.4-3.8
	c0-16.2-0.1-32.3,0-48.5c0-2.3-1.3-3.6-2.9-4.9c-13.3-10.9-15-30.5-3.7-42.5c12-12.7,31.7-12.5,43.5,0.3
	c10.9,11.9,9.2,32.2-3.8,42.2c-2.3,1.8-3.1,3.5-3.1,6.3c0.1,15.3,0.1,30.7,0,46c0,3.2,0.6,4.8,4.3,5c18.9,1,37.2,5.1,55,11.1
	c3.6,1.2,5.2,0.7,6.6-3c5.8-14.2,11.9-28.2,18.1-42.2c1.2-2.7,0.5-4.7-0.6-7c-6.3-14.3-2.8-28.2,9.2-37.3c16.1-12.1,41-2.7,45.1,17
	c3.4,16.2-4.9,30.3-21,35.1c-2.7,0.8-3.8,2.1-4.8,4.4c-5.7,13.5-11.4,27-17.4,40.4c-1.9,4.3-2,6.7,2.9,9.3
	c14.5,7.6,27.9,16.9,40.2,27.7c2.2,1.9,3.5,1.7,5.4-0.3c11.3-11.4,22.6-22.7,34-33.9c2.3-2.3,1.7-4.9,1.6-7.4
	c-0.2-15.5,8.2-26.8,22.9-30.2c12.1-2.8,24.5,2.7,31.4,14.1c5.9,9.7,4.7,23.2-2.5,32.3c-6.3,8-14.4,11.7-24.4,11
	c-4.3-0.3-7.1,1.1-10,4.1c-10,10.3-20.1,20.4-30.4,30.4c-2.7,2.6-3.4,4.3-0.6,7.7c12.2,14.4,22.7,30,30.8,47.1
	c1.3,2.8,2.7,3.1,5.4,2c14.6-6,29.3-11.8,44-17.5c2.5-1,3.5-2.7,4.3-5c6.8-18.8,25.6-25.9,42.9-16.2c9.9,5.5,16.2,19.6,13.6,30.4
	c-3.4,14-13.8,22.9-26.9,23.4c-6,0.2-11.7-0.5-16.8-3.8c-1.9-1.2-3.6-1.2-5.6-0.4c-14.8,5.9-29.7,11.8-44.5,17.7
	c-2.5,1-3.1,2.5-2.3,5.1c5.1,16.6,8.4,33.5,9.6,50.8c0.2,2.7,1.5,3.4,3.9,3.4c16.2,0,32.3,0,48.5,0c2.1,0,3.3-1,4.5-2.6
	c8.4-10.6,21.6-14.3,34-9.5c12.4,4.8,19.4,16.8,18.2,31.2c-1,11.6-10.5,22-23.2,24.4c-11.1,2.2-20.7-1.2-28.1-10
	c-1.8-2.2-3.6-3.5-6.7-3.4c-15.5,0.1-31,0.1-46.5,0.1c-2.4,0-4.4-0.2-4.7,3.4c-1.4,18.8-5,37.2-11,55.1c-1.4,4-0.7,6,3.3,7.6
	c14.1,5.9,28.2,11.9,42.2,18.1c2.8,1.2,4.7,0.2,7-0.9c19.9-9.5,42.2,4.4,42.5,26.4c0.1,11.9-8.5,23.4-20.5,27.3
	c-16.1,5.2-32-3.4-37.1-20.1c-0.6-2.1-1.2-3.6-3.3-4.5c-15-6.4-30-12.9-44.9-19.4c-2.1-0.9-3.2-0.8-4.4,1.4
	c-8,15.2-17.6,29.4-28.7,42.5c-2.4,2.8-2,4.6,0.5,7.1c10.6,10.4,21.1,20.8,31.4,31.5c2.9,3,5.9,3.6,9.7,3.5
	c18.1-0.5,31.1,12.8,30.3,30.7c-0.7,15-14.2,27.5-29.7,27.3c-15.2-0.2-28.6-12.9-28.2-27.8c0.2-6.5-1.8-10.8-6.4-15.1
	c-10.1-9.5-19.7-19.4-29.4-29.3c-2-2-3.1-2.4-5.6-0.4c-13.8,11.3-28.4,21.4-44.3,29.7c-7.2,3.8-7,4.1-4,11.8
	c5.3,13.3,10.7,26.5,15.8,39.9c1.1,2.9,3.1,3.6,5.5,4.3c14,4.2,21.6,18.8,19.8,30.5c-2.6,16.4-14.3,26.6-29.5,26.4
	c-21.2-0.3-35.1-22.7-25.6-41.7c2-4,2-7.3,0.4-11.2c-5.6-13.7-11-27.5-16.6-41.2c-0.6-1.6-0.7-4.1-3.9-3.1
	c-16.6,5.1-33.5,8.6-50.8,9.8c-4.3,0.3-4.6,2.4-4.6,5.8C720.2,625.8,720.1,633.3,720.1,640.8z"/>
</svg>
