<?xml version="1.0" encoding="UTF-8" standalone="no"?>
<svg
   xmlns:dc="http://purl.org/dc/elements/1.1/"
   xmlns:cc="http://creativecommons.org/ns#"
   xmlns:rdf="http://www.w3.org/1999/02/22-rdf-syntax-ns#"
   xmlns:svg="http://www.w3.org/2000/svg"
   xmlns="http://www.w3.org/2000/svg"
   xmlns:sodipodi="http://sodipodi.sourceforge.net/DTD/sodipodi-0.dtd"
   xmlns:inkscape="http://www.inkscape.org/namespaces/inkscape"
   inkscape:version="1.0 (4035a4fb49, 2020-05-01)"
   sodipodi:docname="4x4.svg"
   id="svg208"
   style="fill-rule:evenodd;clip-rule:evenodd;stroke-linecap:round;stroke-linejoin:round;"
   xml:space="preserve"
   version="1.1"
   viewBox="0 0 60 26"
   height="100%"
   width="100%"><metadata
     id="metadata212"><rdf:RDF><cc:Work
         rdf:about=""><dc:format>image/svg+xml</dc:format><dc:type
           rdf:resource="http://purl.org/dc/dcmitype/StillImage" /></cc:Work></rdf:RDF></metadata><sodipodi:namedview
     inkscape:current-layer="g114"
     inkscape:window-maximized="1"
     inkscape:window-y="-8"
     inkscape:window-x="-8"
     inkscape:cy="7.9652739"
     inkscape:cx="26.427778"
     inkscape:zoom="22.333333"
     showgrid="false"
     id="namedview210"
     inkscape:window-height="1017"
     inkscape:window-width="1920"
     inkscape:pageshadow="2"
     inkscape:pageopacity="0"
     guidetolerance="10"
     gridtolerance="10"
     objecttolerance="10"
     borderopacity="1"
     bordercolor="#666666"
     pagecolor="#ffffff" /><g
     id="cat_4x4_suv_crossover"><g
       id="g61"><clipPath
         id="_clip1"><rect
           id="rect2"
           height="25.066"
           width="59.436"
           y="0.034"
           x="0.034" /></clipPath><g
         id="g59"
         clip-path="url(#_clip1)"><path
           id="path5"
           style="fill:url(#_Linear2);fill-rule:nonzero;"
           d="M36.708,1.934l4.018,7.4c0,0 1.099,-0.112 1.099,-0.141c-0.352,-0.817 -3.933,-6.949 -3.933,-6.949c-0.314,-0.281 -0.667,-0.339 -0.905,-0.339c-0.168,0 -0.279,0.029 -0.279,0.029Z" /><path
           id="path7"
           style="fill:#ffffff;stroke:#000;stroke-width:0.13px"
           d="M37.892,2.244c0,0 3.581,6.132 3.933,6.949c0,0.029 -1.099,0.141 -1.099,0.141l-4.018,-7.4c0,0 0.649,-0.169 1.184,0.31Z" /><path
           id="path9"
           style="fill:#333333;fill-rule:nonzero;stroke:#000;stroke-width:0.07px"
           d="M6.576,19.338c0,0 0.263,1.39 1.992,1.616l8.721,0.226c0,0 2.03,-0.602 3.082,-0.489c0,0 3.721,0.113 5.3,-0.413c0,0.037 10.488,0.188 10.488,0.188c0,0 1.654,0.564 3.646,-0.113c0.037,0 3.42,0.263 3.42,0.263c0,0 0.151,0.376 1.09,0.075c0.075,0.037 9.511,-1.09 9.511,-1.09c0,0 2.18,-0.526 1.879,-1.353c0,0.113 -1.203,-5.714 -1.203,-5.714l-12.254,-0.676l-35.785,0.488c0,0 -0.864,6.428 0.113,6.992Z" /><path
           id="path11"
           style="fill:#4786b3;fill-rule:nonzero;fill-opacity:1"
           d="M6.755,0.299c-0.837,0.056 -1.185,0.744 -1.185,0.733c-0.282,1.102 -1.635,7.499 -1.635,7.499c-0.098,0.141 -0.197,1.353 -0.169,1.353c-0.324,1.339 -0.099,2.594 -0.084,2.608c-0.015,0.634 0.028,2.016 0.028,2.016c0,0 -0.043,0.141 -0.043,0.155c-0.112,0.07 -0.14,0.169 -0.14,0.169l0.028,1.226c0.028,0.297 0.366,0.564 0.366,0.564l0.508,0.056c0,0 0,0.437 -0.014,0.494c-0.014,0.056 3.03,-0.029 3.03,-0.042c0.55,-1.382 1.732,-2.793 1.748,-2.82c0.55,-0.747 1.424,-0.676 1.41,-0.691c2.1,-0.027 3.918,0.029 3.932,0.043c1.161,0.014 1.41,0.366 1.41,0.366c0.399,0.325 1.015,1.156 1.015,1.156c0.578,0.606 3.242,5.3 3.242,5.244c0.398,-0.046 6.484,0.016 11.969,0.078c4.625,0.052 8.823,0.104 8.823,0.091c0.31,-0.014 0.563,-0.747 0.55,-0.761c0.408,0.014 0.478,-0.141 0.478,-0.156c1.509,-3.058 3.257,-5.44 3.243,-5.426c0.761,-0.747 1.564,-0.635 1.564,-0.662c1.692,-0.085 4.835,0.042 4.835,0.042c0.902,0.127 1.198,0.366 1.198,0.366c0.374,0.176 1.34,2.166 1.325,2.115c0.494,1.367 1.184,2.734 1.156,2.706c0.338,0.338 1.212,0.352 1.212,0.352c0,0 0.903,-2.015 0.874,-2.015c0.17,-0.24 0.592,-1.48 0.578,-1.48c0.366,0.042 0.226,-0.79 0.226,-0.79c0.366,-0.958 0.038,-2.57 0.038,-2.57c-0.038,-0.574 -1.02,-0.7 -1.025,-0.705c-0.136,-0.065 0,-0.061 0,-0.061c0.146,0.014 0.085,-0.047 0.099,-0.061c-0.31,-1.142 -2.279,-1.381 -2.298,-1.362c-1.353,-0.226 -12.996,-1.076 -12.996,-1.076l-1.044,0.112l-3.834,-6.991c0,0 0.762,0.14 0.776,0.112c-0.211,-1.536 -7.598,-2.044 -7.598,-2.044c-1.021,-0.105 -3.703,-0.142 -6.91,-0.142c-7.068,0 -16.686,0.179 -16.686,0.199Zm-1.185,0.733c0,0 0.001,0 0.001,0c-0.001,0 -0.001,0 -0.001,0Z" /><path
           id="path13"
           style="fill:none;stroke:#000;stroke-width:0.13px;"
           d="M3.935,8.531c0,0 1.354,-6.399 1.636,-7.499c-0.009,0.027 0.338,-0.677 1.184,-0.733c0,-0.029 20.326,-0.395 23.596,-0.056c0,0 7.386,0.507 7.598,2.043c-0.014,0.028 -0.776,-0.112 -0.776,-0.112l3.835,6.991l1.043,-0.112c0,0 11.643,0.85 12.996,1.076c0.019,-0.019 1.988,0.221 2.298,1.362c-0.014,0.014 0.047,0.075 -0.099,0.061c0,0 -0.136,-0.004 0,0.061c0.005,0.005 0.987,0.132 1.024,0.705c0,0 0.329,1.612 -0.037,2.57c0,0 0.14,0.832 -0.226,0.79c0.014,0 -0.408,1.241 -0.578,1.479c0.029,0 -0.874,2.016 -0.874,2.016c0,0 -0.874,-0.014 -1.212,-0.352c0.028,0.028 -0.662,-1.339 -1.156,-2.706c0.015,0.051 -0.951,-1.939 -1.325,-2.115c0,0 -0.296,-0.239 -1.198,-0.366c0,0 -3.143,-0.127 -4.835,-0.042c0,0.028 -0.803,-0.085 -1.564,0.662c0.014,-0.014 -1.734,2.368 -3.243,5.427c0,0.014 -0.07,0.169 -0.478,0.155c0.013,0.014 -0.24,0.747 -0.55,0.761c0,0.028 -20.059,-0.254 -20.792,-0.169c0,0.056 -2.664,-4.638 -3.242,-5.244c0,0 -0.616,-0.831 -1.015,-1.156c0,0 -0.249,-0.352 -1.41,-0.366c-0.014,-0.014 -1.832,-0.07 -3.932,-0.042c0.014,0.014 -0.86,-0.057 -1.41,0.69c-0.016,0.027 -1.198,1.438 -1.748,2.82c0,0.013 -3.044,0.098 -3.03,0.042c0.014,-0.056 0.014,-0.494 0.014,-0.494l-0.508,-0.056c0,0 -0.338,-0.268 -0.366,-0.564l-0.028,-1.226c0,0 0.028,-0.099 0.14,-0.169c0,-0.014 0.043,-0.156 0.043,-0.156c0,0 -0.043,-1.381 -0.028,-2.015c-0.015,-0.014 -0.24,-1.269 0.084,-2.608c-0.028,0 0.071,-1.212 0.169,-1.353Z" /><path
           id="path15"
           style="fill:#333333;fill-rule:nonzero"
           d="M58.078,16.693c-0.775,-0.198 -2.664,-0.029 -2.664,-0.029l-0.283,0.184c-0.068,0.496 0.86,2.165 0.888,2.198c-0.07,0.041 -0.617,-0.137 -0.642,-0.162c0.097,0.31 -0.006,0.656 -0.02,0.614c-0.07,-0.466 -1.001,-0.268 -1.001,-0.268l-0.169,0.564l1.198,0.253l1.48,-0.803l0.297,0.014l-1.763,0.931l-1.888,0.141l0.056,0.422l1.861,-0.112c0,0 2.622,-1.509 2.635,-1.523c0.269,-0.014 0.663,-0.296 0.663,-0.282c0.198,-0.479 0.55,-1.508 0.55,-1.508l0.127,-0.056l0,-1.621l-0.789,-0.029c0,0 -0.508,1.072 -0.536,1.072Zm-2.701,2.191c0,-0.001 -0.001,-0.001 -0.001,-0.002c0,0 0,0.001 0.001,0.002Z" /><clipPath
           id="_clip5"><rect
             id="rect17"
             height="25.066"
             width="59.436"
             y="0.034"
             x="0.034" /></clipPath><g
           id="g22"
           clip-path="url(#_clip5)"><path
             id="path20"
             style="fill:none;stroke:#000;stroke-width:0.13px;"
             d="M55.131,16.848l0.283,-0.183c0,0 1.888,-0.17 2.664,0.028c0.028,0 0.536,-1.072 0.536,-1.072l0.789,0.028l0,1.622l-0.127,0.056c0,0 -0.352,1.029 -0.549,1.508c0,-0.014 -0.396,0.267 -0.663,0.282c-0.014,0.014 -2.636,1.523 -2.636,1.523l-1.861,0.112l-0.056,-0.423l1.888,-0.14l1.763,-0.931l-0.296,-0.014l-1.48,0.803l-1.199,-0.253l0.169,-0.564c0,0 0.931,-0.198 1.001,0.268c0.014,0.042 0.118,-0.306 0.019,-0.616c-0.014,0.014 0.573,0.207 0.644,0.164c0.014,0.043 -0.959,-1.691 -0.889,-2.198Z" /></g><path
           id="path24"
           style="fill:#ffffff;fill-rule:nonzero"
           d="M29.036,3.362c0,0 0.075,4.474 0.112,4.474c0,0.921 0.771,0.921 0.771,0.921c0,0 8.138,0.074 8.138,0.037c1.09,-0.019 0.94,-0.714 0.94,-0.714c0,0 -2.575,-4.962 -2.594,-5.018c-0.207,-0.47 -0.808,-0.414 -0.808,-0.414l-5.77,-0.037c-0.809,0.038 -0.789,0.751 -0.789,0.751Z" /><path
           id="path26"
           style="fill:none;stroke:#000;stroke-width:0.13px;"
           d="M29.825,2.611l5.77,0.037c0,0 0.601,-0.056 0.808,0.414c0.019,0.056 2.594,5.018 2.594,5.018c0,0 0.15,0.695 -0.94,0.714c0,0.038 -8.138,-0.037 -8.138,-0.037c0,0 -0.771,0 -0.771,-0.921c-0.037,0 -0.112,-4.474 -0.112,-4.474c0,0 -0.019,-0.713 0.789,-0.751Z" /><path
           id="path28"
           style="fill:#333333;fill-rule:nonzero;fill-opacity:1"
           d="M18.36,3.269c0,0 -0.188,4.604 -0.207,4.567c0.057,0.789 0.752,0.826 0.752,0.826l7.067,0.076c0.676,0.019 0.714,-0.621 0.714,-0.621c0,0 0.188,-4.924 0.188,-4.961c-0.113,-0.545 -0.752,-0.564 -0.752,-0.564l-7.029,-0.038c-0.695,0.019 -0.733,0.715 -0.733,0.715Z" /><path
           id="path30"
           style="fill:none;stroke:#000;stroke-width:0.07px;"
           d="M19.093,2.554l7.029,0.038c0,0 0.64,0.019 0.752,0.564c0,0.037 -0.188,4.962 -0.188,4.962c0,0 -0.037,0.639 -0.714,0.62l-7.066,-0.075c0,0 -0.696,-0.038 -0.752,-0.827c0.018,0.037 0.206,-4.567 0.206,-4.567c0,0 0.038,-0.696 0.733,-0.715Z" /><path
           id="path32"
           style="fill:#333333;fill-rule:nonzero;fill-opacity:1"
           d="M6.877,3.005l-1.015,4.831c-0.057,0.939 0.789,0.921 0.789,0.921c0,0 8.195,0.093 8.213,0.075c0.921,-0.019 1.015,-0.865 1.015,-0.865c0,0 0.639,-4.661 0.639,-4.68c-0.15,-0.92 -0.996,-0.808 -0.996,-0.808l-7.875,-0.038c-0.023,-0.002 -0.045,-0.003 -0.067,-0.003c-0.48,0 -0.703,0.567 -0.703,0.567Z" /><g
           id="g45"><clipPath
             id="_clip9"><rect
               id="rect34"
               height="25.066"
               width="59.436"
               y="0.034"
               x="0.034" /></clipPath><g
             id="g43"
             clip-path="url(#_clip9)"><path
               id="path37"
               style="fill:none;stroke:#000;stroke-width:0.07px;"
               d="M7.647,2.441l7.875,0.038c0,0 0.846,-0.112 0.996,0.808c0,0.019 -0.639,4.68 -0.639,4.68c0,0 -0.094,0.846 -1.015,0.865c-0.018,0.018 -8.213,-0.075 -8.213,-0.075c0,0 -0.846,0.018 -0.789,-0.921l1.015,-4.831c0,0 0.244,-0.62 0.77,-0.564Z" /><path
               id="path39"
               style="fill-rule:nonzero;"
               d="M8.228,20.257c0,-2.625 2.128,-4.752 4.753,-4.752c2.624,0 4.753,2.127 4.753,4.752c0,2.625 -2.129,4.753 -4.753,4.753c-2.625,0 -4.753,-2.128 -4.753,-4.753" /><path
               id="path41"
               style="fill-rule:nonzero;"
               d="M44.173,20.115c0,-2.752 2.231,-4.983 4.984,-4.983c2.753,0 4.984,2.231 4.984,4.983c0,2.754 -2.231,4.985 -4.984,4.985c-2.753,0 -4.984,-2.231 -4.984,-4.985" /></g></g><path
           id="path47"
           style="fill:#ffffff;fill-rule:nonzero"
           d="M9.765,20.257c0,1.776 1.44,3.216 3.216,3.216c1.776,0 3.216,-1.44 3.216,-3.216c0,-1.776 -1.44,-3.216 -3.216,-3.216c-1.776,0 -3.216,1.44 -3.216,3.216Z" /><path
           id="path49"
           style="fill:none;stroke:#b9b9b9;stroke-width:0.07px;"
           d="M9.765,20.257c0,-1.776 1.44,-3.216 3.216,-3.216c1.776,0 3.216,1.44 3.216,3.216c0,1.776 -1.44,3.216 -3.216,3.216c-1.776,0 -3.216,-1.44 -3.216,-3.216Z" /><path
           id="path51"
           style="fill:#ffffff;fill-rule:nonzero"
           d="M45.784,20.116c0,1.863 1.51,3.372 3.373,3.372c1.863,0 3.373,-1.509 3.373,-3.372c0,-1.862 -1.51,-3.373 -3.373,-3.373c-1.863,0 -3.373,1.511 -3.373,3.373Z" /><path
           id="path53"
           style="fill:none;stroke:#b9b9b9;stroke-width:0.07px;"
           d="M45.784,20.116c0,-1.862 1.51,-3.373 3.374,-3.373c1.862,0 3.371,1.511 3.371,3.373c0,1.863 -1.509,3.372 -3.371,3.372c-1.864,0 -3.374,-1.509 -3.374,-3.372Z" /><path
           id="path55"
           style="fill:#333333;fill-rule:nonzero"
           d="M4.485,16.763c0,0 -0.648,-0.057 -0.648,0.099l-0.93,0.112c0,0 -0.466,-0.014 -0.297,0.55c0.014,0.029 0.395,1.466 0.931,1.536c0.028,0.015 1.846,0.127 2.016,0.325c0.014,0.042 0,0.381 0.549,0.211c-0.014,-0.014 0.324,-0.197 0.55,-0.07c0,0 0.23,-1.326 0.845,-2.58c0,0 -0.549,0.127 -0.817,-0.113c-0.028,0.015 -2.199,-0.169 -2.199,-0.169l0,0.099Z" /><path
           id="path57"
           style="fill:none;stroke:#000;stroke-width:0.13px;"
           d="M7.501,16.946c0,0 -0.549,0.127 -0.817,-0.112c-0.028,0.014 -2.199,-0.17 -2.199,-0.17l0,0.099c0,0 -0.648,-0.057 -0.648,0.099l-0.93,0.112c0,0 -0.466,-0.013 -0.297,0.55c0.014,0.029 0.395,1.466 0.931,1.536c0.028,0.015 1.846,0.128 2.015,0.325c0.014,0.042 0,0.38 0.55,0.211c-0.014,-0.014 0.324,-0.197 0.55,-0.07c0,0 0.23,-1.326 0.845,-2.58Z" /></g></g><path
       id="path63"
       style="fill:#333333;fill-rule:nonzero"
       d="M0.468,5.12l0,0.084c-0.827,4.869 0,9.698 0,9.698l0,0.113c0.958,0.226 2.988,0 2.988,0c0,0 0.545,-5.864 0,-9.895c-0.52,-0.053 -1.025,-0.071 -1.468,-0.071c-0.885,0 -1.52,0.071 -1.52,0.071Z" /><g
       id="g116"><clipPath
         id="_clip14"><rect
           id="rect65"
           height="25.066"
           width="59.436"
           y="0.034"
           x="0.034" /></clipPath><g
         id="g114"
         clip-path="url(#_clip14)"><path
           id="path68"
           style="fill:none;stroke:#000;stroke-width:0.13px;"
           d="M3.456,15.015c0,0 -2.03,0.225 -2.988,0l0,-0.113c0,0 -0.827,-4.83 0,-9.698l0,-0.084c0,0 1.428,-0.16 2.988,0c0.545,4.031 0,9.895 0,9.895Z" /><clipPath
           id="_clip15"><path
             id="path70"
             d="M4.639,12.315l51.531,0.551l0.006,-0.564l-51.531,-0.551l-0.006,0.564Z" /></clipPath><g
           id="g75"
           clip-path="url(#_clip15)"><path
             id="path73"
             style="fill:url(#_Linear16);fill-rule:nonzero;"
             d="M4.639,12.315l0.006,-0.564l51.531,0.551l-0.006,0.564l-51.531,-0.551Z" /></g><path
           id="path77"
           style="fill:#333333;stroke:#000;stroke-width:0.07px"
           d="M56.17,12.866l-51.531,-0.551l0.006,-0.564l51.531,0.551l-0.006,0.564Z" /><clipPath
           id="_clip17"><path
             id="path79"
             d="M57.19,12.365c0,0.056 -0.113,0.733 -0.113,1.832c0.028,0.113 -0.028,0.508 0.254,0.565c0.056,0.028 0.704,0.112 0.732,-0.226c0.029,0 0.085,-1.917 -0.168,-2.284c0,0 -0.172,-0.039 -0.347,-0.039c-0.158,0 -0.318,0.032 -0.358,0.152Z" /></clipPath><g
           style="fill:#ffffff"
           id="g84"
           clip-path="url(#_clip17)"><path
             id="path82"
             style="fill:#ffffff;fill-rule:nonzero"
             d="M57.047,14.863l0.029,-2.657l1.076,0.012l-0.028,2.657l-1.077,-0.012Z" /></g><path
           id="path86"
           style="fill:none;stroke:#000;stroke-width:0.07px;"
           d="M57.895,12.252c0,0 -0.621,-0.14 -0.705,0.113c0,0.056 -0.113,0.733 -0.113,1.832c0.028,0.113 -0.028,0.508 0.254,0.565c0.056,0.028 0.704,0.112 0.732,-0.226c0.029,0 0.085,-1.917 -0.168,-2.284Z" /><path
           id="path88"
           style="fill:#f46154;fill-rule:nonzero;stroke:#000;stroke-width:0.07px;"
           d="M3.689,11.244c0,0 0.162,-0.025 0.181,0.219c0.018,0 0,2.199 0,2.199c0,0 0.018,0.131 -0.188,0c-0.038,-0.019 -0.092,-1.959 0.007,-2.418Z" /><path
           id="path90"
           style="fill:url(#_Linear19);fill-rule:nonzero;"
           d="M5.439,0.9c0,0.01 1.268,0.668 1.268,0.668c0,0 0.282,0.206 0.997,0.197c0,0.009 29.028,0.244 29.028,0.244c0,0 0.977,0.123 1.24,0.358c0.019,0 0.132,-0.151 -0.056,-0.499c0.009,0 -0.752,-0.263 -0.884,-0.244c0.007,0.007 -0.014,0.001 -0.044,-0.006c-0.056,-0.011 -0.147,-0.023 -0.171,0.044c0.018,0.009 -0.029,0.056 -0.245,0.056c0.009,0 -28.831,-0.235 -28.831,-0.235c0,0 -0.347,0.047 -0.85,-0.122c0.023,0.018 -1.161,-0.573 -1.161,-0.573l-0.178,-0.104c0,0 -0.122,0.085 -0.113,0.216Z" /><path
           id="path92"
           style="fill:#333333;stroke:#000;stroke-width:0.07px"
           d="M5.73,0.788l-0.178,-0.104c0,0 -0.122,0.085 -0.113,0.216c0,0.01 1.269,0.668 1.269,0.668c0,0 0.281,0.206 0.996,0.197c0,0.009 29.028,0.244 29.028,0.244c0,0 0.977,0.123 1.24,0.358c0.019,0 0.132,-0.151 -0.056,-0.499c0.009,0 -0.752,-0.263 -0.883,-0.244c0.018,0.019 -0.179,-0.066 -0.216,0.038c0.018,0.009 -0.029,0.056 -0.245,0.056c0.009,0 -28.831,-0.235 -28.831,-0.235c0,0 -0.347,0.047 -0.85,-0.122c0.023,0.019 -1.161,-0.573 -1.161,-0.573Z" /><path
           id="path94"
           style="fill:none;stroke:#000;stroke-width:0.07px;"
           d="M28.349,1.821c0,0 -0.422,10.46 -0.197,13.053c0,0.028 0.254,3.073 0.254,3.073c0,0 0.028,0.31 0.282,0.31c0.028,0 11.248,0.112 11.248,0.112c0,0 0.339,0.086 0.395,-0.422c0.057,0.028 0.423,-7.724 0.367,-8.796" /><path
           id="path96"
           style="fill:none;stroke:#000;stroke-width:0.07px;"
           d="M44.193,14.395l-2.48,-4.257l0.197,-0.987" /><path
           id="path98"
           style="fill:none;stroke:#000;stroke-width:0.07px;"
           d="M57.19,11.548l-1.438,-0.056l-14.04,-1.354" /><path
           id="path100"
           style="fill:none;stroke:#000;stroke-width:0.07px;"
           d="M17.636,1.793c0,0 -0.704,6.625 -0.704,7.33c0,-0.056 -0.028,3.411 -0.028,3.411l3.439,5.357c0,0 0.127,0.289 0.479,0.31c0,0.056 6.09,0.056 6.09,0.056c0,0 0.239,0.056 0.31,-0.282c0.028,0 0.282,-3.157 0.282,-3.157l0.169,-12.997l-10.037,-0.028Z" /><path
           id="path102"
           style="fill:none;stroke:#000;stroke-width:0.07px;"
           d="M41.599,19.089c0,0 2.359,-4.281 2.773,-4.826c0,0.019 0.657,-1.334 2.086,-1.372c0,0.019 3.533,-0.019 5.939,0.169c0,0.019 1.071,-0.019 1.88,1.298c0,0.018 1.24,2.405 1.24,2.405" /><path
           id="path104"
           style="fill:none;stroke:#000;stroke-width:0.07px;"
           d="M6.651,16.819c0,0 1.241,-2.086 1.823,-2.781c0.019,0.018 0.696,-1.091 1.936,-1.203c0,0 2.368,-0.301 5.206,0.094c-0.019,0.037 0.639,0.018 1.522,1.071c0,0.019 3.268,4.905 3.268,4.905" /><path
           id="path106"
           style="fill:url(#_Linear20);fill-rule:nonzero;"
           d="M20.406,18.905l21.193,0.184l0.226,-0.409l-21.715,-0.233l0.296,0.458Z" /><path
           id="path108"
           style="fill:#333333;stroke:#000;stroke-width:0.07px"
           d="M20.11,18.447l21.715,0.233l-0.226,0.409l-21.193,-0.184l-0.296,-0.458Z" /><path
           id="path110"
           style="fill:#333333;fill-rule:nonzero"
           d="M38.132,7.15c-0.085,0.507 -0.179,1.55 -0.16,1.569c-0.028,0.216 0.799,0.31 0.799,0.31c0,0 0.019,0.132 0.01,0.122c-0.21,-0.014 -0.292,0.018 -0.324,0.05c-0.027,0.029 -0.014,0.058 -0.014,0.054c0,0.742 0.234,0.92 0.234,0.939c0.16,0.104 0.62,0.038 0.611,0.038c0.254,-0.141 0.319,-1.015 0.301,-1.015c-0.019,-0.066 -0.386,-0.066 -0.386,-0.066c0,0 -0.028,-0.103 -0.037,-0.112c0.244,0 0.319,-0.273 0.319,-0.273c0.179,-0.874 0.057,-1.457 0.048,-1.438c-0.057,-0.254 -0.424,-0.32 -0.424,-0.32l-0.686,-0.018c-0.015,-0.001 -0.03,-0.002 -0.044,-0.002c-0.247,0 -0.247,0.152 -0.247,0.162Z" /><path
           id="path112"
           style="fill:none;stroke:#000;stroke-width:0.07px;"
           d="M38.423,6.99l0.686,0.018c0,0 0.367,0.066 0.423,0.32c0.01,-0.018 0.132,0.564 -0.047,1.438c0,0 -0.075,0.272 -0.319,0.272c0.009,0.01 0.037,0.113 0.037,0.113c0,0 0.367,0 0.386,0.066c0.018,0 -0.047,0.874 -0.301,1.015c0.009,0 -0.451,0.066 -0.611,-0.038c0,-0.018 -0.235,-0.197 -0.235,-0.939c0,0.009 -0.056,-0.132 0.339,-0.104c0.009,0.01 -0.01,-0.122 -0.01,-0.122c0,0 -0.827,-0.094 -0.799,-0.31c-0.019,-0.019 0.075,-1.062 0.16,-1.569c0,-0.01 0,-0.179 0.291,-0.16Z" /></g></g></g><defs
     id="defs206"><linearGradient
       gradientTransform="matrix(0,7.42922,-7.42922,0,39.2668,1.90522)"
       gradientUnits="userSpaceOnUse"
       y2="0"
       x2="1"
       y1="0"
       x1="0"
       id="_Linear2"><stop
         id="stop119"
         style="stop-color:#f2f3ff;stop-opacity:1"
         offset="0%" /><stop
         id="stop121"
         style="stop-color:#edf4ff;stop-opacity:1"
         offset="100%" /></linearGradient><linearGradient
       gradientTransform="matrix(0,20.4991,-20.4991,0,30.9664,0.0999771)"
       gradientUnits="userSpaceOnUse"
       y2="0"
       x2="1"
       y1="0"
       x1="0"
       id="_Linear3"><stop
         id="stop124"
         style="stop-color:#3b6dad;stop-opacity:1"
         offset="0%" /><stop
         id="stop126"
         style="stop-color:#123b70;stop-opacity:1"
         offset="100%" /></linearGradient><linearGradient
       gradientTransform="matrix(5.8921,0,0,5.8921,53.5109,18.1867)"
       gradientUnits="userSpaceOnUse"
       y2="0"
       x2="1"
       y1="0"
       x1="0"
       id="_Linear4"><stop
         id="stop129"
         style="stop-color:#231f20;stop-opacity:1"
         offset="0%" /><stop
         id="stop131"
         style="stop-color:#3b3b3c;stop-opacity:1"
         offset="100%" /></linearGradient><linearGradient
       gradientTransform="matrix(0,6.19366,-6.19366,0,34.0198,2.6109)"
       gradientUnits="userSpaceOnUse"
       y2="0"
       x2="1"
       y1="0"
       x1="0"
       id="_Linear6"><stop
         id="stop134"
         style="stop-color:#f2f3ff;stop-opacity:1"
         offset="0%" /><stop
         id="stop136"
         style="stop-color:#edf4ff;stop-opacity:1"
         offset="100%" /></linearGradient><linearGradient
       gradientTransform="matrix(0,-6.18405,6.18405,0,22.5138,8.73827)"
       gradientUnits="userSpaceOnUse"
       y2="0"
       x2="1"
       y1="0"
       x1="0"
       id="_Linear7"><stop
         id="stop139"
         style="stop-color:#231f20;stop-opacity:1"
         offset="0%" /><stop
         id="stop141"
         style="stop-color:#3e3e3f;stop-opacity:1"
         offset="100%" /></linearGradient><linearGradient
       gradientTransform="matrix(0,-6.39659,6.39659,0,11.1886,8.83443)"
       gradientUnits="userSpaceOnUse"
       y2="0"
       x2="1"
       y1="0"
       x1="0"
       id="_Linear8"><stop
         id="stop144"
         style="stop-color:#231f20;stop-opacity:1"
         offset="0%" /><stop
         id="stop146"
         style="stop-color:#3e3e3f;stop-opacity:1"
         offset="100%" /></linearGradient><radialGradient
       gradientTransform="matrix(3.21589,0,0,3.21589,12.981,20.2571)"
       gradientUnits="userSpaceOnUse"
       r="1"
       cy="0"
       cx="0"
       id="_Radial10"><stop
         id="stop149"
         style="stop-color:#8a8c8e;stop-opacity:1"
         offset="0%" /><stop
         id="stop151"
         style="stop-color:#6b6c6f;stop-opacity:1"
         offset="84%" /><stop
         id="stop153"
         style="stop-color:#4d4d4f;stop-opacity:1"
         offset="96%" /><stop
         id="stop155"
         style="stop-color:#4d4d4f;stop-opacity:1"
         offset="100%" /></radialGradient><radialGradient
       gradientTransform="matrix(3.37257,0,0,3.37257,49.1568,20.1158)"
       gradientUnits="userSpaceOnUse"
       r="1"
       cy="0"
       cx="0"
       id="_Radial11"><stop
         id="stop158"
         style="stop-color:#8a8c8e;stop-opacity:1"
         offset="0%" /><stop
         id="stop160"
         style="stop-color:#6b6c6f;stop-opacity:1"
         offset="84%" /><stop
         id="stop162"
         style="stop-color:#4d4d4f;stop-opacity:1"
         offset="96%" /><stop
         id="stop164"
         style="stop-color:#4d4d4f;stop-opacity:1"
         offset="100%" /></radialGradient><linearGradient
       gradientTransform="matrix(-4.92807,-0,0,-4.92807,7.50151,18.1539)"
       gradientUnits="userSpaceOnUse"
       y2="0"
       x2="1"
       y1="0"
       x1="0"
       id="_Linear12"><stop
         id="stop167"
         style="stop-color:#231f20;stop-opacity:1"
         offset="0%" /><stop
         id="stop169"
         style="stop-color:#3b3b3c;stop-opacity:1"
         offset="100%" /></linearGradient><linearGradient
       gradientTransform="matrix(0,-10.0664,10.0664,0,1.89929,15.1153)"
       gradientUnits="userSpaceOnUse"
       y2="0"
       x2="1"
       y1="0"
       x1="0"
       id="_Linear13"><stop
         id="stop172"
         style="stop-color:#231f20;stop-opacity:1"
         offset="0%" /><stop
         id="stop174"
         style="stop-color:#292627;stop-opacity:1"
         offset="71%" /><stop
         id="stop176"
         style="stop-color:#595a5c;stop-opacity:1"
         offset="100%" /></linearGradient><linearGradient
       gradientTransform="matrix(0.00603573,-0.564029,0.564029,0.00603573,30.4046,12.5905)"
       gradientUnits="userSpaceOnUse"
       y2="0"
       x2="1"
       y1="0"
       x1="0"
       id="_Linear16"><stop
         id="stop179"
         style="stop-color:#231f20;stop-opacity:1"
         offset="0%" /><stop
         id="stop181"
         style="stop-color:#3b3b3c;stop-opacity:1"
         offset="100%" /></linearGradient><linearGradient
       gradientTransform="matrix(0.0275861,-2.5779,2.5779,0.0275861,57.5751,14.7917)"
       gradientUnits="userSpaceOnUse"
       y2="0"
       x2="1"
       y1="0"
       x1="0"
       id="_Linear18"><stop
         id="stop184"
         style="stop-color:#f2f3ff;stop-opacity:1"
         offset="0%" /><stop
         id="stop186"
         style="stop-color:#edf4ff;stop-opacity:1"
         offset="100%" /></linearGradient><linearGradient
       gradientTransform="matrix(0,-1.68233,1.68233,0,21.7307,2.36659)"
       gradientUnits="userSpaceOnUse"
       y2="0"
       x2="1"
       y1="0"
       x1="0"
       id="_Linear19"><stop
         id="stop189"
         style="stop-color:#231f20;stop-opacity:1"
         offset="0%" /><stop
         id="stop191"
         style="stop-color:#595a5c;stop-opacity:1"
         offset="100%" /></linearGradient><linearGradient
       gradientTransform="matrix(0,-0.641761,0.641761,0,30.9678,19.0891)"
       gradientUnits="userSpaceOnUse"
       y2="0"
       x2="1"
       y1="0"
       x1="0"
       id="_Linear20"><stop
         id="stop194"
         style="stop-color:#231f20;stop-opacity:1"
         offset="0%" /><stop
         id="stop196"
         style="stop-color:#393839;stop-opacity:1"
         offset="100%" /></linearGradient><linearGradient
       gradientTransform="matrix(0,3.26413,-3.26413,0,38.7806,6.98848)"
       gradientUnits="userSpaceOnUse"
       y2="0"
       x2="1"
       y1="0"
       x1="0"
       id="_Linear21"><stop
         id="stop199"
         style="stop-color:#8f9194;stop-opacity:1"
         offset="0%" /><stop
         id="stop201"
         style="stop-color:#2d2a2b;stop-opacity:1"
         offset="43%" /><stop
         id="stop203"
         style="stop-color:#231f20;stop-opacity:1"
         offset="100%" /></linearGradient></defs></svg>
