<?xml version="1.0" encoding="UTF-8" standalone="no"?>
<svg
   xmlns:dc="http://purl.org/dc/elements/1.1/"
   xmlns:cc="http://creativecommons.org/ns#"
   xmlns:rdf="http://www.w3.org/1999/02/22-rdf-syntax-ns#"
   xmlns:svg="http://www.w3.org/2000/svg"
   xmlns="http://www.w3.org/2000/svg"
   xmlns:sodipodi="http://sodipodi.sourceforge.net/DTD/sodipodi-0.dtd"
   xmlns:inkscape="http://www.inkscape.org/namespaces/inkscape"
   inkscape:version="1.0 (4035a4fb49, 2020-05-01)"
   sodipodi:docname="4x4.svg"
   id="svg208"
   style="clip-rule:evenodd;fill-rule:evenodd;stroke-linecap:round;stroke-linejoin:round"
   xml:space="preserve"
   version="1.1"
   viewBox="0 0 355.66574 150"
   height="150"
   width="355.66574"><metadata
     id="metadata212"><rdf:RDF><cc:Work
         rdf:about=""><dc:format>image/svg+xml</dc:format><dc:type
           rdf:resource="http://purl.org/dc/dcmitype/StillImage" /><dc:title></dc:title></cc:Work></rdf:RDF></metadata><sodipodi:namedview
     fit-margin-bottom="0"
     fit-margin-right="0"
     fit-margin-left="0"
     fit-margin-top="0"
     inkscape:current-layer="cat_4x4_suv_crossover"
     inkscape:window-maximized="1"
     inkscape:window-y="-8"
     inkscape:window-x="-8"
     inkscape:cy="79.270755"
     inkscape:cx="193.95949"
     inkscape:zoom="1.9740064"
     showgrid="false"
     id="namedview210"
     inkscape:window-height="1017"
     inkscape:window-width="1920"
     inkscape:pageshadow="2"
     inkscape:pageopacity="0"
     guidetolerance="10"
     gridtolerance="10"
     objecttolerance="10"
     borderopacity="1"
     bordercolor="#666666"
     pagecolor="#ffffff"
     inkscape:document-rotation="0" /><g
     transform="translate(-0.03530557,-0.03459962)"
     id="cat_4x4_suv_crossover"><g
       transform="matrix(5.9843449,0,0,5.9843449,-0.17597515,-0.17245645)"
       id="g964"><g
         id="g61"><clipPath
           id="_clip1"><rect
             x="0.034000002"
             y="0.034000002"
             width="59.436001"
             height="25.066"
             id="rect2" /></clipPath><g
           clip-path="url(#_clip1)"
           id="g59"><path
             d="m 36.708,1.934 4.018,7.4 c 0,0 1.099,-0.112 1.099,-0.141 C 41.473,8.376 37.892,2.244 37.892,2.244 37.578,1.963 37.225,1.905 36.987,1.905 c -0.168,0 -0.279,0.029 -0.279,0.029 z"
             style="fill:url(#_Linear2);fill-rule:nonzero"
             id="path5" /><path
             d="m 37.892,2.244 c 0,0 3.581,6.132 3.933,6.949 0,0.029 -1.099,0.141 -1.099,0.141 l -4.018,-7.4 c 0,0 0.649,-0.169 1.184,0.31 z"
             style="fill:#ffffff;stroke:#000000;stroke-width:0.13px"
             id="path7" /><path
             d="m 6.576,19.338 c 0,0 0.263,1.39 1.992,1.616 l 8.721,0.226 c 0,0 2.03,-0.602 3.082,-0.489 0,0 3.721,0.113 5.3,-0.413 0,0.037 10.488,0.188 10.488,0.188 0,0 1.654,0.564 3.646,-0.113 0.037,0 3.42,0.263 3.42,0.263 0,0 0.151,0.376 1.09,0.075 0.075,0.037 9.511,-1.09 9.511,-1.09 0,0 2.18,-0.526 1.879,-1.353 0,0.113 -1.203,-5.714 -1.203,-5.714 L 42.248,11.858 6.463,12.346 c 0,0 -0.864,6.428 0.113,6.992 z"
             style="fill:#333333;fill-rule:nonzero;stroke:#000000;stroke-width:0.07px"
             id="path9" /><path
             d="M 6.755,0.299 C 5.918,0.355 5.57,1.043 5.57,1.032 5.288,2.134 3.935,8.531 3.935,8.531 3.837,8.672 3.738,9.884 3.766,9.884 c -0.324,1.339 -0.099,2.594 -0.084,2.608 -0.015,0.634 0.028,2.016 0.028,2.016 0,0 -0.043,0.141 -0.043,0.155 -0.112,0.07 -0.14,0.169 -0.14,0.169 l 0.028,1.226 c 0.028,0.297 0.366,0.564 0.366,0.564 l 0.508,0.056 c 0,0 0,0.437 -0.014,0.494 -0.014,0.056 3.03,-0.029 3.03,-0.042 0.55,-1.382 1.732,-2.793 1.748,-2.82 0.55,-0.747 1.424,-0.676 1.41,-0.691 2.1,-0.027 3.918,0.029 3.932,0.043 1.161,0.014 1.41,0.366 1.41,0.366 0.399,0.325 1.015,1.156 1.015,1.156 0.578,0.606 3.242,5.3 3.242,5.244 0.398,-0.046 6.484,0.016 11.969,0.078 4.625,0.052 8.823,0.104 8.823,0.091 0.31,-0.014 0.563,-0.747 0.55,-0.761 0.408,0.014 0.478,-0.141 0.478,-0.156 1.509,-3.058 3.257,-5.44 3.243,-5.426 0.761,-0.747 1.564,-0.635 1.564,-0.662 1.692,-0.085 4.835,0.042 4.835,0.042 0.902,0.127 1.198,0.366 1.198,0.366 0.374,0.176 1.34,2.166 1.325,2.115 0.494,1.367 1.184,2.734 1.156,2.706 0.338,0.338 1.212,0.352 1.212,0.352 0,0 0.903,-2.015 0.874,-2.015 0.17,-0.24 0.592,-1.48 0.578,-1.48 0.366,0.042 0.226,-0.79 0.226,-0.79 0.366,-0.958 0.038,-2.57 0.038,-2.57 -0.038,-0.574 -1.02,-0.7 -1.025,-0.705 -0.136,-0.065 0,-0.061 0,-0.061 0.146,0.014 0.085,-0.047 0.099,-0.061 C 57.035,10.349 55.066,10.11 55.047,10.129 53.694,9.903 42.051,9.053 42.051,9.053 L 41.007,9.165 37.173,2.174 c 0,0 0.762,0.14 0.776,0.112 C 37.738,0.75 30.351,0.242 30.351,0.242 29.33,0.137 26.648,0.1 23.441,0.1 16.373,0.1 6.755,0.279 6.755,0.299 Z M 5.57,1.032 c 0,0 10e-4,0 10e-4,0 -10e-4,0 -10e-4,0 -10e-4,0 z"
             style="fill:#4786b3;fill-opacity:1;fill-rule:nonzero"
             id="path11" /><path
             d="m 3.935,8.531 c 0,0 1.354,-6.399 1.636,-7.499 -0.009,0.027 0.338,-0.677 1.184,-0.733 0,-0.029 20.326,-0.395 23.596,-0.056 0,0 7.386,0.507 7.598,2.043 -0.014,0.028 -0.776,-0.112 -0.776,-0.112 l 3.835,6.991 1.043,-0.112 c 0,0 11.643,0.85 12.996,1.076 0.019,-0.019 1.988,0.221 2.298,1.362 -0.014,0.014 0.047,0.075 -0.099,0.061 0,0 -0.136,-0.004 0,0.061 0.005,0.005 0.987,0.132 1.024,0.705 0,0 0.329,1.612 -0.037,2.57 0,0 0.14,0.832 -0.226,0.79 0.014,0 -0.408,1.241 -0.578,1.479 0.029,0 -0.874,2.016 -0.874,2.016 0,0 -0.874,-0.014 -1.212,-0.352 0.028,0.028 -0.662,-1.339 -1.156,-2.706 0.015,0.051 -0.951,-1.939 -1.325,-2.115 0,0 -0.296,-0.239 -1.198,-0.366 0,0 -3.143,-0.127 -4.835,-0.042 0,0.028 -0.803,-0.085 -1.564,0.662 0.014,-0.014 -1.734,2.368 -3.243,5.427 0,0.014 -0.07,0.169 -0.478,0.155 0.013,0.014 -0.24,0.747 -0.55,0.761 0,0.028 -20.059,-0.254 -20.792,-0.169 0,0.056 -2.664,-4.638 -3.242,-5.244 0,0 -0.616,-0.831 -1.015,-1.156 0,0 -0.249,-0.352 -1.41,-0.366 -0.014,-0.014 -1.832,-0.07 -3.932,-0.042 0.014,0.014 -0.86,-0.057 -1.41,0.69 -0.016,0.027 -1.198,1.438 -1.748,2.82 0,0.013 -3.044,0.098 -3.03,0.042 0.014,-0.056 0.014,-0.494 0.014,-0.494 L 3.921,16.622 c 0,0 -0.338,-0.268 -0.366,-0.564 L 3.527,14.832 c 0,0 0.028,-0.099 0.14,-0.169 0,-0.014 0.043,-0.156 0.043,-0.156 0,0 -0.043,-1.381 -0.028,-2.015 -0.015,-0.014 -0.24,-1.269 0.084,-2.608 -0.028,0 0.071,-1.212 0.169,-1.353 z"
             style="fill:none;stroke:#000000;stroke-width:0.13px"
             id="path13" /><path
             d="m 58.078,16.693 c -0.775,-0.198 -2.664,-0.029 -2.664,-0.029 l -0.283,0.184 c -0.068,0.496 0.86,2.165 0.888,2.198 -0.07,0.041 -0.617,-0.137 -0.642,-0.162 0.097,0.31 -0.006,0.656 -0.02,0.614 -0.07,-0.466 -1.001,-0.268 -1.001,-0.268 l -0.169,0.564 1.198,0.253 1.48,-0.803 0.297,0.014 -1.763,0.931 -1.888,0.141 0.056,0.422 1.861,-0.112 c 0,0 2.622,-1.509 2.635,-1.523 0.269,-0.014 0.663,-0.296 0.663,-0.282 0.198,-0.479 0.55,-1.508 0.55,-1.508 l 0.127,-0.056 V 15.65 l -0.789,-0.029 c 0,0 -0.508,1.072 -0.536,1.072 z m -2.701,2.191 c 0,-0.001 -0.001,-0.001 -0.001,-0.002 0,0 0,10e-4 0.001,0.002 z"
             style="fill:#333333;fill-rule:nonzero"
             id="path15" /><clipPath
             id="_clip5"><rect
               x="0.034000002"
               y="0.034000002"
               width="59.436001"
               height="25.066"
               id="rect17" /></clipPath><g
             clip-path="url(#_clip5)"
             id="g22"><path
               d="m 55.131,16.848 0.283,-0.183 c 0,0 1.888,-0.17 2.664,0.028 0.028,0 0.536,-1.072 0.536,-1.072 l 0.789,0.028 v 1.622 l -0.127,0.056 c 0,0 -0.352,1.029 -0.549,1.508 0,-0.014 -0.396,0.267 -0.663,0.282 -0.014,0.014 -2.636,1.523 -2.636,1.523 l -1.861,0.112 -0.056,-0.423 1.888,-0.14 1.763,-0.931 -0.296,-0.014 -1.48,0.803 -1.199,-0.253 0.169,-0.564 c 0,0 0.931,-0.198 1.001,0.268 0.014,0.042 0.118,-0.306 0.019,-0.616 -0.014,0.014 0.573,0.207 0.644,0.164 0.014,0.043 -0.959,-1.691 -0.889,-2.198 z"
               style="fill:none;stroke:#000000;stroke-width:0.13px"
               id="path20" /></g><path
             d="m 29.036,3.362 c 0,0 0.075,4.474 0.112,4.474 0,0.921 0.771,0.921 0.771,0.921 0,0 8.138,0.074 8.138,0.037 1.09,-0.019 0.94,-0.714 0.94,-0.714 0,0 -2.575,-4.962 -2.594,-5.018 -0.207,-0.47 -0.808,-0.414 -0.808,-0.414 l -5.77,-0.037 c -0.809,0.038 -0.789,0.751 -0.789,0.751 z"
             style="fill:#ffffff;fill-rule:nonzero"
             id="path24" /><path
             d="m 29.825,2.611 5.77,0.037 c 0,0 0.601,-0.056 0.808,0.414 0.019,0.056 2.594,5.018 2.594,5.018 0,0 0.15,0.695 -0.94,0.714 0,0.038 -8.138,-0.037 -8.138,-0.037 0,0 -0.771,0 -0.771,-0.921 -0.037,0 -0.112,-4.474 -0.112,-4.474 0,0 -0.019,-0.713 0.789,-0.751 z"
             style="fill:none;stroke:#000000;stroke-width:0.13px"
             id="path26" /><path
             d="m 18.36,3.269 c 0,0 -0.188,4.604 -0.207,4.567 0.057,0.789 0.752,0.826 0.752,0.826 l 7.067,0.076 c 0.676,0.019 0.714,-0.621 0.714,-0.621 0,0 0.188,-4.924 0.188,-4.961 C 26.761,2.611 26.122,2.592 26.122,2.592 L 19.093,2.554 C 18.398,2.573 18.36,3.269 18.36,3.269 Z"
             style="fill:#333333;fill-opacity:1;fill-rule:nonzero"
             id="path28" /><path
             d="m 19.093,2.554 7.029,0.038 c 0,0 0.64,0.019 0.752,0.564 0,0.037 -0.188,4.962 -0.188,4.962 0,0 -0.037,0.639 -0.714,0.62 L 18.906,8.663 c 0,0 -0.696,-0.038 -0.752,-0.827 0.018,0.037 0.206,-4.567 0.206,-4.567 0,0 0.038,-0.696 0.733,-0.715 z"
             style="fill:none;stroke:#000000;stroke-width:0.07px"
             id="path30" /><path
             d="M 6.877,3.005 5.862,7.836 c -0.057,0.939 0.789,0.921 0.789,0.921 0,0 8.195,0.093 8.213,0.075 0.921,-0.019 1.015,-0.865 1.015,-0.865 0,0 0.639,-4.661 0.639,-4.68 -0.15,-0.92 -0.996,-0.808 -0.996,-0.808 L 7.647,2.441 C 7.624,2.439 7.602,2.438 7.58,2.438 7.1,2.438 6.877,3.005 6.877,3.005 Z"
             style="fill:#333333;fill-opacity:1;fill-rule:nonzero"
             id="path32" /><g
             id="g45"><clipPath
               id="_clip9"><rect
                 x="0.034000002"
                 y="0.034000002"
                 width="59.436001"
                 height="25.066"
                 id="rect34" /></clipPath><g
               clip-path="url(#_clip9)"
               id="g43"><path
                 d="m 7.647,2.441 7.875,0.038 c 0,0 0.846,-0.112 0.996,0.808 0,0.019 -0.639,4.68 -0.639,4.68 0,0 -0.094,0.846 -1.015,0.865 C 14.846,8.85 6.651,8.757 6.651,8.757 c 0,0 -0.846,0.018 -0.789,-0.921 L 6.877,3.005 c 0,0 0.244,-0.62 0.77,-0.564 z"
                 style="fill:none;stroke:#000000;stroke-width:0.07px"
                 id="path37" /><path
                 d="m 8.228,20.257 c 0,-2.625 2.128,-4.752 4.753,-4.752 2.624,0 4.753,2.127 4.753,4.752 0,2.625 -2.129,4.753 -4.753,4.753 -2.625,0 -4.753,-2.128 -4.753,-4.753"
                 style="fill-rule:nonzero"
                 id="path39" /><path
                 d="m 44.173,20.115 c 0,-2.752 2.231,-4.983 4.984,-4.983 2.753,0 4.984,2.231 4.984,4.983 0,2.754 -2.231,4.985 -4.984,4.985 -2.753,0 -4.984,-2.231 -4.984,-4.985"
                 style="fill-rule:nonzero"
                 id="path41" /></g></g><path
             d="m 9.765,20.257 c 0,1.776 1.44,3.216 3.216,3.216 1.776,0 3.216,-1.44 3.216,-3.216 0,-1.776 -1.44,-3.216 -3.216,-3.216 -1.776,0 -3.216,1.44 -3.216,3.216 z"
             style="fill:#ffffff;fill-rule:nonzero"
             id="path47" /><path
             d="m 9.765,20.257 c 0,-1.776 1.44,-3.216 3.216,-3.216 1.776,0 3.216,1.44 3.216,3.216 0,1.776 -1.44,3.216 -3.216,3.216 -1.776,0 -3.216,-1.44 -3.216,-3.216 z"
             style="fill:none;stroke:#b9b9b9;stroke-width:0.07px"
             id="path49" /><path
             d="m 45.784,20.116 c 0,1.863 1.51,3.372 3.373,3.372 1.863,0 3.373,-1.509 3.373,-3.372 0,-1.862 -1.51,-3.373 -3.373,-3.373 -1.863,0 -3.373,1.511 -3.373,3.373 z"
             style="fill:#ffffff;fill-rule:nonzero"
             id="path51" /><path
             d="m 45.784,20.116 c 0,-1.862 1.51,-3.373 3.374,-3.373 1.862,0 3.371,1.511 3.371,3.373 0,1.863 -1.509,3.372 -3.371,3.372 -1.864,0 -3.374,-1.509 -3.374,-3.372 z"
             style="fill:none;stroke:#b9b9b9;stroke-width:0.07px"
             id="path53" /><path
             d="m 4.485,16.763 c 0,0 -0.648,-0.057 -0.648,0.099 l -0.93,0.112 c 0,0 -0.466,-0.014 -0.297,0.55 0.014,0.029 0.395,1.466 0.931,1.536 0.028,0.015 1.846,0.127 2.016,0.325 0.014,0.042 0,0.381 0.549,0.211 -0.014,-0.014 0.324,-0.197 0.55,-0.07 0,0 0.23,-1.326 0.845,-2.58 0,0 -0.549,0.127 -0.817,-0.113 -0.028,0.015 -2.199,-0.169 -2.199,-0.169 z"
             style="fill:#333333;fill-rule:nonzero"
             id="path55" /><path
             d="m 7.501,16.946 c 0,0 -0.549,0.127 -0.817,-0.112 -0.028,0.014 -2.199,-0.17 -2.199,-0.17 v 0.099 c 0,0 -0.648,-0.057 -0.648,0.099 l -0.93,0.112 c 0,0 -0.466,-0.013 -0.297,0.55 0.014,0.029 0.395,1.466 0.931,1.536 0.028,0.015 1.846,0.128 2.015,0.325 0.014,0.042 0,0.38 0.55,0.211 -0.014,-0.014 0.324,-0.197 0.55,-0.07 0,0 0.23,-1.326 0.845,-2.58 z"
             style="fill:none;stroke:#000000;stroke-width:0.13px"
             id="path57" /></g></g><path
         d="m 0.468,5.12 v 0.084 c -0.827,4.869 0,9.698 0,9.698 v 0.113 c 0.958,0.226 2.988,0 2.988,0 0,0 0.545,-5.864 0,-9.895 C 2.936,5.067 2.431,5.049 1.988,5.049 1.103,5.049 0.468,5.12 0.468,5.12 Z"
         style="fill:#333333;fill-rule:nonzero"
         id="path63" /><g
         id="g116"><clipPath
           id="_clip14"><rect
             x="0.034000002"
             y="0.034000002"
             width="59.436001"
             height="25.066"
             id="rect65" /></clipPath><g
           clip-path="url(#_clip14)"
           id="g114"><path
             d="m 3.456,15.015 c 0,0 -2.03,0.225 -2.988,0 v -0.113 c 0,0 -0.827,-4.83 0,-9.698 V 5.12 c 0,0 1.428,-0.16 2.988,0 0.545,4.031 0,9.895 0,9.895 z"
             style="fill:none;stroke:#000000;stroke-width:0.13px"
             id="path68" /><clipPath
             id="_clip15"><path
               d="M 4.639,12.315 56.17,12.866 56.176,12.302 4.645,11.751 Z"
               id="path70" /></clipPath><g
             clip-path="url(#_clip15)"
             id="g75"><path
               d="m 4.639,12.315 0.006,-0.564 51.531,0.551 -0.006,0.564 z"
               style="fill:url(#_Linear16);fill-rule:nonzero"
               id="path73" /></g><path
             d="M 56.17,12.866 4.639,12.315 4.645,11.751 56.176,12.302 Z"
             style="fill:#333333;stroke:#000000;stroke-width:0.07px"
             id="path77" /><clipPath
             id="_clip17"><path
               d="m 57.19,12.365 c 0,0.056 -0.113,0.733 -0.113,1.832 0.028,0.113 -0.028,0.508 0.254,0.565 0.056,0.028 0.704,0.112 0.732,-0.226 0.029,0 0.085,-1.917 -0.168,-2.284 0,0 -0.172,-0.039 -0.347,-0.039 -0.158,0 -0.318,0.032 -0.358,0.152 z"
               id="path79" /></clipPath><g
             clip-path="url(#_clip17)"
             id="g84"
             style="fill:#ffffff"><path
               d="m 57.047,14.863 0.029,-2.657 1.076,0.012 -0.028,2.657 z"
               style="fill:#ffffff;fill-rule:nonzero"
               id="path82" /></g><path
             d="m 57.895,12.252 c 0,0 -0.621,-0.14 -0.705,0.113 0,0.056 -0.113,0.733 -0.113,1.832 0.028,0.113 -0.028,0.508 0.254,0.565 0.056,0.028 0.704,0.112 0.732,-0.226 0.029,0 0.085,-1.917 -0.168,-2.284 z"
             style="fill:none;stroke:#000000;stroke-width:0.07px"
             id="path86" /><path
             d="m 3.689,11.244 c 0,0 0.162,-0.025 0.181,0.219 0.018,0 0,2.199 0,2.199 0,0 0.018,0.131 -0.188,0 C 3.644,13.643 3.59,11.703 3.689,11.244 Z"
             style="fill:#f46154;fill-rule:nonzero;stroke:#000000;stroke-width:0.07px"
             id="path88" /><path
             d="m 5.439,0.9 c 0,0.01 1.268,0.668 1.268,0.668 0,0 0.282,0.206 0.997,0.197 0,0.009 29.028,0.244 29.028,0.244 0,0 0.977,0.123 1.24,0.358 0.019,0 0.132,-0.151 -0.056,-0.499 0.009,0 -0.752,-0.263 -0.884,-0.244 0.007,0.007 -0.014,10e-4 -0.044,-0.006 -0.056,-0.011 -0.147,-0.023 -0.171,0.044 0.018,0.009 -0.029,0.056 -0.245,0.056 0.009,0 -28.831,-0.235 -28.831,-0.235 0,0 -0.347,0.047 -0.85,-0.122 C 6.914,1.379 5.73,0.788 5.73,0.788 L 5.552,0.684 c 0,0 -0.122,0.085 -0.113,0.216 z"
             style="fill:url(#_Linear19);fill-rule:nonzero"
             id="path90" /><path
             d="M 5.73,0.788 5.552,0.684 c 0,0 -0.122,0.085 -0.113,0.216 0,0.01 1.269,0.668 1.269,0.668 0,0 0.281,0.206 0.996,0.197 0,0.009 29.028,0.244 29.028,0.244 0,0 0.977,0.123 1.24,0.358 0.019,0 0.132,-0.151 -0.056,-0.499 0.009,0 -0.752,-0.263 -0.883,-0.244 0.018,0.019 -0.179,-0.066 -0.216,0.038 0.018,0.009 -0.029,0.056 -0.245,0.056 0.009,0 -28.831,-0.235 -28.831,-0.235 0,0 -0.347,0.047 -0.85,-0.122 C 6.914,1.38 5.73,0.788 5.73,0.788 Z"
             style="fill:#333333;stroke:#000000;stroke-width:0.07px"
             id="path92" /><path
             d="m 28.349,1.821 c 0,0 -0.422,10.46 -0.197,13.053 0,0.028 0.254,3.073 0.254,3.073 0,0 0.028,0.31 0.282,0.31 0.028,0 11.248,0.112 11.248,0.112 0,0 0.339,0.086 0.395,-0.422 0.057,0.028 0.423,-7.724 0.367,-8.796"
             style="fill:none;stroke:#000000;stroke-width:0.07px"
             id="path94" /><path
             d="M 44.193,14.395 41.713,10.138 41.91,9.151"
             style="fill:none;stroke:#000000;stroke-width:0.07px"
             id="path96" /><path
             d="M 57.19,11.548 55.752,11.492 41.712,10.138"
             style="fill:none;stroke:#000000;stroke-width:0.07px"
             id="path98" /><path
             d="m 17.636,1.793 c 0,0 -0.704,6.625 -0.704,7.33 0,-0.056 -0.028,3.411 -0.028,3.411 l 3.439,5.357 c 0,0 0.127,0.289 0.479,0.31 0,0.056 6.09,0.056 6.09,0.056 0,0 0.239,0.056 0.31,-0.282 0.028,0 0.282,-3.157 0.282,-3.157 L 27.673,1.821 Z"
             style="fill:none;stroke:#000000;stroke-width:0.07px"
             id="path100" /><path
             d="m 41.599,19.089 c 0,0 2.359,-4.281 2.773,-4.826 0,0.019 0.657,-1.334 2.086,-1.372 0,0.019 3.533,-0.019 5.939,0.169 0,0.019 1.071,-0.019 1.88,1.298 0,0.018 1.24,2.405 1.24,2.405"
             style="fill:none;stroke:#000000;stroke-width:0.07px"
             id="path102" /><path
             d="m 6.651,16.819 c 0,0 1.241,-2.086 1.823,-2.781 0.019,0.018 0.696,-1.091 1.936,-1.203 0,0 2.368,-0.301 5.206,0.094 -0.019,0.037 0.639,0.018 1.522,1.071 0,0.019 3.268,4.905 3.268,4.905"
             style="fill:none;stroke:#000000;stroke-width:0.07px"
             id="path104" /><path
             d="M 20.406,18.905 41.599,19.089 41.825,18.68 20.11,18.447 Z"
             style="fill:url(#_Linear20);fill-rule:nonzero"
             id="path106" /><path
             d="M 20.11,18.447 41.825,18.68 41.599,19.089 20.406,18.905 Z"
             style="fill:#333333;stroke:#000000;stroke-width:0.07px"
             id="path108" /><path
             d="m 38.132,7.15 c -0.085,0.507 -0.179,1.55 -0.16,1.569 -0.028,0.216 0.799,0.31 0.799,0.31 0,0 0.019,0.132 0.01,0.122 -0.21,-0.014 -0.292,0.018 -0.324,0.05 -0.027,0.029 -0.014,0.058 -0.014,0.054 0,0.742 0.234,0.92 0.234,0.939 0.16,0.104 0.62,0.038 0.611,0.038 0.254,-0.141 0.319,-1.015 0.301,-1.015 -0.019,-0.066 -0.386,-0.066 -0.386,-0.066 0,0 -0.028,-0.103 -0.037,-0.112 0.244,0 0.319,-0.273 0.319,-0.273 0.179,-0.874 0.057,-1.457 0.048,-1.438 -0.057,-0.254 -0.424,-0.32 -0.424,-0.32 L 38.423,6.99 c -0.015,-0.001 -0.03,-0.002 -0.044,-0.002 -0.247,0 -0.247,0.152 -0.247,0.162 z"
             style="fill:#333333;fill-rule:nonzero"
             id="path110" /><path
             d="m 38.423,6.99 0.686,0.018 c 0,0 0.367,0.066 0.423,0.32 0.01,-0.018 0.132,0.564 -0.047,1.438 0,0 -0.075,0.272 -0.319,0.272 0.009,0.01 0.037,0.113 0.037,0.113 0,0 0.367,0 0.386,0.066 0.018,0 -0.047,0.874 -0.301,1.015 0.009,0 -0.451,0.066 -0.611,-0.038 0,-0.018 -0.235,-0.197 -0.235,-0.939 0,0.009 -0.056,-0.132 0.339,-0.104 0.009,0.01 -0.01,-0.122 -0.01,-0.122 0,0 -0.827,-0.094 -0.799,-0.31 -0.019,-0.019 0.075,-1.062 0.16,-1.569 0,-0.01 0,-0.179 0.291,-0.16 z"
             style="fill:none;stroke:#000000;stroke-width:0.07px"
             id="path112" /></g></g></g></g><defs
     id="defs206"><linearGradient
       gradientTransform="matrix(0,7.42922,-7.42922,0,39.2668,1.90522)"
       gradientUnits="userSpaceOnUse"
       y2="0"
       x2="1"
       y1="0"
       x1="0"
       id="_Linear2"><stop
         id="stop119"
         style="stop-color:#f2f3ff;stop-opacity:1"
         offset="0%" /><stop
         id="stop121"
         style="stop-color:#edf4ff;stop-opacity:1"
         offset="100%" /></linearGradient><linearGradient
       gradientTransform="matrix(0.00603573,-0.564029,0.564029,0.00603573,30.4046,12.5905)"
       gradientUnits="userSpaceOnUse"
       y2="0"
       x2="1"
       y1="0"
       x1="0"
       id="_Linear16"><stop
         id="stop179"
         style="stop-color:#231f20;stop-opacity:1"
         offset="0%" /><stop
         id="stop181"
         style="stop-color:#3b3b3c;stop-opacity:1"
         offset="100%" /></linearGradient><linearGradient
       gradientTransform="matrix(0,-1.68233,1.68233,0,21.7307,2.36659)"
       gradientUnits="userSpaceOnUse"
       y2="0"
       x2="1"
       y1="0"
       x1="0"
       id="_Linear19"><stop
         id="stop189"
         style="stop-color:#231f20;stop-opacity:1"
         offset="0%" /><stop
         id="stop191"
         style="stop-color:#595a5c;stop-opacity:1"
         offset="100%" /></linearGradient><linearGradient
       gradientTransform="matrix(0,-0.641761,0.641761,0,30.9678,19.0891)"
       gradientUnits="userSpaceOnUse"
       y2="0"
       x2="1"
       y1="0"
       x1="0"
       id="_Linear20"><stop
         id="stop194"
         style="stop-color:#231f20;stop-opacity:1"
         offset="0%" /><stop
         id="stop196"
         style="stop-color:#393839;stop-opacity:1"
         offset="100%" /></linearGradient></defs></svg>
