<?xml version="1.0" encoding="UTF-8" standalone="no"?>
<svg
   xmlns:dc="http://purl.org/dc/elements/1.1/"
   xmlns:cc="http://creativecommons.org/ns#"
   xmlns:rdf="http://www.w3.org/1999/02/22-rdf-syntax-ns#"
   xmlns:svg="http://www.w3.org/2000/svg"
   xmlns="http://www.w3.org/2000/svg"
   xmlns:sodipodi="http://sodipodi.sourceforge.net/DTD/sodipodi-0.dtd"
   xmlns:inkscape="http://www.inkscape.org/namespaces/inkscape"
   inkscape:version="1.0 (4035a4fb49, 2020-05-01)"
   sodipodi:docname="berline.svg"
   id="svg170"
   style="clip-rule:evenodd;fill-rule:evenodd;stroke-linecap:round;stroke-linejoin:round"
   xml:space="preserve"
   version="1.1"
   viewBox="0 0 400.77542 150"
   height="150"
   width="400.77542"><metadata
     id="metadata174"><rdf:RDF><cc:Work
         rdf:about=""><dc:format>image/svg+xml</dc:format><dc:type
           rdf:resource="http://purl.org/dc/dcmitype/StillImage" /><dc:title></dc:title></cc:Work></rdf:RDF></metadata><sodipodi:namedview
     fit-margin-bottom="0"
     fit-margin-right="0"
     fit-margin-left="0"
     fit-margin-top="0"
     inkscape:current-layer="svg170"
     inkscape:window-maximized="1"
     inkscape:window-y="-8"
     inkscape:window-x="-8"
     inkscape:cy="57.944838"
     inkscape:cx="150.70868"
     inkscape:zoom="2.4632353"
     showgrid="false"
     id="namedview172"
     inkscape:window-height="1017"
     inkscape:window-width="1920"
     inkscape:pageshadow="2"
     inkscape:pageopacity="0"
     guidetolerance="10"
     gridtolerance="10"
     objecttolerance="10"
     borderopacity="1"
     bordercolor="#666666"
     pagecolor="#ffffff"
     inkscape:document-rotation="0" /><g
     id="cat_moyenne_berline"
     transform="matrix(5.9820538,0,0,5.9820538,-0.15339534,-0.14955135)"><path
       id="path2"
       style="fill:url(#_Linear1);fill-rule:nonzero"
       d="m 7.544,1.706 c 0,0 0,-10e-4 0,-10e-4 z M 2.632,7.037 4.84,7.675 6.627,5.903 8.711,2.093 c 0,0 -1.183,-0.368 -1.167,-0.387 -2.86,2.207 -4.912,5.331 -4.912,5.331 z" /><path
       id="path4"
       style="fill:#ffffff;stroke:#000000;stroke-width:0.15px"
       d="m 2.632,7.037 c 0,0 2.052,-3.125 4.913,-5.332 C 7.513,1.72 8.711,2.093 8.711,2.093 L 6.627,5.902 4.839,7.675 Z" /><path
       id="path6"
       style="fill:url(#_Linear2);fill-rule:nonzero"
       d="m 36.748,1.759 10.867,6.157 c 0,0 1.923,0.345 2.046,0.393 C 43.484,4.067 37.658,1.737 37.658,1.737 Z m 12.919,6.554 c 10e-4,-0.001 -0.001,-0.002 -0.006,-0.004 0.002,0.001 0.004,0.003 0.006,0.004 z" /><path
       id="path8"
       style="fill:#ffffff;stroke:#000000;stroke-width:0.15px"
       d="m 37.658,1.737 c 0,0 5.83,2.331 12.009,6.576 C 49.691,8.289 47.615,7.916 47.615,7.916 L 36.748,1.759 Z" /><path
       id="path10"
       style="fill:#333333;fill-rule:nonzero"
       d="m 63.905,17.659 c -0.053,0.268 -0.005,0.537 -0.005,0.533 0.171,1.742 2.48,1.539 2.488,1.524 0.287,-0.296 0.38,-2.519 0.38,-2.519 0,0 -2.184,-0.062 -2.184,-0.069 -0.027,-0.003 -0.052,-0.004 -0.076,-0.004 -0.398,0 -0.55,0.268 -0.603,0.535 z" /><path
       id="path12"
       style="fill:none;stroke:#000000;stroke-width:0.3px"
       d="m 66.768,17.197 c 0,0 -0.093,2.223 -0.38,2.519 -0.008,0.015 -2.317,0.218 -2.488,-1.524 0,0.008 -0.202,-1.135 0.684,-1.064 0,0.007 2.184,0.069 2.184,0.069 z" /><path
       id="path14"
       style="fill:#ffffff;fill-rule:nonzero"
       d="m 60.323,10.733 c -0.204,0.063 -0.329,0.125 -0.337,0.121 -1.014,0.606 1.842,3.043 1.831,3.043 2.099,1.586 3.917,0.595 3.917,0.584 0.63,-0.91 -0.334,-1.787 -0.334,-1.787 -0.779,-0.668 -3.257,-1.828 -3.257,-1.828 -0.363,-0.191 -0.722,-0.254 -1.039,-0.254 -0.312,0 -0.583,0.06 -0.781,0.121 z" /><path
       id="path16"
       style="fill:none;stroke:#000000;stroke-width:0.15px"
       d="m 65.4,12.694 c 0,0 0.964,0.877 0.334,1.787 0,0.011 -1.818,1.002 -3.917,-0.584 0.012,0 -2.846,-2.437 -1.831,-3.043 0.023,0.012 1.073,-0.56 2.157,0.012 0,0 2.478,1.159 3.257,1.828" /><path
       id="path18"
       style="fill:#333333;fill-rule:nonzero;stroke:#000000;stroke-width:0.15px"
       d="m 3.798,18.806 3.265,1.679 11.006,-0.186 1.306,-6.063 -7.929,-4.012 -7.182,3.452 z" /><path
       id="path20"
       style="fill:#333333;fill-rule:nonzero;stroke:#000000;stroke-width:0.15px"
       d="m 47.048,20.672 5.068,0.467 9.701,-0.561 -0.559,-6.156 -6.344,-2.891 -7.182,1.492 z" /><path
       id="path22"
       style="fill:#4786b3;fill-opacity:1;fill-rule:nonzero"
       d="M 9.115,0.834 C 7.094,0.858 7.055,1.091 7.032,1.115 6.813,1.674 7.187,1.891 7.218,1.891 7.871,1.86 8.213,2.172 8.213,2.172 5.726,4.534 4.762,6.866 4.762,6.866 c 0,0 -2.053,0.032 -2.083,0 -1.587,1.369 -0.933,5.006 -0.964,4.975 -0.093,0.996 -0.902,1.244 -0.871,1.244 -0.56,0.187 -0.653,1.057 -0.653,1.026 -0.56,3.109 1.648,4.757 1.648,4.757 0.373,0.809 1.928,0.716 1.928,0.685 0.932,0.621 0.746,0.124 0.715,0.124 0.124,-6.871 6.281,-6.81 6.312,-6.84 7.182,0.653 6.249,7.12 6.249,7.12 0,0 30.969,0.403 30.969,0.342 0.031,-7.525 6.312,-7.214 6.281,-7.214 7.481,0.342 6.083,8.059 6.062,8.068 4.96,-0.325 5.768,-0.714 5.783,-0.698 0.258,-0.156 0.366,-0.247 0.436,-0.281 0.668,-0.248 0.233,-0.559 0.249,-0.544 -3.079,0.109 -2.721,-1.648 -2.721,-1.694 -0.031,-0.778 0.638,-0.685 0.638,-0.685 l 2.052,-0.015 c 0.435,-0.591 -0.187,-2.269 -0.202,-2.302 -0.016,-0.077 -0.84,-0.496 -0.84,-0.496 -0.435,0.186 -2.134,-0.195 -2.192,-0.218 -1.893,-0.284 -3.125,-2.473 -3.125,-2.487 -0.388,-0.871 0.825,-0.7 0.793,-0.7 2.021,0.265 4.198,1.71 4.198,1.679 C 63.496,9.541 51.432,8.204 51.432,8.204 48.292,7.955 47.701,7.333 47.67,7.333 42.54,3.851 37.44,1.891 37.44,1.891 37.549,1.923 37.906,1.799 37.906,1.799 34.492,0.482 28.883,0.1 23.517,0.1 16.082,0.1 9.115,0.834 9.115,0.834 Z" /><g
       id="g83"><clipPath
         id="_clip6"><rect
           id="rect24"
           height="25.075001"
           width="66.998001"
           y="0.025"
           x="0.025" /></clipPath><g
         id="g81"
         clip-path="url(#_clip6)"><path
           id="path27"
           style="fill:none;stroke:#000000;stroke-width:0.15px"
           d="m 9.115,0.834 c 0,0 20.645,-2.176 28.791,0.965 0,0 -0.357,0.124 -0.466,0.093 0,0 5.1,1.959 10.23,5.441 0.031,0 0.622,0.622 3.762,0.871 0,0 12.064,1.337 13.992,4.508 0,0.031 -2.177,-1.414 -4.198,-1.679 0.032,0 -1.181,-0.171 -0.793,0.7 0,0.015 1.232,2.203 3.125,2.487 0.058,0.023 1.757,0.404 2.192,0.218 0,0 0.824,0.419 0.84,0.497 0.015,0.032 0.637,1.71 0.202,2.301 l -2.053,0.015 c 0,0 -0.668,-0.093 -0.637,0.685 0,0.047 -0.358,1.803 2.721,1.694 -0.016,-0.016 0.419,0.296 -0.249,0.544 -0.07,0.034 -0.178,0.124 -0.435,0.281 -0.016,-0.017 -0.824,0.373 -5.784,0.698 0.016,0.016 1.431,-7.726 -6.062,-8.068 0.031,0 -6.25,-0.311 -6.281,7.213 0,0.062 -30.969,-0.341 -30.969,-0.341 0,0 0.933,-6.467 -6.249,-7.121 -0.031,0.031 -6.188,-0.03 -6.312,6.841 0.031,0 0.217,0.497 -0.715,-0.125 0,0.031 -1.555,0.125 -1.928,-0.684 0,0 -2.207,-1.648 -1.648,-4.757 0,0.032 0.093,-0.839 0.653,-1.026 -0.031,0 0.778,-0.249 0.871,-1.244 0.031,0.031 -0.623,-3.606 0.963,-4.975 0.031,0.031 2.084,0 2.084,0 0,0 0.964,-2.332 3.451,-4.694 0,0 -0.342,-0.312 -0.995,-0.28 C 7.187,1.892 6.814,1.675 7.032,1.115 7.055,1.091 7.094,0.858 9.115,0.834 Z" /><path
           id="path29"
           style="fill-rule:nonzero"
           d="m 5.278,19.352 c 0,-2.968 2.406,-5.374 5.374,-5.374 2.968,0 5.374,2.406 5.374,5.374 0,2.968 -2.406,5.374 -5.374,5.374 -2.968,0 -5.374,-2.406 -5.374,-5.374" /><path
           id="path31"
           style="fill-rule:nonzero"
           d="m 49.15,19.753 c 0,-2.952 2.394,-5.347 5.347,-5.347 2.953,0 5.347,2.395 5.347,5.347 0,2.954 -2.394,5.347 -5.347,5.347 -2.953,0 -5.347,-2.393 -5.347,-5.347" /><path
           id="path33"
           style="fill:#ffffff;fill-rule:nonzero"
           d="m 6.749,19.352 c 0,2.155 1.748,3.902 3.903,3.902 2.156,0 3.903,-1.747 3.903,-3.902 0,-2.155 -1.747,-3.902 -3.903,-3.902 -2.155,0 -3.903,1.747 -3.903,3.902 z" /><path
           id="path35"
           style="fill:none;stroke:#b9b9b9;stroke-width:0.08px"
           d="m 6.749,19.352 c 0,-2.155 1.748,-3.902 3.903,-3.902 2.156,0 3.903,1.747 3.903,3.902 0,2.155 -1.747,3.902 -3.903,3.902 -2.155,0 -3.903,-1.747 -3.903,-3.902 z" /><path
           id="path37"
           style="fill:#ffffff;fill-rule:nonzero"
           d="m 50.588,19.753 c 0,2.145 1.738,3.883 3.882,3.883 2.145,0 3.883,-1.738 3.883,-3.883 0,-2.144 -1.738,-3.882 -3.883,-3.882 -2.144,0 -3.882,1.738 -3.882,3.882 z" /><path
           id="path39"
           style="fill:none;stroke:#b9b9b9;stroke-width:0.08px"
           d="m 50.588,19.753 c 0,-2.144 1.738,-3.882 3.882,-3.882 2.145,0 3.883,1.738 3.883,3.882 0,2.145 -1.738,3.883 -3.883,3.883 -2.144,0 -3.882,-1.738 -3.882,-3.883 z" /><path
           id="path41"
           style="fill:#333333;fill-rule:nonzero"
           d="m 14.385,1.363 c -1.306,0.093 -2.472,3.545 -2.519,3.545 -0.559,1.726 0.274,2.326 0.327,2.332 6.856,0.093 34.56,2.331 34.56,2.192 C 43.931,1.666 27.63,1.067 27.63,1.067 25.906,0.955 24.261,0.912 22.751,0.912 c -4.902,0 -8.366,0.451 -8.366,0.451 z" /><path
           id="path43"
           style="fill:none;stroke:#000000;stroke-width:0.15px"
           d="M 46.753,9.432 C 46.753,9.571 19.049,7.333 12.193,7.24 12.14,7.234 11.307,6.634 11.866,4.908 c 0.047,0 1.213,-3.452 2.519,-3.545 0,0 5.925,-0.772 13.245,-0.296 0,0 16.301,0.599 19.123,8.365 z" /><path
           id="path45"
           style="fill:#ffffff;fill-rule:nonzero"
           d="m 14.556,1.643 c -1.12,0.062 -2.286,3.575 -2.301,3.607 -0.342,1.088 0.203,1.626 0.28,1.632 0.165,0.014 4.213,0.125 4.213,0.125 L 16.39,1.441 c 0,0 -1.803,0.186 -1.834,0.202 z" /><path
           id="path47"
           style="fill:#ffffff;fill-rule:nonzero"
           d="m 16.826,1.425 0.42,5.628 c 2.984,0.187 9.872,0.653 9.872,0.653 0,0 -0.723,-6.405 -0.739,-6.389 -1.378,-0.082 -2.705,-0.112 -3.911,-0.112 -3.272,0 -5.642,0.22 -5.642,0.22 z" /><path
           id="path49"
           style="fill:#ffffff;fill-rule:nonzero"
           d="m 30.09,7.881 13.409,0.968 c 0,0 -0.501,-3.195 -0.501,-3.218 C 37.914,1.899 28.517,1.479 28.517,1.479 Z" /><path
           id="path51"
           style="fill:#f46154;fill-rule:nonzero;stroke:#000000;stroke-width:0.08px"
           d="m 0.685,17.104 c 0,0 1.865,0.338 2.157,0.338 0.023,0 -0.152,0.35 -0.362,0.432 -0.011,0 -1.224,-0.036 -1.388,-0.105 0.012,0.011 -0.443,-0.478 -0.407,-0.665 z" /><path
           id="path53"
           style="fill:url(#_Linear13);fill-rule:nonzero"
           d="m 65.206,18.32 c 0,0.475 0.146,0.86 0.326,0.86 0.181,0 0.327,-0.385 0.327,-0.86 0,-0.474 -0.146,-0.858 -0.327,-0.858 -0.18,0 -0.326,0.384 -0.326,0.858 z" /><path
           id="path55"
           style="fill:none;stroke:#000000;stroke-width:0.3px"
           d="m 65.859,18.32 c 0,0.475 -0.146,0.859 -0.327,0.859 -0.18,0 -0.326,-0.384 -0.326,-0.859 0,-0.474 0.146,-0.858 0.326,-0.858 0.181,0 0.327,0.384 0.327,0.858 z" /><path
           id="path57"
           style="fill:none;stroke:#000000;stroke-width:0.08px"
           d="m 28.61,7.799 0.047,0.327 c 0,0 -0.047,0.746 0,1.166 0.046,0.186 1.352,6.576 -0.234,10.307" /><path
           id="path59"
           style="fill:none;stroke:#000000;stroke-width:0.08px"
           d="m 11.96,6.983 c 0,0 1.539,3.241 4.664,7.532 0,0.047 1.772,2.612 2.052,3.312 0,0 0.606,1.492 4.85,1.632" /><path
           id="path61"
           style="fill:none;stroke:#000000;stroke-width:0.08px"
           d="m 46.77,9.438 c 0,0 1.335,3.538 -0.437,10.907" /><path
           id="path63"
           style="fill:url(#_Linear14);fill-rule:nonzero"
           d="m 17.043,20.672 c 0,0 30.565,0.622 30.565,0.559 0.684,0.094 0.404,-1.429 0.404,-1.429 -5.317,0.062 -30.875,-0.716 -30.907,-0.716 0,0.56 -0.062,1.586 -0.062,1.586 z" /><path
           id="path65"
           style="fill:#4786b3;fill-opacity:1;stroke:#000000;stroke-width:0.08px"
           d="m 48.012,19.801 c 0,0 0.28,1.524 -0.404,1.43 0,0.063 -30.565,-0.559 -30.565,-0.559 0,0 0.063,-1.026 0.063,-1.586 0.031,0 25.589,0.777 30.906,0.715 z" /><path
           id="path67"
           style="fill:none;stroke:#000000;stroke-width:0.08px"
           d="m 8.221,2.179 c 0,0 0.972,-0.52 0.909,-1.329" /><path
           id="path69"
           style="fill:none;stroke:#000000;stroke-width:0.08px"
           d="m 7.288,13.92 c 0,0 -3.024,-4.535 -2.495,-7.116" /><path
           id="path71"
           style="fill:#f46154;fill-rule:nonzero;stroke:#000000;stroke-width:0.08px"
           d="m 1.886,8.359 c 0,0 0.077,-0.622 1.476,-0.622 0,0 1.742,-0.171 1.975,0.591 -0.016,0.016 0.575,1.679 0.575,1.679 0,0 0.202,0.73 -0.591,0.778 -0.015,0.03 -3.156,0.03 -3.326,-0.094 C 2.01,10.707 1.73,10.613 1.73,10.302 1.746,10.271 1.73,8.67 1.886,8.359 Z" /><path
           id="path73"
           style="fill:#333333;fill-rule:nonzero"
           d="m 41.871,8.452 c 0.218,0.84 2.207,0.591 2.238,0.56 0.358,0.078 0.684,-0.794 0.7,-0.794 0.575,-1.025 -1.71,-1.725 -1.71,-1.725 -1.99,0 -1.244,1.99 -1.228,1.959 z" /><path
           id="path75"
           style="fill:none;stroke:#000000;stroke-width:0.15px"
           d="m 43.099,6.493 c 0,0 2.285,0.7 1.71,1.725 -0.016,0 -0.342,0.872 -0.7,0.794 -0.031,0.031 -2.02,0.28 -2.238,-0.56 -0.016,0.031 -0.762,-1.959 1.228,-1.959 z" /><path
           id="path77"
           style="fill:none;stroke:#003863;stroke-width:0.08px"
           d="m 5.337,8.328 c 0,0 31.575,1.648 44.634,3.327" /><path
           id="path79"
           style="fill:none;stroke:#001f29;stroke-width:0.08px"
           d="m 48.976,7.862 c 0,0 0.217,0.404 1.865,0.621 0.063,0.062 6.374,0.809 9.918,2.55" /></g></g></g><defs
     id="defs168"><linearGradient
       gradientTransform="matrix(0,5.96974,-5.96974,0,5.67118,1.70545)"
       gradientUnits="userSpaceOnUse"
       y2="0"
       x2="1"
       y1="0"
       x1="0"
       id="_Linear1"><stop
         id="stop86"
         style="stop-color:#f2f3ff;stop-opacity:1"
         offset="0%" /><stop
         id="stop88"
         style="stop-color:#edf4ff;stop-opacity:1"
         offset="100%" /></linearGradient><linearGradient
       gradientTransform="matrix(0,6.57623,-6.57623,0,43.2078,1.73661)"
       gradientUnits="userSpaceOnUse"
       y2="0"
       x2="1"
       y1="0"
       x1="0"
       id="_Linear2"><stop
         id="stop91"
         style="stop-color:#f2f3ff;stop-opacity:1"
         offset="0%" /><stop
         id="stop93"
         style="stop-color:#edf4ff;stop-opacity:1"
         offset="100%" /></linearGradient><linearGradient
       gradientTransform="matrix(2.88795,0,0,2.88795,63.8803,18.4275)"
       gradientUnits="userSpaceOnUse"
       y2="0"
       x2="1"
       y1="0"
       x1="0"
       id="_Linear3"><stop
         id="stop96"
         style="stop-color:#231f20;stop-opacity:1"
         offset="0%" /><stop
         id="stop98"
         style="stop-color:#262223;stop-opacity:1"
         offset="71%" /><stop
         id="stop100"
         style="stop-color:#595a5c;stop-opacity:1"
         offset="100%" /></linearGradient><linearGradient
       gradientTransform="matrix(6.17955,0,0,6.17955,59.7682,12.7041)"
       gradientUnits="userSpaceOnUse"
       y2="0"
       x2="1"
       y1="0"
       x1="0"
       id="_Linear4"><stop
         id="stop103"
         style="stop-color:#f2f3ff;stop-opacity:1"
         offset="0%" /><stop
         id="stop105"
         style="stop-color:#edf4ff;stop-opacity:1"
         offset="100%" /></linearGradient><linearGradient
       gradientTransform="matrix(0,21.0535,-21.0535,0,33.5238,0.0999512)"
       gradientUnits="userSpaceOnUse"
       y2="0"
       x2="1"
       y1="0"
       x1="0"
       id="_Linear5"><stop
         id="stop108"
         style="stop-color:#3b6dad;stop-opacity:1"
         offset="0%" /><stop
         id="stop110"
         style="stop-color:#123b70;stop-opacity:1"
         offset="100%" /></linearGradient><radialGradient
       gradientTransform="matrix(3.9026,0,0,3.9026,10.6519,19.352)"
       gradientUnits="userSpaceOnUse"
       r="1"
       cy="0"
       cx="0"
       id="_Radial7"><stop
         id="stop113"
         style="stop-color:#8a8c8e;stop-opacity:1"
         offset="0%" /><stop
         id="stop115"
         style="stop-color:#6b6c6f;stop-opacity:1"
         offset="84%" /><stop
         id="stop117"
         style="stop-color:#4d4d4f;stop-opacity:1"
         offset="96%" /><stop
         id="stop119"
         style="stop-color:#4d4d4f;stop-opacity:1"
         offset="100%" /></radialGradient><radialGradient
       gradientTransform="matrix(3.88261,0,0,3.88261,54.4703,19.7535)"
       gradientUnits="userSpaceOnUse"
       r="1"
       cy="0"
       cx="0"
       id="_Radial8"><stop
         id="stop122"
         style="stop-color:#8a8c8e;stop-opacity:1"
         offset="0%" /><stop
         id="stop124"
         style="stop-color:#6b6c6f;stop-opacity:1"
         offset="84%" /><stop
         id="stop126"
         style="stop-color:#4d4d4f;stop-opacity:1"
         offset="96%" /><stop
         id="stop128"
         style="stop-color:#4d4d4f;stop-opacity:1"
         offset="100%" /></radialGradient><linearGradient
       gradientTransform="matrix(0,-8.52606,8.52606,0,29.2133,9.43798)"
       gradientUnits="userSpaceOnUse"
       y2="0"
       x2="1"
       y1="0"
       x1="0"
       id="_Linear9"><stop
         id="stop131"
         style="stop-color:#231f20;stop-opacity:1"
         offset="0%" /><stop
         id="stop133"
         style="stop-color:#414042;stop-opacity:1"
         offset="100%" /></linearGradient><linearGradient
       gradientTransform="matrix(0,-5.56612,5.56612,0,14.4456,7.00669)"
       gradientUnits="userSpaceOnUse"
       y2="0"
       x2="1"
       y1="0"
       x1="0"
       id="_Linear10"><stop
         id="stop136"
         style="stop-color:#f2f3ff;stop-opacity:1"
         offset="0%" /><stop
         id="stop138"
         style="stop-color:#edf4ff;stop-opacity:1"
         offset="100%" /></linearGradient><linearGradient
       gradientTransform="matrix(0,-6.50046,6.50046,0,21.9717,7.70578)"
       gradientUnits="userSpaceOnUse"
       y2="0"
       x2="1"
       y1="0"
       x1="0"
       id="_Linear11"><stop
         id="stop141"
         style="stop-color:#f2f3ff;stop-opacity:1"
         offset="0%" /><stop
         id="stop143"
         style="stop-color:#edf4ff;stop-opacity:1"
         offset="100%" /></linearGradient><linearGradient
       gradientTransform="matrix(0,-7.36908,7.36908,0,36.0079,8.84846)"
       gradientUnits="userSpaceOnUse"
       y2="0"
       x2="1"
       y1="0"
       x1="0"
       id="_Linear12"><stop
         id="stop146"
         style="stop-color:#f2f3ff;stop-opacity:1"
         offset="0%" /><stop
         id="stop148"
         style="stop-color:#edf4ff;stop-opacity:1"
         offset="100%" /></linearGradient><linearGradient
       gradientTransform="matrix(0,-1.71798,1.71798,0,65.5326,19.1796)"
       gradientUnits="userSpaceOnUse"
       y2="0"
       x2="1"
       y1="0"
       x1="0"
       id="_Linear13"><stop
         id="stop151"
         style="stop-color:#f2f3ff;stop-opacity:1"
         offset="0%" /><stop
         id="stop153"
         style="stop-color:#edf4ff;stop-opacity:1"
         offset="100%" /></linearGradient><linearGradient
       gradientTransform="matrix(0,2.14953,-2.14953,0,32.556,19.0862)"
       gradientUnits="userSpaceOnUse"
       y2="0"
       x2="1"
       y1="0"
       x1="0"
       id="_Linear14"><stop
         id="stop156"
         style="stop-color:#244e84;stop-opacity:1"
         offset="0%" /><stop
         id="stop158"
         style="stop-color:#03244f;stop-opacity:1"
         offset="100%" /></linearGradient><linearGradient
       gradientTransform="matrix(0,2.57706,-2.57706,0,43.3116,6.49313)"
       gradientUnits="userSpaceOnUse"
       y2="0"
       x2="1"
       y1="0"
       x1="0"
       id="_Linear15"><stop
         id="stop161"
         style="stop-color:#dcddde;stop-opacity:1"
         offset="0%" /><stop
         id="stop163"
         style="stop-color:#595a5c;stop-opacity:1"
         offset="25%" /><stop
         id="stop165"
         style="stop-color:#2d2a2b;stop-opacity:1"
         offset="100%" /></linearGradient></defs></svg>
