<?xml version="1.0" encoding="UTF-8" standalone="no"?>
<svg
   xmlns:dc="http://purl.org/dc/elements/1.1/"
   xmlns:cc="http://creativecommons.org/ns#"
   xmlns:rdf="http://www.w3.org/1999/02/22-rdf-syntax-ns#"
   xmlns:svg="http://www.w3.org/2000/svg"
   xmlns="http://www.w3.org/2000/svg"
   xmlns:sodipodi="http://sodipodi.sourceforge.net/DTD/sodipodi-0.dtd"
   xmlns:inkscape="http://www.inkscape.org/namespaces/inkscape"
   width="305.51929"
   height="150"
   viewBox="0 0 305.51929 150"
   version="1.1"
   xml:space="preserve"
   style="clip-rule:evenodd;fill-rule:evenodd;stroke-linecap:round;stroke-linejoin:round"
   id="svg137"
   sodipodi:docname="citadine.svg"
   inkscape:version="1.0 (4035a4fb49, 2020-05-01)"><metadata
     id="metadata141"><rdf:RDF><cc:Work
         rdf:about=""><dc:format>image/svg+xml</dc:format><dc:type
           rdf:resource="http://purl.org/dc/dcmitype/StillImage" /><dc:title></dc:title></cc:Work></rdf:RDF></metadata><sodipodi:namedview
     inkscape:document-rotation="0"
     pagecolor="#ffffff"
     bordercolor="#666666"
     borderopacity="1"
     objecttolerance="10"
     gridtolerance="10"
     guidetolerance="10"
     inkscape:pageopacity="0"
     inkscape:pageshadow="2"
     inkscape:window-width="1920"
     inkscape:window-height="1017"
     id="namedview139"
     showgrid="false"
     inkscape:zoom="2.2776998"
     inkscape:cx="174.00053"
     inkscape:cy="55.411955"
     inkscape:window-x="-8"
     inkscape:window-y="-8"
     inkscape:window-maximized="1"
     inkscape:current-layer="svg137"
     fit-margin-top="0"
     fit-margin-left="0"
     fit-margin-right="0"
     fit-margin-bottom="0" /><g
     transform="matrix(5.9809077,0,0,5.9809077,-0.38900414,-0.01910736)"
     id="cat_citadine"><path
       d="m 4.964,1.594 c 0,0 -1.611,2.517 -2.61,5.592 l 5.18,0.227 4.899,-4.368 -1.904,-1.558 c 0,0 -1.41,-0.19 -2.938,-0.19 -0.93,0 -1.902,0.07 -2.627,0.297 z"
       style="fill:#ffffff;fill-rule:nonzero"
       id="path2" /><path
       d="m 4.964,1.594 c 0,0 -1.611,2.517 -2.61,5.592 l 5.179,0.227 4.9,-4.367 -1.904,-1.559 c 0,0 -3.648,-0.492 -5.565,0.107 z"
       style="fill:none;stroke:#000000;stroke-width:0.16px"
       id="path4" /><clipPath
       id="_clip2"><path
         d="m 39.073,6.903 c 0.01,0 1.298,1.009 1.298,1.009 l 1.988,0.429 0.729,-0.199 c 0,0 -1.059,-0.719 -1.249,-0.629 0,0.009 -0.24,0.119 -0.24,0.119 0,0 -0.239,0.03 -0.499,-0.08 -0.01,-0.039 -0.679,-0.269 -0.689,0 -0.01,0.27 -0.24,0.01 -0.249,-0.119 0,0.009 0.05,-0.11 -0.07,-0.21 0.01,0.01 -0.49,-0.38 -0.49,-0.38 0,0 -0.179,-0.047 -0.33,-0.047 -0.107,0 -0.199,0.024 -0.199,0.107 z"
         id="path6" /></clipPath><g
       clip-path="url(#_clip2)"
       id="g11"><path
         d="M 43.187,7.191 43.059,8.415 38.951,7.983 39.08,6.76 Z"
         style="fill:url(#_Linear3);fill-rule:nonzero"
         id="path9" /></g><path
       d="m 43.088,8.142 c 0,0 -1.059,-0.72 -1.249,-0.629 0,0.009 -0.24,0.119 -0.24,0.119 0,0 -0.239,0.03 -0.499,-0.08 -0.009,-0.039 -0.679,-0.269 -0.689,0 -0.01,0.27 -0.239,0.01 -0.249,-0.12 0,0.01 0.05,-0.109 -0.07,-0.209 0.01,0.01 -0.49,-0.38 -0.49,-0.38 0,0 -0.529,-0.14 -0.529,0.061 0.01,0 1.298,1.008 1.298,1.008 l 1.988,0.429 z"
       style="fill:#333333;stroke:#000000;stroke-width:0.16px"
       id="path13" /><path
       d="m 1.262,20.501 1.758,0.373 9.107,0.906 2.823,-0.374 -1.971,-7.669 -7.19,-1.65 -3.515,2.609 z"
       style="fill:#333333;fill-rule:nonzero;stroke:#000000;stroke-width:0.08px"
       id="path15" /><path
       d="m 36.36,21.726 2.663,0.533 9.054,-0.639 1.598,-0.8 -0.16,-6.125 -7.776,-2.982 -5.592,3.356 z"
       style="fill:#333333;fill-rule:nonzero;stroke:#000000;stroke-width:0.08px"
       id="path17" /><path
       d="M 9.864,0.506 C 7.591,0.722 6.189,0.938 6.189,0.928 5.15,1.062 4.964,1.594 4.964,1.594 c 1.145,0 3.701,0.292 3.675,0.267 2.183,0.159 2.077,1.277 2.077,1.304 C 10.849,5.029 6.588,6.706 6.561,6.706 5.233,6.27 3.954,6.552 3.163,6.833 2.664,7.011 2.358,7.188 2.354,7.187 2.114,7.72 1.982,10.381 1.982,10.435 c 0,1.384 -0.667,2.264 -0.693,2.264 -1.997,2.317 -0.772,7.35 -0.772,7.323 0.212,0.931 0.918,0.652 0.918,0.652 -0.159,-7.07 6.392,-6.871 6.351,-6.91 6.991,0.519 6.432,8.148 6.391,8.148 5.992,-0.08 22.41,0.12 22.41,0.12 -0.4,-8.748 6.75,-8.322 6.724,-8.375 7.483,0.692 5.858,7.829 5.885,7.803 1.517,0.08 1.571,-0.906 1.571,-0.906 0.918,-4.274 -0.559,-6.37 -0.599,-6.471 C 49.489,13.364 49.009,12.007 49.009,11.967 48.85,11.208 48.21,10.169 48.131,10.129 46.812,8.691 43.391,8.092 43.337,8.039 42.911,8.145 42.179,8.172 42.218,8.172 41.38,8.172 39.143,6.973 39.103,6.894 34.19,3.658 29.197,1.287 29.117,1.262 27.599,0.662 26.001,0.502 25.922,0.462 23.405,0.186 20.884,0.084 18.525,0.084 c -3.387,0 -6.44,0.211 -8.661,0.422 z M 2.354,7.187 V 7.186 Z"
       style="fill:#4786b3;fill-opacity:1;fill-rule:nonzero"
       id="path19" /><g
       id="g77"><clipPath
         id="_clip5"><rect
           x="0.064000003"
           y="0.003"
           width="51.084"
           height="25.080999"
           id="rect21" /></clipPath><g
         clip-path="url(#_clip5)"
         id="g75"><path
           d="m 4.964,1.594 c 0,0 0.186,-0.532 1.225,-0.666 0,0.027 9.906,-1.545 19.733,-0.466 0.079,0.04 1.677,0.2 3.195,0.8 0.08,0.024 5.073,2.396 9.986,5.632 0.04,0.079 2.277,1.278 3.115,1.278 -0.039,0 0.693,-0.027 1.119,-0.133 0.054,0.053 3.475,0.652 4.794,2.09 0.079,0.04 0.718,1.078 0.878,1.838 0,0.039 0.479,1.397 1.159,2.116 0.04,0.101 1.518,2.197 0.599,6.471 0,0 -0.054,0.986 -1.571,0.906 -0.027,0.027 1.597,-7.111 -5.885,-7.803 0.026,0.054 -7.124,-0.373 -6.724,8.375 0,0 -16.417,-0.2 -22.409,-0.12 0.04,0 0.599,-7.629 -6.391,-8.148 0.04,0.039 -6.511,-0.16 -6.352,6.91 0,0 -0.706,0.28 -0.918,-0.652 0,0.027 -1.225,-5.006 0.772,-7.324 0.026,0 0.693,-0.879 0.693,-2.263 0,-0.053 0.132,-2.716 0.372,-3.249 -0.026,0.027 2.024,-1.198 4.207,-0.479 0.027,0 4.288,-1.678 4.155,-3.542 0,-0.026 0.106,-1.145 -2.077,-1.304 C 8.665,1.886 6.109,1.594 4.964,1.594 Z"
           style="fill:none;stroke:#000000;stroke-width:0.16px"
           id="path24" /><path
           d="m 15.136,1.248 c -1.118,0.239 -1.145,0.985 -1.171,1.038 -0.373,1.732 -0.4,4.873 -0.4,4.9 2.956,0.053 17.523,0.666 17.523,0.693 1.704,0.106 4.766,0.213 4.74,0.213 C 37.373,8.039 36.627,7.346 36.627,7.32 31.567,3.032 26.94,1.531 26.853,1.514 24.856,1.028 22.643,0.879 20.682,0.879 c -3.086,0 -5.546,0.369 -5.546,0.369 z"
           style="fill:#333333;fill-rule:nonzero"
           id="path26" /><path
           d="m 15.136,1.248 c 0,0 6.578,-0.986 11.717,0.266 0.087,0.017 4.714,1.518 9.774,5.806 0,0.026 0.745,0.718 -0.799,0.772 0.026,0 -3.036,-0.107 -4.74,-0.213 0,-0.027 -14.567,-0.64 -17.523,-0.693 0,-0.027 0.027,-3.169 0.4,-4.9 0.026,-0.053 0.053,-0.798 1.171,-1.038 z"
           style="fill:none;stroke:#000000;stroke-width:0.08px"
           id="path28" /><path
           d="m 15.536,1.761 c 0,0 0.419,5.192 0.399,5.192 4.773,0.12 14.42,0.58 14.4,0.56 3.346,0.159 3.695,0.209 3.695,0.189 0.4,-0.16 0.22,-1.447 0.18,-1.467 C 30.255,3.098 26.685,2.039 26.56,2.02 24.584,1.579 22.452,1.446 20.595,1.446 c -2.853,0 -5.059,0.315 -5.059,0.315 z"
           style="fill:#ffffff;fill-rule:nonzero"
           id="path30" /><g
           id="g41"><clipPath
             id="_clip8"><rect
               x="0.064000003"
               y="0.003"
               width="51.084"
               height="25.080999"
               id="rect32" /></clipPath><g
             clip-path="url(#_clip8)"
             id="g39"><path
               d="m 2.731,20.064 c 0,-2.716 2.202,-4.917 4.916,-4.917 2.716,0 4.917,2.201 4.917,4.917 0,2.716 -2.201,4.916 -4.917,4.916 -2.714,0 -4.916,-2.2 -4.916,-4.916"
               style="fill-rule:nonzero"
               id="path35" /><path
               d="m 38.149,19.927 c 0,-2.848 2.308,-5.156 5.156,-5.156 2.847,0 5.155,2.308 5.155,5.156 0,2.848 -2.308,5.156 -5.155,5.156 -2.848,0 -5.156,-2.308 -5.156,-5.156"
               style="fill-rule:nonzero"
               id="path37" /></g></g><path
           d="m 4.077,20.064 c 0,1.972 1.598,3.57 3.57,3.57 1.972,0 3.571,-1.598 3.571,-3.57 0,-1.971 -1.599,-3.57 -3.571,-3.57 -1.972,0 -3.57,1.599 -3.57,3.57 z"
           style="fill:#ffffff;fill-rule:nonzero"
           id="path43" /><path
           d="m 4.077,20.064 c 0,-1.971 1.598,-3.57 3.571,-3.57 1.971,0 3.57,1.599 3.57,3.57 0,1.972 -1.599,3.57 -3.57,3.57 -1.973,0 -3.571,-1.598 -3.571,-3.57 z"
           style="fill:none;stroke:#b9b9b9;stroke-width:0.08px"
           id="path45" /><path
           d="m 39.535,19.928 c 0,2.068 1.676,3.744 3.744,3.744 2.068,0 3.744,-1.676 3.744,-3.744 0,-2.069 -1.676,-3.745 -3.744,-3.745 -2.068,0 -3.744,1.676 -3.744,3.745 z"
           style="fill:#ffffff;fill-rule:nonzero"
           id="path47" /><path
           d="m 39.535,19.927 c 0,-2.068 1.676,-3.744 3.744,-3.744 2.068,0 3.744,1.676 3.744,3.744 0,2.068 -1.676,3.744 -3.744,3.744 -2.068,0 -3.744,-1.676 -3.744,-3.744 z"
           style="fill:none;stroke:#b9b9b9;stroke-width:0.08px"
           id="path49" /><path
           d="m 42.738,8.911 c 0,0 -0.28,0.219 0.04,0.538 0,0.06 3.555,2.896 5.233,3.017 0,-0.06 0.379,-0.56 -0.679,-1.778 0.019,0 -0.14,-0.779 -0.58,-1.018 0.02,0.019 -0.639,-0.64 -3.574,-1.178 0,0 -0.337,0.289 -0.44,0.419 z"
           style="fill:#ffffff;fill-rule:nonzero"
           id="path51" /><path
           d="m 43.177,8.492 c 0,0 -0.336,0.289 -0.439,0.419 0,0 -0.28,0.219 0.04,0.539 0,0.059 3.555,2.896 5.233,3.016 0,-0.061 0.379,-0.559 -0.679,-1.778 0.019,0 -0.14,-0.779 -0.579,-1.018 0.019,0.019 -0.64,-0.64 -3.576,-1.178 z"
           style="fill:none;stroke:#000000;stroke-width:0.08px"
           id="path53" /><path
           d="m 2.494,7.293 c 0,0 2.077,-1.099 3.854,-0.453 -0.04,-0.026 -1.118,0.266 -1.358,0.6 -0.013,0 -0.785,0.705 -1.118,2.902 0,0.014 -0.04,0.413 -0.306,0.533 0.027,0.013 -0.839,0.306 -0.839,0.306 0,0 -0.439,0.239 -0.439,-0.227 0,-0.026 -0.127,-1.997 0.206,-3.661 z"
           style="fill:#f46154;fill-rule:nonzero;stroke:#000000;stroke-width:0.08px"
           id="path55" /><path
           d="m 13.618,7.173 -0.459,0.639 c 0,0 0.18,5.153 2.097,10.705 0.04,0.08 0.52,1.678 2.317,1.798 0.08,0.04 16.417,0.519 16.417,0.519 0,0 0.999,0.24 1.278,-1.158 0.04,0 1.198,-8.549 0.6,-11.664"
           style="fill:none;stroke:#000000;stroke-width:0.08px"
           id="path57" /><path
           d="m 35.548,6.394 c 0,0 0.639,-1.118 0.859,-1.159"
           style="fill:none;stroke:#000000;stroke-width:0.08px"
           id="path59" /><path
           d="m 3.842,10.519 c 0,0 -0.03,1.008 0.03,1.228 0,0 0.08,0.259 0.239,0.519 0.02,0 0.759,1.078 0.759,1.078 l 0.46,0.78"
           style="fill:none;stroke:#000000;stroke-width:0.08px"
           id="path61" /><path
           d="m 31.773,5.595 c -0.179,1.957 0.2,1.757 0.2,1.757 1.135,0.137 2.118,0.045 2.137,0.041 -0.08,0.459 0.779,0.339 0.779,0.319 0.279,-0.08 0.08,-0.659 0.08,-0.659 l -0.44,0.02 c 0,0 -0.02,-0.24 0,-0.2 0.08,-0.848 -0.059,-0.938 -0.059,-0.958 -0.5,-1.04 -1.518,-1.159 -1.499,-1.159 -0.013,0 -0.025,0 -0.038,0 -1.082,0 -1.16,0.839 -1.16,0.839 z"
           style="fill:#333333;fill-rule:nonzero"
           id="path63" /><path
           d="m 31.773,5.595 c 0,0 0.08,-0.859 1.198,-0.839 -0.019,0 0.999,0.12 1.498,1.158 0,0.021 0.14,0.111 0.06,0.96 -0.02,-0.041 0,0.199 0,0.199 l 0.44,-0.02 c 0,0 0.2,0.579 -0.08,0.659 0,0.02 -0.859,0.14 -0.779,-0.319 0.02,0 -0.979,0.099 -2.137,-0.04 0,0 -0.38,0.199 -0.2,-1.758 z"
           style="fill:none;stroke:#000000;stroke-width:0.08px"
           id="path65" /><path
           d="m 1.288,13.95 c 0,0 0.081,-0.798 2.557,-0.639 0,0 0.426,0.027 0.16,0.373 -0.053,0 -2.636,1.278 -3.222,4.181"
           style="fill:none;stroke:#123b70;stroke-width:0.16px"
           id="path67" /><path
           d="m 6.029,1.601 c 0,0 -0.1,-0.579 0.32,-0.699"
           style="fill:none;stroke:#000000;stroke-width:0.08px"
           id="path69" /><path
           d="m 2.301,7.293 c 0,0 0.346,-0.227 0.159,-0.466 0.014,0 -0.306,-0.08 -0.306,0.026 0,0.027 -0.226,0.44 0.147,0.44 z"
           style="fill:#333333;fill-rule:nonzero;stroke:#000000;stroke-width:0.08px"
           id="path71" /><path
           d="m 5.15,7.492 c 0,0 31.636,1.638 34.113,1.838 0,0.08 1.278,-0.08 0.759,-0.679 -0.12,0 -2.317,-2.117 -5.952,-4.115"
           style="fill:none;stroke:#003863;stroke-width:0.08px"
           id="path73" /></g></g></g><defs
     id="defs135"><linearGradient
       id="_Linear1"
       x1="0"
       y1="0"
       x2="1"
       y2="0"
       gradientUnits="userSpaceOnUse"
       gradientTransform="matrix(0,-6.11578,6.11578,0,7.39357,7.41276)"><stop
         offset="0%"
         style="stop-color:#f2f3ff;stop-opacity:1"
         id="stop80" /><stop
         offset="100%"
         style="stop-color:#edf4ff;stop-opacity:1"
         id="stop82" /></linearGradient><linearGradient
       id="_Linear3"
       x1="0"
       y1="0"
       x2="1"
       y2="0"
       gradientUnits="userSpaceOnUse"
       gradientTransform="matrix(-0.127464,1.21274,-1.21274,-0.127464,41.1363,6.98688)"><stop
         offset="0%"
         style="stop-color:#231f20;stop-opacity:1"
         id="stop85" /><stop
         offset="100%"
         style="stop-color:#414042;stop-opacity:1"
         id="stop87" /></linearGradient><linearGradient
       id="_Linear4"
       x1="0"
       y1="0"
       x2="1"
       y2="0"
       gradientUnits="userSpaceOnUse"
       gradientTransform="matrix(0,21.9491,-21.9491,0,25.6061,0.083367)"><stop
         offset="0%"
         style="stop-color:#3b6dad;stop-opacity:1"
         id="stop90" /><stop
         offset="100%"
         style="stop-color:#123b70;stop-opacity:1"
         id="stop92" /></linearGradient><linearGradient
       id="_Linear6"
       x1="0"
       y1="0"
       x2="1"
       y2="0"
       gradientUnits="userSpaceOnUse"
       gradientTransform="matrix(0,-7.21253,7.21253,0,25.186,8.09181)"><stop
         offset="0%"
         style="stop-color:#231f20;stop-opacity:1"
         id="stop95" /><stop
         offset="100%"
         style="stop-color:#464547;stop-opacity:1"
         id="stop97" /></linearGradient><linearGradient
       id="_Linear7"
       x1="0"
       y1="0"
       x2="1"
       y2="0"
       gradientUnits="userSpaceOnUse"
       gradientTransform="matrix(0,-6.26093,6.26093,0,24.9102,7.70644)"><stop
         offset="0%"
         style="stop-color:#f2f3ff;stop-opacity:1"
         id="stop100" /><stop
         offset="100%"
         style="stop-color:#edf4ff;stop-opacity:1"
         id="stop102" /></linearGradient><radialGradient
       id="_Radial9"
       cx="0"
       cy="0"
       r="1"
       gradientUnits="userSpaceOnUse"
       gradientTransform="matrix(3.57032,0,0,3.57032,7.64758,20.064)"><stop
         offset="0%"
         style="stop-color:#8a8c8e;stop-opacity:1"
         id="stop105" /><stop
         offset="84%"
         style="stop-color:#6b6c6f;stop-opacity:1"
         id="stop107" /><stop
         offset="96%"
         style="stop-color:#4d4d4f;stop-opacity:1"
         id="stop109" /><stop
         offset="100%"
         style="stop-color:#4d4d4f;stop-opacity:1"
         id="stop111" /></radialGradient><radialGradient
       id="_Radial10"
       cx="0"
       cy="0"
       r="1"
       gradientUnits="userSpaceOnUse"
       gradientTransform="matrix(3.74419,0,0,3.74419,43.2791,19.9273)"><stop
         offset="0%"
         style="stop-color:#8a8c8e;stop-opacity:1"
         id="stop114" /><stop
         offset="84%"
         style="stop-color:#6b6c6f;stop-opacity:1"
         id="stop116" /><stop
         offset="96%"
         style="stop-color:#4d4d4f;stop-opacity:1"
         id="stop118" /><stop
         offset="100%"
         style="stop-color:#4d4d4f;stop-opacity:1"
         id="stop120" /></radialGradient><linearGradient
       id="_Linear11"
       x1="0"
       y1="0"
       x2="1"
       y2="0"
       gradientUnits="userSpaceOnUse"
       gradientTransform="matrix(0,3.9741,-3.9741,0,45.3509,8.49152)"><stop
         offset="0%"
         style="stop-color:#f2f3ff;stop-opacity:1"
         id="stop123" /><stop
         offset="100%"
         style="stop-color:#edf4ff;stop-opacity:1"
         id="stop125" /></linearGradient><linearGradient
       id="_Linear12"
       x1="0"
       y1="0"
       x2="1"
       y2="0"
       gradientUnits="userSpaceOnUse"
       gradientTransform="matrix(0,2.98487,-2.98487,0,33.3813,4.75606)"><stop
         offset="0%"
         style="stop-color:#a3a5a8;stop-opacity:1"
         id="stop128" /><stop
         offset="53%"
         style="stop-color:#2d2a2b;stop-opacity:1"
         id="stop130" /><stop
         offset="100%"
         style="stop-color:#2d2a2b;stop-opacity:1"
         id="stop132" /></linearGradient></defs></svg>
