<?xml version="1.0" encoding="UTF-8" standalone="no"?>
<svg
   xmlns:dc="http://purl.org/dc/elements/1.1/"
   xmlns:cc="http://creativecommons.org/ns#"
   xmlns:rdf="http://www.w3.org/1999/02/22-rdf-syntax-ns#"
   xmlns:svg="http://www.w3.org/2000/svg"
   xmlns="http://www.w3.org/2000/svg"
   xmlns:sodipodi="http://sodipodi.sourceforge.net/DTD/sodipodi-0.dtd"
   xmlns:inkscape="http://www.inkscape.org/namespaces/inkscape"
   inkscape:version="1.0 (4035a4fb49, 2020-05-01)"
   sodipodi:docname="voiture--citadine.svg"
   id="svg137"
   style="fill-rule:evenodd;clip-rule:evenodd;stroke-linecap:round;stroke-linejoin:round;"
   xml:space="preserve"
   version="1.1"
   viewBox="0 0 52 26"
   height="100%"
   width="100%"><metadata
     id="metadata141"><rdf:RDF><cc:Work
         rdf:about=""><dc:format>image/svg+xml</dc:format><dc:type
           rdf:resource="http://purl.org/dc/dcmitype/StillImage" /></cc:Work></rdf:RDF></metadata><sodipodi:namedview
     inkscape:current-layer="svg137"
     inkscape:window-maximized="1"
     inkscape:window-y="-8"
     inkscape:window-x="-8"
     inkscape:cy="13"
     inkscape:cx="26"
     inkscape:zoom="25.769231"
     showgrid="false"
     id="namedview139"
     inkscape:window-height="1017"
     inkscape:window-width="1920"
     inkscape:pageshadow="2"
     inkscape:pageopacity="0"
     guidetolerance="10"
     gridtolerance="10"
     objecttolerance="10"
     borderopacity="1"
     bordercolor="#666666"
     pagecolor="#ffffff" /><g
     id="cat_citadine"><path
       id="path2"
       style="fill:#ffffff;fill-rule:nonzero"
       d="M4.964,1.594c0,0 -1.611,2.517 -2.61,5.592l5.18,0.227l4.899,-4.368l-1.904,-1.558c0,0 -1.41,-0.19 -2.938,-0.19c-0.93,0 -1.902,0.07 -2.627,0.297Z" /><path
       id="path4"
       style="fill:none;stroke:#000;stroke-width:0.16px;"
       d="M4.964,1.594c0,0 -1.611,2.517 -2.61,5.592l5.179,0.227l4.9,-4.367l-1.904,-1.559c0,0 -3.648,-0.492 -5.565,0.107Z" /><clipPath
       id="_clip2"><path
         id="path6"
         d="M39.073,6.903c0.01,0 1.298,1.009 1.298,1.009l1.988,0.429l0.729,-0.199c0,0 -1.059,-0.719 -1.249,-0.629c0,0.009 -0.24,0.119 -0.24,0.119c0,0 -0.239,0.03 -0.499,-0.08c-0.01,-0.039 -0.679,-0.269 -0.689,0c-0.01,0.27 -0.24,0.01 -0.249,-0.119c0,0.009 0.05,-0.11 -0.07,-0.21c0.01,0.01 -0.49,-0.38 -0.49,-0.38c0,0 -0.179,-0.047 -0.33,-0.047c-0.107,0 -0.199,0.024 -0.199,0.107Z" /></clipPath><g
       id="g11"
       clip-path="url(#_clip2)"><path
         id="path9"
         style="fill:url(#_Linear3);fill-rule:nonzero;"
         d="M43.187,7.191l-0.128,1.224l-4.108,-0.432l0.129,-1.223l4.107,0.431Z" /></g><path
       id="path13"
       style="fill:#333333;stroke:#000;stroke-width:0.16px"
       d="M43.088,8.142c0,0 -1.059,-0.72 -1.249,-0.629c0,0.009 -0.24,0.119 -0.24,0.119c0,0 -0.239,0.03 -0.499,-0.08c-0.009,-0.039 -0.679,-0.269 -0.689,0c-0.01,0.27 -0.239,0.01 -0.249,-0.12c0,0.01 0.05,-0.109 -0.07,-0.209c0.01,0.01 -0.49,-0.38 -0.49,-0.38c0,0 -0.529,-0.14 -0.529,0.061c0.01,0 1.298,1.008 1.298,1.008l1.988,0.429l0.729,-0.199Z" /><path
       id="path15"
       style="fill:#333333;fill-rule:nonzero;stroke:#000;stroke-width:0.08px"
       d="M1.262,20.501l1.758,0.373l9.107,0.906l2.823,-0.374l-1.971,-7.669l-7.19,-1.65l-3.515,2.609l-1.012,5.805Z" /><path
       id="path17"
       style="fill:#333333;fill-rule:nonzero;stroke:#000;stroke-width:0.08px"
       d="M36.36,21.726l2.663,0.533l9.054,-0.639l1.598,-0.8l-0.16,-6.125l-7.776,-2.982l-5.592,3.356l0.213,6.657Z" /><path
       id="path19"
       style="fill:#4786b3;fill-rule:nonzero;fill-opacity:1"
       d="M9.864,0.506c-2.273,0.216 -3.675,0.432 -3.675,0.422c-1.039,0.134 -1.225,0.666 -1.225,0.666c1.145,0 3.701,0.292 3.675,0.267c2.183,0.159 2.077,1.277 2.077,1.304c0.133,1.864 -4.128,3.541 -4.155,3.541c-1.328,-0.436 -2.607,-0.154 -3.398,0.127c-0.499,0.178 -0.805,0.355 -0.809,0.354c-0.24,0.533 -0.372,3.194 -0.372,3.248c0,1.384 -0.667,2.264 -0.693,2.264c-1.997,2.317 -0.772,7.35 -0.772,7.323c0.212,0.931 0.918,0.652 0.918,0.652c-0.159,-7.07 6.392,-6.871 6.351,-6.91c6.991,0.519 6.432,8.148 6.391,8.148c5.992,-0.08 22.41,0.12 22.41,0.12c-0.4,-8.748 6.75,-8.322 6.724,-8.375c7.483,0.692 5.858,7.829 5.885,7.803c1.517,0.08 1.571,-0.906 1.571,-0.906c0.918,-4.274 -0.559,-6.37 -0.599,-6.471c-0.679,-0.719 -1.159,-2.076 -1.159,-2.116c-0.159,-0.759 -0.799,-1.798 -0.878,-1.838c-1.319,-1.438 -4.74,-2.037 -4.794,-2.09c-0.426,0.106 -1.158,0.133 -1.119,0.133c-0.838,0 -3.075,-1.199 -3.115,-1.278c-4.913,-3.236 -9.906,-5.607 -9.986,-5.632c-1.518,-0.6 -3.116,-0.76 -3.195,-0.8c-2.517,-0.276 -5.038,-0.378 -7.397,-0.378c-3.387,0 -6.44,0.211 -8.661,0.422Zm-7.51,6.681l0,-0.001l0,0.001Z" /><g
       id="g77"><clipPath
         id="_clip5"><rect
           id="rect21"
           height="25.081"
           width="51.084"
           y="0.003"
           x="0.064" /></clipPath><g
         id="g75"
         clip-path="url(#_clip5)"><path
           id="path24"
           style="fill:none;stroke:#000;stroke-width:0.16px;"
           d="M4.964,1.594c0,0 0.186,-0.532 1.225,-0.666c0,0.027 9.906,-1.545 19.733,-0.466c0.079,0.04 1.677,0.2 3.195,0.8c0.08,0.024 5.073,2.396 9.986,5.632c0.04,0.079 2.277,1.278 3.115,1.278c-0.039,0 0.693,-0.027 1.119,-0.133c0.054,0.053 3.475,0.652 4.794,2.09c0.079,0.04 0.718,1.078 0.878,1.838c0,0.039 0.479,1.397 1.159,2.116c0.04,0.101 1.518,2.197 0.599,6.471c0,0 -0.054,0.986 -1.571,0.906c-0.027,0.027 1.597,-7.111 -5.885,-7.803c0.026,0.054 -7.124,-0.373 -6.724,8.375c0,0 -16.417,-0.2 -22.409,-0.12c0.04,0 0.599,-7.629 -6.391,-8.148c0.04,0.039 -6.511,-0.16 -6.352,6.91c0,0 -0.706,0.28 -0.918,-0.652c0,0.027 -1.225,-5.006 0.772,-7.324c0.026,0 0.693,-0.879 0.693,-2.263c0,-0.053 0.132,-2.716 0.372,-3.249c-0.026,0.027 2.024,-1.198 4.207,-0.479c0.027,0 4.288,-1.678 4.155,-3.542c0,-0.026 0.106,-1.145 -2.077,-1.304c0.026,0.025 -2.53,-0.267 -3.675,-0.267Z" /><path
           id="path26"
           style="fill:#333333;fill-rule:nonzero"
           d="M15.136,1.248c-1.118,0.239 -1.145,0.985 -1.171,1.038c-0.373,1.732 -0.4,4.873 -0.4,4.9c2.956,0.053 17.523,0.666 17.523,0.693c1.704,0.106 4.766,0.213 4.74,0.213c1.545,-0.053 0.799,-0.746 0.799,-0.772c-5.06,-4.288 -9.687,-5.789 -9.774,-5.806c-1.997,-0.486 -4.21,-0.635 -6.171,-0.635c-3.086,0 -5.546,0.369 -5.546,0.369Z" /><path
           id="path28"
           style="fill:none;stroke:#000;stroke-width:0.08px;"
           d="M15.136,1.248c0,0 6.578,-0.986 11.717,0.266c0.087,0.017 4.714,1.518 9.774,5.806c0,0.026 0.745,0.718 -0.799,0.772c0.026,0 -3.036,-0.107 -4.74,-0.213c0,-0.027 -14.567,-0.64 -17.523,-0.693c0,-0.027 0.027,-3.169 0.4,-4.9c0.026,-0.053 0.053,-0.798 1.171,-1.038Z" /><path
           id="path30"
           style="fill:#ffffff;fill-rule:nonzero"
           d="M15.536,1.761c0,0 0.419,5.192 0.399,5.192c4.773,0.12 14.42,0.58 14.4,0.56c3.346,0.159 3.695,0.209 3.695,0.189c0.4,-0.16 0.22,-1.447 0.18,-1.467c-3.955,-3.137 -7.525,-4.196 -7.65,-4.215c-1.976,-0.441 -4.108,-0.574 -5.965,-0.574c-2.853,0 -5.059,0.315 -5.059,0.315Z" /><g
           id="g41"><clipPath
             id="_clip8"><rect
               id="rect32"
               height="25.081"
               width="51.084"
               y="0.003"
               x="0.064" /></clipPath><g
             id="g39"
             clip-path="url(#_clip8)"><path
               id="path35"
               style="fill-rule:nonzero;"
               d="M2.731,20.064c0,-2.716 2.202,-4.917 4.916,-4.917c2.716,0 4.917,2.201 4.917,4.917c0,2.716 -2.201,4.916 -4.917,4.916c-2.714,0 -4.916,-2.2 -4.916,-4.916" /><path
               id="path37"
               style="fill-rule:nonzero;"
               d="M38.149,19.927c0,-2.848 2.308,-5.156 5.156,-5.156c2.847,0 5.155,2.308 5.155,5.156c0,2.848 -2.308,5.156 -5.155,5.156c-2.848,0 -5.156,-2.308 -5.156,-5.156" /></g></g><path
           id="path43"
           style="fill:#ffffff;fill-rule:nonzero"
           d="M4.077,20.064c0,1.972 1.598,3.57 3.57,3.57c1.972,0 3.571,-1.598 3.571,-3.57c0,-1.971 -1.599,-3.57 -3.571,-3.57c-1.972,0 -3.57,1.599 -3.57,3.57Z" /><path
           id="path45"
           style="fill:none;stroke:#b9b9b9;stroke-width:0.08px;"
           d="M4.077,20.064c0,-1.971 1.598,-3.57 3.571,-3.57c1.971,0 3.57,1.599 3.57,3.57c0,1.972 -1.599,3.57 -3.57,3.57c-1.973,0 -3.571,-1.598 -3.571,-3.57Z" /><path
           id="path47"
           style="fill:#ffffff;fill-rule:nonzero"
           d="M39.535,19.928c0,2.068 1.676,3.744 3.744,3.744c2.068,0 3.744,-1.676 3.744,-3.744c0,-2.069 -1.676,-3.745 -3.744,-3.745c-2.068,0 -3.744,1.676 -3.744,3.745Z" /><path
           id="path49"
           style="fill:none;stroke:#b9b9b9;stroke-width:0.08px;"
           d="M39.535,19.927c0,-2.068 1.676,-3.744 3.744,-3.744c2.068,0 3.744,1.676 3.744,3.744c0,2.068 -1.676,3.744 -3.744,3.744c-2.068,0 -3.744,-1.676 -3.744,-3.744Z" /><path
           id="path51"
           style="fill:#ffffff;fill-rule:nonzero"
           d="M42.738,8.911c0,0 -0.28,0.219 0.04,0.538c0,0.06 3.555,2.896 5.233,3.017c0,-0.06 0.379,-0.56 -0.679,-1.778c0.019,0 -0.14,-0.779 -0.58,-1.018c0.02,0.019 -0.639,-0.64 -3.574,-1.178c0,0 -0.337,0.289 -0.44,0.419Z" /><path
           id="path53"
           style="fill:none;stroke:#000;stroke-width:0.08px;"
           d="M43.177,8.492c0,0 -0.336,0.289 -0.439,0.419c0,0 -0.28,0.219 0.04,0.539c0,0.059 3.555,2.896 5.233,3.016c0,-0.061 0.379,-0.559 -0.679,-1.778c0.019,0 -0.14,-0.779 -0.579,-1.018c0.019,0.019 -0.64,-0.64 -3.576,-1.178Z" /><path
           id="path55"
           style="fill:#f46154;fill-rule:nonzero;stroke:#000;stroke-width:0.08px;"
           d="M2.494,7.293c0,0 2.077,-1.099 3.854,-0.453c-0.04,-0.026 -1.118,0.266 -1.358,0.6c-0.013,0 -0.785,0.705 -1.118,2.902c0,0.014 -0.04,0.413 -0.306,0.533c0.027,0.013 -0.839,0.306 -0.839,0.306c0,0 -0.439,0.239 -0.439,-0.227c0,-0.026 -0.127,-1.997 0.206,-3.661Z" /><path
           id="path57"
           style="fill:none;stroke:#000;stroke-width:0.08px;"
           d="M13.618,7.173l-0.459,0.639c0,0 0.18,5.153 2.097,10.705c0.04,0.08 0.52,1.678 2.317,1.798c0.08,0.04 16.417,0.519 16.417,0.519c0,0 0.999,0.24 1.278,-1.158c0.04,0 1.198,-8.549 0.6,-11.664" /><path
           id="path59"
           style="fill:none;stroke:#000;stroke-width:0.08px;"
           d="M35.548,6.394c0,0 0.639,-1.118 0.859,-1.159" /><path
           id="path61"
           style="fill:none;stroke:#000;stroke-width:0.08px;"
           d="M3.842,10.519c0,0 -0.03,1.008 0.03,1.228c0,0 0.08,0.259 0.239,0.519c0.02,0 0.759,1.078 0.759,1.078l0.46,0.78" /><path
           id="path63"
           style="fill:#333333;fill-rule:nonzero"
           d="M31.773,5.595c-0.179,1.957 0.2,1.757 0.2,1.757c1.135,0.137 2.118,0.045 2.137,0.041c-0.08,0.459 0.779,0.339 0.779,0.319c0.279,-0.08 0.08,-0.659 0.08,-0.659l-0.44,0.02c0,0 -0.02,-0.24 0,-0.2c0.08,-0.848 -0.059,-0.938 -0.059,-0.958c-0.5,-1.04 -1.518,-1.159 -1.499,-1.159c-0.013,0 -0.025,0 -0.038,0c-1.082,0 -1.16,0.839 -1.16,0.839Z" /><path
           id="path65"
           style="fill:none;stroke:#000;stroke-width:0.08px;"
           d="M31.773,5.595c0,0 0.08,-0.859 1.198,-0.839c-0.019,0 0.999,0.12 1.498,1.158c0,0.021 0.14,0.111 0.06,0.96c-0.02,-0.041 0,0.199 0,0.199l0.44,-0.02c0,0 0.2,0.579 -0.08,0.659c0,0.02 -0.859,0.14 -0.779,-0.319c0.02,0 -0.979,0.099 -2.137,-0.04c0,0 -0.38,0.199 -0.2,-1.758Z" /><path
           id="path67"
           style="fill:none;stroke:#123b70;stroke-width:0.16px;"
           d="M1.288,13.95c0,0 0.081,-0.798 2.557,-0.639c0,0 0.426,0.027 0.16,0.373c-0.053,0 -2.636,1.278 -3.222,4.181" /><path
           id="path69"
           style="fill:none;stroke:#000;stroke-width:0.08px;"
           d="M6.029,1.601c0,0 -0.1,-0.579 0.32,-0.699" /><path
           id="path71"
           style="fill:#333333;fill-rule:nonzero;stroke:#000;stroke-width:0.08px"
           d="M2.301,7.293c0,0 0.346,-0.227 0.159,-0.466c0.014,0 -0.306,-0.08 -0.306,0.026c0,0.027 -0.226,0.44 0.147,0.44Z" /><path
           id="path73"
           style="fill:none;stroke:#003863;stroke-width:0.08px;"
           d="M5.15,7.492c0,0 31.636,1.638 34.113,1.838c0,0.08 1.278,-0.08 0.759,-0.679c-0.12,0 -2.317,-2.117 -5.952,-4.115" /></g></g></g><defs
     id="defs135"><linearGradient
       gradientTransform="matrix(0,-6.11578,6.11578,0,7.39357,7.41276)"
       gradientUnits="userSpaceOnUse"
       y2="0"
       x2="1"
       y1="0"
       x1="0"
       id="_Linear1"><stop
         id="stop80"
         style="stop-color:#f2f3ff;stop-opacity:1"
         offset="0%" /><stop
         id="stop82"
         style="stop-color:#edf4ff;stop-opacity:1"
         offset="100%" /></linearGradient><linearGradient
       gradientTransform="matrix(-0.127464,1.21274,-1.21274,-0.127464,41.1363,6.98688)"
       gradientUnits="userSpaceOnUse"
       y2="0"
       x2="1"
       y1="0"
       x1="0"
       id="_Linear3"><stop
         id="stop85"
         style="stop-color:#231f20;stop-opacity:1"
         offset="0%" /><stop
         id="stop87"
         style="stop-color:#414042;stop-opacity:1"
         offset="100%" /></linearGradient><linearGradient
       gradientTransform="matrix(0,21.9491,-21.9491,0,25.6061,0.083367)"
       gradientUnits="userSpaceOnUse"
       y2="0"
       x2="1"
       y1="0"
       x1="0"
       id="_Linear4"><stop
         id="stop90"
         style="stop-color:#3b6dad;stop-opacity:1"
         offset="0%" /><stop
         id="stop92"
         style="stop-color:#123b70;stop-opacity:1"
         offset="100%" /></linearGradient><linearGradient
       gradientTransform="matrix(0,-7.21253,7.21253,0,25.186,8.09181)"
       gradientUnits="userSpaceOnUse"
       y2="0"
       x2="1"
       y1="0"
       x1="0"
       id="_Linear6"><stop
         id="stop95"
         style="stop-color:#231f20;stop-opacity:1"
         offset="0%" /><stop
         id="stop97"
         style="stop-color:#464547;stop-opacity:1"
         offset="100%" /></linearGradient><linearGradient
       gradientTransform="matrix(0,-6.26093,6.26093,0,24.9102,7.70644)"
       gradientUnits="userSpaceOnUse"
       y2="0"
       x2="1"
       y1="0"
       x1="0"
       id="_Linear7"><stop
         id="stop100"
         style="stop-color:#f2f3ff;stop-opacity:1"
         offset="0%" /><stop
         id="stop102"
         style="stop-color:#edf4ff;stop-opacity:1"
         offset="100%" /></linearGradient><radialGradient
       gradientTransform="matrix(3.57032,0,0,3.57032,7.64758,20.064)"
       gradientUnits="userSpaceOnUse"
       r="1"
       cy="0"
       cx="0"
       id="_Radial9"><stop
         id="stop105"
         style="stop-color:#8a8c8e;stop-opacity:1"
         offset="0%" /><stop
         id="stop107"
         style="stop-color:#6b6c6f;stop-opacity:1"
         offset="84%" /><stop
         id="stop109"
         style="stop-color:#4d4d4f;stop-opacity:1"
         offset="96%" /><stop
         id="stop111"
         style="stop-color:#4d4d4f;stop-opacity:1"
         offset="100%" /></radialGradient><radialGradient
       gradientTransform="matrix(3.74419,0,0,3.74419,43.2791,19.9273)"
       gradientUnits="userSpaceOnUse"
       r="1"
       cy="0"
       cx="0"
       id="_Radial10"><stop
         id="stop114"
         style="stop-color:#8a8c8e;stop-opacity:1"
         offset="0%" /><stop
         id="stop116"
         style="stop-color:#6b6c6f;stop-opacity:1"
         offset="84%" /><stop
         id="stop118"
         style="stop-color:#4d4d4f;stop-opacity:1"
         offset="96%" /><stop
         id="stop120"
         style="stop-color:#4d4d4f;stop-opacity:1"
         offset="100%" /></radialGradient><linearGradient
       gradientTransform="matrix(0,3.9741,-3.9741,0,45.3509,8.49152)"
       gradientUnits="userSpaceOnUse"
       y2="0"
       x2="1"
       y1="0"
       x1="0"
       id="_Linear11"><stop
         id="stop123"
         style="stop-color:#f2f3ff;stop-opacity:1"
         offset="0%" /><stop
         id="stop125"
         style="stop-color:#edf4ff;stop-opacity:1"
         offset="100%" /></linearGradient><linearGradient
       gradientTransform="matrix(0,2.98487,-2.98487,0,33.3813,4.75606)"
       gradientUnits="userSpaceOnUse"
       y2="0"
       x2="1"
       y1="0"
       x1="0"
       id="_Linear12"><stop
         id="stop128"
         style="stop-color:#a3a5a8;stop-opacity:1"
         offset="0%" /><stop
         id="stop130"
         style="stop-color:#2d2a2b;stop-opacity:1"
         offset="53%" /><stop
         id="stop132"
         style="stop-color:#2d2a2b;stop-opacity:1"
         offset="100%" /></linearGradient></defs></svg>
