<?xml version="1.0" encoding="UTF-8" standalone="no"?>
<svg
   xmlns:dc="http://purl.org/dc/elements/1.1/"
   xmlns:cc="http://creativecommons.org/ns#"
   xmlns:rdf="http://www.w3.org/1999/02/22-rdf-syntax-ns#"
   xmlns:svg="http://www.w3.org/2000/svg"
   xmlns="http://www.w3.org/2000/svg"
   xmlns:sodipodi="http://sodipodi.sourceforge.net/DTD/sodipodi-0.dtd"
   xmlns:inkscape="http://www.inkscape.org/namespaces/inkscape"
   width="521.60046"
   height="150"
   viewBox="0 0 521.60046 150"
   version="1.1"
   xml:space="preserve"
   style="clip-rule:evenodd;fill-rule:evenodd;stroke-linecap:round;stroke-linejoin:round"
   id="svg217"
   sodipodi:docname="coupe.svg"
   inkscape:version="1.0 (4035a4fb49, 2020-05-01)"><metadata
     id="metadata221"><rdf:RDF><cc:Work
         rdf:about=""><dc:format>image/svg+xml</dc:format><dc:type
           rdf:resource="http://purl.org/dc/dcmitype/StillImage" /><dc:title></dc:title></cc:Work></rdf:RDF></metadata><sodipodi:namedview
     fit-margin-bottom="0"
     fit-margin-right="0"
     fit-margin-left="0"
     fit-margin-top="0"
     inkscape:document-rotation="0"
     pagecolor="#ffffff"
     bordercolor="#666666"
     borderopacity="1"
     objecttolerance="10"
     gridtolerance="10"
     guidetolerance="10"
     inkscape:pageopacity="0"
     inkscape:pageshadow="2"
     inkscape:window-width="1920"
     inkscape:window-height="1017"
     id="namedview219"
     showgrid="false"
     inkscape:zoom="1.3459135"
     inkscape:cx="227.56815"
     inkscape:cy="103.17602"
     inkscape:window-x="-8"
     inkscape:window-y="-8"
     inkscape:window-maximized="1"
     inkscape:current-layer="cat_coupe" /><g
     transform="translate(-0.03102517,-0.01385375)"
     id="cat_coupe"><g
       transform="matrix(5.9793959,0,0,5.9793959,-0.15448657,-0.0689833)"
       id="g1003"><g
         id="g22"><path
           id="path2"
           style="fill:url(#_Linear1);fill-rule:nonzero"
           d="m 0.491,17.756 c -0.014,0 0.394,0.949 0.599,1.241 0.014,0.014 0.263,0.306 0.627,0.218 0.044,0 -1.387,-2.407 -1.387,-2.407 0,0 -0.058,0.336 0.161,0.948 z" /><path
           id="path4"
           style="fill:#808080;stroke:#000000;stroke-width:0.09px"
           d="m 0.331,16.808 c 0,0 -0.059,0.336 0.161,0.949 -0.015,0 0.393,0.948 0.598,1.24 0.014,0.014 0.263,0.306 0.627,0.218 0.044,0 -1.386,-2.407 -1.386,-2.407 z" /><path
           id="path6"
           style="fill:#333333;fill-rule:nonzero;stroke:#000000;stroke-width:0.09px"
           d="m 0.389,16.428 c 0,0 -0.394,-0.219 -0.262,0.103 -0.015,0 1.882,3.559 2.218,4.012 0,0.03 0.277,0.481 0.817,0.569 0.539,0.088 0.481,0.058 0.481,0.058 l 3.575,0.686 c 0,0 1.984,0.204 2.437,-0.16 0,0.014 12.257,0.379 12.257,0.379 l 1.517,-5.632 -6.128,-5.72 -7.646,0.117 -2.539,3.969 -0.672,4.26 c 0,0 -4.887,-2.597 -6.055,-2.641 z" /><path
           id="path8"
           style="fill:#333333;fill-rule:nonzero;stroke:#000000;stroke-width:0.09px"
           d="m 59.689,21.637 c 0,0 1.838,0.46 3.655,0.176 0.021,-0.023 12.323,-0.066 12.323,-0.066 l 0.547,-7.442 -6.151,-3.611 -7.266,-0.154 -3.524,3.415 -0.131,6.435 z" /><path
           id="path10"
           style="fill:url(#_Linear2);fill-rule:nonzero"
           d="M 9.524,5.506 C 9.173,5.791 9.939,6.163 9.895,6.142 10.99,5.354 24.494,2.727 24.494,2.727 L 24.856,1.534 C 21.386,2.026 9.524,5.506 9.524,5.506 Z" /><path
           id="path12"
           style="fill:#ffffff;stroke:#000000;stroke-width:0.17px"
           d="m 9.523,5.506 c 0,0 11.863,-3.479 15.332,-3.972 l -0.361,1.193 c 0,0 -13.504,2.627 -14.598,3.414 C 9.939,6.164 9.173,5.791 9.523,5.506 Z" /><path
           id="path14"
           style="fill:#ffffff;fill-rule:nonzero"
           d="M 43.167,1.406 C 42.477,1.693 42.056,1.98 42.027,1.983 44.045,2.357 54.13,7.454 54.13,7.454 57.412,9.315 59.799,6.842 59.776,6.798 54.896,3.799 46.104,0.83 46.104,0.83 46.051,0.829 45.998,0.828 45.945,0.828 c -1.116,0 -2.083,0.289 -2.778,0.578 z m -1.14,0.577 c 0,0 0,0 -10e-4,0 0,0 10e-4,0 10e-4,0 z" /><path
           id="path16"
           style="fill:none;stroke:#000000;stroke-width:0.17px"
           d="m 46.104,0.83 c 0,0 8.792,2.969 13.672,5.968 0.022,0.044 -2.363,2.517 -5.646,0.656 0,0 -10.09,-5.099 -12.104,-5.471 0.022,0.022 1.744,-1.211 4.078,-1.153 z" /><path
           id="path18"
           style="fill:url(#_Linear4);fill-rule:nonzero"
           d="m 58.186,5.368 c 0.029,-0.029 -0.758,0.292 -1.109,0.729 -0.014,-0.014 -2.757,0.19 -3.079,0.935 0.044,0.014 0.744,0.977 1.941,0.817 -0.029,0.044 4.509,-1.109 4.173,-1.532 -0.029,0 -0.19,-0.249 -0.19,-0.249 L 59.481,5.911 c 0,0 -0.449,-0.441 -0.624,-0.572 0,0 -0.125,-0.057 -0.305,-0.057 -0.108,0 -0.235,0.02 -0.366,0.086 z" /><path
           id="path20"
           style="fill:#333333;stroke:#000000;stroke-width:0.09px"
           d="m 59.481,5.911 c 0,0 -0.449,-0.441 -0.624,-0.573 0,0 -0.32,-0.145 -0.671,0.029 0.029,-0.029 -0.758,0.293 -1.109,0.73 -0.014,-0.014 -2.758,0.19 -3.078,0.935 0.043,0.014 0.743,0.977 1.94,0.817 -0.029,0.044 4.509,-1.109 4.173,-1.532 -0.029,0 -0.189,-0.249 -0.189,-0.249 L 59.481,5.911" /></g><path
         id="path24"
         style="fill:#4786b3;fill-opacity:1;fill-rule:nonzero"
         d="M 24.856,1.534 C 24.407,1.71 24.133,2.026 24.133,2.026 23.826,2.169 23.16,2.355 23.137,2.333 19.963,2.902 10.53,5.412 10.53,5.412 9.859,5.383 9.115,5.572 9.115,5.572 8.998,5.69 6.62,6.404 6.62,6.404 1.265,5.703 1.381,7.192 1.371,7.192 1.36,7.51 1.787,9.578 1.787,9.567 2.093,9.95 4.183,10.584 4.172,10.573 4.675,10.781 4.511,11.121 4.5,11.11 4.457,11.679 3.822,12.193 3.822,12.182 3.308,12.642 0.9,12.123 0.929,12.095 c -0.963,0.992 -0.817,3.939 -0.788,3.969 0.263,0.204 0.175,0.408 0.146,0.379 2.189,3.122 4.028,4.114 4.028,4.114 0,0 3.209,0.701 3.268,0.643 -1.751,-9.923 6.945,-9.63 6.945,-9.573 8.697,1.168 7.121,10.74 7.063,10.74 1.634,-0.234 38.754,0.176 38.813,0.176 -2.685,-11.557 7.062,-11.324 7.121,-11.266 9.513,0.818 7.617,10.886 7.587,10.915 11.206,-0.642 11.09,-1.101 11.184,-1.16 0.153,-0.117 0.328,-0.368 0.328,-0.38 0.077,-0.284 -0.317,-0.255 -0.306,-0.255 -1.335,0.514 -1.218,-0.018 -1.24,-0.029 -0.383,-0.832 -0.11,-2.21 -0.11,-2.244 0.132,-0.612 0.745,-0.558 0.733,-0.579 1.325,-0.044 1.478,-0.394 1.478,-0.394 0,0 -0.066,-1.358 -0.066,-1.303 -0.273,0.121 -1.608,0.143 -1.608,0.132 -0.471,-0.011 -0.482,-0.241 -0.493,-0.262 -0.46,-0.964 -0.12,-1.391 -0.142,-1.391 0.941,-0.657 1.007,-1.313 0.996,-1.313 0.525,-0.339 0.831,-0.689 0.831,-0.701 0.241,-0.437 -0.175,-0.612 -0.218,-0.656 C 77.417,6.623 60.849,6.076 60.838,6.065 60.411,6.033 60.515,6.114 60.455,6.13 60.28,6.218 60.214,6.163 60.225,6.163 60.05,6.033 59.623,5.911 59.623,5.901 59.432,5.838 59.412,5.863 59.43,5.888 c 0.013,0.016 0.042,0.032 0.051,0.023 0.044,0.066 0.383,0.208 0.383,0.219 0.208,0.099 0.044,0.165 0.044,0.165 0,0 -2.353,0.809 -2.364,0.809 C 56.691,7.312 56.055,7.301 56.055,7.301 54.305,7.258 52.553,6.338 52.553,6.338 48.636,4.172 43.131,2.037 43.12,2.026 42.923,1.906 43.208,1.818 43.197,1.808 44.881,0.945 45.92,0.818 46.082,0.825 43.657,0.294 41.002,0.1 38.414,0.1 31.382,0.1 24.856,1.534 24.856,1.534 Z M 46.104,0.83 c 0,-0.002 -0.007,-0.004 -0.022,-0.005 0.007,0.002 0.015,0.004 0.022,0.005 z" /><g
         id="g112"><path
           id="path26"
           style="fill:none;stroke:#000000;stroke-width:0.17px"
           d="m 9.115,5.572 c 0,0 0.744,-0.19 1.415,-0.16 0,0 9.433,-2.51 12.607,-3.079 0.022,0.022 0.69,-0.165 0.996,-0.307 0,0 0.274,-0.316 0.722,-0.492 0,0 12.232,-2.688 21.249,-0.704 0,-0.029 -1.069,0.036 -2.907,0.977 0.011,0.012 -0.273,0.099 -0.077,0.219 0.011,0.011 5.516,2.146 9.433,4.312 0,0 1.752,0.92 3.503,0.963 0,0 0.634,0.011 1.488,-0.197 0.011,0 2.364,-0.81 2.364,-0.81 0,0 0.164,-0.065 -0.044,-0.164 0,-0.011 -0.339,-0.153 -0.383,-0.219 -0.022,0.022 -0.175,-0.114 0.142,-0.011 0,0.011 0.427,0.132 0.602,0.263 -0.011,0 0.055,0.055 0.23,-0.033 0.06,-0.016 -0.044,-0.098 0.383,-0.065 0.011,0.011 16.579,0.558 25.641,5.592 0.043,0.044 0.46,0.219 0.218,0.656 0,0.011 -0.306,0.362 -0.831,0.701 0.011,0 -0.055,0.656 -0.996,1.313 0.022,0 -0.317,0.427 0.143,1.39 0.01,0.022 0.021,0.252 0.492,0.263 0,0.01 1.335,-0.011 1.608,-0.132 0,-0.055 0.066,1.303 0.066,1.303 0,0 -0.153,0.35 -1.478,0.394 0.012,0.021 -0.601,-0.033 -0.732,0.58 0,0.033 -0.274,1.411 0.109,2.243 0.022,0.011 -0.095,0.543 1.24,0.029 -0.011,0 0.383,-0.029 0.306,0.255 0,0.012 -0.175,0.263 -0.328,0.38 -0.094,0.059 0.022,0.518 -11.184,1.16 0.03,-0.029 1.926,-10.097 -7.587,-10.915 -0.059,-0.058 -9.806,-0.291 -7.121,11.265 -0.059,0 -37.179,-0.409 -38.813,-0.175 0.058,0 1.634,-9.572 -7.063,-10.74 0,-0.057 -8.696,-0.35 -6.945,9.573 -0.059,0.058 -3.268,-0.642 -3.268,-0.642 0,0 -1.839,-0.993 -4.028,-4.115 0.029,0.029 0.117,-0.176 -0.146,-0.379 -0.029,-0.03 -0.175,-2.977 0.788,-3.969 -0.029,0.029 2.379,0.547 2.893,0.087 0,0.011 0.635,-0.503 0.678,-1.072 C 4.511,11.121 4.675,10.781 4.172,10.573 4.183,10.585 2.093,9.95 1.787,9.567 1.787,9.578 1.36,7.51 1.371,7.192 c 0.011,0 -0.106,-1.488 5.249,-0.788 0,0 2.378,-0.715 2.495,-0.832 z" /><path
           id="path28"
           style="fill:#f46154;fill-rule:nonzero;stroke:#000000;stroke-width:0.17px"
           d="m 1.819,9.512 c 0,0 -0.7,1.372 -0.89,2.671 -0.015,0 0.715,0.685 2.991,0.306 0.015,0.014 1.854,-1.328 0.934,-1.926 0,0.014 -2.524,-1.051 -3.035,-1.051 z" /><path
           id="path30"
           style="fill:url(#_Linear6);fill-rule:nonzero"
           d="m 20.686,4.259 c -0.197,0.066 -0.055,0.186 -0.055,0.186 1.018,2.342 3.032,2.528 3.032,2.528 C 32.286,7.98 51.678,7.98 51.678,7.951 52.612,8.068 52.029,7.338 51.999,7.309 44.499,2.114 37.875,1.852 37.845,1.881 36.971,1.804 36.092,1.77 35.217,1.77 27.768,1.77 20.686,4.259 20.686,4.259 Z" /><path
           id="path32"
           style="fill:#333333;stroke:#000000;stroke-width:0.09px"
           d="m 20.686,4.259 c 0,0 8.842,-3.108 17.16,-2.378 0.029,-0.029 6.653,0.233 14.153,5.428 0.03,0.029 0.613,0.759 -0.321,0.642 0,0.029 -19.392,0.029 -28.015,-0.978 0,0 -2.014,-0.186 -3.032,-2.528 0,0 -0.142,-0.12 0.055,-0.186 z" /><path
           id="path34"
           style="fill:#ffffff;fill-rule:nonzero"
           d="m 28.357,2.749 c 0,0 1.171,4.399 1.171,4.421 3.7,0.416 18.911,0.525 18.889,0.525 C 49.205,7.345 47.87,5.354 47.87,5.31 43.733,2.99 39.4,2.355 39.4,2.355 38.299,2.158 37.058,2.084 35.817,2.084 c -3.724,0 -7.46,0.665 -7.46,0.665 z" /><path
           id="path36"
           style="fill:#ffffff;fill-rule:nonzero"
           d="m 21.693,4.226 c -0.405,0.143 -0.23,0.482 -0.23,0.471 0.503,1.707 2.046,1.969 2.046,1.969 2.518,0.373 5.648,0.468 5.648,0.468 L 28.105,2.793 c -1.904,0.241 -6.412,1.433 -6.412,1.433 z" /><path
           id="path38"
           style="fill:#ffffff;fill-rule:nonzero"
           d="m 74.747,10.738 c 1.27,2.932 9.295,2.393 9.295,2.364 0.875,-0.103 0.132,-0.643 0.117,-0.643 C 81.357,11.088 75.856,9.921 75.856,9.921 75.773,9.916 75.695,9.914 75.623,9.914 c -1.383,0 -0.876,0.824 -0.876,0.824 z" /><path
           id="path40"
           style="fill:none;stroke:#000000;stroke-width:0.09px"
           d="m 75.856,9.921 c 0,0 5.501,1.167 8.303,2.538 0.015,0 0.758,0.54 -0.117,0.643 0,0.029 -8.025,0.569 -9.295,-2.364 0,0 -0.562,-0.913 1.109,-0.817 z" /><path
           id="path42"
           style="fill:url(#_Linear10);fill-rule:nonzero"
           d="m 85.68,12.532 -1.368,1.171 c 0,0 0.438,2.343 0.427,2.343 0.306,0.678 2.276,-0.121 2.265,-0.132 0.043,-3.327 -0.383,-3.502 -0.383,-3.502 l -0.087,-0.054 z" /><path
           id="path44"
           style="fill:#333333;stroke:#000000;stroke-width:0.17px"
           d="m 86.534,12.357 0.087,0.055 c 0,0 0.427,0.175 0.383,3.501 0.011,0.012 -1.959,0.811 -2.265,0.132 0.011,0 -0.427,-2.342 -0.427,-2.342 l 1.368,-1.171 z" /><path
           id="path46"
           style="fill:url(#_Linear11);fill-rule:nonzero"
           d="m 84.815,17.362 -0.613,2.073 0.701,1.269 c 0,0 0.832,-0.044 0.846,-0.044 0.467,-0.263 0.905,-3.385 0.905,-3.385 l -0.277,-0.234 z" /><path
           id="path48"
           style="fill:#333333;stroke:#000000;stroke-width:0.17px"
           d="m 86.654,17.275 c 0,0 -0.438,3.122 -0.905,3.385 -0.015,0 -0.846,0.044 -0.846,0.044 l -0.7,-1.27 0.613,-2.072 1.561,-0.321 z" /><clipPath
           id="_clip12"><path
             id="path50"
             d="m 83.415,20.441 c -0.73,0.088 -3.736,0.131 -3.736,0.116 -0.496,0 -0.423,0.234 -0.452,0.248 -0.044,0.205 -0.41,1.008 -0.423,0.993 -0.145,0.043 -3.65,0.258 -3.678,0.249 0,0.151 -0.13,0.395 -0.144,0.408 6.303,-0.118 10.606,-0.978 10.636,-0.993 0.189,-0.073 0.102,-0.335 0.102,-0.35 0,-0.204 -0.102,-0.175 -0.102,-0.161 -0.336,0.132 -1.926,0.205 -1.926,0.205 0.029,-0.131 0,-0.569 -0.029,-0.599 -0.033,-0.106 -0.122,-0.13 -0.185,-0.13 -0.049,0 -0.083,0.014 -0.063,0.014 z m -8.289,1.606 v -0.001 z m -0.145,0.408 c 0,0.001 0,0 0.001,0 -0.001,0 -0.001,0 -0.001,0 z" /></clipPath><g
           id="g55"
           clip-path="url(#_clip12)"><path
             id="path53"
             style="fill:url(#_Linear13);fill-rule:nonzero"
             d="M 75.003,22.777 74.869,20.859 85.717,20.1 85.851,22.018 Z" /></g><path
           id="path57"
           style="fill:#333333;stroke:#000000;stroke-width:0.17px"
           d="m 83.692,21.156 c 0,0 1.59,-0.073 1.926,-0.205 0,-0.014 0.102,-0.043 0.102,0.161 0,0.015 0.087,0.277 -0.102,0.35 -0.03,0.015 -4.334,0.876 -10.637,0.993 0,0.014 0.145,-0.249 0.145,-0.409 -0.029,0.014 3.532,-0.204 3.678,-0.248 0.014,0.015 0.379,-0.788 0.423,-0.992 0.029,-0.015 -0.044,-0.248 0.452,-0.248 0,0.014 3.006,-0.029 3.736,-0.117 -0.044,0 0.189,-0.073 0.248,0.117 0.029,0.029 0.058,0.466 0.029,0.598 z" /><path
           id="path59"
           style="fill:url(#_Linear14);fill-rule:nonzero"
           d="m 54.239,10.869 v 0.263 l -0.022,0.35 c 0,0 0,0.525 -0.022,0.525 0.022,0.285 0.306,0.263 0.306,0.263 l 5.473,0.11 c 0.481,0 0.59,-0.241 0.59,-0.241 l 0.438,-0.46 0.35,-0.394 c 0,0 0.219,-0.219 0.197,-0.241 0.109,-0.241 -0.284,-0.35 -0.284,-0.35 l -6.457,-0.11 c -0.613,0.044 -0.569,0.285 -0.569,0.285 z" /><path
           id="path61"
           style="fill:#333333;stroke:#000000;stroke-width:0.09px"
           d="m 61.002,11.679 -0.438,0.46 c 0,0 -0.109,0.241 -0.591,0.241 l -5.472,-0.11 c 0,0 -0.284,0.022 -0.306,-0.263 0.022,0 0.022,-0.525 0.022,-0.525 l 0.022,-0.35 v -0.263 c 0,0 -0.044,-0.241 0.569,-0.285 l 6.457,0.11 c 0,0 0.394,0.11 0.284,0.35 0.022,0.022 -0.197,0.241 -0.197,0.241 z" /><clipPath
           id="_clip15"><path
             id="path63"
             d="m 51.793,11.547 10.593,0.167 0.006,-0.356 -10.593,-0.167 z" /></clipPath><g
           id="g68"
           clip-path="url(#_clip15)"><path
             id="path66"
             style="fill:url(#_Linear16);fill-rule:nonzero"
             d="m 62.392,11.358 -0.006,0.356 -10.593,-0.166 0.006,-0.357 z" /></g><path
           id="path70"
           style="fill:#4786b3;fill-opacity:1;stroke:#000000;stroke-width:0.09px"
           d="m 62.385,11.714 -10.591,-0.167 0.005,-0.356 10.592,0.167 z" /><path
           id="path72"
           style="fill:none;stroke:#000000;stroke-width:0.09px"
           d="M 28.882,7.159 28.817,7.4 c 0,0 -0.262,0.766 -0.493,1.401 0.011,0.01 -0.168,0.755 0.066,1.922 0,-0.028 1.518,8.638 6.917,8.288 0.029,0.03 24.688,1.08 24.688,1.08" /><path
           id="path74"
           style="fill:none;stroke:#000000;stroke-width:0.09px"
           d="m 52.174,7.805 c 0,0 0.642,0.759 0.73,0.993 0.029,0.029 0.35,1.166 0.291,2.801 -0.028,0 0.175,5.982 -0.145,8.17" /><path
           id="path76"
           style="fill:url(#_Linear17);fill-rule:nonzero"
           d="m 44.995,5.135 c 0.029,0.014 -0.759,0.058 -0.802,0.686 0,0.058 -0.117,1.109 0.131,1.283 -0.015,0.015 0.919,0.511 3.663,0.452 0.014,-0.013 0.773,0.118 0.686,0.366 0,0.029 3.063,0.029 3.063,0.029 0,0 0.861,0.043 0.263,-0.642 L 49.84,5.937 c 0,0 -0.146,0.832 -0.497,0.686 0,0.029 -0.598,-0.088 -0.598,-0.088 0,0 0.03,-0.276 -0.102,-0.423 0,0 -0.277,-0.656 -1.371,-0.875 0.011,0.006 -0.112,-0.03 -0.37,-0.067 -0.241,-0.034 -0.597,-0.068 -1.07,-0.068 -0.247,0 -0.526,0.009 -0.837,0.033 z" /><path
           id="path78"
           style="fill:#333333;stroke:#000000;stroke-width:0.09px"
           d="m 48.643,6.112 c 0,0 -0.277,-0.656 -1.371,-0.875 0.029,0.014 -0.73,-0.219 -2.277,-0.102 0.029,0.014 -0.758,0.058 -0.802,0.686 0,0.058 -0.117,1.109 0.131,1.284 -0.015,0.014 0.919,0.51 3.662,0.452 0.015,-0.014 0.774,0.117 0.687,0.365 0,0.029 3.063,0.029 3.063,0.029 0,0 0.861,0.043 0.263,-0.642 L 49.84,5.937 c 0,0 -0.146,0.832 -0.497,0.686 0,0.029 -0.598,-0.087 -0.598,-0.087 0,0 0.03,-0.277 -0.102,-0.424 z" /><path
           id="path80"
           style="fill:none;stroke:#000000;stroke-width:0.09px"
           d="m 3.935,12.431 c 0,0 0.015,0.174 0.434,0.168 0,0.01 5.56,0.372 5.56,0.372" /><path
           id="path82"
           style="fill:none;stroke:#000000;stroke-width:0.09px"
           d="m 20.591,4.318 c 0,0 -0.532,-1.073 -0.168,-1.409" /><path
           id="path84"
           style="fill-rule:nonzero"
           d="m 7.967,18.71 c 0,-3.502 2.838,-6.34 6.339,-6.34 3.502,0 6.34,2.838 6.34,6.34 0,3.501 -2.838,6.338 -6.34,6.338 -3.501,0 -6.339,-2.837 -6.339,-6.338" /><path
           id="path86"
           style="fill-rule:nonzero"
           d="m 60.893,18.451 c 0,-3.672 2.977,-6.649 6.648,-6.649 3.672,0 6.649,2.977 6.649,6.649 0,3.672 -2.977,6.649 -6.649,6.649 -3.671,0 -6.648,-2.977 -6.648,-6.649" /><path
           id="path88"
           style="fill:#ffffff;fill-rule:nonzero"
           d="m 9.703,18.71 c 0,2.541 2.061,4.603 4.603,4.603 2.544,0 4.604,-2.062 4.604,-4.603 0,-2.543 -2.06,-4.604 -4.604,-4.604 -2.542,0 -4.603,2.061 -4.603,4.604 z" /><path
           id="path90"
           style="fill:none;stroke:#b9b9b9;stroke-width:0.09px"
           d="m 9.703,18.71 c 0,-2.543 2.061,-4.605 4.603,-4.605 2.544,0 4.604,2.062 4.604,4.605 0,2.541 -2.06,4.603 -4.604,4.603 -2.542,0 -4.603,-2.062 -4.603,-4.603 z" /><path
           id="path92"
           style="fill:#ffffff;fill-rule:nonzero"
           d="m 62.68,18.451 c 0,2.666 2.162,4.828 4.829,4.828 2.666,0 4.827,-2.162 4.827,-4.828 0,-2.666 -2.161,-4.828 -4.827,-4.828 -2.667,0 -4.829,2.162 -4.829,4.828 z" /><path
           id="path94"
           style="fill:none;stroke:#b9b9b9;stroke-width:0.09px"
           d="m 62.68,18.451 c 0,-2.666 2.162,-4.828 4.829,-4.828 2.666,0 4.827,2.162 4.827,4.828 0,2.666 -2.161,4.828 -4.827,4.828 -2.667,0 -4.829,-2.162 -4.829,-4.828 z" /><path
           id="path96"
           style="fill:none;stroke:#000000;stroke-width:0.09px"
           d="m 55.213,7.236 c 0,0 3.743,0.744 9.816,0.919 0.405,0.044 15.781,2.036 20.585,4.389" /><path
           id="path98"
           style="fill:none;stroke:#000000;stroke-width:0.09px"
           d="m 22.24,22.337 c 0,0 -0.044,-1.05 5.406,-0.831 0,-0.044 24.382,0.526 25.477,0.263" /><path
           id="path100"
           style="fill:url(#_Linear20);fill-rule:nonzero"
           d="m 21.146,16.691 9.783,0.153 -9.433,-0.153 z" /><path
           id="path102"
           style="fill:none;stroke:#000000;stroke-width:0.09px"
           d="m 21.146,16.691 h 0.35 l 9.433,0.153" /><path
           id="path104"
           style="fill:none;stroke:#000000;stroke-width:0.09px"
           d="m 1.535,8.068 c 0,0 0.448,-0.285 0.97,-0.321 C 2.592,7.776 7.524,6.725 9.1,6.725 9.071,6.783 10.18,5.616 10.56,5.413" /><path
           id="path106"
           style="fill:none;stroke:#00244f;stroke-width:0.09px"
           d="m 84.421,17.26 c 0,0 -1.867,0.175 -2.918,0.088 0,0.029 -0.758,0.029 -1.05,0.613 -0.03,0 -0.818,1.721 -0.818,2.071 -0.029,-0.028 1.08,0.176 4.173,-0.087" /><path
           id="path108"
           style="fill:none;stroke:#00244f;stroke-width:0.09px"
           d="m 9.1,6.725 c 0,0 9.66,0.073 18.24,1.692" /><path
           id="path110"
           style="fill:none;stroke:#000000;stroke-width:0.09px"
           d="m 2.505,7.747 c 0,0 -1.226,-1.679 4.115,-1.343" /></g></g></g><defs
     id="defs215"><linearGradient
       id="_Linear1"
       x1="0"
       y1="0"
       x2="1"
       y2="0"
       gradientUnits="userSpaceOnUse"
       gradientTransform="matrix(0,2.42366,-2.42366,0,1.02091,16.808)"><stop
         offset="0%"
         style="stop-color:#999b9e;stop-opacity:1"
         id="stop115" /><stop
         offset="100%"
         style="stop-color:#616264;stop-opacity:1"
         id="stop117" /></linearGradient><linearGradient
       id="_Linear2"
       x1="0"
       y1="0"
       x2="1"
       y2="0"
       gradientUnits="userSpaceOnUse"
       gradientTransform="matrix(15.424,0,0,15.424,9.4315,3.83835)"><stop
         offset="0%"
         style="stop-color:#f2f3ff;stop-opacity:1"
         id="stop120" /><stop
         offset="100%"
         style="stop-color:#edf4ff;stop-opacity:1"
         id="stop122" /></linearGradient><linearGradient
       id="_Linear4"
       x1="0"
       y1="0"
       x2="1"
       y2="0"
       gradientUnits="userSpaceOnUse"
       gradientTransform="matrix(6.13161,0,0,6.13161,53.9984,6.57437)"><stop
         offset="0%"
         style="stop-color:#231f20;stop-opacity:1"
         id="stop130" /><stop
         offset="100%"
         style="stop-color:#464547;stop-opacity:1"
         id="stop132" /></linearGradient><linearGradient
       id="_Linear6"
       x1="0"
       y1="0"
       x2="1"
       y2="0"
       gradientUnits="userSpaceOnUse"
       gradientTransform="matrix(0,-6.19395,6.19395,0,36.3938,7.96374)"><stop
         offset="0%"
         style="stop-color:#231f20;stop-opacity:1"
         id="stop140" /><stop
         offset="100%"
         style="stop-color:#48484a;stop-opacity:1"
         id="stop142" /></linearGradient><linearGradient
       id="_Linear10"
       x1="0"
       y1="0"
       x2="1"
       y2="0"
       gradientUnits="userSpaceOnUse"
       gradientTransform="matrix(2.69494,0,0,2.69494,84.3123,14.3379)"><stop
         offset="0%"
         style="stop-color:#231f20;stop-opacity:1"
         id="stop160" /><stop
         offset="100%"
         style="stop-color:#4a4b4c;stop-opacity:1"
         id="stop162" /></linearGradient><linearGradient
       id="_Linear11"
       x1="0"
       y1="0"
       x2="1"
       y2="0"
       gradientUnits="userSpaceOnUse"
       gradientTransform="matrix(2.45108,0,0,2.45108,84.2027,18.8724)"><stop
         offset="0%"
         style="stop-color:#231f20;stop-opacity:1"
         id="stop165" /><stop
         offset="100%"
         style="stop-color:#4a4b4c;stop-opacity:1"
         id="stop167" /></linearGradient><linearGradient
       id="_Linear13"
       x1="0"
       y1="0"
       x2="1"
       y2="0"
       gradientUnits="userSpaceOnUse"
       gradientTransform="matrix(-0.11639,-1.66445,1.66445,-0.11639,80.3834,22.1775)"><stop
         offset="0%"
         style="stop-color:#231f20;stop-opacity:1"
         id="stop170" /><stop
         offset="100%"
         style="stop-color:#595a5c;stop-opacity:1"
         id="stop172" /></linearGradient><linearGradient
       id="_Linear14"
       x1="0"
       y1="0"
       x2="1"
       y2="0"
       gradientUnits="userSpaceOnUse"
       gradientTransform="matrix(0,1.79511,-1.79511,0,57.8819,10.5845)"><stop
         offset="0%"
         style="stop-color:#231f20;stop-opacity:1"
         id="stop175" /><stop
         offset="100%"
         style="stop-color:#464547;stop-opacity:1"
         id="stop177" /></linearGradient><linearGradient
       id="_Linear16"
       x1="0"
       y1="0"
       x2="1"
       y2="0"
       gradientUnits="userSpaceOnUse"
       gradientTransform="matrix(-0.00561346,0.356718,-0.438508,-0.00688526,57.0952,11.2744)"><stop
         offset="0%"
         style="stop-color:#26538d;stop-opacity:1"
         id="stop180" /><stop
         offset="100%"
         style="stop-color:#123b70;stop-opacity:1"
         id="stop182" /></linearGradient><linearGradient
       id="_Linear17"
       x1="0"
       y1="0"
       x2="1"
       y2="0"
       gradientUnits="userSpaceOnUse"
       gradientTransform="matrix(0,2.8496,-2.8496,0,48.1882,5.10211)"><stop
         offset="0%"
         style="stop-color:#95979a;stop-opacity:1"
         id="stop185" /><stop
         offset="56%"
         style="stop-color:#231f20;stop-opacity:1"
         id="stop187" /><stop
         offset="100%"
         style="stop-color:#231f20;stop-opacity:1"
         id="stop189" /></linearGradient><linearGradient
       id="_Linear20"
       x1="0"
       y1="0"
       x2="1"
       y2="0"
       gradientUnits="userSpaceOnUse"
       gradientTransform="matrix(0,0.153817,-0.153817,0,26.0372,16.6906)"><stop
         offset="0%"
         style="stop-color:#3b6dad;stop-opacity:1"
         id="stop210" /><stop
         offset="100%"
         style="stop-color:#123b70;stop-opacity:1"
         id="stop212" /></linearGradient></defs></svg>
