<?xml version="1.0" encoding="UTF-8" standalone="no"?>
<svg
   xmlns:dc="http://purl.org/dc/elements/1.1/"
   xmlns:cc="http://creativecommons.org/ns#"
   xmlns:rdf="http://www.w3.org/1999/02/22-rdf-syntax-ns#"
   xmlns:svg="http://www.w3.org/2000/svg"
   xmlns="http://www.w3.org/2000/svg"
   xmlns:sodipodi="http://sodipodi.sourceforge.net/DTD/sodipodi-0.dtd"
   xmlns:inkscape="http://www.inkscape.org/namespaces/inkscape"
   inkscape:version="1.0 (4035a4fb49, 2020-05-01)"
   sodipodi:docname="voiture--break.svg"
   id="svg536"
   style="fill-rule:evenodd;clip-rule:evenodd;stroke-linecap:round;stroke-linejoin:round;"
   xml:space="preserve"
   version="1.1"
   viewBox="0 0 77 27"
   height="100%"
   width="100%"><metadata
     id="metadata540"><rdf:RDF><cc:Work
         rdf:about=""><dc:format>image/svg+xml</dc:format><dc:type
           rdf:resource="http://purl.org/dc/dcmitype/StillImage" /></cc:Work></rdf:RDF></metadata><sodipodi:namedview
     inkscape:current-layer="cat_break"
     inkscape:window-maximized="1"
     inkscape:window-y="-8"
     inkscape:window-x="-8"
     inkscape:cy="8.3056048"
     inkscape:cx="36.708214"
     inkscape:zoom="11.313709"
     showgrid="false"
     id="namedview538"
     inkscape:window-height="1017"
     inkscape:window-width="1920"
     inkscape:pageshadow="2"
     inkscape:pageopacity="0"
     guidetolerance="10"
     gridtolerance="10"
     objecttolerance="10"
     borderopacity="1"
     bordercolor="#666666"
     pagecolor="#ffffff" /><g
     id="cat_break"><g
       id="g312"><clipPath
         id="_clip1"><rect
           id="rect276"
           height="25.078"
           width="76.517"
           y="1.275"
           x="0.153" /></clipPath><g
         id="g310"
         clip-path="url(#_clip1)"><clipPath
           id="_clip2"><path
             id="path279"
             d="M41.114,3.172l-0.001,0l0.001,0Zm10.886,6.271c0,0 1.625,-0.036 1.654,-0.118c-2.483,-1.929 -10.725,-5.952 -10.725,-5.952c-0.435,-0.155 -1.821,-0.2 -1.815,-0.201c-0.282,0.575 10.886,6.271 10.886,6.271Z" /></clipPath><g
           id="g284"
           clip-path="url(#_clip2)"><path
             id="path282"
             style="fill:url(#_Linear3);fill-rule:nonzero;"
             d="M40.839,3.169l12.886,0.154l-0.073,6.14l-12.886,-0.153l0.073,-6.141Z" /></g><path
           id="path286"
           style="fill:#ffffff;stroke:#000;stroke-width:0.16px"
           d="M42.929,3.373c0,0 8.242,4.023 10.725,5.952c-0.029,0.082 -1.654,0.118 -1.654,0.118c0,0 -11.168,-5.696 -10.886,-6.271c-0.028,0 1.376,0.045 1.815,0.201Z" /><path
           id="path288"
           style="fill:#333333;fill-rule:nonzero;stroke:#000;stroke-width:0.16px"
           d="M8.238,22.239l2.755,1.066l10.911,-0.367l1.743,-7.704l-7.187,-3.514l-9.514,1.003l1.292,9.516Z" /><path
           id="path290"
           style="fill:#333333;fill-rule:nonzero;stroke:#000;stroke-width:0.16px"
           d="M55.818,23.052l4.958,-0.023l11.448,-0.484l-0.695,-7.568l-6.25,-2.429l-7.606,0.446l-1.855,10.058Z" /><clipPath
           id="_clip4"><path
             id="path292"
             d="M73.551,12.894l0.249,4.575c0,0 2.316,-0.248 2.344,-0.303c-0.23,-1.517 -0.893,-3.646 -0.893,-3.701c-0.186,-0.498 -0.707,-0.725 -0.707,-0.725c-0.085,-0.014 -0.168,-0.019 -0.247,-0.019c-0.43,0 -0.746,0.173 -0.746,0.173Z" /></clipPath><g
           id="g297"
           clip-path="url(#_clip4)"><path
             id="path295"
             style="fill:url(#_Linear5);fill-rule:nonzero;"
             d="M72.029,13.551l2.74,-1.238l2.07,4.581l-2.74,1.238l-2.07,-4.581Z" /></g><path
           id="path299"
           style="fill:#333333;stroke:#000;stroke-width:0.08px"
           d="M74.544,12.74c0,0 0.521,0.227 0.707,0.725c0,0.055 0.663,2.184 0.893,3.701c-0.028,0.055 -2.344,0.303 -2.344,0.303l-0.249,-4.575c0,0 0.443,-0.243 0.993,-0.154Z" /><clipPath
           id="_clip6"><path
             id="path301"
             d="M21.387,1.561c0,-0.027 -10.225,0.595 -12.146,2.361c0,0.029 2.953,-0.543 2.953,-0.543c0,0 0.197,-0.327 0.638,-0.378c0.055,0.001 3.74,-0.698 6.592,-0.857c0,0.013 -0.392,0.601 -0.392,0.601l1.708,-0.049l0.393,-0.67c0,0 11.313,-0.65 15.313,0.017c0,0 0.383,0.129 0.477,0.364c0.014,0.014 2.805,0.35 2.956,0.365c0.152,0.016 -1.848,-0.903 -3.965,-1.175c0,-0.01 -1.813,-0.244 -6.273,-0.244c-2.122,0 -4.843,0.053 -8.254,0.208Z" /></clipPath><g
           style="fill:#333333"
           id="g306"
           clip-path="url(#_clip6)"><path
             id="path304"
             style="fill:#333333;fill-rule:nonzero"
             d="M9.244,4.034l-0.081,-2.005l30.786,-1.246l0.082,2.005l-30.787,1.246Z" /></g><path
           id="path308"
           style="fill:none;stroke:#000;stroke-width:0.16px;"
           d="M12.194,3.379c0,0 0.197,-0.327 0.638,-0.378c0.055,0.001 3.74,-0.698 6.592,-0.857c0,0.013 -0.393,0.601 -0.393,0.601l1.709,-0.049l0.393,-0.67c0,0 11.313,-0.65 15.313,0.017c0,0 0.383,0.129 0.477,0.364c0.014,0.014 2.805,0.35 2.956,0.365c0.152,0.016 -1.848,-0.903 -3.965,-1.176c0,-0.014 -3.946,-0.515 -14.528,-0.035c0.001,-0.027 -10.224,0.595 -12.145,2.361c0,0.029 2.953,-0.543 2.953,-0.543Z" /></g></g><clipPath
       id="_clip8"><path
         id="path314"
         d="M9.05,3.756c0,0 -1.021,0.181 -0.994,0.208c-0.085,0.22 0.077,0.442 0.077,0.442c-5.627,5.358 -5.981,6.855 -5.981,6.855c0,0 1.776,-0.02 1.755,0c0.845,0.175 0.654,0.668 0.654,0.648c-0.443,0.738 -2.724,3.231 -2.724,3.231c0,0 -0.374,0.244 -0.416,0.264c-0.168,0.204 -0.649,0.694 -0.69,0.652c-0.435,0.14 -0.369,1.545 -0.382,1.504c-0.296,0.547 0.066,1.433 0.037,1.46c0.171,0.745 0.029,1.019 0.029,1.019c0,0 -0.141,1.827 1.095,1.707c2.275,-0.221 5.939,0.855 7.301,0.954c-0.121,-0.249 -0.184,-1.358 -0.19,-1.365c-0.245,-6.586 5.788,-6.582 6.02,-6.579c0.005,0 0.007,0 0.006,0c6.275,0.445 6.36,7.18 6.36,7.18c0,0 35.438,0.422 35.399,0.338c0.018,-8.468 7.117,-7.929 7.076,-8.013c8.212,0.718 7.245,9.147 7.273,9.093c4.377,0.134 5.166,-1.316 5.138,-1.316c0.606,0.007 0.721,-0.433 0.695,-0.515c-0.024,-0.386 -0.986,-0.453 -0.986,-0.453c0,0 0.243,-1.98 0.216,-2.008c0.002,-0.134 0.124,-0.124 0.213,-0.114c0.058,0.006 0.102,0.013 0.092,-0.02c0.195,-0.135 0.146,-0.714 0.146,-0.714l-0.092,-1.434c-0.249,-0.002 -0.903,-0.616 -0.93,-0.616c-0.299,-0.335 -1.148,-3.098 -1.148,-3.098c0,0 0.802,-0.266 0.693,-0.323c-2.84,-2.016 -20.517,-3.52 -20.531,-3.535c-0.262,-0.009 -0.684,0.009 -1.062,0.027c-0.436,0.022 -0.811,0.042 -0.811,0.02c-0.991,-0.053 -3.655,-1.861 -3.655,-1.861c-2.991,-2.101 -7.366,-4.074 -7.366,-4.095c0.579,-0.095 1.63,0.103 1.63,0.103c-3.743,-1.298 -12.253,-1.344 -12.253,-1.344c-9.957,0.088 -21.694,1.698 -21.694,1.698Z" /></clipPath><g
       style="fill:#4786b3;fill-opacity:1"
       id="g319"
       clip-path="url(#_clip8)"><path
         d="M 0.24804688 1.640625 L 0 22.595703 L 76.591797 23.505859 L 76.841797 2.5507812 L 0.24804688 1.640625 z "
         style="fill:#4786b3;fill-rule:nonzero;fill-opacity:1"
         id="path317" /></g><g
       id="g446"><clipPath
         id="_clip10"><rect
           id="rect321"
           height="25.078"
           width="76.517"
           y="1.275"
           x="0.153" /></clipPath><g
         id="g444"
         clip-path="url(#_clip10)"><path
           id="path324"
           style="fill:none;stroke:#000;stroke-width:0.16px;"
           d="M42.997,3.402c0,0 -1.051,-0.199 -1.63,-0.103c-0.001,0.021 4.375,1.994 7.367,4.095c0,0 2.663,1.808 3.654,1.861c-0.001,0.041 1.31,-0.067 1.873,-0.047c0.014,0.015 17.691,1.519 20.531,3.536c0.109,0.056 -0.693,0.322 -0.693,0.322c0,0 0.849,2.764 1.148,3.098c0.027,0 0.681,0.614 0.929,0.616l0.093,1.434c0,0 0.049,0.579 -0.146,0.714c0.027,0.083 -0.302,-0.086 -0.305,0.134c0.027,0.028 -0.216,2.009 -0.216,2.009c0,0 0.963,0.066 0.986,0.452c0.026,0.082 -0.089,0.522 -0.695,0.515c0.028,0 -0.761,1.45 -5.138,1.316c-0.028,0.055 0.94,-8.375 -7.273,-9.093c0.041,0.084 -7.058,-0.455 -7.076,8.013c0.04,0.084 -35.4,-0.338 -35.4,-0.338c0,0 -0.084,-6.734 -6.359,-7.18c0.042,0 -6.276,-0.158 -6.026,6.579c0.006,0.007 0.069,1.116 0.19,1.365c-1.362,-0.098 -5.026,-1.175 -7.3,-0.954c-1.238,0.121 -1.096,-1.707 -1.096,-1.707c0,0 0.142,-0.273 -0.029,-1.019c0.028,-0.028 -0.333,-0.913 -0.038,-1.46c0.014,0.041 -0.052,-1.364 0.383,-1.503c0.041,0.041 0.522,-0.449 0.689,-0.653c0.043,-0.02 0.417,-0.264 0.417,-0.264c0,0 2.281,-2.493 2.723,-3.231c0,0.02 0.192,-0.473 -0.653,-0.648c0.021,-0.02 -1.756,0 -1.756,0c0,0 0.356,-1.497 5.982,-6.855c0,0 -0.162,-0.222 -0.077,-0.442c-0.027,-0.027 0.994,-0.208 0.994,-0.208c0,0 11.738,-1.61 21.695,-1.698c0,0 8.509,0.046 12.252,1.344Z" /><path
           id="path326"
           style="fill-rule:nonzero;"
           d="M9.33,20.975c0.034,-2.827 2.352,-5.091 5.179,-5.057c2.826,0.034 5.09,2.352 5.057,5.178c-0.034,2.827 -2.353,5.09 -5.179,5.056c-2.826,-0.033 -5.09,-2.351 -5.057,-5.177" /><path
           id="path328"
           style="fill-rule:nonzero;"
           d="M58.411,20.986c0,-2.963 2.402,-5.367 5.366,-5.367c2.964,0 5.367,2.404 5.367,5.367c0,2.965 -2.403,5.368 -5.367,5.368c-2.964,0 -5.366,-2.403 -5.366,-5.368" /><clipPath
           id="_clip11"><path
             id="path330"
             d="M10.732,20.991c-0.025,2.053 1.619,3.736 3.671,3.76c2.053,0.024 3.736,-1.619 3.76,-3.672c0.024,-2.052 -1.619,-3.736 -3.671,-3.759c-0.016,-0.001 -0.031,-0.001 -0.046,-0.001c-2.032,0 -3.69,1.635 -3.714,3.672Z" /></clipPath><g
           style="fill:#ffffff"
           id="g335"
           clip-path="url(#_clip11)"><path
             id="path333"
             style="fill:#ffffff;fill-rule:nonzero"
             d="M10.776,17.275l7.432,0.088l-0.088,7.433l-7.433,-0.089l0.089,-7.432Z" /></g><path
           id="path337"
           style="fill:none;stroke:#b9b9b9;stroke-width:0.08px;"
           d="M10.731,20.991c0.025,-2.052 1.708,-3.696 3.761,-3.671c2.052,0.024 3.696,1.707 3.671,3.759c-0.024,2.053 -1.707,3.697 -3.759,3.672c-2.053,-0.024 -3.697,-1.707 -3.673,-3.76Z" /><path
           id="path339"
           style="fill:#ffffff;fill-rule:nonzero"
           d="M59.853,20.986c0,2.153 1.745,3.897 3.898,3.897c2.152,0 3.897,-1.744 3.897,-3.897c0,-2.152 -1.745,-3.897 -3.897,-3.897c-2.153,0 -3.898,1.745 -3.898,3.897Z" /><path
           id="path341"
           style="fill:none;stroke:#b9b9b9;stroke-width:0.08px;"
           d="M59.853,20.986c0,-2.152 1.745,-3.897 3.898,-3.897c2.152,0 3.897,1.745 3.897,3.897c0,2.153 -1.745,3.897 -3.897,3.897c-2.153,0 -3.898,-1.744 -3.898,-3.897Z" /><clipPath
           id="_clip14"><path
             id="path343"
             d="M31.673,2.647c-5.508,0.072 -12.787,0.73 -12.787,0.73c-6.595,0.52 -8.343,1.587 -8.364,1.608c-1.915,0.796 -5.517,4.286 -5.517,4.286c10.588,-0.492 24.408,0.057 34.22,0.607c7.233,0.406 12.288,0.811 12.265,0.798c-6.054,-5.111 -10.961,-6.96 -10.988,-6.96c-2.205,-0.923 -7.635,-1.073 -8.66,-1.073c-0.109,0 -0.169,0.002 -0.169,0.004Z" /></clipPath><g
           id="g348"
           clip-path="url(#_clip14)"><path
             id="path346"
             style="fill:#333333;fill-rule:nonzero"
             d="M4.994,10.135l0.093,-7.823l46.519,0.554l-0.093,7.823l-46.519,-0.554Z" /></g><path
           id="path350"
           style="fill:none;stroke:#000;stroke-width:0.16px;"
           d="M5.005,9.271c0,0 3.602,-3.491 5.517,-4.286c0.022,-0.021 1.769,-1.088 8.364,-1.608c0,0 7.279,-0.657 12.788,-0.73c0,-0.028 6.388,0.048 8.828,1.069c0.027,0.001 4.934,1.849 10.988,6.961c0.055,0.028 -28.092,-2.262 -46.485,-1.406Z" /><clipPath
           id="_clip16"><path
             id="path352"
             d="M18.523,3.785l0,0c0,0 0.001,0 0.001,0c-0.001,0 -0.001,0 -0.001,0Zm-6.649,1.05c-1.933,0.391 -5.916,4.172 -5.916,4.172c0.387,-0.162 9.036,-0.168 9.036,-0.168c1.665,-3.42 3.495,-5.027 3.529,-5.054c-4.797,0.411 -6.704,1.05 -6.649,1.05Z" /></clipPath><g
           style="fill:#ffffff"
           id="g357"
           clip-path="url(#_clip16)"><path
             id="path355"
             style="fill:#ffffff;fill-rule:nonzero"
             d="M5.958,9.007l0.064,-5.371l12.502,0.149l-0.064,5.37l-12.502,-0.148Z" /></g><clipPath
           id="_clip18"><path
             id="path359"
             d="M19.517,3.632c-2.05,2.029 -3.213,5.155 -3.282,5.221c0.209,-0.025 4.955,0.032 4.955,0.032c-0.062,-1.763 0.284,-5.395 0.284,-5.395l-1.957,0.142Zm-3.284,5.221c0,0.001 0.001,0.001 0.002,0c-0.001,0 -0.002,0 -0.002,0Z" /></clipPath><g
           style="fill:#ffffff"
           id="g364"
           clip-path="url(#_clip18)"><path
             id="path362"
             style="fill:#ffffff;fill-rule:nonzero"
             d="M16.233,8.854l0.064,-5.426l5.177,0.062l-0.065,5.426l-5.176,-0.062Z" /></g><clipPath
           id="_clip20"><path
             id="path366"
             d="M21.998,3.469c-0.224,0.272 -0.395,5.393 -0.395,5.393c4.158,0.021 9.112,0.246 9.058,0.19c-0.245,-2.509 0.099,-5.975 0.071,-6.003c-0.105,-0.002 -0.224,-0.003 -0.354,-0.003c-2.362,0 -8.38,0.423 -8.38,0.423Z" /></clipPath><g
           style="fill:#ffffff"
           id="g371"
           clip-path="url(#_clip20)"><path
             id="path369"
             style="fill:#ffffff;fill-rule:nonzero"
             d="M21.601,9l0.072,-6.06l9.114,0.109l-0.072,6.059l-9.114,-0.108Z" /></g><clipPath
           id="_clip22"><path
             id="path373"
             d="M33.882,9.173c5.038,0.17 13.154,0.817 13.154,0.817l0.187,-1.788c-1.661,-1.589 -6.07,-3.735 -6.07,-3.735c-2.201,-1.32 -8.356,-1.366 -8.356,-1.366c0.107,0.332 1.084,6.127 1.085,6.072Z" /></clipPath><g
           style="fill:#ffffff"
           id="g378"
           clip-path="url(#_clip22)"><path
             id="path376"
             style="fill:#ffffff;fill-rule:nonzero"
             d="M32.717,9.82l0.081,-6.746l14.484,0.172l-0.08,6.746l-14.485,-0.172Z" /></g><clipPath
           id="_clip24"><path
             id="path380"
             d="M20.976,22.308c0.01,0.046 0.017,0.786 0.37,1.258c0,-0.028 25.725,-0.582 35.138,-0.056c0.04,0.082 -0.136,-1.577 -0.05,-1.937c0,0 -24.425,0.227 -35.514,-0.593c0,0 0.125,0.792 0.056,1.328Z" /></clipPath><g
           style="fill:#4786b3;fill-opacity:1"
           id="g385"
           clip-path="url(#_clip24)"><path
             id="path383"
             style="fill:#4786b3;fill-rule:nonzero;fill-opacity:1"
             d="M56.55,21.404l-0.03,2.58l-35.63,-0.424l0.03,-2.58l35.63,0.424Z" /></g><path
           sodipodi:nodetypes="cccsccc"
           id="path387"
           style="fill:none;stroke:#000000;stroke-width:0.16px"
           d="m 20.92,20.98 c 0,0 0.125,0.792 0.056,1.328 0.011,0.046 0.017,0.785 0.369,1.258 9e-5,-0.0025 0.208828,-0.0093 0.595506,-0.01919 3.906833,-0.09984 25.978239,-0.515437 34.543494,-0.03681 0.04,0.082 -0.136,-1.577 -0.049,-1.938 0,0 -24.426,0.228 -35.515,-0.592 z" /><path
           id="path389"
           style="fill:none;stroke:#000;stroke-width:0.08px;"
           d="M76.494,21.315c0,0 -4.338,-0.024 -5.769,-0.041" /><path
           id="path391"
           style="fill:none;stroke:#000;stroke-width:0.08px;"
           d="M56.509,20.54c0,0 -25.859,-0.141 -35.967,-1.17" /><path
           id="path393"
           style="fill:none;stroke:#000;stroke-width:0.08px;"
           d="M0.348,17.56c0,0 0.902,0.603 8.537,1.189" /><path
           id="path395"
           style="fill:none;stroke:#000;stroke-width:0.08px;"
           d="M51.936,21.78c0,0 1.435,-9.456 -0.446,-11.103" /><path
           id="path397"
           style="fill:none;stroke:#000;stroke-width:0.08px;"
           d="M32.385,21.548c0,0 0.709,-8.694 -0.347,-12.452" /><path
           id="path399"
           style="fill:none;stroke:#000;stroke-width:0.08px;"
           d="M21.816,21.092c0,0 0.107,-4.46 -4.379,-6.992c-0.11,-0.056 -2.812,-3.207 -2.431,-5.186" /><path
           id="path401"
           style="fill:none;stroke:#000;stroke-width:0.08px;"
           d="M3.063,13.929c0,0 1.038,0.728 1.477,0.899c0.053,0.111 6.16,0.693 6.875,0.757" /><path
           id="path403"
           style="fill:#f46154;fill-rule:nonzero;stroke:#000;stroke-width:0.16px;"
           d="M2.201,11.165c0,0 -0.673,0.97 -0.742,4.549c0.026,0.041 4.159,-3.545 3.204,-4.313c0,0.014 -0.35,-0.693 -2.462,-0.236Z" /><path
           id="path405"
           style="fill:none;stroke:#000;stroke-width:0.08px;"
           d="M68.567,12.752c0,0 -5.22,-0.97 -17.16,-2.049" /><path
           id="path407"
           style="fill:none;stroke:#000;stroke-width:0.08px;"
           d="M52.427,9.448c0,0 1.151,1.061 1.311,1.476" /><path
           id="path409"
           style="fill:none;stroke:#000;stroke-width:0.08px;"
           d="M66.249,14.887c0,0 0.232,-0.37 0.37,-0.368c-0.028,0 2.212,-0.744 2.521,-1.264" /><clipPath
           id="_clip26"><path
             id="path411"
             d="M68.567,12.752c0.107,0.25 1.854,1.619 1.854,1.647c0.926,0.892 2.408,1.295 2.381,1.295c0.412,0.005 1.29,0.291 1.29,0.263c0.657,0.339 0.658,0.311 0.604,0.256c-0.287,-1.408 -0.856,-2.16 -0.883,-2.242c-1.68,-1.219 -2.992,-1.523 -3.884,-1.523c-0.89,0 -1.362,0.304 -1.362,0.304Z" /></clipPath><g
           style="fill:#ffffff"
           id="g416"
           clip-path="url(#_clip26)"><path
             id="path414"
             style="fill:#ffffff;fill-rule:nonzero"
             d="M68.571,12.421l6.224,0.074l-0.046,3.801l-6.223,-0.074l0.045,-3.801Z" /></g><path
           id="path418"
           style="fill:none;stroke:#000;stroke-width:0.08px;"
           d="M68.567,12.752c0,0 1.888,-1.217 5.246,1.219c0.027,0.082 0.596,0.833 0.883,2.241c0.054,0.056 0.053,0.084 -0.603,-0.255c-0.001,0.028 -0.879,-0.258 -1.292,-0.263c0.028,0 -1.455,-0.403 -2.38,-1.295c0,-0.028 -1.746,-1.398 -1.854,-1.647Z" /><path
           id="path420"
           style="fill:none;stroke:#000;stroke-width:0.08px;"
           d="M69.663,17.888c0,0 4.1,0.324 6.551,0.353" /><path
           id="path422"
           style="fill:none;stroke:#001440;stroke-width:0.08px;"
           d="M2.886,10.278c0,0 1.641,1.011 2.177,1.059c0.082,0.042 26.889,0.319 50.319,3.241" /><clipPath
           id="_clip28"><path
             id="path424"
             d="M73.917,19.095c0,0.054 -0.588,0.819 -0.813,1.257c0.054,0.028 -0.032,0.385 0.244,0.389c0.054,0 0.908,0.038 1.375,0.098c0.055,0.001 -0.676,-1.055 0.298,-1.869c0,0 -0.226,-0.02 -0.473,-0.02c-0.285,0 -0.599,0.027 -0.631,0.145Z" /></clipPath><g
           id="g429"
           clip-path="url(#_clip28)"><path
             id="path427"
             style="fill:url(#_Linear29);fill-rule:nonzero;"
             d="M73.094,18.929l1.927,0.023l-0.023,1.891l-1.927,-0.023l0.023,-1.891Z" /></g><path
           id="path431"
           style="fill:#333333;stroke:#000;stroke-width:0.16px"
           d="M75.021,18.97c0,0 -1.045,-0.095 -1.104,0.125c0,0.055 -0.588,0.819 -0.813,1.257c0.054,0.028 -0.032,0.385 0.243,0.389c0.055,0 0.909,0.038 1.376,0.098c0.056,0.001 -0.676,-1.055 0.298,-1.869Z" /><path
           id="path433"
           style="fill:none;stroke:#000;stroke-width:0.08px;"
           d="M8.133,4.406c0,0 0.762,-0.37 0.917,-0.65" /><clipPath
           id="_clip30"><path
             id="path435"
             d="M44.212,7.278c0.041,-0.02 -0.706,1.754 -0.024,1.983c0.086,0.043 1.107,0.419 1.357,0.587c0.034,-0.003 0.748,-0.439 0.928,0.142l4.209,0.381c0,0 -1.721,-1.26 -2.685,-1.829c0,0 -0.748,-1.29 -2.045,-1.678c0.009,0 -0.068,-0.016 -0.195,-0.032c-0.126,-0.016 -0.301,-0.032 -0.488,-0.032c-0.442,0 -0.952,0.089 -1.057,0.478Z" /></clipPath><g
           id="g440"
           clip-path="url(#_clip30)"><path
             id="path438"
             style="fill:#333333;fill-rule:nonzero"
             d="M50.723,6.862l-0.041,3.509l-7.191,-0.086l0.041,-3.508l7.191,0.085Z" /></g><path
           id="path442"
           style="fill:none;stroke:#000;stroke-width:0.16px;"
           d="M47.997,8.541c0,0 -0.748,-1.289 -2.046,-1.677c0.042,0.001 -1.545,-0.306 -1.739,0.414c0.042,-0.02 -0.706,1.754 -0.024,1.983c0.085,0.043 1.107,0.419 1.357,0.587c0.034,-0.003 0.748,-0.439 0.928,0.142l4.209,0.38c0,0 -1.721,-1.259 -2.685,-1.829Z" /></g></g></g><defs
     id="defs534"><linearGradient
       gradientTransform="matrix(12.6167,0.150154,-0.150154,12.6167,41.0722,6.24253)"
       gradientUnits="userSpaceOnUse"
       y2="0"
       x2="1"
       y1="0"
       x1="0"
       id="_Linear3"><stop
         id="stop449"
         style="stop-color:#f2f3ff;stop-opacity:1"
         offset="0%" /><stop
         id="stop451"
         style="stop-color:#edf4ff;stop-opacity:1"
         offset="100%" /></linearGradient><linearGradient
       gradientTransform="matrix(2.71024,-1.22475,1.22475,2.71024,73.062,15.8365)"
       gradientUnits="userSpaceOnUse"
       y2="0"
       x2="1"
       y1="0"
       x1="0"
       id="_Linear5"><stop
         id="stop454"
         style="stop-color:#231f20;stop-opacity:1"
         offset="0%" /><stop
         id="stop456"
         style="stop-color:#595a5c;stop-opacity:1"
         offset="100%" /></linearGradient><linearGradient
       gradientTransform="matrix(-0.0793252,-1.95955,1.95955,-0.0793252,24.5659,3.39219)"
       gradientUnits="userSpaceOnUse"
       y2="0"
       x2="1"
       y1="0"
       x1="0"
       id="_Linear7"><stop
         id="stop459"
         style="stop-color:#231f20;stop-opacity:1"
         offset="0%" /><stop
         id="stop461"
         style="stop-color:#595a5c;stop-opacity:1"
         offset="100%" /></linearGradient><linearGradient
       gradientTransform="matrix(-0.248737,20.9002,-20.9002,-0.248737,38.6218,2.15148)"
       gradientUnits="userSpaceOnUse"
       y2="0"
       x2="1"
       y1="0"
       x1="0"
       id="_Linear9"><stop
         id="stop464"
         style="stop-color:#3b6dad;stop-opacity:1"
         offset="0%" /><stop
         id="stop466"
         style="stop-color:#123b70;stop-opacity:1"
         offset="100%" /></linearGradient><radialGradient
       gradientTransform="matrix(3.71594,0.0442241,-0.0442241,3.71594,14.4474,21.0354)"
       gradientUnits="userSpaceOnUse"
       r="1"
       cy="0"
       cx="0"
       id="_Radial12"><stop
         id="stop469"
         style="stop-color:#8a8c8e;stop-opacity:1"
         offset="0%" /><stop
         id="stop471"
         style="stop-color:#6b6c6f;stop-opacity:1"
         offset="84%" /><stop
         id="stop473"
         style="stop-color:#4d4d4f;stop-opacity:1"
         offset="96%" /><stop
         id="stop475"
         style="stop-color:#4d4d4f;stop-opacity:1"
         offset="100%" /></radialGradient><radialGradient
       gradientTransform="matrix(3.89732,0,0,3.89732,63.7504,20.986)"
       gradientUnits="userSpaceOnUse"
       r="1"
       cy="0"
       cx="0"
       id="_Radial13"><stop
         id="stop478"
         style="stop-color:#8a8c8e;stop-opacity:1"
         offset="0%" /><stop
         id="stop480"
         style="stop-color:#6b6c6f;stop-opacity:1"
         offset="84%" /><stop
         id="stop482"
         style="stop-color:#4d4d4f;stop-opacity:1"
         offset="96%" /><stop
         id="stop484"
         style="stop-color:#4d4d4f;stop-opacity:1"
         offset="100%" /></radialGradient><linearGradient
       gradientTransform="matrix(0.0928277,-7.79987,7.79987,0.0928277,28.2421,10.4001)"
       gradientUnits="userSpaceOnUse"
       y2="0"
       x2="1"
       y1="0"
       x1="0"
       id="_Linear15"><stop
         id="stop487"
         style="stop-color:#231f20;stop-opacity:1"
         offset="0%" /><stop
         id="stop489"
         style="stop-color:#3e3e3f;stop-opacity:1"
         offset="100%" /></linearGradient><linearGradient
       gradientTransform="matrix(0.0639125,-5.37027,5.37027,0.0639125,12.2092,9.08094)"
       gradientUnits="userSpaceOnUse"
       y2="0"
       x2="1"
       y1="0"
       x1="0"
       id="_Linear17"><stop
         id="stop492"
         style="stop-color:#f2f3ff;stop-opacity:1"
         offset="0%" /><stop
         id="stop494"
         style="stop-color:#edf4ff;stop-opacity:1"
         offset="100%" /></linearGradient><linearGradient
       gradientTransform="matrix(0.0645691,-5.42543,5.42543,0.0645691,18.821,8.88472)"
       gradientUnits="userSpaceOnUse"
       y2="0"
       x2="1"
       y1="0"
       x1="0"
       id="_Linear19"><stop
         id="stop497"
         style="stop-color:#f2f3ff;stop-opacity:1"
         offset="0%" /><stop
         id="stop499"
         style="stop-color:#edf4ff;stop-opacity:1"
         offset="100%" /></linearGradient><linearGradient
       gradientTransform="matrix(0.071587,-6.01512,6.01512,0.071587,26.1322,9.00968)"
       gradientUnits="userSpaceOnUse"
       y2="0"
       x2="1"
       y1="0"
       x1="0"
       id="_Linear21"><stop
         id="stop502"
         style="stop-color:#f2f3ff;stop-opacity:1"
         offset="0%" /><stop
         id="stop504"
         style="stop-color:#edf4ff;stop-opacity:1"
         offset="100%" /></linearGradient><linearGradient
       gradientTransform="matrix(0.0799591,-6.71858,6.71858,0.0799591,39.9593,9.90602)"
       gradientUnits="userSpaceOnUse"
       y2="0"
       x2="1"
       y1="0"
       x1="0"
       id="_Linear23"><stop
         id="stop507"
         style="stop-color:#f2f3ff;stop-opacity:1"
         offset="0%" /><stop
         id="stop509"
         style="stop-color:#edf4ff;stop-opacity:1"
         offset="100%" /></linearGradient><linearGradient
       gradientTransform="matrix(-0.030707,2.58016,-2.58016,-0.030707,38.7174,21.192)"
       gradientUnits="userSpaceOnUse"
       y2="0"
       x2="1"
       y1="0"
       x1="0"
       id="_Linear25"><stop
         id="stop512"
         style="stop-color:#25528a;stop-opacity:1"
         offset="0%" /><stop
         id="stop514"
         style="stop-color:#123b70;stop-opacity:1"
         offset="100%" /></linearGradient><linearGradient
       gradientTransform="matrix(6.19027,0.0736715,-0.0736715,6.19027,68.549,14.3021)"
       gradientUnits="userSpaceOnUse"
       y2="0"
       x2="1"
       y1="0"
       x1="0"
       id="_Linear27"><stop
         id="stop517"
         style="stop-color:#f2f3ff;stop-opacity:1"
         offset="0%" /><stop
         id="stop519"
         style="stop-color:#edf4ff;stop-opacity:1"
         offset="100%" /></linearGradient><linearGradient
       gradientTransform="matrix(1.89994,0.0226115,-0.0226115,1.89994,73.1097,19.8763)"
       gradientUnits="userSpaceOnUse"
       y2="0"
       x2="1"
       y1="0"
       x1="0"
       id="_Linear29"><stop
         id="stop522"
         style="stop-color:#231f20;stop-opacity:1"
         offset="0%" /><stop
         id="stop524"
         style="stop-color:#595a5c;stop-opacity:1"
         offset="100%" /></linearGradient><linearGradient
       gradientTransform="matrix(-0.0417256,3.506,-3.506,-0.0417256,47.3228,6.82403)"
       gradientUnits="userSpaceOnUse"
       y2="0"
       x2="1"
       y1="0"
       x1="0"
       id="_Linear31"><stop
         id="stop527"
         style="stop-color:#a7a9ac;stop-opacity:1"
         offset="0%" /><stop
         id="stop529"
         style="stop-color:#58595b;stop-opacity:1"
         offset="21%" /><stop
         id="stop531"
         style="stop-color:#231f20;stop-opacity:1"
         offset="100%" /></linearGradient></defs></svg>
