<?xml version="1.0" encoding="UTF-8" standalone="no"?>
<svg
   xmlns:dc="http://purl.org/dc/elements/1.1/"
   xmlns:cc="http://creativecommons.org/ns#"
   xmlns:rdf="http://www.w3.org/1999/02/22-rdf-syntax-ns#"
   xmlns:svg="http://www.w3.org/2000/svg"
   xmlns="http://www.w3.org/2000/svg"
   xmlns:sodipodi="http://sodipodi.sourceforge.net/DTD/sodipodi-0.dtd"
   xmlns:inkscape="http://www.inkscape.org/namespaces/inkscape"
   width="457.67407"
   height="150"
   viewBox="0 0 457.67407 150"
   version="1.1"
   xml:space="preserve"
   style="clip-rule:evenodd;fill-rule:evenodd;stroke-linecap:round;stroke-linejoin:round"
   id="svg536"
   sodipodi:docname="break.svg"
   inkscape:version="1.0 (4035a4fb49, 2020-05-01)"><metadata
     id="metadata540"><rdf:RDF><cc:Work
         rdf:about=""><dc:format>image/svg+xml</dc:format><dc:type
           rdf:resource="http://purl.org/dc/dcmitype/StillImage" /><dc:title></dc:title></cc:Work></rdf:RDF></metadata><sodipodi:namedview
     fit-margin-bottom="0"
     fit-margin-right="0"
     fit-margin-left="0"
     fit-margin-top="0"
     inkscape:document-rotation="0"
     pagecolor="#ffffff"
     bordercolor="#666666"
     borderopacity="1"
     objecttolerance="10"
     gridtolerance="10"
     guidetolerance="10"
     inkscape:pageopacity="0"
     inkscape:pageshadow="2"
     inkscape:window-width="1920"
     inkscape:window-height="1017"
     id="namedview538"
     showgrid="false"
     inkscape:zoom="1.4142136"
     inkscape:cx="237.25001"
     inkscape:cy="75.288994"
     inkscape:window-x="-8"
     inkscape:window-y="-8"
     inkscape:window-maximized="1"
     inkscape:current-layer="cat_break" /><g
     transform="translate(-0.15299999,-1.2749999)"
     id="cat_break"><clipPath
       id="_clip8"><path
         d="m 9.05,3.756 c 0,0 -1.021,0.181 -0.994,0.208 -0.085,0.22 0.077,0.442 0.077,0.442 -5.627,5.358 -5.981,6.855 -5.981,6.855 0,0 1.776,-0.02 1.755,0 0.845,0.175 0.654,0.668 0.654,0.648 -0.443,0.738 -2.724,3.231 -2.724,3.231 0,0 -0.374,0.244 -0.416,0.264 -0.168,0.204 -0.649,0.694 -0.69,0.652 -0.435,0.14 -0.369,1.545 -0.382,1.504 -0.296,0.547 0.066,1.433 0.037,1.46 0.171,0.745 0.029,1.019 0.029,1.019 0,0 -0.141,1.827 1.095,1.707 2.275,-0.221 5.939,0.855 7.301,0.954 -0.121,-0.249 -0.184,-1.358 -0.19,-1.365 -0.245,-6.586 5.788,-6.582 6.02,-6.579 0.005,0 0.007,0 0.006,0 6.275,0.445 6.36,7.18 6.36,7.18 0,0 35.438,0.422 35.399,0.338 0.018,-8.468 7.117,-7.929 7.076,-8.013 8.212,0.718 7.245,9.147 7.273,9.093 4.377,0.134 5.166,-1.316 5.138,-1.316 0.606,0.007 0.721,-0.433 0.695,-0.515 -0.024,-0.386 -0.986,-0.453 -0.986,-0.453 0,0 0.243,-1.98 0.216,-2.008 0.002,-0.134 0.124,-0.124 0.213,-0.114 0.058,0.006 0.102,0.013 0.092,-0.02 0.195,-0.135 0.146,-0.714 0.146,-0.714 L 76.177,16.78 c -0.249,-0.002 -0.903,-0.616 -0.93,-0.616 -0.299,-0.335 -1.148,-3.098 -1.148,-3.098 0,0 0.802,-0.266 0.693,-0.323 C 71.952,10.727 54.275,9.223 54.261,9.208 53.999,9.199 53.577,9.217 53.199,9.235 52.763,9.257 52.388,9.277 52.388,9.255 51.397,9.202 48.733,7.394 48.733,7.394 45.742,5.293 41.367,3.32 41.367,3.299 41.946,3.204 42.997,3.402 42.997,3.402 39.254,2.104 30.744,2.058 30.744,2.058 20.787,2.146 9.05,3.756 9.05,3.756 Z"
         id="path314" /></clipPath><g
       transform="matrix(5.9813384,0,0,5.9813384,-0.76214477,-6.3512064)"
       id="g1066"><g
         id="g312"><clipPath
           id="_clip1"><rect
             id="rect276"
             height="25.077999"
             width="76.516998"
             y="1.275"
             x="0.153" /></clipPath><g
           id="g310"
           clip-path="url(#_clip1)"><clipPath
             id="_clip2"><path
               id="path279"
               d="M 41.114,3.172 H 41.113 Z M 52,9.443 c 0,0 1.625,-0.036 1.654,-0.118 C 51.171,7.396 42.929,3.373 42.929,3.373 42.494,3.218 41.108,3.173 41.114,3.172 40.832,3.747 52,9.443 52,9.443 Z" /></clipPath><g
             id="g284"
             clip-path="url(#_clip2)"><path
               id="path282"
               style="fill:url(#_Linear3);fill-rule:nonzero"
               d="M 40.839,3.169 53.725,3.323 53.652,9.463 40.766,9.31 Z" /></g><path
             id="path286"
             style="fill:#ffffff;stroke:#000000;stroke-width:0.16px"
             d="m 42.929,3.373 c 0,0 8.242,4.023 10.725,5.952 C 53.625,9.407 52,9.443 52,9.443 c 0,0 -11.168,-5.696 -10.886,-6.271 -0.028,0 1.376,0.045 1.815,0.201 z" /><path
             id="path288"
             style="fill:#333333;fill-rule:nonzero;stroke:#000000;stroke-width:0.16px"
             d="m 8.238,22.239 2.755,1.066 10.911,-0.367 1.743,-7.704 -7.187,-3.514 -9.514,1.003 z" /><path
             id="path290"
             style="fill:#333333;fill-rule:nonzero;stroke:#000000;stroke-width:0.16px"
             d="m 55.818,23.052 4.958,-0.023 11.448,-0.484 -0.695,-7.568 -6.25,-2.429 -7.606,0.446 z" /><clipPath
             id="_clip4"><path
               id="path292"
               d="m 73.551,12.894 0.249,4.575 c 0,0 2.316,-0.248 2.344,-0.303 -0.23,-1.517 -0.893,-3.646 -0.893,-3.701 -0.186,-0.498 -0.707,-0.725 -0.707,-0.725 -0.085,-0.014 -0.168,-0.019 -0.247,-0.019 -0.43,0 -0.746,0.173 -0.746,0.173 z" /></clipPath><g
             id="g297"
             clip-path="url(#_clip4)"><path
               id="path295"
               style="fill:url(#_Linear5);fill-rule:nonzero"
               d="m 72.029,13.551 2.74,-1.238 2.07,4.581 -2.74,1.238 z" /></g><path
             id="path299"
             style="fill:#333333;stroke:#000000;stroke-width:0.08px"
             d="m 74.544,12.74 c 0,0 0.521,0.227 0.707,0.725 0,0.055 0.663,2.184 0.893,3.701 -0.028,0.055 -2.344,0.303 -2.344,0.303 l -0.249,-4.575 c 0,0 0.443,-0.243 0.993,-0.154 z" /><clipPath
             id="_clip6"><path
               id="path301"
               d="m 21.387,1.561 c 0,-0.027 -10.225,0.595 -12.146,2.361 0,0.029 2.953,-0.543 2.953,-0.543 0,0 0.197,-0.327 0.638,-0.378 0.055,10e-4 3.74,-0.698 6.592,-0.857 0,0.013 -0.392,0.601 -0.392,0.601 l 1.708,-0.049 0.393,-0.67 c 0,0 11.313,-0.65 15.313,0.017 0,0 0.383,0.129 0.477,0.364 0.014,0.014 2.805,0.35 2.956,0.365 0.152,0.016 -1.848,-0.903 -3.965,-1.175 0,-0.01 -1.813,-0.244 -6.273,-0.244 -2.122,0 -4.843,0.053 -8.254,0.208 z" /></clipPath><g
             style="fill:#333333"
             id="g306"
             clip-path="url(#_clip6)"><path
               id="path304"
               style="fill:#333333;fill-rule:nonzero"
               d="M 9.244,4.034 9.163,2.029 39.949,0.783 40.031,2.788 Z" /></g><path
             id="path308"
             style="fill:none;stroke:#000000;stroke-width:0.16px"
             d="m 12.194,3.379 c 0,0 0.197,-0.327 0.638,-0.378 0.055,10e-4 3.74,-0.698 6.592,-0.857 0,0.013 -0.393,0.601 -0.393,0.601 l 1.709,-0.049 0.393,-0.67 c 0,0 11.313,-0.65 15.313,0.017 0,0 0.383,0.129 0.477,0.364 0.014,0.014 2.805,0.35 2.956,0.365 0.152,0.016 -1.848,-0.903 -3.965,-1.176 0,-0.014 -3.946,-0.515 -14.528,-0.035 0.001,-0.027 -10.224,0.595 -12.145,2.361 0,0.029 2.953,-0.543 2.953,-0.543 z" /></g></g><g
         style="fill:#4786b3;fill-opacity:1"
         id="g319"
         clip-path="url(#_clip8)"><path
           d="M 0.24804688,1.640625 0,22.595703 l 76.591797,0.910156 0.25,-20.9550778 z"
           style="fill:#4786b3;fill-opacity:1;fill-rule:nonzero"
           id="path317" /></g><g
         id="g446"><clipPath
           id="_clip10"><rect
             id="rect321"
             height="25.077999"
             width="76.516998"
             y="1.275"
             x="0.153" /></clipPath><g
           id="g444"
           clip-path="url(#_clip10)"><path
             id="path324"
             style="fill:none;stroke:#000000;stroke-width:0.16px"
             d="m 42.997,3.402 c 0,0 -1.051,-0.199 -1.63,-0.103 -10e-4,0.021 4.375,1.994 7.367,4.095 0,0 2.663,1.808 3.654,1.861 -10e-4,0.041 1.31,-0.067 1.873,-0.047 0.014,0.015 17.691,1.519 20.531,3.536 0.109,0.056 -0.693,0.322 -0.693,0.322 0,0 0.849,2.764 1.148,3.098 0.027,0 0.681,0.614 0.929,0.616 l 0.093,1.434 c 0,0 0.049,0.579 -0.146,0.714 0.027,0.083 -0.302,-0.086 -0.305,0.134 0.027,0.028 -0.216,2.009 -0.216,2.009 0,0 0.963,0.066 0.986,0.452 0.026,0.082 -0.089,0.522 -0.695,0.515 0.028,0 -0.761,1.45 -5.138,1.316 -0.028,0.055 0.94,-8.375 -7.273,-9.093 0.041,0.084 -7.058,-0.455 -7.076,8.013 0.04,0.084 -35.4,-0.338 -35.4,-0.338 0,0 -0.084,-6.734 -6.359,-7.18 0.042,0 -6.276,-0.158 -6.026,6.579 0.006,0.007 0.069,1.116 0.19,1.365 -1.362,-0.098 -5.026,-1.175 -7.3,-0.954 -1.238,0.121 -1.096,-1.707 -1.096,-1.707 0,0 0.142,-0.273 -0.029,-1.019 0.028,-0.028 -0.333,-0.913 -0.038,-1.46 0.014,0.041 -0.052,-1.364 0.383,-1.503 0.041,0.041 0.522,-0.449 0.689,-0.653 0.043,-0.02 0.417,-0.264 0.417,-0.264 0,0 2.281,-2.493 2.723,-3.231 0,0.02 0.192,-0.473 -0.653,-0.648 0.021,-0.02 -1.756,0 -1.756,0 0,0 0.356,-1.497 5.982,-6.855 0,0 -0.162,-0.222 -0.077,-0.442 C 8.029,3.937 9.05,3.756 9.05,3.756 c 0,0 11.738,-1.61 21.695,-1.698 0,0 8.509,0.046 12.252,1.344 z" /><path
             id="path326"
             style="fill-rule:nonzero"
             d="m 9.33,20.975 c 0.034,-2.827 2.352,-5.091 5.179,-5.057 2.826,0.034 5.09,2.352 5.057,5.178 -0.034,2.827 -2.353,5.09 -5.179,5.056 -2.826,-0.033 -5.09,-2.351 -5.057,-5.177" /><path
             id="path328"
             style="fill-rule:nonzero"
             d="m 58.411,20.986 c 0,-2.963 2.402,-5.367 5.366,-5.367 2.964,0 5.367,2.404 5.367,5.367 0,2.965 -2.403,5.368 -5.367,5.368 -2.964,0 -5.366,-2.403 -5.366,-5.368" /><clipPath
             id="_clip11"><path
               id="path330"
               d="m 10.732,20.991 c -0.025,2.053 1.619,3.736 3.671,3.76 2.053,0.024 3.736,-1.619 3.76,-3.672 0.024,-2.052 -1.619,-3.736 -3.671,-3.759 -0.016,-0.001 -0.031,-0.001 -0.046,-0.001 -2.032,0 -3.69,1.635 -3.714,3.672 z" /></clipPath><g
             style="fill:#ffffff"
             id="g335"
             clip-path="url(#_clip11)"><path
               id="path333"
               style="fill:#ffffff;fill-rule:nonzero"
               d="m 10.776,17.275 7.432,0.088 -0.088,7.433 -7.433,-0.089 z" /></g><path
             id="path337"
             style="fill:none;stroke:#b9b9b9;stroke-width:0.08px"
             d="m 10.731,20.991 c 0.025,-2.052 1.708,-3.696 3.761,-3.671 2.052,0.024 3.696,1.707 3.671,3.759 -0.024,2.053 -1.707,3.697 -3.759,3.672 -2.053,-0.024 -3.697,-1.707 -3.673,-3.76 z" /><path
             id="path339"
             style="fill:#ffffff;fill-rule:nonzero"
             d="m 59.853,20.986 c 0,2.153 1.745,3.897 3.898,3.897 2.152,0 3.897,-1.744 3.897,-3.897 0,-2.152 -1.745,-3.897 -3.897,-3.897 -2.153,0 -3.898,1.745 -3.898,3.897 z" /><path
             id="path341"
             style="fill:none;stroke:#b9b9b9;stroke-width:0.08px"
             d="m 59.853,20.986 c 0,-2.152 1.745,-3.897 3.898,-3.897 2.152,0 3.897,1.745 3.897,3.897 0,2.153 -1.745,3.897 -3.897,3.897 -2.153,0 -3.898,-1.744 -3.898,-3.897 z" /><clipPath
             id="_clip14"><path
               id="path343"
               d="M 31.673,2.647 C 26.165,2.719 18.886,3.377 18.886,3.377 12.291,3.897 10.543,4.964 10.522,4.985 8.607,5.781 5.005,9.271 5.005,9.271 15.593,8.779 29.413,9.328 39.225,9.878 46.458,10.284 51.513,10.689 51.49,10.676 45.436,5.565 40.529,3.716 40.502,3.716 38.297,2.793 32.867,2.643 31.842,2.643 c -0.109,0 -0.169,0.002 -0.169,0.004 z" /></clipPath><g
             id="g348"
             clip-path="url(#_clip14)"><path
               id="path346"
               style="fill:#333333;fill-rule:nonzero"
               d="M 4.994,10.135 5.087,2.312 51.606,2.866 51.513,10.689 Z" /></g><path
             id="path350"
             style="fill:none;stroke:#000000;stroke-width:0.16px"
             d="m 5.005,9.271 c 0,0 3.602,-3.491 5.517,-4.286 0.022,-0.021 1.769,-1.088 8.364,-1.608 0,0 7.279,-0.657 12.788,-0.73 0,-0.028 6.388,0.048 8.828,1.069 0.027,10e-4 4.934,1.849 10.988,6.961 C 51.545,10.705 23.398,8.415 5.005,9.271 Z" /><clipPath
             id="_clip16"><path
               id="path352"
               d="m 18.523,3.785 v 0 c 0,0 0.001,0 0.001,0 -0.001,0 -0.001,0 -0.001,0 z m -6.649,1.05 C 9.941,5.226 5.958,9.007 5.958,9.007 6.345,8.845 14.994,8.839 14.994,8.839 c 1.665,-3.42 3.495,-5.027 3.529,-5.054 -4.797,0.411 -6.704,1.05 -6.649,1.05 z" /></clipPath><g
             style="fill:#ffffff"
             id="g357"
             clip-path="url(#_clip16)"><path
               id="path355"
               style="fill:#ffffff;fill-rule:nonzero"
               d="M 5.958,9.007 6.022,3.636 18.524,3.785 18.46,9.155 Z" /></g><clipPath
             id="_clip18"><path
               id="path359"
               d="M 19.517,3.632 C 17.467,5.661 16.304,8.787 16.235,8.853 16.444,8.828 21.19,8.885 21.19,8.885 21.128,7.122 21.474,3.49 21.474,3.49 Z m -3.284,5.221 c 0,10e-4 0.001,10e-4 0.002,0 -10e-4,0 -0.002,0 -0.002,0 z" /></clipPath><g
             style="fill:#ffffff"
             id="g364"
             clip-path="url(#_clip18)"><path
               id="path362"
               style="fill:#ffffff;fill-rule:nonzero"
               d="M 16.233,8.854 16.297,3.428 21.474,3.49 21.409,8.916 Z" /></g><clipPath
             id="_clip20"><path
               id="path366"
               d="m 21.998,3.469 c -0.224,0.272 -0.395,5.393 -0.395,5.393 4.158,0.021 9.112,0.246 9.058,0.19 C 30.416,6.543 30.76,3.077 30.732,3.049 30.627,3.047 30.508,3.046 30.378,3.046 c -2.362,0 -8.38,0.423 -8.38,0.423 z" /></clipPath><g
             style="fill:#ffffff"
             id="g371"
             clip-path="url(#_clip20)"><path
               id="path369"
               style="fill:#ffffff;fill-rule:nonzero"
               d="m 21.601,9 0.072,-6.06 9.114,0.109 -0.072,6.059 z" /></g><clipPath
             id="_clip22"><path
               id="path373"
               d="M 33.882,9.173 C 38.92,9.343 47.036,9.99 47.036,9.99 L 47.223,8.202 C 45.562,6.613 41.153,4.467 41.153,4.467 38.952,3.147 32.797,3.101 32.797,3.101 c 0.107,0.332 1.084,6.127 1.085,6.072 z" /></clipPath><g
             style="fill:#ffffff"
             id="g378"
             clip-path="url(#_clip22)"><path
               id="path376"
               style="fill:#ffffff;fill-rule:nonzero"
               d="m 32.717,9.82 0.081,-6.746 14.484,0.172 -0.08,6.746 z" /></g><clipPath
             id="_clip24"><path
               id="path380"
               d="m 20.976,22.308 c 0.01,0.046 0.017,0.786 0.37,1.258 0,-0.028 25.725,-0.582 35.138,-0.056 0.04,0.082 -0.136,-1.577 -0.05,-1.937 0,0 -24.425,0.227 -35.514,-0.593 0,0 0.125,0.792 0.056,1.328 z" /></clipPath><g
             style="fill:#4786b3;fill-opacity:1"
             id="g385"
             clip-path="url(#_clip24)"><path
               id="path383"
               style="fill:#4786b3;fill-opacity:1;fill-rule:nonzero"
               d="m 56.55,21.404 -0.03,2.58 -35.63,-0.424 0.03,-2.58 z" /></g><path
             sodipodi:nodetypes="cccsccc"
             id="path387"
             style="fill:none;stroke:#000000;stroke-width:0.16px"
             d="m 20.92,20.98 c 0,0 0.125,0.792 0.056,1.328 0.011,0.046 0.017,0.785 0.369,1.258 9e-5,-0.0025 0.208828,-0.0093 0.595506,-0.01919 C 25.847339,23.44697 47.918745,23.031373 56.484,23.51 c 0.04,0.082 -0.136,-1.577 -0.049,-1.938 0,0 -24.426,0.228 -35.515,-0.592 z" /><path
             id="path389"
             style="fill:none;stroke:#000000;stroke-width:0.08px"
             d="m 76.494,21.315 c 0,0 -4.338,-0.024 -5.769,-0.041" /><path
             id="path391"
             style="fill:none;stroke:#000000;stroke-width:0.08px"
             d="m 56.509,20.54 c 0,0 -25.859,-0.141 -35.967,-1.17" /><path
             id="path393"
             style="fill:none;stroke:#000000;stroke-width:0.08px"
             d="m 0.348,17.56 c 0,0 0.902,0.603 8.537,1.189" /><path
             id="path395"
             style="fill:none;stroke:#000000;stroke-width:0.08px"
             d="m 51.936,21.78 c 0,0 1.435,-9.456 -0.446,-11.103" /><path
             id="path397"
             style="fill:none;stroke:#000000;stroke-width:0.08px"
             d="m 32.385,21.548 c 0,0 0.709,-8.694 -0.347,-12.452" /><path
             id="path399"
             style="fill:none;stroke:#000000;stroke-width:0.08px"
             d="m 21.816,21.092 c 0,0 0.107,-4.46 -4.379,-6.992 -0.11,-0.056 -2.812,-3.207 -2.431,-5.186" /><path
             id="path401"
             style="fill:none;stroke:#000000;stroke-width:0.08px"
             d="m 3.063,13.929 c 0,0 1.038,0.728 1.477,0.899 0.053,0.111 6.16,0.693 6.875,0.757" /><path
             id="path403"
             style="fill:#f46154;fill-rule:nonzero;stroke:#000000;stroke-width:0.16px"
             d="m 2.201,11.165 c 0,0 -0.673,0.97 -0.742,4.549 0.026,0.041 4.159,-3.545 3.204,-4.313 0,0.014 -0.35,-0.693 -2.462,-0.236 z" /><path
             id="path405"
             style="fill:none;stroke:#000000;stroke-width:0.08px"
             d="m 68.567,12.752 c 0,0 -5.22,-0.97 -17.16,-2.049" /><path
             id="path407"
             style="fill:none;stroke:#000000;stroke-width:0.08px"
             d="m 52.427,9.448 c 0,0 1.151,1.061 1.311,1.476" /><path
             id="path409"
             style="fill:none;stroke:#000000;stroke-width:0.08px"
             d="m 66.249,14.887 c 0,0 0.232,-0.37 0.37,-0.368 -0.028,0 2.212,-0.744 2.521,-1.264" /><clipPath
             id="_clip26"><path
               id="path411"
               d="m 68.567,12.752 c 0.107,0.25 1.854,1.619 1.854,1.647 0.926,0.892 2.408,1.295 2.381,1.295 0.412,0.005 1.29,0.291 1.29,0.263 0.657,0.339 0.658,0.311 0.604,0.256 -0.287,-1.408 -0.856,-2.16 -0.883,-2.242 -1.68,-1.219 -2.992,-1.523 -3.884,-1.523 -0.89,0 -1.362,0.304 -1.362,0.304 z" /></clipPath><g
             style="fill:#ffffff"
             id="g416"
             clip-path="url(#_clip26)"><path
               id="path414"
               style="fill:#ffffff;fill-rule:nonzero"
               d="m 68.571,12.421 6.224,0.074 -0.046,3.801 -6.223,-0.074 z" /></g><path
             id="path418"
             style="fill:none;stroke:#000000;stroke-width:0.08px"
             d="m 68.567,12.752 c 0,0 1.888,-1.217 5.246,1.219 0.027,0.082 0.596,0.833 0.883,2.241 0.054,0.056 0.053,0.084 -0.603,-0.255 -0.001,0.028 -0.879,-0.258 -1.292,-0.263 0.028,0 -1.455,-0.403 -2.38,-1.295 0,-0.028 -1.746,-1.398 -1.854,-1.647 z" /><path
             id="path420"
             style="fill:none;stroke:#000000;stroke-width:0.08px"
             d="m 69.663,17.888 c 0,0 4.1,0.324 6.551,0.353" /><path
             id="path422"
             style="fill:none;stroke:#001440;stroke-width:0.08px"
             d="m 2.886,10.278 c 0,0 1.641,1.011 2.177,1.059 0.082,0.042 26.889,0.319 50.319,3.241" /><clipPath
             id="_clip28"><path
               id="path424"
               d="m 73.917,19.095 c 0,0.054 -0.588,0.819 -0.813,1.257 0.054,0.028 -0.032,0.385 0.244,0.389 0.054,0 0.908,0.038 1.375,0.098 0.055,0.001 -0.676,-1.055 0.298,-1.869 0,0 -0.226,-0.02 -0.473,-0.02 -0.285,0 -0.599,0.027 -0.631,0.145 z" /></clipPath><g
             id="g429"
             clip-path="url(#_clip28)"><path
               id="path427"
               style="fill:url(#_Linear29);fill-rule:nonzero"
               d="m 73.094,18.929 1.927,0.023 -0.023,1.891 -1.927,-0.023 z" /></g><path
             id="path431"
             style="fill:#333333;stroke:#000000;stroke-width:0.16px"
             d="m 75.021,18.97 c 0,0 -1.045,-0.095 -1.104,0.125 0,0.055 -0.588,0.819 -0.813,1.257 0.054,0.028 -0.032,0.385 0.243,0.389 0.055,0 0.909,0.038 1.376,0.098 0.056,0.001 -0.676,-1.055 0.298,-1.869 z" /><path
             id="path433"
             style="fill:none;stroke:#000000;stroke-width:0.08px"
             d="m 8.133,4.406 c 0,0 0.762,-0.37 0.917,-0.65" /><clipPath
             id="_clip30"><path
               id="path435"
               d="m 44.212,7.278 c 0.041,-0.02 -0.706,1.754 -0.024,1.983 0.086,0.043 1.107,0.419 1.357,0.587 0.034,-0.003 0.748,-0.439 0.928,0.142 l 4.209,0.381 c 0,0 -1.721,-1.26 -2.685,-1.829 0,0 -0.748,-1.29 -2.045,-1.678 0.009,0 -0.068,-0.016 -0.195,-0.032 C 45.631,6.816 45.456,6.8 45.269,6.8 c -0.442,0 -0.952,0.089 -1.057,0.478 z" /></clipPath><g
             id="g440"
             clip-path="url(#_clip30)"><path
               id="path438"
               style="fill:#333333;fill-rule:nonzero"
               d="m 50.723,6.862 -0.041,3.509 -7.191,-0.086 0.041,-3.508 z" /></g><path
             id="path442"
             style="fill:none;stroke:#000000;stroke-width:0.16px"
             d="m 47.997,8.541 c 0,0 -0.748,-1.289 -2.046,-1.677 0.042,0.001 -1.545,-0.306 -1.739,0.414 0.042,-0.02 -0.706,1.754 -0.024,1.983 0.085,0.043 1.107,0.419 1.357,0.587 0.034,-0.003 0.748,-0.439 0.928,0.142 l 4.209,0.38 c 0,0 -1.721,-1.259 -2.685,-1.829 z" /></g></g></g></g><defs
     id="defs534"><linearGradient
       id="_Linear3"
       x1="0"
       y1="0"
       x2="1"
       y2="0"
       gradientUnits="userSpaceOnUse"
       gradientTransform="matrix(12.6167,0.150154,-0.150154,12.6167,41.0722,6.24253)"><stop
         offset="0%"
         style="stop-color:#f2f3ff;stop-opacity:1"
         id="stop449" /><stop
         offset="100%"
         style="stop-color:#edf4ff;stop-opacity:1"
         id="stop451" /></linearGradient><linearGradient
       id="_Linear5"
       x1="0"
       y1="0"
       x2="1"
       y2="0"
       gradientUnits="userSpaceOnUse"
       gradientTransform="matrix(2.71024,-1.22475,1.22475,2.71024,73.062,15.8365)"><stop
         offset="0%"
         style="stop-color:#231f20;stop-opacity:1"
         id="stop454" /><stop
         offset="100%"
         style="stop-color:#595a5c;stop-opacity:1"
         id="stop456" /></linearGradient><linearGradient
       id="_Linear29"
       x1="0"
       y1="0"
       x2="1"
       y2="0"
       gradientUnits="userSpaceOnUse"
       gradientTransform="matrix(1.89994,0.0226115,-0.0226115,1.89994,73.1097,19.8763)"><stop
         offset="0%"
         style="stop-color:#231f20;stop-opacity:1"
         id="stop522" /><stop
         offset="100%"
         style="stop-color:#595a5c;stop-opacity:1"
         id="stop524" /></linearGradient></defs></svg>
