<?xml version="1.0" encoding="UTF-8" standalone="no"?>
<svg
   xmlns:dc="http://purl.org/dc/elements/1.1/"
   xmlns:cc="http://creativecommons.org/ns#"
   xmlns:rdf="http://www.w3.org/1999/02/22-rdf-syntax-ns#"
   xmlns:svg="http://www.w3.org/2000/svg"
   xmlns="http://www.w3.org/2000/svg"
   xmlns:sodipodi="http://sodipodi.sourceforge.net/DTD/sodipodi-0.dtd"
   xmlns:inkscape="http://www.inkscape.org/namespaces/inkscape"
   width="490.70114"
   height="150"
   viewBox="0 0 490.70114 150"
   version="1.1"
   xml:space="preserve"
   style="clip-rule:evenodd;fill-rule:evenodd;stroke-linecap:round;stroke-linejoin:round"
   id="svg168"
   sodipodi:docname="cabriolet.svg"
   inkscape:version="1.0 (4035a4fb49, 2020-05-01)"><metadata
     id="metadata172"><rdf:RDF><cc:Work
         rdf:about=""><dc:format>image/svg+xml</dc:format><dc:type
           rdf:resource="http://purl.org/dc/dcmitype/StillImage" /><dc:title></dc:title></cc:Work></rdf:RDF></metadata><sodipodi:namedview
     fit-margin-bottom="0"
     fit-margin-right="0"
     fit-margin-left="0"
     fit-margin-top="0"
     inkscape:document-rotation="0"
     pagecolor="#ffffff"
     bordercolor="#666666"
     borderopacity="1"
     objecttolerance="10"
     gridtolerance="10"
     guidetolerance="10"
     inkscape:pageopacity="0"
     inkscape:pageshadow="2"
     inkscape:window-width="1920"
     inkscape:window-height="1017"
     id="namedview170"
     showgrid="false"
     inkscape:zoom="1.0213415"
     inkscape:cx="349.92603"
     inkscape:cy="58.610958"
     inkscape:window-x="-8"
     inkscape:window-y="-8"
     inkscape:window-maximized="1"
     inkscape:current-layer="svg168" /><g
     transform="matrix(5.9861128,0,0,5.9861128,-0.02841355,-0.25142811)"
     id="cat_cabriolet"><g
       id="g40"><path
         d="m 41.147,1.469 9.014,7.136 5.554,-0.482 C 53.194,6.379 42.22,0.584 42.22,0.584 42.138,0.569 42.062,0.562 41.992,0.562 c -0.8,0 -0.845,0.907 -0.845,0.907 z"
         style="fill:url(#_Linear1);fill-rule:nonzero"
         id="path2" /><path
         d="m 42.219,0.584 c 0,0 10.974,5.794 13.496,7.539 L 50.161,8.605 41.146,1.469 c 0,0 0.054,-1.073 1.073,-0.885 z"
         style="fill:#ffffff;stroke:#1a171b;stroke-width:0.19px"
         id="path4" /><path
         d="m 29.02,6.378 c 0,0 0,-4.077 -1.127,-4.158 0,0 -0.859,-0.455 -0.939,4.534 -0.027,0.027 0.054,1.825 0.054,1.825 l 3.273,0.242 c 0,0 -0.188,-2.012 -1.261,-2.443 z"
         style="fill:#333333;fill-rule:nonzero;stroke:#000000;stroke-width:0.1px"
         id="path6" /><path
         d="m 2.7,20.76 c -0.001,-0.036 2.414,0 2.414,0 L 5.132,20.599 5.955,20.581 7.69,19.49 3.987,19.133 2.718,19.096 c 0,0 -0.215,0.823 -0.018,1.664 z m 0,0 z"
         style="fill:url(#_Linear2);fill-rule:nonzero"
         id="path8" /><path
         d="M 3.987,19.133 2.718,19.096 c 0,0 -0.215,0.824 -0.019,1.664 -0.018,-0.036 2.415,0 2.415,0 L 5.132,20.599 5.955,20.581 7.69,19.49 Z"
         style="fill:#808080;stroke:#000000;stroke-width:0.1px"
         id="path10" /><path
         d="m 5.812,20.17 c 0,0 0.787,0.965 1.574,0.965 0,0.036 2.146,-0.071 2.146,-0.071 0,0 1.807,-0.215 1.324,-1.789 -0.006,0.017 -5.438,-0.25 -5.438,-0.25 0,0 0.197,0.912 0.394,1.145 z"
         style="fill:url(#_Linear3);fill-rule:nonzero"
         id="path12" /><path
         d="m 5.812,20.17 c 0,0 0.787,0.965 1.574,0.965 0,0.036 2.146,-0.071 2.146,-0.071 0,0 1.807,-0.215 1.324,-1.789 0.018,0.017 -5.438,-0.25 -5.438,-0.25 0,0 0.197,0.912 0.394,1.145 z"
         style="fill:#333333;stroke:#000000;stroke-width:0.1px"
         id="path14" /><path
         d="M 75.247,21.135 58.827,21.726 57.164,10.35 73.101,10.403 Z"
         style="fill:#333333;fill-rule:nonzero;stroke:#1a171b;stroke-width:0.1px"
         id="path16" /><path
         d="M 26.202,21.618 9.568,20.492 8.12,10.833 24.056,10.887 Z"
         style="fill:#333333;fill-rule:nonzero;stroke:#1a171b;stroke-width:0.1px"
         id="path18" /><path
         d="m 50.528,8.74 4.633,-1.18 c 0,0 -1.825,-0.877 -1.842,-0.841 -2.505,0.43 -5.081,-0.268 -5.081,-0.268 z"
         style="fill:url(#_Linear4);fill-rule:nonzero"
         id="path20" /><path
         d="m 48.239,6.451 c 0,0 2.575,0.698 5.08,0.268 0.017,-0.036 1.842,0.841 1.842,0.841 l -4.633,1.18 z"
         style="fill:none;stroke:#1a171b;stroke-width:0.1px"
         id="path22" /><path
         d="m 53.367,7.01 c 0.148,0.644 0.738,0.751 0.752,0.724 -0.054,-0.765 0.483,-0.684 0.496,-0.684 0.483,-0.027 0.563,0.51 0.563,0.51 0,0 0.966,0.295 1.034,0.295 0.066,0 1.274,-0.711 1.301,-0.725 C 56.829,6.701 56.077,6.983 56.091,6.983 55.944,7.089 55.807,7.041 55.726,6.993 55.673,6.963 55.643,6.932 55.648,6.942 55.073,6.588 54.63,6.468 54.295,6.468 53.59,6.468 53.359,7 53.367,7.01 Z"
         style="fill:url(#_Linear5);fill-rule:nonzero"
         id="path24" /><path
         d="m 55.179,7.559 c 0,0 -0.081,-0.536 -0.563,-0.509 -0.014,0 -0.551,-0.081 -0.497,0.684 -0.014,0.027 -0.604,-0.081 -0.751,-0.724 -0.014,-0.014 0.496,-1.168 2.28,-0.067 -0.013,-0.028 0.202,0.214 0.443,0.04 -0.014,0 0.738,-0.282 1.422,0.147 -0.027,0.014 -1.235,0.725 -1.301,0.725 -0.068,0 -1.033,-0.296 -1.033,-0.296 z"
         style="fill:#333333;stroke:#1a171b;stroke-width:0.1px"
         id="path26" /><path
         d="m 40.288,0.745 c 0,0 -0.214,1.073 0.215,1.905 0,0.053 6.707,5.822 6.707,5.822 L 49.437,8.257 42.247,2.032 41.012,0.101 c 0,0 -0.008,-0.001 -0.022,-0.001 -0.113,0 -0.611,0.035 -0.702,0.645 z"
         style="fill:url(#_Linear6);fill-rule:nonzero"
         id="path28" /><path
         d="m 41.013,0.101 c 0,0 -0.622,-0.045 -0.725,0.644 0,0 -0.215,1.073 0.215,1.905 0,0.053 6.707,5.822 6.707,5.822 l 2.227,-0.214 -7.19,-6.226 z"
         style="fill:#333333;stroke:#1a171b;stroke-width:0.1px"
         id="path30" /><path
         d="M 25.228,2.212 C 25.099,2.264 24.519,1.811 24.64,6.898 l 1.704,-0.036 c 0,0 0.651,-3.702 -0.282,-4.591 -0.067,-0.063 -0.22,-0.08 -0.382,-0.08 -0.171,0 -0.352,0.018 -0.452,0.021 z"
         style="fill:url(#_Linear7);fill-rule:nonzero"
         id="path32" /><path
         d="m 26.344,6.862 c 0,0 0.65,-3.702 -0.282,-4.591 C 25.925,2.141 25.423,2.207 25.228,2.212 25.099,2.264 24.519,1.811 24.64,6.898 Z"
         style="fill:#333333;stroke:#000000;stroke-width:0.1px"
         id="path34" /><path
         d="M 26.044,2.208 C 25.918,2.207 25.632,2.206 25.729,6.898 l 1.037,-0.036 c 0,0 0.229,-4.623 -0.688,-4.659 -0.009,0.005 -0.02,0.005 -0.034,0.005 z"
         style="fill:url(#_Linear8);fill-rule:nonzero"
         id="path36" /><path
         d="m 26.766,6.862 c 0,0 0.229,-4.622 -0.688,-4.659 -0.097,0.054 -0.456,-0.482 -0.349,4.695 z"
         style="fill:#333333;stroke:#000000;stroke-width:0.1px"
         id="path38" /></g><path
       d="m 40.958,1.522 7.486,6.494 c 0,0 -17.358,-0.009 -20.149,-0.259 -0.036,-0.036 0.501,-1.253 -2.611,-1.36 -0.072,0 -1.038,0.251 -1.074,-1.108 -0.035,0.035 -7.046,0.213 -11.84,0.571 0,0 -9.48,0.412 -9.748,1.244 -0.027,0 -0.269,0.751 -0.269,1.556 -0.027,0.053 -0.428,3.353 -0.428,3.353 0,0 -0.162,1.315 -2.04,1.315 -0.002,0.002 -0.007,0.002 -0.015,0.001 -0.073,-0.006 -0.352,-0.012 0.015,3.165 -0.027,0.027 -0.751,1.69 5.688,3.353 0,0 2.891,0.376 3.914,0.911 -0.085,-0.174 -1.033,-8.539 7.515,-9.12 0,0 9.767,-0.161 7.298,10.356 0,-0.019 2.608,0.036 6.604,0.092 7.265,0.1 19.116,0.2 28.221,-0.146 -0.054,0 -1.825,-10.249 7.62,-10.678 -0.054,0.107 7.78,-0.59 7.727,10.142 0.053,0.107 4.614,0.697 5.419,-1.663 0,0 2.397,-4.347 1.305,-6.44 0,0 -2.217,-5.223 -25.04,-6.368 0,0.072 -0.286,0.859 -5.653,0.859 -0.071,0.071 -4.292,-2.933 -8.298,-6.081 0,0 -0.6,-0.376 -0.358,-1.101 -0.027,0 -1.217,-0.473 -1.217,-0.473 0,0 -0.607,0.742 -0.072,1.385 z M 9.891,20.76 c -0.002,0 -0.003,-0.001 -0.004,-0.002 0.002,0.003 0.003,0.004 0.004,0.002 z"
       style="fill:#4786b3;fill-opacity:1;fill-rule:nonzero"
       id="path42" /><g
       id="g93"><clipPath
         id="_clip10"><rect
           x="0.003"
           y="0.039999999"
           width="81.974998"
           height="25.059999"
           id="rect44" /></clipPath><g
         clip-path="url(#_clip10)"
         id="g91"><path
           d="m 81.596,13.301 c 0,0 -2.217,-5.223 -25.04,-6.368 0,0.072 -0.286,0.859 -5.653,0.859 -0.07,0.072 -4.292,-2.933 -8.298,-6.081 0,0 -0.599,-0.376 -0.358,-1.1 -0.027,0 -1.216,-0.474 -1.216,-0.474 0,0 -0.608,0.742 -0.073,1.386 l 7.486,6.493 c 0,0 -17.359,-0.009 -20.149,-0.26 -0.035,-0.036 0.501,-1.252 -2.611,-1.359 -0.072,0 -1.038,0.251 -1.073,-1.109 -0.036,0.036 -7.047,0.214 -11.841,0.572 0,0 -9.48,0.411 -9.748,1.244 -0.027,0 -0.269,0.751 -0.269,1.556 -0.027,0.053 -0.429,3.353 -0.429,3.353 0,0 -0.161,1.315 -2.039,1.315 -0.027,0.026 -0.402,-0.322 0,3.166 -0.027,0.027 -0.751,1.69 5.688,3.353 0,0 2.898,0.376 3.918,0.913 -0.054,0.107 -1.181,-8.531 7.511,-9.122 0,0 9.766,-0.161 7.298,10.356 0,-0.053 20.713,0.483 34.825,-0.053 -0.054,0 -1.825,-10.249 7.619,-10.679 -0.053,0.107 7.781,-0.59 7.728,10.141 0.053,0.108 4.614,0.698 5.419,-1.662 0,0 2.397,-4.347 1.305,-6.44 z"
           style="fill:none;stroke:#1a171b;stroke-width:0.19px"
           id="path47" /><path
           d="m 11.472,18.957 c 0,-3.394 2.751,-6.144 6.144,-6.144 3.392,0 6.143,2.75 6.143,6.144 0,3.392 -2.751,6.143 -6.143,6.143 -3.393,0 -6.144,-2.751 -6.144,-6.143"
           style="fill-rule:nonzero"
           id="path49" /><path
           d="m 61.01,18.822 c 0,-3.376 2.737,-6.113 6.112,-6.113 3.376,0 6.113,2.737 6.113,6.113 0,3.376 -2.737,6.112 -6.113,6.112 -3.375,0 -6.112,-2.736 -6.112,-6.112"
           style="fill-rule:nonzero"
           id="path51" /><path
           d="m 13.154,18.957 c 0,2.464 1.997,4.461 4.462,4.461 2.463,0 4.461,-1.997 4.461,-4.461 0,-2.464 -1.998,-4.461 -4.461,-4.461 -2.465,0 -4.462,1.997 -4.462,4.461 z"
           style="fill:#ffffff;fill-rule:nonzero"
           id="path53" /><path
           d="m 13.154,18.957 c 0,-2.464 1.998,-4.462 4.462,-4.462 2.463,0 4.461,1.998 4.461,4.462 0,2.464 -1.998,4.461 -4.461,4.461 -2.464,0 -4.462,-1.997 -4.462,-4.461 z"
           style="fill:none;stroke:#b9b9b9;stroke-width:0.1px"
           id="path55" /><path
           d="m 62.653,18.822 c 0,2.451 1.988,4.438 4.439,4.438 2.451,0 4.438,-1.987 4.438,-4.438 0,-2.452 -1.987,-4.439 -4.438,-4.439 -2.451,0 -4.439,1.987 -4.439,4.439 z"
           style="fill:#ffffff;fill-rule:nonzero"
           id="path57" /><path
           d="m 62.653,18.822 c 0,-2.452 1.988,-4.439 4.439,-4.439 2.452,0 4.438,1.987 4.438,4.439 0,2.451 -1.986,4.438 -4.438,4.438 -2.451,0 -4.439,-1.987 -4.439,-4.438 z"
           style="fill:none;stroke:#b9b9b9;stroke-width:0.1px"
           id="path59" /><path
           d="m 57.218,13.114 c 0,-0.356 -0.289,-0.645 -0.645,-0.645 -0.355,0 -0.643,0.289 -0.643,0.645 0,0.355 0.288,0.643 0.643,0.643 0.356,0 0.645,-0.288 0.645,-0.643"
           style="fill:#f3bb1e;fill-rule:nonzero"
           id="path61" /><path
           d="m 57.218,13.114 c 0,-0.356 -0.289,-0.645 -0.645,-0.645 -0.355,0 -0.643,0.289 -0.643,0.645 0,0.355 0.288,0.643 0.643,0.643 0.356,0 0.645,-0.288 0.645,-0.643 z"
           style="fill:none;stroke:#1a171b;stroke-width:0.1px"
           id="path63" /><path
           d="m 2.78,8.821 c 0,0 3.247,-0.161 3.273,1.609 -0.026,0.081 0.296,1.315 -1.448,1.664 C 4.551,12.175 2.673,12.067 2.297,12.04 2.244,12.04 1.895,8.847 2.78,8.821 Z"
           style="fill:#f46154;fill-rule:nonzero;stroke:#1a171b;stroke-width:0.19px"
           id="path65" /><path
           d="m 41.925,6.504 c -0.033,-0.016 -0.088,0.409 0.094,0.834 0.217,0.504 0.768,1.009 2.088,0.776 -0.036,0.036 0,1.002 0,1.002 0,0 1.717,0.179 2.11,-0.394 -0.036,0 -0.643,-0.644 -0.608,-1.18 0,0 1.503,-1.502 -2.289,-1.967 0,-0.019 -0.09,-0.036 -0.223,-0.036 -0.401,0 -1.199,0.16 -1.172,0.965 z"
           style="fill:#333333;fill-rule:nonzero"
           id="path67" /><path
           d="m 45.609,7.542 c 0,0 1.503,-1.502 -2.289,-1.968 0,-0.071 -1.431,-0.143 -1.395,0.93 -0.072,-0.035 -0.251,2.039 2.182,1.61 -0.036,0.036 0,1.002 0,1.002 0,0 1.717,0.178 2.111,-0.394 -0.036,0 -0.644,-0.644 -0.609,-1.18 z"
           style="fill:none;stroke:#000000;stroke-width:0.1px"
           id="path69" /><path
           d="m 28.295,7.757 c 0,0 -1.717,1.359 -1.449,2.754 -0.107,0.107 1.234,8.907 6.44,9.444 0,0.054 19.102,0.269 19.102,0.269 0,0 1.275,-6.815 0.523,-9.499 -0.053,-0.281 0.515,-1.162 -2.007,-2.933"
           style="fill:none;stroke:#000000;stroke-width:0.1px"
           id="path71" /><path
           d="m 28.295,7.757 c 0,0 -12.748,0.688 -15.574,-1.888"
           style="fill:none;stroke:#1a171b;stroke-width:0.19px"
           id="path73" /><path
           d="m 59.346,20.402 c 0,0 -5.67,-0.161 -6.958,-0.179"
           style="fill:none;stroke:#000000;stroke-width:0.1px"
           id="path75" /><path
           d="m 80.652,17.583 c -0.018,0.613 -0.25,1.102 -0.518,1.094 -0.268,-0.008 -0.47,-0.512 -0.452,-1.124 0.018,-0.612 0.251,-1.103 0.519,-1.094 0.268,0.008 0.47,0.511 0.451,1.124"
           style="fill:#e6e6e6;fill-rule:nonzero"
           id="path77" /><path
           d="m 80.652,17.583 c -0.018,0.613 -0.25,1.102 -0.518,1.094 -0.268,-0.008 -0.47,-0.512 -0.452,-1.124 0.018,-0.612 0.251,-1.103 0.519,-1.094 0.268,0.008 0.47,0.511 0.451,1.124 z"
           style="fill:#ffffff;stroke:#1a171b;stroke-width:0.19px"
           id="path79" /><path
           d="m 5.849,9.698 c 0,0 -2.625,-1.66 -2.784,-2.641"
           style="fill:none;stroke:#1a171b;stroke-width:0.1px"
           id="path81" /><path
           d="m 80.291,19.741 c 0,0 -1.673,0.44 -5.464,0.255"
           style="fill:none;stroke:#1a171b;stroke-width:0.1px"
           id="path83" /><path
           d="m 81.832,14.331 c 0,0 -5.641,0.369 -7.861,-0.093 -0.093,0.093 -1.757,-3.329 -6.751,-3.422 -0.186,0 -3.7,-0.555 -5.734,1.572 0.092,0 -34.22,0.278 -38.752,-0.37 -0.092,0.186 -2.127,-1.109 -5.364,-1.017 0.277,-0.092 -3.052,-0.185 -5.364,1.942 C 11.914,12.851 6.76,12.079 6.054,10.43"
           style="fill:none;stroke:#001c4f;stroke-width:0.1px"
           id="path85" /><path
           d="m 78.04,10.724 -0.555,0.37 -2.821,-0.555 c 0,0 -0.693,-1.942 -18.358,-3.329"
           style="fill:none;stroke:#000000;stroke-width:0.1px"
           id="path87" /><path
           d="m 79.835,12.496 c 0,0 -1.288,-2.066 -4.722,-2.093 -0.027,0.027 -0.778,0.027 -0.456,0.591 0,0.027 1.207,1.261 4.212,1.985 0,0.054 1.342,0.215 0.966,-0.483 z"
           style="fill:#ffffff;fill-rule:nonzero;stroke:#1a171b;stroke-width:0.1px"
           id="path89" /></g></g></g><defs
     id="defs166"><linearGradient
       id="_Linear1"
       x1="0"
       y1="0"
       x2="1"
       y2="0"
       gradientUnits="userSpaceOnUse"
       gradientTransform="matrix(0,8.04395,8.04395,0,48.4308,0.56151)"><stop
         offset="0%"
         style="stop-color:#f2f3ff;stop-opacity:1"
         id="stop96" /><stop
         offset="100%"
         style="stop-color:#edf4ff;stop-opacity:1"
         id="stop98" /></linearGradient><linearGradient
       id="_Linear2"
       x1="0"
       y1="0"
       x2="1"
       y2="0"
       gradientUnits="userSpaceOnUse"
       gradientTransform="matrix(0,1.66414,1.66414,0,5.15319,19.0961)"><stop
         offset="0%"
         style="stop-color:#999b9e;stop-opacity:1"
         id="stop101" /><stop
         offset="100%"
         style="stop-color:#616264;stop-opacity:1"
         id="stop103" /></linearGradient><linearGradient
       id="_Linear3"
       x1="0"
       y1="0"
       x2="1"
       y2="0"
       gradientUnits="userSpaceOnUse"
       gradientTransform="matrix(0,2.11734,2.11734,0,8.17802,19.0253)"><stop
         offset="0%"
         style="stop-color:#231f20;stop-opacity:1"
         id="stop106" /><stop
         offset="100%"
         style="stop-color:#595a5c;stop-opacity:1"
         id="stop108" /></linearGradient><linearGradient
       id="_Linear4"
       x1="0"
       y1="0"
       x2="1"
       y2="0"
       gradientUnits="userSpaceOnUse"
       gradientTransform="matrix(6.92192,0,0,-6.92192,48.2387,7.59551)"><stop
         offset="0%"
         style="stop-color:#231f20;stop-opacity:1"
         id="stop111" /><stop
         offset="100%"
         style="stop-color:#434345;stop-opacity:1"
         id="stop113" /></linearGradient><linearGradient
       id="_Linear5"
       x1="0"
       y1="0"
       x2="1"
       y2="0"
       gradientUnits="userSpaceOnUse"
       gradientTransform="matrix(4.14538,0,0,-4.14538,53.3674,7.16109)"><stop
         offset="0%"
         style="stop-color:#231f20;stop-opacity:1"
         id="stop116" /><stop
         offset="100%"
         style="stop-color:#434345;stop-opacity:1"
         id="stop118" /></linearGradient><linearGradient
       id="_Linear6"
       x1="0"
       y1="0"
       x2="1"
       y2="0"
       gradientUnits="userSpaceOnUse"
       gradientTransform="matrix(0,8.3717,8.3717,0,44.8358,0.100188)"><stop
         offset="0%"
         style="stop-color:#231f20;stop-opacity:1"
         id="stop121" /><stop
         offset="100%"
         style="stop-color:#292728;stop-opacity:1"
         id="stop123" /></linearGradient><linearGradient
       id="_Linear7"
       x1="0"
       y1="0"
       x2="1"
       y2="0"
       gradientUnits="userSpaceOnUse"
       gradientTransform="matrix(-1.9413,0,0,1.9413,26.5646,4.54446)"><stop
         offset="0%"
         style="stop-color:#231f20;stop-opacity:1"
         id="stop126" /><stop
         offset="100%"
         style="stop-color:#595a5c;stop-opacity:1"
         id="stop128" /></linearGradient><linearGradient
       id="_Linear8"
       x1="0"
       y1="0"
       x2="1"
       y2="0"
       gradientUnits="userSpaceOnUse"
       gradientTransform="matrix(-1.08243,0,0,1.08243,26.7915,4.55075)"><stop
         offset="0%"
         style="stop-color:#231f20;stop-opacity:1"
         id="stop131" /><stop
         offset="100%"
         style="stop-color:#595a5c;stop-opacity:1"
         id="stop133" /></linearGradient></defs></svg>
