<?xml version="1.0" encoding="UTF-8" standalone="no"?>
<svg
   xmlns:dc="http://purl.org/dc/elements/1.1/"
   xmlns:cc="http://creativecommons.org/ns#"
   xmlns:rdf="http://www.w3.org/1999/02/22-rdf-syntax-ns#"
   xmlns:svg="http://www.w3.org/2000/svg"
   xmlns="http://www.w3.org/2000/svg"
   xmlns:sodipodi="http://sodipodi.sourceforge.net/DTD/sodipodi-0.dtd"
   xmlns:inkscape="http://www.inkscape.org/namespaces/inkscape"
   inkscape:version="1.0 (4035a4fb49, 2020-05-01)"
   sodipodi:docname="voiture--cabriolet.svg"
   id="svg168"
   style="fill-rule:evenodd;clip-rule:evenodd;stroke-linecap:round;stroke-linejoin:round;"
   xml:space="preserve"
   version="1.1"
   viewBox="0 0 82 26"
   height="100%"
   width="100%"><metadata
     id="metadata172"><rdf:RDF><cc:Work
         rdf:about=""><dc:format>image/svg+xml</dc:format><dc:type
           rdf:resource="http://purl.org/dc/dcmitype/StillImage" /></cc:Work></rdf:RDF></metadata><sodipodi:namedview
     inkscape:current-layer="svg168"
     inkscape:window-maximized="1"
     inkscape:window-y="-8"
     inkscape:window-x="-8"
     inkscape:cy="3.08241"
     inkscape:cx="44.11773"
     inkscape:zoom="11.55516"
     showgrid="false"
     id="namedview170"
     inkscape:window-height="1017"
     inkscape:window-width="1920"
     inkscape:pageshadow="2"
     inkscape:pageopacity="0"
     guidetolerance="10"
     gridtolerance="10"
     objecttolerance="10"
     borderopacity="1"
     bordercolor="#666666"
     pagecolor="#ffffff" /><g
     id="cat_cabriolet"><g
       id="g40"><path
         id="path2"
         style="fill:url(#_Linear1);fill-rule:nonzero;"
         d="M41.147,1.469l9.014,7.136l5.554,-0.482c-2.521,-1.744 -13.495,-7.539 -13.495,-7.539c-0.082,-0.015 -0.158,-0.022 -0.228,-0.022c-0.8,0 -0.845,0.907 -0.845,0.907Z" /><path
         id="path4"
         style="fill:#ffffff;stroke:#1a171b;stroke-width:0.19px"
         d="M42.219,0.584c0,0 10.974,5.794 13.496,7.539l-5.554,0.482l-9.015,-7.136c0,0 0.054,-1.073 1.073,-0.885Z" /><path
         id="path6"
         style="fill:#333333;fill-rule:nonzero;stroke:#000;stroke-width:0.1px"
         d="M29.02,6.378c0,0 0,-4.077 -1.127,-4.158c0,0 -0.859,-0.455 -0.939,4.534c-0.027,0.027 0.054,1.825 0.054,1.825l3.273,0.242c0,0 -0.188,-2.012 -1.261,-2.443Z" /><path
         id="path8"
         style="fill:url(#_Linear2);fill-rule:nonzero;"
         d="M2.7,20.76c-0.001,-0.036 2.414,0 2.414,0l0.018,-0.161l0.823,-0.018l1.735,-1.091l-3.703,-0.357l-1.269,-0.037c0,0 -0.215,0.823 -0.018,1.664Zm0,0l0,0l0,0Z" /><path
         id="path10"
         style="fill:#808080;stroke:#000;stroke-width:0.1px"
         d="M3.987,19.133l-1.269,-0.037c0,0 -0.215,0.824 -0.019,1.664c-0.018,-0.036 2.415,0 2.415,0l0.018,-0.161l0.823,-0.018l1.735,-1.091l-3.703,-0.357Z" /><path
         id="path12"
         style="fill:url(#_Linear3);fill-rule:nonzero;"
         d="M5.812,20.17c0,0 0.787,0.965 1.574,0.965c0,0.036 2.146,-0.071 2.146,-0.071c0,0 1.807,-0.215 1.324,-1.789c-0.006,0.017 -5.438,-0.25 -5.438,-0.25c0,0 0.197,0.912 0.394,1.145Z" /><path
         id="path14"
         style="fill:#333333;stroke:#000;stroke-width:0.1px"
         d="M5.812,20.17c0,0 0.787,0.965 1.574,0.965c0,0.036 2.146,-0.071 2.146,-0.071c0,0 1.807,-0.215 1.324,-1.789c0.018,0.017 -5.438,-0.25 -5.438,-0.25c0,0 0.197,0.912 0.394,1.145Z" /><path
         id="path16"
         style="fill:#333333;fill-rule:nonzero;stroke:#1a171b;stroke-width:0.1px"
         d="M75.247,21.135l-16.42,0.591l-1.663,-11.376l15.937,0.053l2.146,10.732Z" /><path
         id="path18"
         style="fill:#333333;fill-rule:nonzero;stroke:#1a171b;stroke-width:0.1px"
         d="M26.202,21.618l-16.634,-1.126l-1.448,-9.659l15.936,0.054l2.146,10.731Z" /><path
         id="path20"
         style="fill:url(#_Linear4);fill-rule:nonzero;"
         d="M50.528,8.74l4.633,-1.18c0,0 -1.825,-0.877 -1.842,-0.841c-2.505,0.43 -5.081,-0.268 -5.081,-0.268l2.29,2.289Z" /><path
         id="path22"
         style="fill:none;stroke:#1a171b;stroke-width:0.1px;"
         d="M48.239,6.451c0,0 2.575,0.698 5.08,0.268c0.017,-0.036 1.842,0.841 1.842,0.841l-4.633,1.18l-2.289,-2.289Z" /><path
         id="path24"
         style="fill:url(#_Linear5);fill-rule:nonzero;"
         d="M53.367,7.01c0.148,0.644 0.738,0.751 0.752,0.724c-0.054,-0.765 0.483,-0.684 0.496,-0.684c0.483,-0.027 0.563,0.51 0.563,0.51c0,0 0.966,0.295 1.034,0.295c0.066,0 1.274,-0.711 1.301,-0.725c-0.684,-0.429 -1.436,-0.147 -1.422,-0.147c-0.147,0.106 -0.284,0.058 -0.365,0.01c-0.053,-0.03 -0.083,-0.061 -0.078,-0.051c-0.575,-0.354 -1.018,-0.474 -1.353,-0.474c-0.705,0 -0.936,0.532 -0.928,0.542Z" /><path
         id="path26"
         style="fill:#333333;stroke:#1a171b;stroke-width:0.1px"
         d="M55.179,7.559c0,0 -0.081,-0.536 -0.563,-0.509c-0.014,0 -0.551,-0.081 -0.497,0.684c-0.014,0.027 -0.604,-0.081 -0.751,-0.724c-0.014,-0.014 0.496,-1.168 2.28,-0.067c-0.013,-0.028 0.202,0.214 0.443,0.04c-0.014,0 0.738,-0.282 1.422,0.147c-0.027,0.014 -1.235,0.725 -1.301,0.725c-0.068,0 -1.033,-0.296 -1.033,-0.296Z" /><path
         id="path28"
         style="fill:url(#_Linear6);fill-rule:nonzero;"
         d="M40.288,0.745c0,0 -0.214,1.073 0.215,1.905c0,0.053 6.707,5.822 6.707,5.822l2.227,-0.215l-7.19,-6.225l-1.235,-1.931c0,0 -0.008,-0.001 -0.022,-0.001c-0.113,0 -0.611,0.035 -0.702,0.645Z" /><path
         id="path30"
         style="fill:#333333;stroke:#1a171b;stroke-width:0.1px"
         d="M41.013,0.101c0,0 -0.622,-0.045 -0.725,0.644c0,0 -0.215,1.073 0.215,1.905c0,0.053 6.707,5.822 6.707,5.822l2.227,-0.214l-7.19,-6.226l-1.234,-1.931Z" /><path
         id="path32"
         style="fill:url(#_Linear7);fill-rule:nonzero;"
         d="M25.228,2.212c-0.129,0.052 -0.709,-0.401 -0.588,4.686l1.704,-0.036c0,0 0.651,-3.702 -0.282,-4.591c-0.067,-0.063 -0.22,-0.08 -0.382,-0.08c-0.171,0 -0.352,0.018 -0.452,0.021Z" /><path
         id="path34"
         style="fill:#333333;stroke:#000;stroke-width:0.1px"
         d="M26.344,6.862c0,0 0.65,-3.702 -0.282,-4.591c-0.137,-0.13 -0.639,-0.064 -0.834,-0.059c-0.129,0.052 -0.709,-0.401 -0.588,4.686l1.704,-0.036Z" /><path
         id="path36"
         style="fill:url(#_Linear8);fill-rule:nonzero;"
         d="M26.044,2.208c-0.126,-0.001 -0.412,-0.002 -0.315,4.69l1.037,-0.036c0,0 0.229,-4.623 -0.688,-4.659c-0.009,0.005 -0.02,0.005 -0.034,0.005Z" /><path
         id="path38"
         style="fill:#333333;stroke:#000;stroke-width:0.1px"
         d="M26.766,6.862c0,0 0.229,-4.622 -0.688,-4.659c-0.097,0.054 -0.456,-0.482 -0.349,4.695l1.037,-0.036Z" /></g><path
       id="path42"
       style="fill:#4786b3;fill-rule:nonzero;fill-opacity:1"
       d="M40.958,1.522l7.486,6.494c0,0 -17.358,-0.009 -20.149,-0.259c-0.036,-0.036 0.501,-1.253 -2.611,-1.36c-0.072,0 -1.038,0.251 -1.074,-1.108c-0.035,0.035 -7.046,0.213 -11.84,0.571c0,0 -9.48,0.412 -9.748,1.244c-0.027,0 -0.269,0.751 -0.269,1.556c-0.027,0.053 -0.428,3.353 -0.428,3.353c0,0 -0.162,1.315 -2.04,1.315c-0.002,0.002 -0.007,0.002 -0.015,0.001c-0.073,-0.006 -0.352,-0.012 0.015,3.165c-0.027,0.027 -0.751,1.69 5.688,3.353c0,0 2.891,0.376 3.914,0.911c-0.085,-0.174 -1.033,-8.539 7.515,-9.12c0,0 9.767,-0.161 7.298,10.356c0,-0.019 2.608,0.036 6.604,0.092c7.265,0.1 19.116,0.2 28.221,-0.146c-0.054,0 -1.825,-10.249 7.62,-10.678c-0.054,0.107 7.78,-0.59 7.727,10.142c0.053,0.107 4.614,0.697 5.419,-1.663c0,0 2.397,-4.347 1.305,-6.44c0,0 -2.217,-5.223 -25.04,-6.368c0,0.072 -0.286,0.859 -5.653,0.859c-0.071,0.071 -4.292,-2.933 -8.298,-6.081c0,0 -0.6,-0.376 -0.358,-1.101c-0.027,0 -1.217,-0.473 -1.217,-0.473c0,0 -0.607,0.742 -0.072,1.385Zm-31.067,19.238c-0.002,0 -0.003,-0.001 -0.004,-0.002c0.002,0.003 0.003,0.004 0.004,0.002Z" /><g
       id="g93"><clipPath
         id="_clip10"><rect
           id="rect44"
           height="25.06"
           width="81.975"
           y="0.04"
           x="0.003" /></clipPath><g
         id="g91"
         clip-path="url(#_clip10)"><path
           id="path47"
           style="fill:none;stroke:#1a171b;stroke-width:0.19px;"
           d="M81.596,13.301c0,0 -2.217,-5.223 -25.04,-6.368c0,0.072 -0.286,0.859 -5.653,0.859c-0.07,0.072 -4.292,-2.933 -8.298,-6.081c0,0 -0.599,-0.376 -0.358,-1.1c-0.027,0 -1.216,-0.474 -1.216,-0.474c0,0 -0.608,0.742 -0.073,1.386l7.486,6.493c0,0 -17.359,-0.009 -20.149,-0.26c-0.035,-0.036 0.501,-1.252 -2.611,-1.359c-0.072,0 -1.038,0.251 -1.073,-1.109c-0.036,0.036 -7.047,0.214 -11.841,0.572c0,0 -9.48,0.411 -9.748,1.244c-0.027,0 -0.269,0.751 -0.269,1.556c-0.027,0.053 -0.429,3.353 -0.429,3.353c0,0 -0.161,1.315 -2.039,1.315c-0.027,0.026 -0.402,-0.322 0,3.166c-0.027,0.027 -0.751,1.69 5.688,3.353c0,0 2.898,0.376 3.918,0.913c-0.054,0.107 -1.181,-8.531 7.511,-9.122c0,0 9.766,-0.161 7.298,10.356c0,-0.053 20.713,0.483 34.825,-0.053c-0.054,0 -1.825,-10.249 7.619,-10.679c-0.053,0.107 7.781,-0.59 7.728,10.141c0.053,0.108 4.614,0.698 5.419,-1.662c0,0 2.397,-4.347 1.305,-6.44Z" /><path
           id="path49"
           style="fill-rule:nonzero;"
           d="M11.472,18.957c0,-3.394 2.751,-6.144 6.144,-6.144c3.392,0 6.143,2.75 6.143,6.144c0,3.392 -2.751,6.143 -6.143,6.143c-3.393,0 -6.144,-2.751 -6.144,-6.143" /><path
           id="path51"
           style="fill-rule:nonzero;"
           d="M61.01,18.822c0,-3.376 2.737,-6.113 6.112,-6.113c3.376,0 6.113,2.737 6.113,6.113c0,3.376 -2.737,6.112 -6.113,6.112c-3.375,0 -6.112,-2.736 -6.112,-6.112" /><path
           id="path53"
           style="fill:#ffffff;fill-rule:nonzero"
           d="M13.154,18.957c0,2.464 1.997,4.461 4.462,4.461c2.463,0 4.461,-1.997 4.461,-4.461c0,-2.464 -1.998,-4.461 -4.461,-4.461c-2.465,0 -4.462,1.997 -4.462,4.461Z" /><path
           id="path55"
           style="fill:none;stroke:#b9b9b9;stroke-width:0.1px;"
           d="M13.154,18.957c0,-2.464 1.998,-4.462 4.462,-4.462c2.463,0 4.461,1.998 4.461,4.462c0,2.464 -1.998,4.461 -4.461,4.461c-2.464,0 -4.462,-1.997 -4.462,-4.461Z" /><path
           id="path57"
           style="fill:#ffffff;fill-rule:nonzero"
           d="M62.653,18.822c0,2.451 1.988,4.438 4.439,4.438c2.451,0 4.438,-1.987 4.438,-4.438c0,-2.452 -1.987,-4.439 -4.438,-4.439c-2.451,0 -4.439,1.987 -4.439,4.439Z" /><path
           id="path59"
           style="fill:none;stroke:#b9b9b9;stroke-width:0.1px;"
           d="M62.653,18.822c0,-2.452 1.988,-4.439 4.439,-4.439c2.452,0 4.438,1.987 4.438,4.439c0,2.451 -1.986,4.438 -4.438,4.438c-2.451,0 -4.439,-1.987 -4.439,-4.438Z" /><path
           id="path61"
           style="fill:#f3bb1e;fill-rule:nonzero;"
           d="M57.218,13.114c0,-0.356 -0.289,-0.645 -0.645,-0.645c-0.355,0 -0.643,0.289 -0.643,0.645c0,0.355 0.288,0.643 0.643,0.643c0.356,0 0.645,-0.288 0.645,-0.643" /><path
           id="path63"
           style="fill:none;stroke:#1a171b;stroke-width:0.1px;"
           d="M57.218,13.114c0,-0.356 -0.289,-0.645 -0.645,-0.645c-0.355,0 -0.643,0.289 -0.643,0.645c0,0.355 0.288,0.643 0.643,0.643c0.356,0 0.645,-0.288 0.645,-0.643Z" /><path
           id="path65"
           style="fill:#f46154;fill-rule:nonzero;stroke:#1a171b;stroke-width:0.19px;"
           d="M2.78,8.821c0,0 3.247,-0.161 3.273,1.609c-0.026,0.081 0.296,1.315 -1.448,1.664c-0.054,0.081 -1.932,-0.027 -2.308,-0.054c-0.053,0 -0.402,-3.193 0.483,-3.219Z" /><path
           id="path67"
           style="fill:#333333;fill-rule:nonzero"
           d="M41.925,6.504c-0.033,-0.016 -0.088,0.409 0.094,0.834c0.217,0.504 0.768,1.009 2.088,0.776c-0.036,0.036 0,1.002 0,1.002c0,0 1.717,0.179 2.11,-0.394c-0.036,0 -0.643,-0.644 -0.608,-1.18c0,0 1.503,-1.502 -2.289,-1.967c0,-0.019 -0.09,-0.036 -0.223,-0.036c-0.401,0 -1.199,0.16 -1.172,0.965Z" /><path
           id="path69"
           style="fill:none;stroke:#000;stroke-width:0.1px;"
           d="M45.609,7.542c0,0 1.503,-1.502 -2.289,-1.968c0,-0.071 -1.431,-0.143 -1.395,0.93c-0.072,-0.035 -0.251,2.039 2.182,1.61c-0.036,0.036 0,1.002 0,1.002c0,0 1.717,0.178 2.111,-0.394c-0.036,0 -0.644,-0.644 -0.609,-1.18Z" /><path
           id="path71"
           style="fill:none;stroke:#000;stroke-width:0.1px;"
           d="M28.295,7.757c0,0 -1.717,1.359 -1.449,2.754c-0.107,0.107 1.234,8.907 6.44,9.444c0,0.054 19.102,0.269 19.102,0.269c0,0 1.275,-6.815 0.523,-9.499c-0.053,-0.281 0.515,-1.162 -2.007,-2.933" /><path
           id="path73"
           style="fill:none;stroke:#1a171b;stroke-width:0.19px;"
           d="M28.295,7.757c0,0 -12.748,0.688 -15.574,-1.888" /><path
           id="path75"
           style="fill:none;stroke:#000;stroke-width:0.1px;"
           d="M59.346,20.402c0,0 -5.67,-0.161 -6.958,-0.179" /><path
           id="path77"
           style="fill:#e6e6e6;fill-rule:nonzero;"
           d="M80.652,17.583c-0.018,0.613 -0.25,1.102 -0.518,1.094c-0.268,-0.008 -0.47,-0.512 -0.452,-1.124c0.018,-0.612 0.251,-1.103 0.519,-1.094c0.268,0.008 0.47,0.511 0.451,1.124" /><path
           id="path79"
           style="fill:#ffffff;stroke:#1a171b;stroke-width:0.19px"
           d="M80.652,17.583c-0.018,0.613 -0.25,1.102 -0.518,1.094c-0.268,-0.008 -0.47,-0.512 -0.452,-1.124c0.018,-0.612 0.251,-1.103 0.519,-1.094c0.268,0.008 0.47,0.511 0.451,1.124Z" /><path
           id="path81"
           style="fill:none;stroke:#1a171b;stroke-width:0.1px;"
           d="M5.849,9.698c0,0 -2.625,-1.66 -2.784,-2.641" /><path
           id="path83"
           style="fill:none;stroke:#1a171b;stroke-width:0.1px;"
           d="M80.291,19.741c0,0 -1.673,0.44 -5.464,0.255" /><path
           id="path85"
           style="fill:none;stroke:#001c4f;stroke-width:0.1px;"
           d="M81.832,14.331c0,0 -5.641,0.369 -7.861,-0.093c-0.093,0.093 -1.757,-3.329 -6.751,-3.422c-0.186,0 -3.7,-0.555 -5.734,1.572c0.092,0 -34.22,0.278 -38.752,-0.37c-0.092,0.186 -2.127,-1.109 -5.364,-1.017c0.277,-0.092 -3.052,-0.185 -5.364,1.942c-0.092,-0.092 -5.246,-0.864 -5.952,-2.513" /><path
           id="path87"
           style="fill:none;stroke:#000;stroke-width:0.1px;"
           d="M78.04,10.724l-0.555,0.37l-2.821,-0.555c0,0 -0.693,-1.942 -18.358,-3.329" /><path
           id="path89"
           style="fill:#ffffff;fill-rule:nonzero;stroke:#1a171b;stroke-width:0.1px"
           d="M79.835,12.496c0,0 -1.288,-2.066 -4.722,-2.093c-0.027,0.027 -0.778,0.027 -0.456,0.591c0,0.027 1.207,1.261 4.212,1.985c0,0.054 1.342,0.215 0.966,-0.483Z" /></g></g></g><defs
     id="defs166"><linearGradient
       gradientTransform="matrix(0,8.04395,8.04395,0,48.4308,0.56151)"
       gradientUnits="userSpaceOnUse"
       y2="0"
       x2="1"
       y1="0"
       x1="0"
       id="_Linear1"><stop
         id="stop96"
         style="stop-color:#f2f3ff;stop-opacity:1"
         offset="0%" /><stop
         id="stop98"
         style="stop-color:#edf4ff;stop-opacity:1"
         offset="100%" /></linearGradient><linearGradient
       gradientTransform="matrix(0,1.66414,1.66414,0,5.15319,19.0961)"
       gradientUnits="userSpaceOnUse"
       y2="0"
       x2="1"
       y1="0"
       x1="0"
       id="_Linear2"><stop
         id="stop101"
         style="stop-color:#999b9e;stop-opacity:1"
         offset="0%" /><stop
         id="stop103"
         style="stop-color:#616264;stop-opacity:1"
         offset="100%" /></linearGradient><linearGradient
       gradientTransform="matrix(0,2.11734,2.11734,0,8.17802,19.0253)"
       gradientUnits="userSpaceOnUse"
       y2="0"
       x2="1"
       y1="0"
       x1="0"
       id="_Linear3"><stop
         id="stop106"
         style="stop-color:#231f20;stop-opacity:1"
         offset="0%" /><stop
         id="stop108"
         style="stop-color:#595a5c;stop-opacity:1"
         offset="100%" /></linearGradient><linearGradient
       gradientTransform="matrix(6.92192,0,0,-6.92192,48.2387,7.59551)"
       gradientUnits="userSpaceOnUse"
       y2="0"
       x2="1"
       y1="0"
       x1="0"
       id="_Linear4"><stop
         id="stop111"
         style="stop-color:#231f20;stop-opacity:1"
         offset="0%" /><stop
         id="stop113"
         style="stop-color:#434345;stop-opacity:1"
         offset="100%" /></linearGradient><linearGradient
       gradientTransform="matrix(4.14538,0,0,-4.14538,53.3674,7.16109)"
       gradientUnits="userSpaceOnUse"
       y2="0"
       x2="1"
       y1="0"
       x1="0"
       id="_Linear5"><stop
         id="stop116"
         style="stop-color:#231f20;stop-opacity:1"
         offset="0%" /><stop
         id="stop118"
         style="stop-color:#434345;stop-opacity:1"
         offset="100%" /></linearGradient><linearGradient
       gradientTransform="matrix(0,8.3717,8.3717,0,44.8358,0.100188)"
       gradientUnits="userSpaceOnUse"
       y2="0"
       x2="1"
       y1="0"
       x1="0"
       id="_Linear6"><stop
         id="stop121"
         style="stop-color:#231f20;stop-opacity:1"
         offset="0%" /><stop
         id="stop123"
         style="stop-color:#292728;stop-opacity:1"
         offset="100%" /></linearGradient><linearGradient
       gradientTransform="matrix(-1.9413,0,0,1.9413,26.5646,4.54446)"
       gradientUnits="userSpaceOnUse"
       y2="0"
       x2="1"
       y1="0"
       x1="0"
       id="_Linear7"><stop
         id="stop126"
         style="stop-color:#231f20;stop-opacity:1"
         offset="0%" /><stop
         id="stop128"
         style="stop-color:#595a5c;stop-opacity:1"
         offset="100%" /></linearGradient><linearGradient
       gradientTransform="matrix(-1.08243,0,0,1.08243,26.7915,4.55075)"
       gradientUnits="userSpaceOnUse"
       y2="0"
       x2="1"
       y1="0"
       x1="0"
       id="_Linear8"><stop
         id="stop131"
         style="stop-color:#231f20;stop-opacity:1"
         offset="0%" /><stop
         id="stop133"
         style="stop-color:#595a5c;stop-opacity:1"
         offset="100%" /></linearGradient><linearGradient
       gradientTransform="matrix(0,22.0439,22.0439,0,40.9907,0.136878)"
       gradientUnits="userSpaceOnUse"
       y2="0"
       x2="1"
       y1="0"
       x1="0"
       id="_Linear9"><stop
         id="stop136"
         style="stop-color:#3b6dad;stop-opacity:1"
         offset="0%" /><stop
         id="stop138"
         style="stop-color:#123b70;stop-opacity:1"
         offset="100%" /></linearGradient><radialGradient
       gradientTransform="matrix(4.46135,0,0,4.46135,17.6152,18.9567)"
       gradientUnits="userSpaceOnUse"
       r="1"
       cy="0"
       cx="0"
       id="_Radial11"><stop
         id="stop141"
         style="stop-color:#8a8c8e;stop-opacity:1"
         offset="0%" /><stop
         id="stop143"
         style="stop-color:#6b6c6f;stop-opacity:1"
         offset="84%" /><stop
         id="stop145"
         style="stop-color:#4d4d4f;stop-opacity:1"
         offset="96%" /><stop
         id="stop147"
         style="stop-color:#4d4d4f;stop-opacity:1"
         offset="100%" /></radialGradient><radialGradient
       gradientTransform="matrix(4.43849,0,0,4.43849,67.0918,18.8216)"
       gradientUnits="userSpaceOnUse"
       r="1"
       cy="0"
       cx="0"
       id="_Radial12"><stop
         id="stop150"
         style="stop-color:#8a8c8e;stop-opacity:1"
         offset="0%" /><stop
         id="stop152"
         style="stop-color:#6b6c6f;stop-opacity:1"
         offset="84%" /><stop
         id="stop154"
         style="stop-color:#4d4d4f;stop-opacity:1"
         offset="96%" /><stop
         id="stop156"
         style="stop-color:#4d4d4f;stop-opacity:1"
         offset="100%" /></radialGradient><linearGradient
       gradientTransform="matrix(0,3.60381,3.60381,0,44.054,5.53854)"
       gradientUnits="userSpaceOnUse"
       y2="0"
       x2="1"
       y1="0"
       x1="0"
       id="_Linear13"><stop
         id="stop159"
         style="stop-color:#dcddde;stop-opacity:1"
         offset="0%" /><stop
         id="stop161"
         style="stop-color:#595a5c;stop-opacity:1"
         offset="25%" /><stop
         id="stop163"
         style="stop-color:#2d2a2b;stop-opacity:1"
         offset="100%" /></linearGradient></defs></svg>
