<?xml version="1.0" encoding="UTF-8" standalone="no"?>
<svg
   xmlns:dc="http://purl.org/dc/elements/1.1/"
   xmlns:cc="http://creativecommons.org/ns#"
   xmlns:rdf="http://www.w3.org/1999/02/22-rdf-syntax-ns#"
   xmlns:svg="http://www.w3.org/2000/svg"
   xmlns="http://www.w3.org/2000/svg"
   xmlns:sodipodi="http://sodipodi.sourceforge.net/DTD/sodipodi-0.dtd"
   xmlns:inkscape="http://www.inkscape.org/namespaces/inkscape"
   inkscape:version="1.0 (4035a4fb49, 2020-05-01)"
   sodipodi:docname="voiture--coupe.svg"
   id="svg217"
   style="fill-rule:evenodd;clip-rule:evenodd;stroke-linecap:round;stroke-linejoin:round;"
   xml:space="preserve"
   version="1.1"
   viewBox="0 0 88 26"
   height="100%"
   width="100%"><metadata
     id="metadata221"><rdf:RDF><cc:Work
         rdf:about=""><dc:format>image/svg+xml</dc:format><dc:type
           rdf:resource="http://purl.org/dc/dcmitype/StillImage" /></cc:Work></rdf:RDF></metadata><sodipodi:namedview
     inkscape:current-layer="cat_coupe"
     inkscape:window-maximized="1"
     inkscape:window-y="-8"
     inkscape:window-x="-8"
     inkscape:cy="1.0338184"
     inkscape:cx="33.485866"
     inkscape:zoom="10.767308"
     showgrid="false"
     id="namedview219"
     inkscape:window-height="1017"
     inkscape:window-width="1920"
     inkscape:pageshadow="2"
     inkscape:pageopacity="0"
     guidetolerance="10"
     gridtolerance="10"
     objecttolerance="10"
     borderopacity="1"
     bordercolor="#666666"
     pagecolor="#ffffff" /><g
     id="cat_coupe"><g
       id="g22"><path
         id="path2"
         style="fill:url(#_Linear1);fill-rule:nonzero;"
         d="M0.491,17.756c-0.014,0 0.394,0.949 0.599,1.241c0.014,0.014 0.263,0.306 0.627,0.218c0.044,0 -1.387,-2.407 -1.387,-2.407c0,0 -0.058,0.336 0.161,0.948Z" /><path
         id="path4"
         style="fill:#808080;stroke:#000;stroke-width:0.09px"
         d="M0.331,16.808c0,0 -0.059,0.336 0.161,0.949c-0.015,0 0.393,0.948 0.598,1.24c0.014,0.014 0.263,0.306 0.627,0.218c0.044,0 -1.386,-2.407 -1.386,-2.407Z" /><path
         id="path6"
         style="fill:#333333;fill-rule:nonzero;stroke:#000;stroke-width:0.09px"
         d="M0.389,16.428c0,0 -0.394,-0.219 -0.262,0.103c-0.015,0 1.882,3.559 2.218,4.012c0,0.03 0.277,0.481 0.817,0.569c0.539,0.088 0.481,0.058 0.481,0.058l3.575,0.686c0,0 1.984,0.204 2.437,-0.16c0,0.014 12.257,0.379 12.257,0.379l1.517,-5.632l-6.128,-5.72l-7.646,0.117l-2.539,3.969l-0.672,4.26c0,0 -4.887,-2.597 -6.055,-2.641Z" /><path
         id="path8"
         style="fill:#333333;fill-rule:nonzero;stroke:#000;stroke-width:0.09px"
         d="M59.689,21.637c0,0 1.838,0.46 3.655,0.176c0.021,-0.023 12.323,-0.066 12.323,-0.066l0.547,-7.442l-6.151,-3.611l-7.266,-0.154l-3.524,3.415l-0.131,6.435l0.547,1.247Z" /><path
         id="path10"
         style="fill:url(#_Linear2);fill-rule:nonzero;"
         d="M9.524,5.506c-0.351,0.285 0.415,0.657 0.371,0.636c1.095,-0.788 14.599,-3.415 14.599,-3.415l0.362,-1.193c-3.47,0.492 -15.332,3.972 -15.332,3.972Z" /><path
         id="path12"
         style="fill:#ffffff;stroke:#000;stroke-width:0.17px"
         d="M9.523,5.506c0,0 11.863,-3.479 15.332,-3.972l-0.361,1.193c0,0 -13.504,2.627 -14.598,3.414c0.043,0.023 -0.723,-0.35 -0.373,-0.635Z" /><path
         id="path14"
         style="fill:#ffffff;fill-rule:nonzero"
         d="M43.167,1.406c-0.69,0.287 -1.111,0.574 -1.14,0.577c2.018,0.374 12.103,5.471 12.103,5.471c3.282,1.861 5.669,-0.612 5.646,-0.656c-4.88,-2.999 -13.672,-5.968 -13.672,-5.968c-0.053,-0.001 -0.106,-0.002 -0.159,-0.002c-1.116,0 -2.083,0.289 -2.778,0.578Zm-1.14,0.577c0,0 0,0 -0.001,0c0,0 0.001,0 0.001,0Z" /><path
         id="path16"
         style="fill:none;stroke:#000;stroke-width:0.17px;"
         d="M46.104,0.83c0,0 8.792,2.969 13.672,5.968c0.022,0.044 -2.363,2.517 -5.646,0.656c0,0 -10.09,-5.099 -12.104,-5.471c0.022,0.022 1.744,-1.211 4.078,-1.153Z" /><path
         id="path18"
         style="fill:url(#_Linear4);fill-rule:nonzero;"
         d="M58.186,5.368c0.029,-0.029 -0.758,0.292 -1.109,0.729c-0.014,-0.014 -2.757,0.19 -3.079,0.935c0.044,0.014 0.744,0.977 1.941,0.817c-0.029,0.044 4.509,-1.109 4.173,-1.532c-0.029,0 -0.19,-0.249 -0.19,-0.249l-0.441,-0.157c0,0 -0.449,-0.441 -0.624,-0.572c0,0 -0.125,-0.057 -0.305,-0.057c-0.108,0 -0.235,0.02 -0.366,0.086Z" /><path
         id="path20"
         style="fill:#333333;stroke:#000;stroke-width:0.09px"
         d="M59.481,5.911c0,0 -0.449,-0.441 -0.624,-0.573c0,0 -0.32,-0.145 -0.671,0.029c0.029,-0.029 -0.758,0.293 -1.109,0.73c-0.014,-0.014 -2.758,0.19 -3.078,0.935c0.043,0.014 0.743,0.977 1.94,0.817c-0.029,0.044 4.509,-1.109 4.173,-1.532c-0.029,0 -0.189,-0.249 -0.189,-0.249l-0.442,-0.157" /></g><path
       id="path24"
       style="fill:#4786b3;fill-rule:nonzero;fill-opacity:1"
       d="M24.856,1.534c-0.449,0.176 -0.723,0.492 -0.723,0.492c-0.307,0.143 -0.973,0.329 -0.996,0.307c-3.174,0.569 -12.607,3.079 -12.607,3.079c-0.671,-0.029 -1.415,0.16 -1.415,0.16c-0.117,0.118 -2.495,0.832 -2.495,0.832c-5.355,-0.701 -5.239,0.788 -5.249,0.788c-0.011,0.318 0.416,2.386 0.416,2.375c0.306,0.383 2.396,1.017 2.385,1.006c0.503,0.208 0.339,0.548 0.328,0.537c-0.043,0.569 -0.678,1.083 -0.678,1.072c-0.514,0.46 -2.922,-0.059 -2.893,-0.087c-0.963,0.992 -0.817,3.939 -0.788,3.969c0.263,0.204 0.175,0.408 0.146,0.379c2.189,3.122 4.028,4.114 4.028,4.114c0,0 3.209,0.701 3.268,0.643c-1.751,-9.923 6.945,-9.63 6.945,-9.573c8.697,1.168 7.121,10.74 7.063,10.74c1.634,-0.234 38.754,0.176 38.813,0.176c-2.685,-11.557 7.062,-11.324 7.121,-11.266c9.513,0.818 7.617,10.886 7.587,10.915c11.206,-0.642 11.09,-1.101 11.184,-1.16c0.153,-0.117 0.328,-0.368 0.328,-0.38c0.077,-0.284 -0.317,-0.255 -0.306,-0.255c-1.335,0.514 -1.218,-0.018 -1.24,-0.029c-0.383,-0.832 -0.11,-2.21 -0.11,-2.244c0.132,-0.612 0.745,-0.558 0.733,-0.579c1.325,-0.044 1.478,-0.394 1.478,-0.394c0,0 -0.066,-1.358 -0.066,-1.303c-0.273,0.121 -1.608,0.143 -1.608,0.132c-0.471,-0.011 -0.482,-0.241 -0.493,-0.262c-0.46,-0.964 -0.12,-1.391 -0.142,-1.391c0.941,-0.657 1.007,-1.313 0.996,-1.313c0.525,-0.339 0.831,-0.689 0.831,-0.701c0.241,-0.437 -0.175,-0.612 -0.218,-0.656c-9.062,-5.034 -25.63,-5.581 -25.641,-5.592c-0.427,-0.032 -0.323,0.049 -0.383,0.065c-0.175,0.088 -0.241,0.033 -0.23,0.033c-0.175,-0.13 -0.602,-0.252 -0.602,-0.262c-0.191,-0.063 -0.211,-0.038 -0.193,-0.013c0.013,0.016 0.042,0.032 0.051,0.023c0.044,0.066 0.383,0.208 0.383,0.219c0.208,0.099 0.044,0.165 0.044,0.165c0,0 -2.353,0.809 -2.364,0.809c-0.853,0.208 -1.489,0.197 -1.489,0.197c-1.75,-0.043 -3.502,-0.963 -3.502,-0.963c-3.917,-2.166 -9.422,-4.301 -9.433,-4.312c-0.197,-0.12 0.088,-0.208 0.077,-0.218c1.684,-0.863 2.723,-0.99 2.885,-0.983c-2.425,-0.531 -5.08,-0.725 -7.668,-0.725c-7.032,0 -13.558,1.434 -13.558,1.434Zm21.248,-0.704c0,-0.002 -0.007,-0.004 -0.022,-0.005c0.007,0.002 0.015,0.004 0.022,0.005Z" /><g
       id="g112"><path
         id="path26"
         style="fill:none;stroke:#000;stroke-width:0.17px;"
         d="M9.115,5.572c0,0 0.744,-0.19 1.415,-0.16c0,0 9.433,-2.51 12.607,-3.079c0.022,0.022 0.69,-0.165 0.996,-0.307c0,0 0.274,-0.316 0.722,-0.492c0,0 12.232,-2.688 21.249,-0.704c0,-0.029 -1.069,0.036 -2.907,0.977c0.011,0.012 -0.273,0.099 -0.077,0.219c0.011,0.011 5.516,2.146 9.433,4.312c0,0 1.752,0.92 3.503,0.963c0,0 0.634,0.011 1.488,-0.197c0.011,0 2.364,-0.81 2.364,-0.81c0,0 0.164,-0.065 -0.044,-0.164c0,-0.011 -0.339,-0.153 -0.383,-0.219c-0.022,0.022 -0.175,-0.114 0.142,-0.011c0,0.011 0.427,0.132 0.602,0.263c-0.011,0 0.055,0.055 0.23,-0.033c0.06,-0.016 -0.044,-0.098 0.383,-0.065c0.011,0.011 16.579,0.558 25.641,5.592c0.043,0.044 0.46,0.219 0.218,0.656c0,0.011 -0.306,0.362 -0.831,0.701c0.011,0 -0.055,0.656 -0.996,1.313c0.022,0 -0.317,0.427 0.143,1.39c0.01,0.022 0.021,0.252 0.492,0.263c0,0.01 1.335,-0.011 1.608,-0.132c0,-0.055 0.066,1.303 0.066,1.303c0,0 -0.153,0.35 -1.478,0.394c0.012,0.021 -0.601,-0.033 -0.732,0.58c0,0.033 -0.274,1.411 0.109,2.243c0.022,0.011 -0.095,0.543 1.24,0.029c-0.011,0 0.383,-0.029 0.306,0.255c0,0.012 -0.175,0.263 -0.328,0.38c-0.094,0.059 0.022,0.518 -11.184,1.16c0.03,-0.029 1.926,-10.097 -7.587,-10.915c-0.059,-0.058 -9.806,-0.291 -7.121,11.265c-0.059,0 -37.179,-0.409 -38.813,-0.175c0.058,0 1.634,-9.572 -7.063,-10.74c0,-0.057 -8.696,-0.35 -6.945,9.573c-0.059,0.058 -3.268,-0.642 -3.268,-0.642c0,0 -1.839,-0.993 -4.028,-4.115c0.029,0.029 0.117,-0.176 -0.146,-0.379c-0.029,-0.03 -0.175,-2.977 0.788,-3.969c-0.029,0.029 2.379,0.547 2.893,0.087c0,0.011 0.635,-0.503 0.678,-1.072c0.011,0.011 0.175,-0.329 -0.328,-0.537c0.011,0.012 -2.079,-0.623 -2.385,-1.006c0,0.011 -0.427,-2.057 -0.416,-2.375c0.011,0 -0.106,-1.488 5.249,-0.788c0,0 2.378,-0.715 2.495,-0.832Z" /><path
         id="path28"
         style="fill:#f46154;fill-rule:nonzero;stroke:#000;stroke-width:0.17px;"
         d="M1.819,9.512c0,0 -0.7,1.372 -0.89,2.671c-0.015,0 0.715,0.685 2.991,0.306c0.015,0.014 1.854,-1.328 0.934,-1.926c0,0.014 -2.524,-1.051 -3.035,-1.051Z" /><path
         id="path30"
         style="fill:url(#_Linear6);fill-rule:nonzero;"
         d="M20.686,4.259c-0.197,0.066 -0.055,0.186 -0.055,0.186c1.018,2.342 3.032,2.528 3.032,2.528c8.623,1.007 28.015,1.007 28.015,0.978c0.934,0.117 0.351,-0.613 0.321,-0.642c-7.5,-5.195 -14.124,-5.457 -14.154,-5.428c-0.874,-0.077 -1.753,-0.111 -2.628,-0.111c-7.449,0 -14.531,2.489 -14.531,2.489Z" /><path
         id="path32"
         style="fill:#333333;stroke:#000;stroke-width:0.09px"
         d="M20.686,4.259c0,0 8.842,-3.108 17.16,-2.378c0.029,-0.029 6.653,0.233 14.153,5.428c0.03,0.029 0.613,0.759 -0.321,0.642c0,0.029 -19.392,0.029 -28.015,-0.978c0,0 -2.014,-0.186 -3.032,-2.528c0,0 -0.142,-0.12 0.055,-0.186Z" /><path
         id="path34"
         style="fill:#ffffff;fill-rule:nonzero"
         d="M28.357,2.749c0,0 1.171,4.399 1.171,4.421c3.7,0.416 18.911,0.525 18.889,0.525c0.788,-0.35 -0.547,-2.341 -0.547,-2.385c-4.137,-2.32 -8.47,-2.955 -8.47,-2.955c-1.101,-0.197 -2.342,-0.271 -3.583,-0.271c-3.724,0 -7.46,0.665 -7.46,0.665Z" /><path
         id="path36"
         style="fill:#ffffff;fill-rule:nonzero"
         d="M21.693,4.226c-0.405,0.143 -0.23,0.482 -0.23,0.471c0.503,1.707 2.046,1.969 2.046,1.969c2.518,0.373 5.648,0.468 5.648,0.468l-1.052,-4.341c-1.904,0.241 -6.412,1.433 -6.412,1.433Z" /><path
         id="path38"
         style="fill:#ffffff;fill-rule:nonzero"
         d="M74.747,10.738c1.27,2.932 9.295,2.393 9.295,2.364c0.875,-0.103 0.132,-0.643 0.117,-0.643c-2.802,-1.371 -8.303,-2.538 -8.303,-2.538c-0.083,-0.005 -0.161,-0.007 -0.233,-0.007c-1.383,0 -0.876,0.824 -0.876,0.824Z" /><path
         id="path40"
         style="fill:none;stroke:#000;stroke-width:0.09px;"
         d="M75.856,9.921c0,0 5.501,1.167 8.303,2.538c0.015,0 0.758,0.54 -0.117,0.643c0,0.029 -8.025,0.569 -9.295,-2.364c0,0 -0.562,-0.913 1.109,-0.817Z" /><path
         id="path42"
         style="fill:url(#_Linear10);fill-rule:nonzero;"
         d="M85.68,12.532l-1.368,1.171c0,0 0.438,2.343 0.427,2.343c0.306,0.678 2.276,-0.121 2.265,-0.132c0.043,-3.327 -0.383,-3.502 -0.383,-3.502l-0.087,-0.054l-0.854,0.174Z" /><path
         id="path44"
         style="fill:#333333;stroke:#000;stroke-width:0.17px"
         d="M86.534,12.357l0.087,0.055c0,0 0.427,0.175 0.383,3.501c0.011,0.012 -1.959,0.811 -2.265,0.132c0.011,0 -0.427,-2.342 -0.427,-2.342l1.368,-1.171l0.854,-0.175Z" /><path
         id="path46"
         style="fill:url(#_Linear11);fill-rule:nonzero;"
         d="M84.815,17.362l-0.613,2.073l0.701,1.269c0,0 0.832,-0.044 0.846,-0.044c0.467,-0.263 0.905,-3.385 0.905,-3.385l-0.277,-0.234l-1.562,0.321Z" /><path
         id="path48"
         style="fill:#333333;stroke:#000;stroke-width:0.17px"
         d="M86.654,17.275c0,0 -0.438,3.122 -0.905,3.385c-0.015,0 -0.846,0.044 -0.846,0.044l-0.7,-1.27l0.613,-2.072l1.561,-0.321l0.277,0.234Z" /><clipPath
         id="_clip12"><path
           id="path50"
           d="M83.415,20.441c-0.73,0.088 -3.736,0.131 -3.736,0.116c-0.496,0 -0.423,0.234 -0.452,0.248c-0.044,0.205 -0.41,1.008 -0.423,0.993c-0.145,0.043 -3.65,0.258 -3.678,0.249c0,0.151 -0.13,0.395 -0.144,0.408c6.303,-0.118 10.606,-0.978 10.636,-0.993c0.189,-0.073 0.102,-0.335 0.102,-0.35c0,-0.204 -0.102,-0.175 -0.102,-0.161c-0.336,0.132 -1.926,0.205 -1.926,0.205c0.029,-0.131 0,-0.569 -0.029,-0.599c-0.033,-0.106 -0.122,-0.13 -0.185,-0.13c-0.049,0 -0.083,0.014 -0.063,0.014Zm-8.289,1.606l0,-0.001l0,0.001Zm-0.145,0.408c0,0.001 0,0 0.001,0c-0.001,0 -0.001,0 -0.001,0Z" /></clipPath><g
         id="g55"
         clip-path="url(#_clip12)"><path
           id="path53"
           style="fill:url(#_Linear13);fill-rule:nonzero;"
           d="M75.003,22.777l-0.134,-1.918l10.848,-0.759l0.134,1.918l-10.848,0.759Z" /></g><path
         id="path57"
         style="fill:#333333;stroke:#000;stroke-width:0.17px"
         d="M83.692,21.156c0,0 1.59,-0.073 1.926,-0.205c0,-0.014 0.102,-0.043 0.102,0.161c0,0.015 0.087,0.277 -0.102,0.35c-0.03,0.015 -4.334,0.876 -10.637,0.993c0,0.014 0.145,-0.249 0.145,-0.409c-0.029,0.014 3.532,-0.204 3.678,-0.248c0.014,0.015 0.379,-0.788 0.423,-0.992c0.029,-0.015 -0.044,-0.248 0.452,-0.248c0,0.014 3.006,-0.029 3.736,-0.117c-0.044,0 0.189,-0.073 0.248,0.117c0.029,0.029 0.058,0.466 0.029,0.598Z" /><path
         id="path59"
         style="fill:url(#_Linear14);fill-rule:nonzero;"
         d="M54.239,10.869l0,0.263l-0.022,0.35c0,0 0,0.525 -0.022,0.525c0.022,0.285 0.306,0.263 0.306,0.263l5.473,0.11c0.481,0 0.59,-0.241 0.59,-0.241l0.438,-0.46l0.35,-0.394c0,0 0.219,-0.219 0.197,-0.241c0.109,-0.241 -0.284,-0.35 -0.284,-0.35l-6.457,-0.11c-0.613,0.044 -0.569,0.285 -0.569,0.285Z" /><path
         id="path61"
         style="fill:#333333;stroke:#000;stroke-width:0.09px"
         d="M61.002,11.679l-0.438,0.46c0,0 -0.109,0.241 -0.591,0.241l-5.472,-0.11c0,0 -0.284,0.022 -0.306,-0.263c0.022,0 0.022,-0.525 0.022,-0.525l0.022,-0.35l0,-0.263c0,0 -0.044,-0.241 0.569,-0.285l6.457,0.11c0,0 0.394,0.11 0.284,0.35c0.022,0.022 -0.197,0.241 -0.197,0.241l-0.35,0.394Z" /><clipPath
         id="_clip15"><path
           id="path63"
           d="M51.793,11.547l10.593,0.167l0.006,-0.356l-10.593,-0.167l-0.006,0.356Z" /></clipPath><g
         id="g68"
         clip-path="url(#_clip15)"><path
           id="path66"
           style="fill:url(#_Linear16);fill-rule:nonzero;"
           d="M62.392,11.358l-0.006,0.356l-10.593,-0.166l0.006,-0.357l10.593,0.167Z" /></g><path
         id="path70"
         style="fill:#4786b3;stroke:#000;stroke-width:0.09px;fill-opacity:1"
         d="M62.385,11.714l-10.591,-0.167l0.005,-0.356l10.592,0.167l-0.006,0.356Z" /><path
         id="path72"
         style="fill:none;stroke:#000;stroke-width:0.09px;"
         d="M28.882,7.159l-0.065,0.241c0,0 -0.262,0.766 -0.493,1.401c0.011,0.01 -0.168,0.755 0.066,1.922c0,-0.028 1.518,8.638 6.917,8.288c0.029,0.03 24.688,1.08 24.688,1.08" /><path
         id="path74"
         style="fill:none;stroke:#000;stroke-width:0.09px;"
         d="M52.174,7.805c0,0 0.642,0.759 0.73,0.993c0.029,0.029 0.35,1.166 0.291,2.801c-0.028,0 0.175,5.982 -0.145,8.17" /><path
         id="path76"
         style="fill:url(#_Linear17);fill-rule:nonzero;"
         d="M44.995,5.135c0.029,0.014 -0.759,0.058 -0.802,0.686c0,0.058 -0.117,1.109 0.131,1.283c-0.015,0.015 0.919,0.511 3.663,0.452c0.014,-0.013 0.773,0.118 0.686,0.366c0,0.029 3.063,0.029 3.063,0.029c0,0 0.861,0.043 0.263,-0.642l-2.159,-1.372c0,0 -0.146,0.832 -0.497,0.686c0,0.029 -0.598,-0.088 -0.598,-0.088c0,0 0.03,-0.276 -0.102,-0.423c0,0 -0.277,-0.656 -1.371,-0.875c0.011,0.006 -0.112,-0.03 -0.37,-0.067c-0.241,-0.034 -0.597,-0.068 -1.07,-0.068c-0.247,0 -0.526,0.009 -0.837,0.033Z" /><path
         id="path78"
         style="fill:#333333;stroke:#000;stroke-width:0.09px"
         d="M48.643,6.112c0,0 -0.277,-0.656 -1.371,-0.875c0.029,0.014 -0.73,-0.219 -2.277,-0.102c0.029,0.014 -0.758,0.058 -0.802,0.686c0,0.058 -0.117,1.109 0.131,1.284c-0.015,0.014 0.919,0.51 3.662,0.452c0.015,-0.014 0.774,0.117 0.687,0.365c0,0.029 3.063,0.029 3.063,0.029c0,0 0.861,0.043 0.263,-0.642l-2.159,-1.372c0,0 -0.146,0.832 -0.497,0.686c0,0.029 -0.598,-0.087 -0.598,-0.087c0,0 0.03,-0.277 -0.102,-0.424Z" /><path
         id="path80"
         style="fill:none;stroke:#000;stroke-width:0.09px;"
         d="M3.935,12.431c0,0 0.015,0.174 0.434,0.168c0,0.01 5.56,0.372 5.56,0.372" /><path
         id="path82"
         style="fill:none;stroke:#000;stroke-width:0.09px;"
         d="M20.591,4.318c0,0 -0.532,-1.073 -0.168,-1.409" /><path
         id="path84"
         style="fill-rule:nonzero;"
         d="M7.967,18.71c0,-3.502 2.838,-6.34 6.339,-6.34c3.502,0 6.34,2.838 6.34,6.34c0,3.501 -2.838,6.338 -6.34,6.338c-3.501,0 -6.339,-2.837 -6.339,-6.338" /><path
         id="path86"
         style="fill-rule:nonzero;"
         d="M60.893,18.451c0,-3.672 2.977,-6.649 6.648,-6.649c3.672,0 6.649,2.977 6.649,6.649c0,3.672 -2.977,6.649 -6.649,6.649c-3.671,0 -6.648,-2.977 -6.648,-6.649" /><path
         id="path88"
         style="fill:#ffffff;fill-rule:nonzero"
         d="M9.703,18.71c0,2.541 2.061,4.603 4.603,4.603c2.544,0 4.604,-2.062 4.604,-4.603c0,-2.543 -2.06,-4.604 -4.604,-4.604c-2.542,0 -4.603,2.061 -4.603,4.604Z" /><path
         id="path90"
         style="fill:none;stroke:#b9b9b9;stroke-width:0.09px;"
         d="M9.703,18.71c0,-2.543 2.061,-4.605 4.603,-4.605c2.544,0 4.604,2.062 4.604,4.605c0,2.541 -2.06,4.603 -4.604,4.603c-2.542,0 -4.603,-2.062 -4.603,-4.603Z" /><path
         id="path92"
         style="fill:#ffffff;fill-rule:nonzero"
         d="M62.68,18.451c0,2.666 2.162,4.828 4.829,4.828c2.666,0 4.827,-2.162 4.827,-4.828c0,-2.666 -2.161,-4.828 -4.827,-4.828c-2.667,0 -4.829,2.162 -4.829,4.828Z" /><path
         id="path94"
         style="fill:none;stroke:#b9b9b9;stroke-width:0.09px;"
         d="M62.68,18.451c0,-2.666 2.162,-4.828 4.829,-4.828c2.666,0 4.827,2.162 4.827,4.828c0,2.666 -2.161,4.828 -4.827,4.828c-2.667,0 -4.829,-2.162 -4.829,-4.828Z" /><path
         id="path96"
         style="fill:none;stroke:#000;stroke-width:0.09px;"
         d="M55.213,7.236c0,0 3.743,0.744 9.816,0.919c0.405,0.044 15.781,2.036 20.585,4.389" /><path
         id="path98"
         style="fill:none;stroke:#000;stroke-width:0.09px;"
         d="M22.24,22.337c0,0 -0.044,-1.05 5.406,-0.831c0,-0.044 24.382,0.526 25.477,0.263" /><path
         id="path100"
         style="fill:url(#_Linear20);fill-rule:nonzero;"
         d="M21.146,16.691l9.783,0.153l-9.433,-0.153l-0.35,0Z" /><path
         id="path102"
         style="fill:none;stroke:#000;stroke-width:0.09px;"
         d="M21.146,16.691l0.35,0l9.433,0.153" /><path
         id="path104"
         style="fill:none;stroke:#000;stroke-width:0.09px;"
         d="M1.535,8.068c0,0 0.448,-0.285 0.97,-0.321c0.087,0.029 5.019,-1.022 6.595,-1.022c-0.029,0.058 1.08,-1.109 1.46,-1.312" /><path
         id="path106"
         style="fill:none;stroke:#00244f;stroke-width:0.09px;"
         d="M84.421,17.26c0,0 -1.867,0.175 -2.918,0.088c0,0.029 -0.758,0.029 -1.05,0.613c-0.03,0 -0.818,1.721 -0.818,2.071c-0.029,-0.028 1.08,0.176 4.173,-0.087" /><path
         id="path108"
         style="fill:none;stroke:#00244f;stroke-width:0.09px;"
         d="M9.1,6.725c0,0 9.66,0.073 18.24,1.692" /><path
         id="path110"
         style="fill:none;stroke:#000;stroke-width:0.09px;"
         d="M2.505,7.747c0,0 -1.226,-1.679 4.115,-1.343" /></g></g><defs
     id="defs215"><linearGradient
       gradientTransform="matrix(0,2.42366,-2.42366,0,1.02091,16.808)"
       gradientUnits="userSpaceOnUse"
       y2="0"
       x2="1"
       y1="0"
       x1="0"
       id="_Linear1"><stop
         id="stop115"
         style="stop-color:#999b9e;stop-opacity:1"
         offset="0%" /><stop
         id="stop117"
         style="stop-color:#616264;stop-opacity:1"
         offset="100%" /></linearGradient><linearGradient
       gradientTransform="matrix(15.424,0,0,15.424,9.4315,3.83835)"
       gradientUnits="userSpaceOnUse"
       y2="0"
       x2="1"
       y1="0"
       x1="0"
       id="_Linear2"><stop
         id="stop120"
         style="stop-color:#f2f3ff;stop-opacity:1"
         offset="0%" /><stop
         id="stop122"
         style="stop-color:#edf4ff;stop-opacity:1"
         offset="100%" /></linearGradient><linearGradient
       gradientTransform="matrix(17.7505,0,0,17.7505,42.026,4.48749)"
       gradientUnits="userSpaceOnUse"
       y2="0"
       x2="1"
       y1="0"
       x1="0"
       id="_Linear3"><stop
         id="stop125"
         style="stop-color:#f2f3ff;stop-opacity:1"
         offset="0%" /><stop
         id="stop127"
         style="stop-color:#edf4ff;stop-opacity:1"
         offset="100%" /></linearGradient><linearGradient
       gradientTransform="matrix(6.13161,0,0,6.13161,53.9984,6.57437)"
       gradientUnits="userSpaceOnUse"
       y2="0"
       x2="1"
       y1="0"
       x1="0"
       id="_Linear4"><stop
         id="stop130"
         style="stop-color:#231f20;stop-opacity:1"
         offset="0%" /><stop
         id="stop132"
         style="stop-color:#464547;stop-opacity:1"
         offset="100%" /></linearGradient><linearGradient
       gradientTransform="matrix(0,22.4422,-22.4422,0,43.6477,0.100089)"
       gradientUnits="userSpaceOnUse"
       y2="0"
       x2="1"
       y1="0"
       x1="0"
       id="_Linear5"><stop
         id="stop135"
         style="stop-color:#3b6dad;stop-opacity:1"
         offset="0%" /><stop
         id="stop137"
         style="stop-color:#123b70;stop-opacity:1"
         offset="100%" /></linearGradient><linearGradient
       gradientTransform="matrix(0,-6.19395,6.19395,0,36.3938,7.96374)"
       gradientUnits="userSpaceOnUse"
       y2="0"
       x2="1"
       y1="0"
       x1="0"
       id="_Linear6"><stop
         id="stop140"
         style="stop-color:#231f20;stop-opacity:1"
         offset="0%" /><stop
         id="stop142"
         style="stop-color:#48484a;stop-opacity:1"
         offset="100%" /></linearGradient><linearGradient
       gradientTransform="matrix(20.3084,0,0,20.3084,28.3575,4.8896)"
       gradientUnits="userSpaceOnUse"
       y2="0"
       x2="1"
       y1="0"
       x1="0"
       id="_Linear7"><stop
         id="stop145"
         style="stop-color:#f2f3ff;stop-opacity:1"
         offset="0%" /><stop
         id="stop147"
         style="stop-color:#edf4ff;stop-opacity:1"
         offset="100%" /></linearGradient><linearGradient
       gradientTransform="matrix(7.73129,0,0,7.73129,21.4253,4.96309)"
       gradientUnits="userSpaceOnUse"
       y2="0"
       x2="1"
       y1="0"
       x1="0"
       id="_Linear8"><stop
         id="stop150"
         style="stop-color:#f2f3ff;stop-opacity:1"
         offset="0%" /><stop
         id="stop152"
         style="stop-color:#edf4ff;stop-opacity:1"
         offset="100%" /></linearGradient><linearGradient
       gradientTransform="matrix(9.81103,0,0,9.81103,74.6564,11.5363)"
       gradientUnits="userSpaceOnUse"
       y2="0"
       x2="1"
       y1="0"
       x1="0"
       id="_Linear9"><stop
         id="stop155"
         style="stop-color:#f2f3ff;stop-opacity:1"
         offset="0%" /><stop
         id="stop157"
         style="stop-color:#edf4ff;stop-opacity:1"
         offset="100%" /></linearGradient><linearGradient
       gradientTransform="matrix(2.69494,0,0,2.69494,84.3123,14.3379)"
       gradientUnits="userSpaceOnUse"
       y2="0"
       x2="1"
       y1="0"
       x1="0"
       id="_Linear10"><stop
         id="stop160"
         style="stop-color:#231f20;stop-opacity:1"
         offset="0%" /><stop
         id="stop162"
         style="stop-color:#4a4b4c;stop-opacity:1"
         offset="100%" /></linearGradient><linearGradient
       gradientTransform="matrix(2.45108,0,0,2.45108,84.2027,18.8724)"
       gradientUnits="userSpaceOnUse"
       y2="0"
       x2="1"
       y1="0"
       x1="0"
       id="_Linear11"><stop
         id="stop165"
         style="stop-color:#231f20;stop-opacity:1"
         offset="0%" /><stop
         id="stop167"
         style="stop-color:#4a4b4c;stop-opacity:1"
         offset="100%" /></linearGradient><linearGradient
       gradientTransform="matrix(-0.11639,-1.66445,1.66445,-0.11639,80.3834,22.1775)"
       gradientUnits="userSpaceOnUse"
       y2="0"
       x2="1"
       y1="0"
       x1="0"
       id="_Linear13"><stop
         id="stop170"
         style="stop-color:#231f20;stop-opacity:1"
         offset="0%" /><stop
         id="stop172"
         style="stop-color:#595a5c;stop-opacity:1"
         offset="100%" /></linearGradient><linearGradient
       gradientTransform="matrix(0,1.79511,-1.79511,0,57.8819,10.5845)"
       gradientUnits="userSpaceOnUse"
       y2="0"
       x2="1"
       y1="0"
       x1="0"
       id="_Linear14"><stop
         id="stop175"
         style="stop-color:#231f20;stop-opacity:1"
         offset="0%" /><stop
         id="stop177"
         style="stop-color:#464547;stop-opacity:1"
         offset="100%" /></linearGradient><linearGradient
       gradientTransform="matrix(-0.00561346,0.356718,-0.438508,-0.00688526,57.0952,11.2744)"
       gradientUnits="userSpaceOnUse"
       y2="0"
       x2="1"
       y1="0"
       x1="0"
       id="_Linear16"><stop
         id="stop180"
         style="stop-color:#26538d;stop-opacity:1"
         offset="0%" /><stop
         id="stop182"
         style="stop-color:#123b70;stop-opacity:1"
         offset="100%" /></linearGradient><linearGradient
       gradientTransform="matrix(0,2.8496,-2.8496,0,48.1882,5.10211)"
       gradientUnits="userSpaceOnUse"
       y2="0"
       x2="1"
       y1="0"
       x1="0"
       id="_Linear17"><stop
         id="stop185"
         style="stop-color:#95979a;stop-opacity:1"
         offset="0%" /><stop
         id="stop187"
         style="stop-color:#231f20;stop-opacity:1"
         offset="56%" /><stop
         id="stop189"
         style="stop-color:#231f20;stop-opacity:1"
         offset="100%" /></linearGradient><radialGradient
       gradientTransform="matrix(4.60378,0,0,4.60378,14.3063,18.7092)"
       gradientUnits="userSpaceOnUse"
       r="1"
       cy="0"
       cx="0"
       id="_Radial18"><stop
         id="stop192"
         style="stop-color:#8a8c8e;stop-opacity:1"
         offset="0%" /><stop
         id="stop194"
         style="stop-color:#6b6c6f;stop-opacity:1"
         offset="84%" /><stop
         id="stop196"
         style="stop-color:#4d4d4f;stop-opacity:1"
         offset="96%" /><stop
         id="stop198"
         style="stop-color:#4d4d4f;stop-opacity:1"
         offset="100%" /></radialGradient><radialGradient
       gradientTransform="matrix(4.82783,0,0,4.82783,67.5079,18.4506)"
       gradientUnits="userSpaceOnUse"
       r="1"
       cy="0"
       cx="0"
       id="_Radial19"><stop
         id="stop201"
         style="stop-color:#8a8c8e;stop-opacity:1"
         offset="0%" /><stop
         id="stop203"
         style="stop-color:#6b6c6f;stop-opacity:1"
         offset="84%" /><stop
         id="stop205"
         style="stop-color:#4d4d4f;stop-opacity:1"
         offset="96%" /><stop
         id="stop207"
         style="stop-color:#4d4d4f;stop-opacity:1"
         offset="100%" /></radialGradient><linearGradient
       gradientTransform="matrix(0,0.153817,-0.153817,0,26.0372,16.6906)"
       gradientUnits="userSpaceOnUse"
       y2="0"
       x2="1"
       y1="0"
       x1="0"
       id="_Linear20"><stop
         id="stop210"
         style="stop-color:#3b6dad;stop-opacity:1"
         offset="0%" /><stop
         id="stop212"
         style="stop-color:#123b70;stop-opacity:1"
         offset="100%" /></linearGradient></defs></svg>
