<?xml version="1.0" encoding="UTF-8" standalone="no"?>
<svg
   xmlns:dc="http://purl.org/dc/elements/1.1/"
   xmlns:cc="http://creativecommons.org/ns#"
   xmlns:rdf="http://www.w3.org/1999/02/22-rdf-syntax-ns#"
   xmlns:svg="http://www.w3.org/2000/svg"
   xmlns="http://www.w3.org/2000/svg"
   xmlns:sodipodi="http://sodipodi.sourceforge.net/DTD/sodipodi-0.dtd"
   xmlns:inkscape="http://www.inkscape.org/namespaces/inkscape"
   width="499.71707"
   height="150"
   viewBox="0 0 499.71707 150"
   version="1.1"
   xml:space="preserve"
   style="clip-rule:evenodd;fill-rule:evenodd;stroke-linecap:round;stroke-linejoin:round"
   id="svg199"
   sodipodi:docname="grande-berline.svg"
   inkscape:version="1.0 (4035a4fb49, 2020-05-01)"><metadata
     id="metadata203"><rdf:RDF><cc:Work
         rdf:about=""><dc:format>image/svg+xml</dc:format><dc:type
           rdf:resource="http://purl.org/dc/dcmitype/StillImage" /><dc:title></dc:title></cc:Work></rdf:RDF></metadata><sodipodi:namedview
     fit-margin-bottom="0"
     fit-margin-right="0"
     fit-margin-left="0"
     fit-margin-top="0"
     inkscape:document-rotation="0"
     pagecolor="#ffffff"
     bordercolor="#666666"
     borderopacity="1"
     objecttolerance="10"
     gridtolerance="10"
     guidetolerance="10"
     inkscape:pageopacity="0"
     inkscape:pageshadow="2"
     inkscape:window-width="1920"
     inkscape:window-height="1017"
     id="namedview201"
     showgrid="false"
     inkscape:zoom="1.4100046"
     inkscape:cx="233.95087"
     inkscape:cy="49.035125"
     inkscape:window-x="-8"
     inkscape:window-y="-8"
     inkscape:window-maximized="1"
     inkscape:current-layer="svg199" /><g
     transform="matrix(5.9808613,0,0,5.9808613,-0.11962455,-0.11961722)"
     id="cat_grande_berline"><path
       d="m 22.201,1.576 h 0.001 z M 9.886,6.258 c -0.067,0.244 1.576,0.71 1.576,0.71 L 23.156,1.909 c 0,0 -0.956,-0.326 -0.955,-0.333 C 16.143,3.462 9.886,6.258 9.886,6.258 Z"
       style="fill:url(#_Linear1);fill-rule:nonzero"
       id="path2" /><path
       d="m 9.886,6.258 c 0,0 6.257,-2.796 12.316,-4.682 -0.023,0 0.954,0.333 0.954,0.333 L 11.462,6.968 c 0,0 -1.643,-0.465 -1.576,-0.71 z"
       style="fill:#ffffff;stroke:#000000;stroke-width:0.16px"
       id="path4" /><path
       d="M 48.466,1.978 C 50.86,2.398 59.725,8.5 59.725,8.5 c 0,0 1.576,-0.244 1.553,-0.288 C 56.419,4.794 48.941,1.72 48.941,1.72 c 0,0 -0.395,0.233 -0.475,0.258 z m 0,0 C 48.461,1.977 48.457,1.977 48.452,1.976 48.45,1.981 48.455,1.981 48.466,1.978 Z"
       style="fill:url(#_Linear2);fill-rule:nonzero"
       id="path6" /><path
       d="m 48.941,1.72 c 0,0 0.016,0.007 0.048,0.02 0.648,0.269 7.658,3.214 12.289,6.472 0.023,0.044 -1.553,0.288 -1.553,0.288 0,0 -8.898,-6.125 -11.273,-6.524 C 48.43,2.021 48.941,1.72 48.941,1.72 Z"
       style="fill:none;stroke:#000000;stroke-width:0.16px"
       id="path8" /><path
       d="m 11.728,21.259 c 0,0 2.53,-5.892 8.388,-1.331 0,0.099 -1.032,3.594 7.356,0.332 L 26.906,11.206 15.09,10.075 9.731,13.969 Z"
       style="fill:#333333;fill-rule:nonzero;stroke:#b9b9b9;stroke-width:0.08px"
       id="path10" /><path
       d="m 62.022,21.525 c 0,0 1.198,-0.966 3.395,-0.399 0,0.033 5.791,1.697 10.451,0.399 0.067,0.034 3.628,-5.758 3.628,-5.758 l -5.891,-4.593 -8.288,-0.832 -4.227,2.363 z"
       style="fill:#333333;fill-rule:nonzero;stroke:#b9b9b9;stroke-width:0.08px"
       id="path12" /><path
       d="m 0.836,18.558 c 0,0 0.339,0.968 0.843,1.239 -0.009,0.01 2.054,-0.048 2.054,-0.048 L 1.35,18.431 Z"
       style="fill:url(#_Linear3);fill-rule:nonzero"
       id="path14" /><path
       d="m 1.35,18.431 -0.513,0.127 c 0,0 0.339,0.968 0.843,1.239 -0.01,0.01 2.053,-0.048 2.053,-0.048 z"
       style="fill:#b3b3b3;stroke:#000000;stroke-width:0.08px"
       id="path16" /><path
       d="m 59.747,7.745 c 1.243,1.354 2.242,0.244 2.264,0.199 -0.115,-0.193 -0.711,-0.24 -1.262,-0.24 -0.521,0 -1.002,0.041 -1.002,0.041 z"
       style="fill:url(#_Linear4);fill-rule:nonzero"
       id="path18" /><path
       d="m 59.747,7.745 c 0,0 2.042,-0.178 2.264,0.199 C 61.989,7.99 60.99,9.099 59.747,7.745 Z"
       style="fill:none;stroke:#000000;stroke-width:0.08px"
       id="path20" /><path
       d="m 0.352,17.55 c 0,0 0.309,0.81 0.503,1.035 -0.004,-0.016 0.186,-0.108 0.36,-0.057 0,0.002 0.316,0.406 0.904,0.81 0.679,0.467 1.722,0.934 3.057,0.779 0.029,0 -3.923,-3.129 -3.923,-3.129 z m 0.504,1.037 c 0,-0.001 -0.001,-0.001 -0.001,-0.002 0,10e-4 0,0.002 0.001,0.002 z"
       style="fill:url(#_Linear5);fill-rule:nonzero"
       id="path22" /><path
       d="m 0.352,17.55 c 0,0 0.31,0.814 0.504,1.037 -0.019,-0.01 0.179,-0.112 0.359,-0.058 -0.01,-0.01 1.462,1.879 3.961,1.588 0.029,0 -3.923,-3.129 -3.923,-3.129 z"
       style="fill:#333333;stroke:#000000;stroke-width:0.08px"
       id="path24" /><path
       d="m 22.046,1.621 c 0,0 0.56,0.251 0.627,0.268 C 16.118,3.985 10.896,6.33 10.863,6.33 10.313,6.347 9.914,6.231 9.914,6.231 4.816,6.713 3.251,6.836 3.274,6.836 c -1.865,1.02 -1.776,6.79 -1.776,6.79 0,0 -0.266,-0.023 -0.288,-0.068 -0.178,0.533 -0.999,0.977 -0.999,0.977 0,0 0.111,1.775 0.089,1.775 0,0.399 -0.2,0.644 -0.2,0.644 0,0 0.267,0.643 0.244,0.643 0.555,0 0.977,0.421 1.021,0.4 1.198,1.242 3.262,2.13 3.239,2.13 2.042,0.511 7.19,1.298 7.224,1.265 -0.5,-8.92 7.123,-8.488 7.156,-8.521 7.389,0.2 6.923,7.989 6.923,7.989 0,0 36.348,0.267 36.314,0.232 0.2,-8.853 7.223,-8.354 7.223,-8.354 7.955,0.566 6.169,8.964 6.191,8.943 4.683,-0.554 6.001,-0.997 6.169,-1.021 1.953,-0.045 1.568,-0.361 1.576,-0.466 -0.124,-0.317 -0.145,-1.051 -0.134,-1.176 0.043,-0.217 0.178,-0.777 0.156,-0.821 0,-0.266 0.036,-0.336 0.044,-0.378 0.089,-0.288 0.023,-0.754 0.023,-0.732 0,-0.31 -0.089,-1.088 -0.111,-1.132 C 82.203,11.74 80.395,11.14 80.429,11.14 75.835,9.077 61.855,7.845 61.855,7.845 61.323,8.278 60.191,7.978 60.224,7.944 51.737,2.618 48.941,1.887 48.941,1.887 V 1.72 C 43.914,0.29 38.156,0.189 38.156,0.156 37.328,0.118 36.51,0.1 35.707,0.1 28.21,0.1 22.046,1.621 22.046,1.621 Z"
       style="fill:#4786b3;fill-opacity:1;fill-rule:nonzero"
       id="path26" /><g
       id="g95"><clipPath
         id="_clip7"><rect
           x="0.02"
           y="0.02"
           width="83.553001"
           height="25.08"
           id="rect28" /></clipPath><g
         clip-path="url(#_clip7)"
         id="g93"><path
           d="m 9.914,6.231 c 0,0 0.399,0.116 0.949,0.1 0.033,0 5.259,-2.347 11.816,-4.444 0.033,0.033 -0.633,-0.266 -0.633,-0.266 0,0 7.556,-1.864 16.11,-1.465 0,0.033 5.758,0.134 10.785,1.564 v 0.167 c 0,0 2.795,0.731 11.283,6.057 -0.033,0.034 1.099,0.334 1.631,-0.099 0,0 13.98,1.232 18.574,3.295 -0.034,0 1.774,0.6 2.929,4.815 0.022,0.044 0.111,0.822 0.111,1.132 0,-0.022 0.066,0.444 -0.023,0.732 -0.008,0.042 -0.044,0.112 -0.044,0.378 0.022,0.044 -0.113,0.605 -0.156,0.821 -0.011,0.125 0.01,0.859 0.134,1.176 -0.008,0.105 0.377,0.421 -1.576,0.466 -0.168,0.024 -1.487,0.466 -6.169,1.021 -0.022,0.021 1.764,-8.377 -6.191,-8.943 0,0 -7.023,-0.499 -7.223,8.354 0.034,0.034 -36.314,-0.232 -36.314,-0.232 0,0 0.466,-7.789 -6.923,-7.989 -0.033,0.033 -7.656,-0.399 -7.156,8.521 -0.034,0.033 -5.182,-0.754 -7.224,-1.265 0.023,0 -2.041,-0.888 -3.239,-2.13 -0.044,0.021 -0.466,-0.4 -1.021,-0.4 0.022,0 -0.244,-0.643 -0.244,-0.643 0,0 0.2,-0.244 0.2,-0.644 0.022,0 -0.089,-1.775 -0.089,-1.775 0,0 0.821,-0.444 0.999,-0.977 0.022,0.045 0.288,0.068 0.288,0.068 0,0 -0.088,-5.77 1.775,-6.79 -0.022,0 1.543,-0.123 6.641,-0.605 z"
           style="fill:none;stroke:#000000;stroke-width:0.16px"
           id="path31" /><path
           d="m 37.446,0.911 c -9.009,0.044 -13.381,1.664 -13.381,1.664 -4.77,1.486 -9.12,3.884 -9.12,3.884 -1.02,0.604 -0.005,0.604 0.111,0.62 3.619,-0.033 14.695,0.35 24.803,0.732 C 49.837,8.189 58.871,8.566 58.86,8.544 56.883,5.76 49.31,2.578 49.207,2.53 46.102,1.178 38.157,0.909 37.491,0.909 c -0.029,0 -0.044,0.001 -0.045,0.002 z"
           style="fill:#333333;fill-rule:nonzero"
           id="path33" /><path
           d="m 14.945,6.459 c 0,0 4.35,-2.398 9.12,-3.884 0,0 4.372,-1.621 13.381,-1.664 0.022,-0.023 8.523,0.21 11.761,1.619 0.102,0.048 7.676,3.229 9.653,6.014 C 58.882,8.588 22.246,7.013 15.057,7.079 14.94,7.063 13.925,7.063 14.945,6.459 Z"
           style="fill:none;stroke:#000000;stroke-width:0.32px"
           id="path35" /><path
           d="m 40.586,1.798 c 0,0 -1.248,-0.061 -1.131,0.422 0,0 1.464,4.377 1.813,5.392 0,-0.017 16.03,0.649 16.277,0.649 -0.012,-0.009 -1.9,-1.62 -4.913,-3.233 -3.023,-1.616 -7.178,-3.233 -11.711,-3.233 -0.111,0 -0.223,0.001 -0.335,0.003 z m 16.959,6.463 c 0,0.001 0,0.001 0,0 z"
           style="fill:#ffffff;fill-rule:nonzero"
           id="path37" /><path
           d="m 30.133,1.945 c -1.505,0.19 -2.64,0.38 -2.645,0.375 -0.554,0.066 -0.737,0.51 -0.737,0.521 -0.289,0.277 -2.392,4.222 -2.392,4.222 l 13.498,0.449 c 0,0 -0.699,-4.41 -0.716,-4.427 0,0 -0.072,-1.409 -0.838,-1.442 -0.389,-0.052 -0.85,-0.074 -1.356,-0.074 -1.477,0 -3.326,0.188 -4.814,0.376 z"
           style="fill:#ffffff;fill-rule:nonzero"
           id="path39" /><path
           d="m 15.988,6.547 c -0.314,0.122 -0.201,0.257 -0.179,0.283 0.602,0.017 6.87,0.166 6.87,0.166 L 25.192,2.769 C 22.463,3.285 15.988,6.547 15.988,6.547 Z M 15.809,6.83 c -10e-4,0 -0.002,0 -0.003,0 0.008,0.006 0.008,0.005 0.003,0 z"
           style="fill:#ffffff;fill-rule:nonzero"
           id="path41" /><path
           d="m 13.114,19.49 c 0,-3.098 2.512,-5.61 5.61,-5.61 3.098,0 5.61,2.512 5.61,5.61 0,3.099 -2.512,5.61 -5.61,5.61 -3.098,0 -5.61,-2.511 -5.61,-5.61"
           style="fill-rule:nonzero"
           id="path43" /><path
           d="m 63.675,19.367 c 0,-3.083 2.498,-5.581 5.581,-5.581 3.082,0 5.581,2.498 5.581,5.581 0,3.083 -2.499,5.581 -5.581,5.581 -3.083,0 -5.581,-2.498 -5.581,-5.581"
           style="fill-rule:nonzero"
           id="path45" /><path
           d="m 14.65,19.49 c 0,2.25 1.824,4.074 4.074,4.074 2.25,0 4.073,-1.824 4.073,-4.074 0,-2.249 -1.823,-4.074 -4.073,-4.074 -2.25,0 -4.074,1.825 -4.074,4.074 z"
           style="fill:#ffffff;fill-rule:nonzero"
           id="path47" /><path
           d="m 14.65,19.49 c 0,-2.249 1.824,-4.073 4.074,-4.073 2.25,0 4.074,1.824 4.074,4.073 0,2.25 -1.824,4.074 -4.074,4.074 -2.25,0 -4.074,-1.824 -4.074,-4.074 z"
           style="fill:none;stroke:#b9b9b9;stroke-width:0.08px"
           id="path49" /><path
           d="m 65.175,19.367 c 0,2.239 1.815,4.053 4.053,4.053 2.239,0 4.053,-1.814 4.053,-4.053 0,-2.238 -1.814,-4.053 -4.053,-4.053 -2.238,0 -4.053,1.815 -4.053,4.053 z"
           style="fill:#ffffff;fill-rule:nonzero"
           id="path51" /><path
           d="m 65.175,19.367 c 0,-2.239 1.815,-4.053 4.054,-4.053 2.238,0 4.052,1.814 4.052,4.053 0,2.239 -1.814,4.053 -4.052,4.053 -2.239,0 -4.054,-1.814 -4.054,-4.053 z"
           style="fill:none;stroke:#b9b9b9;stroke-width:0.08px"
           id="path53" /><path
           d="m 59.114,8.696 c 0,0 0.668,0.553 0.843,1.395 0.057,0.087 1.017,5.463 -0.582,10.724 0.029,0 -19.093,-0.205 -19.093,-0.205 0,0 0.349,-0.987 0.494,-1.917 0.029,0 0.581,-8.224 -1.104,-10.869 0.029,0 0.058,-0.203 0.058,-0.203 L 37.759,0.728 c 0,0 7.575,0.175 11.082,1.453 0.644,0.256 9.12,4.133 10.273,6.515 z"
           style="fill:none;stroke:#000000;stroke-width:0.08px"
           id="path55" /><path
           d="m 30.837,20.436 c 0,0 -2.286,0.233 -3.487,-1.898 0.077,-0.038 -5.231,-9.494 -5.231,-9.494 0,0 -0.252,-0.91 0.445,-1.578 0,0.01 0.117,-0.32 0.117,-0.32 l 2.995,-4.998 c 0,0 5.22,-1.502 12.083,-1.42"
           style="fill:none;stroke:#000000;stroke-width:0.08px"
           id="path57" /><path
           d="m 2.202,8.56 c 0,0 4.069,0.194 4.418,0.194 0,0.039 0.368,-0.019 0.291,0.426 0,0.039 -0.66,1.453 -0.756,1.861 0,0.018 -3.526,0.018 -4.534,0.058 0,0.038 0.175,-2.015 0.581,-2.539 z"
           style="fill:#f46154;fill-rule:nonzero;stroke:#000000;stroke-width:0.08px"
           id="path59" /><path
           d="m 77.102,11.893 c 0.02,0.038 -0.542,-0.039 -0.328,0.387 0.018,0.02 1.356,1.686 1.375,1.899 -0.019,0.077 2.77,-0.02 3.875,0.136 0.019,-0.02 -0.349,-1.667 -1.492,-2.422 0,0 -3.294,0.076 -3.43,0 z"
           style="fill:#ffffff;fill-rule:nonzero"
           id="path61" /><path
           d="m 80.532,11.893 c 0,0 -3.294,0.076 -3.429,0 0.019,0.038 -0.543,-0.039 -0.329,0.387 0.019,0.02 1.355,1.686 1.375,1.899 -0.02,0.077 2.77,-0.02 3.875,0.136 0.019,-0.02 -0.349,-1.667 -1.492,-2.422 z"
           style="fill:none;stroke:#000000;stroke-width:0.08px"
           id="path63" /><path
           d="m 79.66,17.841 c 0.039,0 -0.421,0.009 -0.484,0.174 -0.02,0.058 -0.601,1.666 -0.601,1.666 0,0 -0.155,0.524 0.174,0.524 0.02,0.038 2.887,-0.059 3.294,-0.059 0.407,0 1.101,-0.092 1.257,-0.287 -0.005,-0.01 -0.087,-0.492 -0.055,-0.882 0.066,-0.288 0.129,-0.47 0.161,-0.753 0.022,-0.208 -0.004,-0.348 0.057,-0.482 0,0 -3.221,0.099 -3.803,0.099 z m 3.64,2.018 c 0,0 0,0 0,0 z"
           style="fill:#333333;fill-rule:nonzero"
           id="path65" /><path
           d="m 83.245,18.976 c 0.066,-0.287 0.129,-0.468 0.16,-0.752 0.023,-0.208 -0.003,-0.348 0.058,-0.482 0,0 -3.222,0.098 -3.803,0.098 0.039,0 -0.421,0.01 -0.484,0.175 -0.019,0.058 -0.601,1.666 -0.601,1.666 0,0 -0.155,0.524 0.174,0.524 0.02,0.038 2.887,-0.059 3.294,-0.059 0.407,0 1.102,-0.093 1.257,-0.287 0,0.017 -0.088,-0.481 -0.055,-0.883 z"
           style="fill:none;stroke:#000000;stroke-width:0.08px"
           id="path67" /><path
           d="m 25.955,21.745 c 2.267,-0.611 36.138,0.174 36.152,0.174 0.152,-0.647 0.138,-1.214 0.138,-1.322 -0.736,-0.117 -36.329,-0.218 -36.329,-0.218 -0.048,0.319 0.039,1.395 0.039,1.366 z"
           style="fill:#4786b3;fill-opacity:1;fill-rule:nonzero"
           id="path69" /><path
           d="m 25.916,20.379 c 0,0 35.593,0.101 36.329,0.218 0,0.108 0.015,0.675 -0.138,1.322 -0.014,0 -33.885,-0.785 -36.152,-0.175 0,0.03 -0.087,-1.046 -0.039,-1.365 z"
           style="fill:none;stroke:#000000;stroke-width:0.08px"
           id="path71" /><path
           d="m 0.226,14.586 c 0,0 2.867,0.852 11.625,1.433"
           style="fill:none;stroke:#000000;stroke-width:0.08px"
           id="path73" /><path
           d="m 53.839,6.168 c -0.228,0.629 -0.101,1.462 -0.101,1.443 0.077,0.484 0.871,0.62 0.91,0.639 0.22,0.082 0.367,0.066 0.437,0.05 0.038,-0.009 0.054,-0.017 0.047,-0.011 0.097,-0.097 0.306,-0.102 0.306,-0.102 l 2.107,0.074 C 57.297,7.998 56.803,7.708 56.803,7.708 c 0,0 -0.121,0.155 -0.198,0.077 C 56.74,7.708 56.542,7.286 56.557,7.301 56.426,7.068 56.12,6.459 56.091,6.415 55.641,5.529 54.725,5.659 54.711,5.63 53.839,5.644 53.839,6.168 53.839,6.168 Z"
           style="fill:#333333;fill-rule:nonzero"
           id="path75" /><path
           d="m 53.839,6.167 c 0,0 0,-0.523 0.872,-0.537 0.014,0.029 0.93,-0.101 1.38,0.785 0.029,0.044 0.335,0.653 0.466,0.886 -0.015,-0.015 0.183,0.407 0.048,0.484 0.077,0.078 0.198,-0.077 0.198,-0.077 0,0 0.494,0.29 0.742,0.554 L 55.438,8.187 c 0,0 -0.209,0.005 -0.306,0.102 0.02,-0.019 -0.145,0.087 -0.484,-0.038 -0.039,-0.02 -0.833,-0.156 -0.91,-0.64 0,0.019 -0.127,-0.814 0.101,-1.444 z"
           style="fill:none;stroke:#000000;stroke-width:0.08px"
           id="path77" /><path
           d="m 80.975,18.388 c -0.242,0.096 -0.545,0.966 -0.545,0.966 l 1.7,-0.002 -0.01,-0.988 c 0,0 -1.135,0.005 -1.145,0.024 z"
           style="fill:#ffffff;fill-rule:nonzero"
           id="path79" /><path
           d="m 82.12,18.364 0.01,0.988 -1.7,0.002 c 0,0 0.303,-0.87 0.545,-0.966 0.01,-0.019 1.145,-0.024 1.145,-0.024 z"
           style="fill:none;stroke:#000000;stroke-width:0.08px"
           id="path81" /><path
           d="m 78.149,14.179 c 0,0 0.794,1.453 0.813,1.937 0.02,0.039 -3.913,0 -3.913,0"
           style="fill:none;stroke:#000000;stroke-width:0.08px"
           id="path83" /><path
           d="m 6.155,11.041 c 0,0 -1.501,3.38 -0.136,3.699 0,0.03 3.226,0.64 7.091,0.902"
           style="fill:none;stroke:#000000;stroke-width:0.08px"
           id="path85" /><path
           d="m 6.775,8.783 c 0,0 -3.283,-1.367 -3.501,-1.948"
           style="fill:none;stroke:#000000;stroke-width:0.08px"
           id="path87" /><path
           d="m 76.676,11.951 c 0,0 -33.173,-2.025 -69.829,-3.11"
           style="fill:none;stroke:#08366b;stroke-width:0.08px"
           id="path89" /><path
           d="m 61.526,8.028 c 0,0 16.943,1.627 19.006,3.865 0,0 0.581,0.407 1.017,0.174"
           style="fill:none;stroke:#000000;stroke-width:0.08px"
           id="path91" /></g></g></g><defs
     id="defs197"><linearGradient
       id="_Linear1"
       x1="0"
       y1="0"
       x2="1"
       y2="0"
       gradientUnits="userSpaceOnUse"
       gradientTransform="matrix(0,5.39195,-5.39195,0,16.52,1.57629)"><stop
         offset="0%"
         style="stop-color:#f2f3ff;stop-opacity:1"
         id="stop98" /><stop
         offset="100%"
         style="stop-color:#edf4ff;stop-opacity:1"
         id="stop100" /></linearGradient><linearGradient
       id="_Linear2"
       x1="0"
       y1="0"
       x2="1"
       y2="0"
       gradientUnits="userSpaceOnUse"
       gradientTransform="matrix(0,-6.78014,6.78014,0,54.8651,8.50041)"><stop
         offset="0%"
         style="stop-color:#f2f3ff;stop-opacity:1"
         id="stop103" /><stop
         offset="100%"
         style="stop-color:#edf4ff;stop-opacity:1"
         id="stop105" /></linearGradient><linearGradient
       id="_Linear3"
       x1="0"
       y1="0"
       x2="1"
       y2="0"
       gradientUnits="userSpaceOnUse"
       gradientTransform="matrix(0,-1.3668,1.3668,0,2.28495,19.7982)"><stop
         offset="0%"
         style="stop-color:#919396;stop-opacity:1"
         id="stop108" /><stop
         offset="40%"
         style="stop-color:#939598;stop-opacity:1"
         id="stop110" /><stop
         offset="65%"
         style="stop-color:#c7c8ca;stop-opacity:1"
         id="stop112" /><stop
         offset="100%"
         style="stop-color:#c7c8ca;stop-opacity:1"
         id="stop114" /></linearGradient><linearGradient
       id="_Linear4"
       x1="0"
       y1="0"
       x2="1"
       y2="0"
       gradientUnits="userSpaceOnUse"
       gradientTransform="matrix(0,-0.711572,0.711572,0,60.8791,8.41498)"><stop
         offset="0%"
         style="stop-color:#231f20;stop-opacity:1"
         id="stop117" /><stop
         offset="100%"
         style="stop-color:#595a5c;stop-opacity:1"
         id="stop119" /></linearGradient><linearGradient
       id="_Linear5"
       x1="0"
       y1="0"
       x2="1"
       y2="0"
       gradientUnits="userSpaceOnUse"
       gradientTransform="matrix(0,-3.1591,3.1591,0,2.76433,20.1473)"><stop
         offset="0%"
         style="stop-color:#231f20;stop-opacity:1"
         id="stop122" /><stop
         offset="100%"
         style="stop-color:#595a5c;stop-opacity:1"
         id="stop124" /></linearGradient><linearGradient
       id="_Linear6"
       x1="0"
       y1="0"
       x2="1"
       y2="0"
       gradientUnits="userSpaceOnUse"
       gradientTransform="matrix(0,21.5809,-21.5809,0,41.7963,0.10007)"><stop
         offset="0%"
         style="stop-color:#3b6dad;stop-opacity:1"
         id="stop127" /><stop
         offset="100%"
         style="stop-color:#123b70;stop-opacity:1"
         id="stop129" /></linearGradient><linearGradient
       id="_Linear8"
       x1="0"
       y1="0"
       x2="1"
       y2="0"
       gradientUnits="userSpaceOnUse"
       gradientTransform="matrix(0,-7.63539,7.63539,0,36.6771,8.54477)"><stop
         offset="0%"
         style="stop-color:#231f20;stop-opacity:1"
         id="stop132" /><stop
         offset="100%"
         style="stop-color:#3e3e3f;stop-opacity:1"
         id="stop134" /></linearGradient><linearGradient
       id="_Linear9"
       x1="0"
       y1="0"
       x2="1"
       y2="0"
       gradientUnits="userSpaceOnUse"
       gradientTransform="matrix(0,-6.46678,6.46678,0,48.4958,8.26153)"><stop
         offset="0%"
         style="stop-color:#f2f3ff;stop-opacity:1"
         id="stop137" /><stop
         offset="100%"
         style="stop-color:#edf4ff;stop-opacity:1"
         id="stop139" /></linearGradient><linearGradient
       id="_Linear10"
       x1="0"
       y1="0"
       x2="1"
       y2="0"
       gradientUnits="userSpaceOnUse"
       gradientTransform="matrix(0,-5.94248,5.94248,0,31.108,7.51165)"><stop
         offset="0%"
         style="stop-color:#f2f3ff;stop-opacity:1"
         id="stop142" /><stop
         offset="100%"
         style="stop-color:#edf4ff;stop-opacity:1"
         id="stop144" /></linearGradient><linearGradient
       id="_Linear11"
       x1="0"
       y1="0"
       x2="1"
       y2="0"
       gradientUnits="userSpaceOnUse"
       gradientTransform="matrix(0,-4.22609,4.22609,0,20.4814,6.99572)"><stop
         offset="0%"
         style="stop-color:#f2f3ff;stop-opacity:1"
         id="stop147" /><stop
         offset="100%"
         style="stop-color:#edf4ff;stop-opacity:1"
         id="stop149" /></linearGradient><radialGradient
       id="_Radial12"
       cx="0"
       cy="0"
       r="1"
       gradientUnits="userSpaceOnUse"
       gradientTransform="matrix(4.07377,0,0,4.07377,18.7238,19.4904)"><stop
         offset="0%"
         style="stop-color:#8a8c8e;stop-opacity:1"
         id="stop152" /><stop
         offset="84%"
         style="stop-color:#6b6c6f;stop-opacity:1"
         id="stop154" /><stop
         offset="96%"
         style="stop-color:#4d4d4f;stop-opacity:1"
         id="stop156" /><stop
         offset="100%"
         style="stop-color:#4d4d4f;stop-opacity:1"
         id="stop158" /></radialGradient><radialGradient
       id="_Radial13"
       cx="0"
       cy="0"
       r="1"
       gradientUnits="userSpaceOnUse"
       gradientTransform="matrix(4.05305,0,0,4.05305,69.2282,19.3669)"><stop
         offset="0%"
         style="stop-color:#8a8c8e;stop-opacity:1"
         id="stop161" /><stop
         offset="84%"
         style="stop-color:#6b6c6f;stop-opacity:1"
         id="stop163" /><stop
         offset="96%"
         style="stop-color:#4d4d4f;stop-opacity:1"
         id="stop165" /><stop
         offset="100%"
         style="stop-color:#4d4d4f;stop-opacity:1"
         id="stop167" /></radialGradient><linearGradient
       id="_Linear14"
       x1="0"
       y1="0"
       x2="1"
       y2="0"
       gradientUnits="userSpaceOnUse"
       gradientTransform="matrix(5.29943,0,0,5.29943,76.725,13.1038)"><stop
         offset="0%"
         style="stop-color:#f2f3ff;stop-opacity:1"
         id="stop170" /><stop
         offset="100%"
         style="stop-color:#edf4ff;stop-opacity:1"
         id="stop172" /></linearGradient><linearGradient
       id="_Linear15"
       x1="0"
       y1="0"
       x2="1"
       y2="0"
       gradientUnits="userSpaceOnUse"
       gradientTransform="matrix(4.92492,0,0,4.92492,78.5384,18.9776)"><stop
         offset="0%"
         style="stop-color:#231f20;stop-opacity:1"
         id="stop175" /><stop
         offset="100%"
         style="stop-color:#48484a;stop-opacity:1"
         id="stop177" /></linearGradient><linearGradient
       id="_Linear16"
       x1="0"
       y1="0"
       x2="1"
       y2="0"
       gradientUnits="userSpaceOnUse"
       gradientTransform="matrix(0,-1.53996,1.53996,0,44.0736,21.9189)"><stop
         offset="0%"
         style="stop-color:#3b6dad;stop-opacity:1"
         id="stop180" /><stop
         offset="100%"
         style="stop-color:#123b70;stop-opacity:1"
         id="stop182" /></linearGradient><linearGradient
       id="_Linear17"
       x1="0"
       y1="0"
       x2="1"
       y2="0"
       gradientUnits="userSpaceOnUse"
       gradientTransform="matrix(0,2.6829,-2.6829,0,55.6238,5.63001)"><stop
         offset="0%"
         style="stop-color:#dcddde;stop-opacity:1"
         id="stop185" /><stop
         offset="25%"
         style="stop-color:#595a5c;stop-opacity:1"
         id="stop187" /><stop
         offset="100%"
         style="stop-color:#2d2a2b;stop-opacity:1"
         id="stop189" /></linearGradient><linearGradient
       id="_Linear18"
       x1="0"
       y1="0"
       x2="1"
       y2="0"
       gradientUnits="userSpaceOnUse"
       gradientTransform="matrix(1.70034,0,0,1.70034,80.4299,18.8588)"><stop
         offset="0%"
         style="stop-color:#f2f3ff;stop-opacity:1"
         id="stop192" /><stop
         offset="100%"
         style="stop-color:#edf4ff;stop-opacity:1"
         id="stop194" /></linearGradient></defs></svg>
