<?xml version="1.0" encoding="UTF-8" standalone="no"?>
<svg
   xmlns:dc="http://purl.org/dc/elements/1.1/"
   xmlns:cc="http://creativecommons.org/ns#"
   xmlns:rdf="http://www.w3.org/1999/02/22-rdf-syntax-ns#"
   xmlns:svg="http://www.w3.org/2000/svg"
   xmlns="http://www.w3.org/2000/svg"
   xmlns:sodipodi="http://sodipodi.sourceforge.net/DTD/sodipodi-0.dtd"
   xmlns:inkscape="http://www.inkscape.org/namespaces/inkscape"
   inkscape:version="1.0 (4035a4fb49, 2020-05-01)"
   sodipodi:docname="voiture--grande-berline.svg"
   id="svg199"
   style="fill-rule:evenodd;clip-rule:evenodd;stroke-linecap:round;stroke-linejoin:round;"
   xml:space="preserve"
   version="1.1"
   viewBox="0 0 84 26"
   height="100%"
   width="100%"><metadata
     id="metadata203"><rdf:RDF><cc:Work
         rdf:about=""><dc:format>image/svg+xml</dc:format><dc:type
           rdf:resource="http://purl.org/dc/dcmitype/StillImage" /></cc:Work></rdf:RDF></metadata><sodipodi:namedview
     inkscape:current-layer="svg199"
     inkscape:window-maximized="1"
     inkscape:window-y="-8"
     inkscape:window-x="-8"
     inkscape:cy="3.7033917"
     inkscape:cx="58.519659"
     inkscape:zoom="7.9761905"
     showgrid="false"
     id="namedview201"
     inkscape:window-height="1017"
     inkscape:window-width="1920"
     inkscape:pageshadow="2"
     inkscape:pageopacity="0"
     guidetolerance="10"
     gridtolerance="10"
     objecttolerance="10"
     borderopacity="1"
     bordercolor="#666666"
     pagecolor="#ffffff" /><g
     id="cat_grande_berline"><path
       id="path2"
       style="fill:url(#_Linear1);fill-rule:nonzero;"
       d="M22.201,1.576l0.001,0l-0.001,0Zm-12.315,4.682c-0.067,0.244 1.576,0.71 1.576,0.71l11.694,-5.059c0,0 -0.956,-0.326 -0.955,-0.333c-6.058,1.886 -12.315,4.682 -12.315,4.682Z" /><path
       id="path4"
       style="fill:#ffffff;stroke:#000;stroke-width:0.16px"
       d="M9.886,6.258c0,0 6.257,-2.796 12.316,-4.682c-0.023,0 0.954,0.333 0.954,0.333l-11.694,5.059c0,0 -1.643,-0.465 -1.576,-0.71Z" /><path
       id="path6"
       style="fill:url(#_Linear2);fill-rule:nonzero;"
       d="M48.466,1.978c2.394,0.42 11.259,6.522 11.259,6.522c0,0 1.576,-0.244 1.553,-0.288c-4.859,-3.418 -12.337,-6.492 -12.337,-6.492c0,0 -0.395,0.233 -0.475,0.258Zm0,0c-0.005,-0.001 -0.009,-0.001 -0.014,-0.002c-0.002,0.005 0.003,0.005 0.014,0.002Z" /><path
       id="path8"
       style="fill:none;stroke:#000;stroke-width:0.16px;"
       d="M48.941,1.72c0,0 0.016,0.007 0.048,0.02c0.648,0.269 7.658,3.214 12.289,6.472c0.023,0.044 -1.553,0.288 -1.553,0.288c0,0 -8.898,-6.125 -11.273,-6.524c-0.022,0.045 0.489,-0.256 0.489,-0.256Z" /><path
       id="path10"
       style="fill:#333333;fill-rule:nonzero;stroke:#b9b9b9;stroke-width:0.08px"
       d="M11.728,21.259c0,0 2.53,-5.892 8.388,-1.331c0,0.099 -1.032,3.594 7.356,0.332l-0.566,-9.054l-11.816,-1.131l-5.359,3.894l1.997,7.29Z" /><path
       id="path12"
       style="fill:#333333;fill-rule:nonzero;stroke:#b9b9b9;stroke-width:0.08px"
       d="M62.022,21.525c0,0 1.198,-0.966 3.395,-0.399c0,0.033 5.791,1.697 10.451,0.399c0.067,0.034 3.628,-5.758 3.628,-5.758l-5.891,-4.593l-8.288,-0.832l-4.227,2.363l0.932,8.82Z" /><path
       id="path14"
       style="fill:url(#_Linear3);fill-rule:nonzero;"
       d="M0.836,18.558c0,0 0.339,0.968 0.843,1.239c-0.009,0.01 2.054,-0.048 2.054,-0.048l-2.383,-1.318l-0.514,0.127Z" /><path
       id="path16"
       style="fill:#b3b3b3;stroke:#000;stroke-width:0.08px"
       d="M1.35,18.431l-0.513,0.127c0,0 0.339,0.968 0.843,1.239c-0.01,0.01 2.053,-0.048 2.053,-0.048l-2.383,-1.318Z" /><path
       id="path18"
       style="fill:url(#_Linear4);fill-rule:nonzero;"
       d="M59.747,7.745c1.243,1.354 2.242,0.244 2.264,0.199c-0.115,-0.193 -0.711,-0.24 -1.262,-0.24c-0.521,0 -1.002,0.041 -1.002,0.041Z" /><path
       id="path20"
       style="fill:none;stroke:#000;stroke-width:0.08px;"
       d="M59.747,7.745c0,0 2.042,-0.178 2.264,0.199c-0.022,0.046 -1.021,1.155 -2.264,-0.199Z" /><path
       id="path22"
       style="fill:url(#_Linear5);fill-rule:nonzero;"
       d="M0.352,17.55c0,0 0.309,0.81 0.503,1.035c-0.004,-0.016 0.186,-0.108 0.36,-0.057c0,0.002 0.316,0.406 0.904,0.81c0.679,0.467 1.722,0.934 3.057,0.779c0.029,0 -3.923,-3.129 -3.923,-3.129l-0.901,0.562Zm0.504,1.037c0,-0.001 -0.001,-0.001 -0.001,-0.002c0,0.001 0,0.002 0.001,0.002Z" /><path
       id="path24"
       style="fill:#333333;stroke:#000;stroke-width:0.08px"
       d="M0.352,17.55c0,0 0.31,0.814 0.504,1.037c-0.019,-0.01 0.179,-0.112 0.359,-0.058c-0.01,-0.01 1.462,1.879 3.961,1.588c0.029,0 -3.923,-3.129 -3.923,-3.129l-0.901,0.562Z" /><path
       id="path26"
       style="fill:#4786b3;fill-rule:nonzero;fill-opacity:1"
       d="M22.046,1.621c0,0 0.56,0.251 0.627,0.268c-6.555,2.096 -11.777,4.441 -11.81,4.441c-0.55,0.017 -0.949,-0.099 -0.949,-0.099c-5.098,0.482 -6.663,0.605 -6.64,0.605c-1.865,1.02 -1.776,6.79 -1.776,6.79c0,0 -0.266,-0.023 -0.288,-0.068c-0.178,0.533 -0.999,0.977 -0.999,0.977c0,0 0.111,1.775 0.089,1.775c0,0.399 -0.2,0.644 -0.2,0.644c0,0 0.267,0.643 0.244,0.643c0.555,0 0.977,0.421 1.021,0.4c1.198,1.242 3.262,2.13 3.239,2.13c2.042,0.511 7.19,1.298 7.224,1.265c-0.5,-8.92 7.123,-8.488 7.156,-8.521c7.389,0.2 6.923,7.989 6.923,7.989c0,0 36.348,0.267 36.314,0.232c0.2,-8.853 7.223,-8.354 7.223,-8.354c7.955,0.566 6.169,8.964 6.191,8.943c4.683,-0.554 6.001,-0.997 6.169,-1.021c1.953,-0.045 1.568,-0.361 1.576,-0.466c-0.124,-0.317 -0.145,-1.051 -0.134,-1.176c0.043,-0.217 0.178,-0.777 0.156,-0.821c0,-0.266 0.036,-0.336 0.044,-0.378c0.089,-0.288 0.023,-0.754 0.023,-0.732c0,-0.31 -0.089,-1.088 -0.111,-1.132c-1.155,-4.215 -2.963,-4.815 -2.929,-4.815c-4.594,-2.063 -18.574,-3.295 -18.574,-3.295c-0.532,0.433 -1.664,0.133 -1.631,0.099c-8.487,-5.326 -11.283,-6.057 -11.283,-6.057l0,-0.167c-5.027,-1.43 -10.785,-1.531 -10.785,-1.564c-0.828,-0.038 -1.646,-0.056 -2.449,-0.056c-7.497,0 -13.661,1.521 -13.661,1.521Z" /><g
       id="g95"><clipPath
         id="_clip7"><rect
           id="rect28"
           height="25.08"
           width="83.553"
           y="0.02"
           x="0.02" /></clipPath><g
         id="g93"
         clip-path="url(#_clip7)"><path
           id="path31"
           style="fill:none;stroke:#000;stroke-width:0.16px;"
           d="M9.914,6.231c0,0 0.399,0.116 0.949,0.1c0.033,0 5.259,-2.347 11.816,-4.444c0.033,0.033 -0.633,-0.266 -0.633,-0.266c0,0 7.556,-1.864 16.11,-1.465c0,0.033 5.758,0.134 10.785,1.564l0,0.167c0,0 2.795,0.731 11.283,6.057c-0.033,0.034 1.099,0.334 1.631,-0.099c0,0 13.98,1.232 18.574,3.295c-0.034,0 1.774,0.6 2.929,4.815c0.022,0.044 0.111,0.822 0.111,1.132c0,-0.022 0.066,0.444 -0.023,0.732c-0.008,0.042 -0.044,0.112 -0.044,0.378c0.022,0.044 -0.113,0.605 -0.156,0.821c-0.011,0.125 0.01,0.859 0.134,1.176c-0.008,0.105 0.377,0.421 -1.576,0.466c-0.168,0.024 -1.487,0.466 -6.169,1.021c-0.022,0.021 1.764,-8.377 -6.191,-8.943c0,0 -7.023,-0.499 -7.223,8.354c0.034,0.034 -36.314,-0.232 -36.314,-0.232c0,0 0.466,-7.789 -6.923,-7.989c-0.033,0.033 -7.656,-0.399 -7.156,8.521c-0.034,0.033 -5.182,-0.754 -7.224,-1.265c0.023,0 -2.041,-0.888 -3.239,-2.13c-0.044,0.021 -0.466,-0.4 -1.021,-0.4c0.022,0 -0.244,-0.643 -0.244,-0.643c0,0 0.2,-0.244 0.2,-0.644c0.022,0 -0.089,-1.775 -0.089,-1.775c0,0 0.821,-0.444 0.999,-0.977c0.022,0.045 0.288,0.068 0.288,0.068c0,0 -0.088,-5.77 1.775,-6.79c-0.022,0 1.543,-0.123 6.641,-0.605Z" /><path
           id="path33"
           style="fill:#333333;fill-rule:nonzero"
           d="M37.446,0.911c-9.009,0.044 -13.381,1.664 -13.381,1.664c-4.77,1.486 -9.12,3.884 -9.12,3.884c-1.02,0.604 -0.005,0.604 0.111,0.62c3.619,-0.033 14.695,0.35 24.803,0.732c9.978,0.378 19.012,0.755 19.001,0.733c-1.977,-2.784 -9.55,-5.966 -9.653,-6.014c-3.105,-1.352 -11.05,-1.621 -11.716,-1.621c-0.029,0 -0.044,0.001 -0.045,0.002Z" /><path
           id="path35"
           style="fill:none;stroke:#000;stroke-width:0.32px;"
           d="M14.945,6.459c0,0 4.35,-2.398 9.12,-3.884c0,0 4.372,-1.621 13.381,-1.664c0.022,-0.023 8.523,0.21 11.761,1.619c0.102,0.048 7.676,3.229 9.653,6.014c0.022,0.044 -36.614,-1.531 -43.803,-1.465c-0.117,-0.016 -1.132,-0.016 -0.112,-0.62Z" /><path
           id="path37"
           style="fill:#ffffff;fill-rule:nonzero"
           d="M40.586,1.798c0,0 -1.248,-0.061 -1.131,0.422c0,0 1.464,4.377 1.813,5.392c0,-0.017 16.03,0.649 16.277,0.649c-0.012,-0.009 -1.9,-1.62 -4.913,-3.233c-3.023,-1.616 -7.178,-3.233 -11.711,-3.233c-0.111,0 -0.223,0.001 -0.335,0.003Zm16.959,6.463c0,0.001 0,0.001 0,0Z" /><path
           id="path39"
           style="fill:#ffffff;fill-rule:nonzero"
           d="M30.133,1.945c-1.505,0.19 -2.64,0.38 -2.645,0.375c-0.554,0.066 -0.737,0.51 -0.737,0.521c-0.289,0.277 -2.392,4.222 -2.392,4.222l13.498,0.449c0,0 -0.699,-4.41 -0.716,-4.427c0,0 -0.072,-1.409 -0.838,-1.442c-0.389,-0.052 -0.85,-0.074 -1.356,-0.074c-1.477,0 -3.326,0.188 -4.814,0.376Z" /><path
           id="path41"
           style="fill:#ffffff;fill-rule:nonzero"
           d="M15.988,6.547c-0.314,0.122 -0.201,0.257 -0.179,0.283c0.602,0.017 6.87,0.166 6.87,0.166l2.513,-4.227c-2.729,0.516 -9.204,3.778 -9.204,3.778Zm-0.179,0.283c-0.001,0 -0.002,0 -0.003,0c0.008,0.006 0.008,0.005 0.003,0Z" /><path
           id="path43"
           style="fill-rule:nonzero;"
           d="M13.114,19.49c0,-3.098 2.512,-5.61 5.61,-5.61c3.098,0 5.61,2.512 5.61,5.61c0,3.099 -2.512,5.61 -5.61,5.61c-3.098,0 -5.61,-2.511 -5.61,-5.61" /><path
           id="path45"
           style="fill-rule:nonzero;"
           d="M63.675,19.367c0,-3.083 2.498,-5.581 5.581,-5.581c3.082,0 5.581,2.498 5.581,5.581c0,3.083 -2.499,5.581 -5.581,5.581c-3.083,0 -5.581,-2.498 -5.581,-5.581" /><path
           id="path47"
           style="fill:#ffffff;fill-rule:nonzero"
           d="M14.65,19.49c0,2.25 1.824,4.074 4.074,4.074c2.25,0 4.073,-1.824 4.073,-4.074c0,-2.249 -1.823,-4.074 -4.073,-4.074c-2.25,0 -4.074,1.825 -4.074,4.074Z" /><path
           id="path49"
           style="fill:none;stroke:#b9b9b9;stroke-width:0.08px;"
           d="M14.65,19.49c0,-2.249 1.824,-4.073 4.074,-4.073c2.25,0 4.074,1.824 4.074,4.073c0,2.25 -1.824,4.074 -4.074,4.074c-2.25,0 -4.074,-1.824 -4.074,-4.074Z" /><path
           id="path51"
           style="fill:#ffffff;fill-rule:nonzero"
           d="M65.175,19.367c0,2.239 1.815,4.053 4.053,4.053c2.239,0 4.053,-1.814 4.053,-4.053c0,-2.238 -1.814,-4.053 -4.053,-4.053c-2.238,0 -4.053,1.815 -4.053,4.053Z" /><path
           id="path53"
           style="fill:none;stroke:#b9b9b9;stroke-width:0.08px;"
           d="M65.175,19.367c0,-2.239 1.815,-4.053 4.054,-4.053c2.238,0 4.052,1.814 4.052,4.053c0,2.239 -1.814,4.053 -4.052,4.053c-2.239,0 -4.054,-1.814 -4.054,-4.053Z" /><path
           id="path55"
           style="fill:none;stroke:#000;stroke-width:0.08px;"
           d="M59.114,8.696c0,0 0.668,0.553 0.843,1.395c0.057,0.087 1.017,5.463 -0.582,10.724c0.029,0 -19.093,-0.205 -19.093,-0.205c0,0 0.349,-0.987 0.494,-1.917c0.029,0 0.581,-8.224 -1.104,-10.869c0.029,0 0.058,-0.203 0.058,-0.203l-1.971,-6.893c0,0 7.575,0.175 11.082,1.453c0.644,0.256 9.12,4.133 10.273,6.515Z" /><path
           id="path57"
           style="fill:none;stroke:#000;stroke-width:0.08px;"
           d="M30.837,20.436c0,0 -2.286,0.233 -3.487,-1.898c0.077,-0.038 -5.231,-9.494 -5.231,-9.494c0,0 -0.252,-0.91 0.445,-1.578c0,0.01 0.117,-0.32 0.117,-0.32l2.995,-4.998c0,0 5.22,-1.502 12.083,-1.42" /><path
           id="path59"
           style="fill:#f46154;fill-rule:nonzero;stroke:#000;stroke-width:0.08px;"
           d="M2.202,8.56c0,0 4.069,0.194 4.418,0.194c0,0.039 0.368,-0.019 0.291,0.426c0,0.039 -0.66,1.453 -0.756,1.861c0,0.018 -3.526,0.018 -4.534,0.058c0,0.038 0.175,-2.015 0.581,-2.539Z" /><path
           id="path61"
           style="fill:#ffffff;fill-rule:nonzero"
           d="M77.102,11.893c0.02,0.038 -0.542,-0.039 -0.328,0.387c0.018,0.02 1.356,1.686 1.375,1.899c-0.019,0.077 2.77,-0.02 3.875,0.136c0.019,-0.02 -0.349,-1.667 -1.492,-2.422c0,0 -3.294,0.076 -3.43,0Z" /><path
           id="path63"
           style="fill:none;stroke:#000;stroke-width:0.08px;"
           d="M80.532,11.893c0,0 -3.294,0.076 -3.429,0c0.019,0.038 -0.543,-0.039 -0.329,0.387c0.019,0.02 1.355,1.686 1.375,1.899c-0.02,0.077 2.77,-0.02 3.875,0.136c0.019,-0.02 -0.349,-1.667 -1.492,-2.422Z" /><path
           id="path65"
           style="fill:#333333;fill-rule:nonzero"
           d="M79.66,17.841c0.039,0 -0.421,0.009 -0.484,0.174c-0.02,0.058 -0.601,1.666 -0.601,1.666c0,0 -0.155,0.524 0.174,0.524c0.02,0.038 2.887,-0.059 3.294,-0.059c0.407,0 1.101,-0.092 1.257,-0.287c-0.005,-0.01 -0.087,-0.492 -0.055,-0.882c0.066,-0.288 0.129,-0.47 0.161,-0.753c0.022,-0.208 -0.004,-0.348 0.057,-0.482c0,0 -3.221,0.099 -3.803,0.099Zm3.64,2.018c0,0 0,0 0,0l0,0Z" /><path
           id="path67"
           style="fill:none;stroke:#000;stroke-width:0.08px;"
           d="M83.245,18.976c0.066,-0.287 0.129,-0.468 0.16,-0.752c0.023,-0.208 -0.003,-0.348 0.058,-0.482c0,0 -3.222,0.098 -3.803,0.098c0.039,0 -0.421,0.01 -0.484,0.175c-0.019,0.058 -0.601,1.666 -0.601,1.666c0,0 -0.155,0.524 0.174,0.524c0.02,0.038 2.887,-0.059 3.294,-0.059c0.407,0 1.102,-0.093 1.257,-0.287c0,0.017 -0.088,-0.481 -0.055,-0.883Z" /><path
           id="path69"
           style="fill:#4786b3;fill-rule:nonzero;fill-opacity:1"
           d="M25.955,21.745c2.267,-0.611 36.138,0.174 36.152,0.174c0.152,-0.647 0.138,-1.214 0.138,-1.322c-0.736,-0.117 -36.329,-0.218 -36.329,-0.218c-0.048,0.319 0.039,1.395 0.039,1.366Z" /><path
           id="path71"
           style="fill:none;stroke:#000;stroke-width:0.08px;"
           d="M25.916,20.379c0,0 35.593,0.101 36.329,0.218c0,0.108 0.015,0.675 -0.138,1.322c-0.014,0 -33.885,-0.785 -36.152,-0.175c0,0.03 -0.087,-1.046 -0.039,-1.365Z" /><path
           id="path73"
           style="fill:none;stroke:#000;stroke-width:0.08px;"
           d="M0.226,14.586c0,0 2.867,0.852 11.625,1.433" /><path
           id="path75"
           style="fill:#333333;fill-rule:nonzero"
           d="M53.839,6.168c-0.228,0.629 -0.101,1.462 -0.101,1.443c0.077,0.484 0.871,0.62 0.91,0.639c0.22,0.082 0.367,0.066 0.437,0.05c0.038,-0.009 0.054,-0.017 0.047,-0.011c0.097,-0.097 0.306,-0.102 0.306,-0.102l2.107,0.074c-0.248,-0.263 -0.742,-0.553 -0.742,-0.553c0,0 -0.121,0.155 -0.198,0.077c0.135,-0.077 -0.063,-0.499 -0.048,-0.484c-0.131,-0.233 -0.437,-0.842 -0.466,-0.886c-0.45,-0.886 -1.366,-0.756 -1.38,-0.785c-0.872,0.014 -0.872,0.538 -0.872,0.538Z" /><path
           id="path77"
           style="fill:none;stroke:#000;stroke-width:0.08px;"
           d="M53.839,6.167c0,0 0,-0.523 0.872,-0.537c0.014,0.029 0.93,-0.101 1.38,0.785c0.029,0.044 0.335,0.653 0.466,0.886c-0.015,-0.015 0.183,0.407 0.048,0.484c0.077,0.078 0.198,-0.077 0.198,-0.077c0,0 0.494,0.29 0.742,0.554l-2.107,-0.075c0,0 -0.209,0.005 -0.306,0.102c0.02,-0.019 -0.145,0.087 -0.484,-0.038c-0.039,-0.02 -0.833,-0.156 -0.91,-0.64c0,0.019 -0.127,-0.814 0.101,-1.444Z" /><path
           id="path79"
           style="fill:#ffffff;fill-rule:nonzero"
           d="M80.975,18.388c-0.242,0.096 -0.545,0.966 -0.545,0.966l1.7,-0.002l-0.01,-0.988c0,0 -1.135,0.005 -1.145,0.024Z" /><path
           id="path81"
           style="fill:none;stroke:#000;stroke-width:0.08px;"
           d="M82.12,18.364l0.01,0.988l-1.7,0.002c0,0 0.303,-0.87 0.545,-0.966c0.01,-0.019 1.145,-0.024 1.145,-0.024Z" /><path
           id="path83"
           style="fill:none;stroke:#000;stroke-width:0.08px;"
           d="M78.149,14.179c0,0 0.794,1.453 0.813,1.937c0.02,0.039 -3.913,0 -3.913,0" /><path
           id="path85"
           style="fill:none;stroke:#000;stroke-width:0.08px;"
           d="M6.155,11.041c0,0 -1.501,3.38 -0.136,3.699c0,0.03 3.226,0.64 7.091,0.902" /><path
           id="path87"
           style="fill:none;stroke:#000;stroke-width:0.08px;"
           d="M6.775,8.783c0,0 -3.283,-1.367 -3.501,-1.948" /><path
           id="path89"
           style="fill:none;stroke:#08366b;stroke-width:0.08px;"
           d="M76.676,11.951c0,0 -33.173,-2.025 -69.829,-3.11" /><path
           id="path91"
           style="fill:none;stroke:#000;stroke-width:0.08px;"
           d="M61.526,8.028c0,0 16.943,1.627 19.006,3.865c0,0 0.581,0.407 1.017,0.174" /></g></g></g><defs
     id="defs197"><linearGradient
       gradientTransform="matrix(0,5.39195,-5.39195,0,16.52,1.57629)"
       gradientUnits="userSpaceOnUse"
       y2="0"
       x2="1"
       y1="0"
       x1="0"
       id="_Linear1"><stop
         id="stop98"
         style="stop-color:#f2f3ff;stop-opacity:1"
         offset="0%" /><stop
         id="stop100"
         style="stop-color:#edf4ff;stop-opacity:1"
         offset="100%" /></linearGradient><linearGradient
       gradientTransform="matrix(0,-6.78014,6.78014,0,54.8651,8.50041)"
       gradientUnits="userSpaceOnUse"
       y2="0"
       x2="1"
       y1="0"
       x1="0"
       id="_Linear2"><stop
         id="stop103"
         style="stop-color:#f2f3ff;stop-opacity:1"
         offset="0%" /><stop
         id="stop105"
         style="stop-color:#edf4ff;stop-opacity:1"
         offset="100%" /></linearGradient><linearGradient
       gradientTransform="matrix(0,-1.3668,1.3668,0,2.28495,19.7982)"
       gradientUnits="userSpaceOnUse"
       y2="0"
       x2="1"
       y1="0"
       x1="0"
       id="_Linear3"><stop
         id="stop108"
         style="stop-color:#919396;stop-opacity:1"
         offset="0%" /><stop
         id="stop110"
         style="stop-color:#939598;stop-opacity:1"
         offset="40%" /><stop
         id="stop112"
         style="stop-color:#c7c8ca;stop-opacity:1"
         offset="65%" /><stop
         id="stop114"
         style="stop-color:#c7c8ca;stop-opacity:1"
         offset="100%" /></linearGradient><linearGradient
       gradientTransform="matrix(0,-0.711572,0.711572,0,60.8791,8.41498)"
       gradientUnits="userSpaceOnUse"
       y2="0"
       x2="1"
       y1="0"
       x1="0"
       id="_Linear4"><stop
         id="stop117"
         style="stop-color:#231f20;stop-opacity:1"
         offset="0%" /><stop
         id="stop119"
         style="stop-color:#595a5c;stop-opacity:1"
         offset="100%" /></linearGradient><linearGradient
       gradientTransform="matrix(0,-3.1591,3.1591,0,2.76433,20.1473)"
       gradientUnits="userSpaceOnUse"
       y2="0"
       x2="1"
       y1="0"
       x1="0"
       id="_Linear5"><stop
         id="stop122"
         style="stop-color:#231f20;stop-opacity:1"
         offset="0%" /><stop
         id="stop124"
         style="stop-color:#595a5c;stop-opacity:1"
         offset="100%" /></linearGradient><linearGradient
       gradientTransform="matrix(0,21.5809,-21.5809,0,41.7963,0.10007)"
       gradientUnits="userSpaceOnUse"
       y2="0"
       x2="1"
       y1="0"
       x1="0"
       id="_Linear6"><stop
         id="stop127"
         style="stop-color:#3b6dad;stop-opacity:1"
         offset="0%" /><stop
         id="stop129"
         style="stop-color:#123b70;stop-opacity:1"
         offset="100%" /></linearGradient><linearGradient
       gradientTransform="matrix(0,-7.63539,7.63539,0,36.6771,8.54477)"
       gradientUnits="userSpaceOnUse"
       y2="0"
       x2="1"
       y1="0"
       x1="0"
       id="_Linear8"><stop
         id="stop132"
         style="stop-color:#231f20;stop-opacity:1"
         offset="0%" /><stop
         id="stop134"
         style="stop-color:#3e3e3f;stop-opacity:1"
         offset="100%" /></linearGradient><linearGradient
       gradientTransform="matrix(0,-6.46678,6.46678,0,48.4958,8.26153)"
       gradientUnits="userSpaceOnUse"
       y2="0"
       x2="1"
       y1="0"
       x1="0"
       id="_Linear9"><stop
         id="stop137"
         style="stop-color:#f2f3ff;stop-opacity:1"
         offset="0%" /><stop
         id="stop139"
         style="stop-color:#edf4ff;stop-opacity:1"
         offset="100%" /></linearGradient><linearGradient
       gradientTransform="matrix(0,-5.94248,5.94248,0,31.108,7.51165)"
       gradientUnits="userSpaceOnUse"
       y2="0"
       x2="1"
       y1="0"
       x1="0"
       id="_Linear10"><stop
         id="stop142"
         style="stop-color:#f2f3ff;stop-opacity:1"
         offset="0%" /><stop
         id="stop144"
         style="stop-color:#edf4ff;stop-opacity:1"
         offset="100%" /></linearGradient><linearGradient
       gradientTransform="matrix(0,-4.22609,4.22609,0,20.4814,6.99572)"
       gradientUnits="userSpaceOnUse"
       y2="0"
       x2="1"
       y1="0"
       x1="0"
       id="_Linear11"><stop
         id="stop147"
         style="stop-color:#f2f3ff;stop-opacity:1"
         offset="0%" /><stop
         id="stop149"
         style="stop-color:#edf4ff;stop-opacity:1"
         offset="100%" /></linearGradient><radialGradient
       gradientTransform="matrix(4.07377,0,0,4.07377,18.7238,19.4904)"
       gradientUnits="userSpaceOnUse"
       r="1"
       cy="0"
       cx="0"
       id="_Radial12"><stop
         id="stop152"
         style="stop-color:#8a8c8e;stop-opacity:1"
         offset="0%" /><stop
         id="stop154"
         style="stop-color:#6b6c6f;stop-opacity:1"
         offset="84%" /><stop
         id="stop156"
         style="stop-color:#4d4d4f;stop-opacity:1"
         offset="96%" /><stop
         id="stop158"
         style="stop-color:#4d4d4f;stop-opacity:1"
         offset="100%" /></radialGradient><radialGradient
       gradientTransform="matrix(4.05305,0,0,4.05305,69.2282,19.3669)"
       gradientUnits="userSpaceOnUse"
       r="1"
       cy="0"
       cx="0"
       id="_Radial13"><stop
         id="stop161"
         style="stop-color:#8a8c8e;stop-opacity:1"
         offset="0%" /><stop
         id="stop163"
         style="stop-color:#6b6c6f;stop-opacity:1"
         offset="84%" /><stop
         id="stop165"
         style="stop-color:#4d4d4f;stop-opacity:1"
         offset="96%" /><stop
         id="stop167"
         style="stop-color:#4d4d4f;stop-opacity:1"
         offset="100%" /></radialGradient><linearGradient
       gradientTransform="matrix(5.29943,0,0,5.29943,76.725,13.1038)"
       gradientUnits="userSpaceOnUse"
       y2="0"
       x2="1"
       y1="0"
       x1="0"
       id="_Linear14"><stop
         id="stop170"
         style="stop-color:#f2f3ff;stop-opacity:1"
         offset="0%" /><stop
         id="stop172"
         style="stop-color:#edf4ff;stop-opacity:1"
         offset="100%" /></linearGradient><linearGradient
       gradientTransform="matrix(4.92492,0,0,4.92492,78.5384,18.9776)"
       gradientUnits="userSpaceOnUse"
       y2="0"
       x2="1"
       y1="0"
       x1="0"
       id="_Linear15"><stop
         id="stop175"
         style="stop-color:#231f20;stop-opacity:1"
         offset="0%" /><stop
         id="stop177"
         style="stop-color:#48484a;stop-opacity:1"
         offset="100%" /></linearGradient><linearGradient
       gradientTransform="matrix(0,-1.53996,1.53996,0,44.0736,21.9189)"
       gradientUnits="userSpaceOnUse"
       y2="0"
       x2="1"
       y1="0"
       x1="0"
       id="_Linear16"><stop
         id="stop180"
         style="stop-color:#3b6dad;stop-opacity:1"
         offset="0%" /><stop
         id="stop182"
         style="stop-color:#123b70;stop-opacity:1"
         offset="100%" /></linearGradient><linearGradient
       gradientTransform="matrix(0,2.6829,-2.6829,0,55.6238,5.63001)"
       gradientUnits="userSpaceOnUse"
       y2="0"
       x2="1"
       y1="0"
       x1="0"
       id="_Linear17"><stop
         id="stop185"
         style="stop-color:#dcddde;stop-opacity:1"
         offset="0%" /><stop
         id="stop187"
         style="stop-color:#595a5c;stop-opacity:1"
         offset="25%" /><stop
         id="stop189"
         style="stop-color:#2d2a2b;stop-opacity:1"
         offset="100%" /></linearGradient><linearGradient
       gradientTransform="matrix(1.70034,0,0,1.70034,80.4299,18.8588)"
       gradientUnits="userSpaceOnUse"
       y2="0"
       x2="1"
       y1="0"
       x1="0"
       id="_Linear18"><stop
         id="stop192"
         style="stop-color:#f2f3ff;stop-opacity:1"
         offset="0%" /><stop
         id="stop194"
         style="stop-color:#edf4ff;stop-opacity:1"
         offset="100%" /></linearGradient></defs></svg>
