<?xml version="1.0" encoding="UTF-8" standalone="no"?>
<svg
   xmlns:dc="http://purl.org/dc/elements/1.1/"
   xmlns:cc="http://creativecommons.org/ns#"
   xmlns:rdf="http://www.w3.org/1999/02/22-rdf-syntax-ns#"
   xmlns:svg="http://www.w3.org/2000/svg"
   xmlns="http://www.w3.org/2000/svg"
   xmlns:sodipodi="http://sodipodi.sourceforge.net/DTD/sodipodi-0.dtd"
   xmlns:inkscape="http://www.inkscape.org/namespaces/inkscape"
   inkscape:version="1.0 (4035a4fb49, 2020-05-01)"
   sodipodi:docname="monospace.svg"
   id="svg206"
   style="clip-rule:evenodd;fill-rule:evenodd;stroke-linecap:round;stroke-linejoin:round"
   xml:space="preserve"
   version="1.1"
   viewBox="0 0 392.62775 150"
   height="150"
   width="392.62775"><metadata
     id="metadata210"><rdf:RDF><cc:Work
         rdf:about=""><dc:format>image/svg+xml</dc:format><dc:type
           rdf:resource="http://purl.org/dc/dcmitype/StillImage" /><dc:title /></cc:Work></rdf:RDF></metadata><sodipodi:namedview
     inkscape:current-layer="svg206"
     inkscape:window-maximized="1"
     inkscape:window-y="-8"
     inkscape:window-x="-8"
     inkscape:cy="63.927573"
     inkscape:cx="195.28698"
     inkscape:zoom="2"
     showgrid="false"
     id="namedview208"
     inkscape:window-height="1017"
     inkscape:window-width="1920"
     inkscape:pageshadow="2"
     inkscape:pageopacity="0"
     guidetolerance="10"
     gridtolerance="10"
     objecttolerance="10"
     borderopacity="1"
     bordercolor="#666666"
     pagecolor="#ffffff"
     inkscape:document-rotation="0"
     fit-margin-top="0"
     fit-margin-left="0"
     fit-margin-right="0"
     fit-margin-bottom="0" /><g
     id="cat_monospace"
     transform="matrix(5.9830595,0,0,5.9830595,-0.18045696,-0.17479237)"><path
       id="path2"
       style="fill:url(#_Linear1);fill-rule:nonzero"
       d="m 2.746,7.113 c 0,0.447 1.703,0.106 1.703,0.106 1.129,-1.809 6.877,-4.704 6.877,-4.704 0,0 -1.491,-0.533 -1.491,-0.555 C 4.194,4.792 2.746,7.113 2.746,7.113 Z" /><path
       id="path4"
       style="fill:#ffffff;stroke:#000000;stroke-width:0.14px"
       d="m 2.746,7.113 c 0,0 1.448,-2.321 7.089,-5.153 0,0.022 1.491,0.554 1.491,0.554 0,0 -5.748,2.896 -6.877,4.705 0,0 -1.703,0.341 -1.703,-0.106 z" /><clipPath
       id="_clip2"><path
         id="path6"
         d="m 64.614,17.693 -0.277,1.949 c 0,0 0.49,0.127 0.469,0.138 0.287,0.053 0.148,-0.138 0.148,-0.138 0,0 -0.18,-0.053 -0.074,-0.149 0.106,-0.096 0.022,-0.213 0.022,-0.213 0,0 -0.022,-0.096 0.073,-0.202 0.097,-0.107 0.022,-0.213 0.022,-0.213 0,0 -0.064,-0.118 0.021,-0.192 0.085,-0.075 0.032,-0.202 0.032,-0.202 0,0 -0.106,-0.181 0,-0.223 0.107,-0.044 0.064,-0.203 0.064,-0.203 0,0 -0.106,-0.086 0,-0.213 0.107,-0.128 -0.053,-0.277 -0.053,-0.277 z" /></clipPath><g
       id="g11"
       clip-path="url(#_clip2)"><path
         id="path9"
         style="fill:url(#_Linear3);fill-rule:nonzero"
         d="m 64.448,17.523 0.78,0.041 -0.119,2.27 -0.78,-0.041 z" /></g><path
       id="path13"
       style="fill:#333333;stroke:#000000;stroke-width:0.14px"
       d="m 65.061,17.555 c 0,0 0.16,0.149 0.053,0.277 -0.106,0.127 0,0.213 0,0.213 0,0 0.043,0.159 -0.064,0.203 -0.106,0.042 0,0.223 0,0.223 0,0 0.054,0.127 -0.032,0.202 -0.085,0.075 -0.021,0.192 -0.021,0.192 0,0 0.075,0.106 -0.022,0.213 -0.095,0.106 -0.074,0.202 -0.074,0.202 0,0 0.085,0.117 -0.021,0.213 -0.106,0.096 0.074,0.149 0.074,0.149 0,0 0.139,0.191 -0.148,0.138 0.021,-0.011 -0.469,-0.138 -0.469,-0.138 l 0.277,-1.949 z" /><path
       id="path15"
       style="fill:#333333;fill-rule:nonzero;stroke:#000000;stroke-width:0.14px"
       d="m 4.109,20.504 1.532,0.426 8.729,0.638 1.746,-0.17 0.894,-7.621 -8.516,-1.448 -5.067,2.555 z" /><path
       id="path17"
       style="fill:#333333;fill-rule:nonzero;stroke:#000000;stroke-width:0.14px"
       d="m 46.007,21.867 1.532,-0.17 8.942,0.383 1.533,-0.341 0.894,-4.94 -3.619,-3.874 -6.728,-0.298 -3.406,2.938 z" /><clipPath
       id="_clip4"><path
         id="path19"
         d="M 38.916,1.708 C 38.908,1.707 38.905,1.706 38.905,1.706 c 0.003,0.001 0.007,0.001 0.011,0.002 z m 0.001,0 h -0.001 z m 0.002,0 c -10e-4,0 -10e-4,0 -0.002,0 10e-4,0 10e-4,0 0.002,0 z m 0.012,0.002 c -0.004,0 -0.008,-10e-4 -0.012,-0.002 0.003,0.001 0.007,0.002 0.012,0.002 z M 52.81,9.344 c 0,0 1.247,-0.657 1.226,-0.677 C 43.262,2.573 39.284,1.772 38.931,1.71 41.012,2.08 52.81,9.344 52.81,9.344 Z" /></clipPath><g
       id="g24"
       clip-path="url(#_clip4)"><path
         id="path22"
         style="fill:url(#_Linear5);fill-rule:nonzero"
         d="M 38.905,1.706 53.955,1.492 54.066,9.326 39.016,9.54 Z" /></g><path
       id="path26"
       style="fill:#ffffff;stroke:#000000;stroke-width:0.14px"
       d="m 38.905,1.706 c 0,0 3.819,0.563 15.13,6.961 0.022,0.02 -1.225,0.677 -1.225,0.677 0,0 -11.899,-7.326 -13.905,-7.638 z" /><clipPath
       id="_clip6"><path
         id="path28"
         d="m 51.141,7.385 c 0,-0.025 -0.113,0.183 -0.113,0.183 0,0 0.463,0.159 0.639,0.431 -0.016,0 0.439,0.335 0.535,0.359 0.016,0.024 0.463,0 0.567,0.105 0.008,0 0.095,0.151 0,0.23 0.024,0.024 -0.184,0.16 -0.104,0.256 0.016,-0.024 1.916,-0.048 1.916,-0.048 l 0.08,-0.391 c 0,0 -0.16,-0.16 -0.351,-0.24 0,0 -0.488,-0.263 -0.839,-0.239 0.016,0 -0.231,-0.12 -0.87,-0.136 0.008,0.016 -0.543,-0.239 -0.543,-0.239 0,0 -0.174,-0.016 -0.246,-0.009 -0.006,-0.009 -0.496,-0.311 -0.496,-0.311 0,0 -0.04,-0.021 -0.083,-0.021 -0.036,0 -0.074,0.015 -0.092,0.07 z" /></clipPath><g
       id="g33"
       clip-path="url(#_clip6)"><path
         id="path31"
         style="fill:url(#_Linear7);fill-rule:nonzero"
         d="m 51.025,7.317 3.618,-0.051 0.024,1.655 -3.619,0.051 z" /></g><path
       id="path35"
       style="fill:#333333;stroke:#000000;stroke-width:0.14px"
       d="m 54.31,8.27 c 0,0 -0.488,-0.263 -0.839,-0.239 0.016,0 -0.231,-0.12 -0.87,-0.136 0.008,0.016 -0.543,-0.239 -0.543,-0.239 0,0 -0.175,-0.016 -0.248,-0.008 0.025,0.008 -0.494,-0.312 -0.494,-0.312 0,0 -0.136,-0.072 -0.176,0.049 0,-0.025 -0.111,0.183 -0.111,0.183 0,0 0.463,0.159 0.638,0.431 -0.016,0 0.439,0.335 0.535,0.359 0.016,0.024 0.463,0 0.567,0.105 0.008,0 0.096,0.151 0,0.23 0.024,0.024 -0.184,0.16 -0.104,0.256 0.016,-0.024 1.916,-0.048 1.916,-0.048 l 0.08,-0.391 c 0,0 -0.16,-0.159 -0.351,-0.24 z" /><path
       id="path37"
       style="fill:#4786b3;fill-opacity:1;fill-rule:nonzero"
       d="M 12.114,1.003 C 10.793,0.949 8.649,1.03 8.649,1.03 8.388,1.205 8.67,1.332 8.675,1.332 9.005,1.444 9.521,2.004 9.506,2.004 10.032,2.21 10.943,2.467 10.926,2.467 4.827,5.707 4.06,6.889 4.028,6.873 3.518,6.889 3.103,7.113 3.134,7.113 2.815,7.4 2.783,7.113 2.751,7.081 c -0.75,1.005 -0.91,3.832 -0.91,3.8 -0.175,1.326 -0.383,1.437 -0.383,1.437 -0.575,0.671 -0.463,0.655 -0.495,0.687 -0.192,1.341 -0.154,2.719 -0.154,2.719 l 0.053,0.011 c 0,0 0.032,0.447 0.011,0.447 -0.448,0.064 -0.682,0.447 -0.703,0.49 -0.17,0.702 0.021,1.149 0.043,1.149 0.489,1.746 1.404,2.278 1.404,2.278 1.235,0.745 2.811,0.65 2.779,0.65 -0.18,-6.768 5.117,-6.768 5.751,-6.768 0.041,0 0.063,0 0.061,-0.002 6.425,0.601 5.667,7.57 5.653,7.632 10.218,-0.256 28.07,0.32 28.006,0.32 1.884,0.128 2.363,0.063 2.363,0.031 -0.351,-8.079 5.844,-7.664 5.813,-7.728 6.45,0.287 5.604,7.856 5.604,7.856 3.257,-0.191 2.73,-0.159 2.73,-0.176 3.704,-0.08 4.269,-0.654 4.269,-0.654 0.755,-0.394 0.639,-1.32 0.67,-1.31 -0.021,-0.074 -0.223,-0.148 -0.223,-0.159 -0.051,0.086 -0.111,0.071 -0.141,0.055 -0.015,-0.008 -0.022,-0.016 -0.019,-0.012 -0.436,-0.16 -0.192,-0.863 -0.192,-0.884 0.192,-0.575 0.352,-1.427 0.352,-1.416 0.372,-0.181 0.5,-0.511 0.49,-0.511 -0.011,-1.054 -0.118,-1.405 -0.128,-1.405 -0.043,-0.117 -0.267,-0.149 -0.267,-0.16 C 64.997,15.246 65.029,14.67 65.029,14.67 65.136,14.543 64.816,14.043 64.784,14.011 63.89,10.306 54.097,8.199 54.097,8.22 c 0.638,0.256 0.298,0.489 0.298,0.468 -0.404,0 -1.15,0.149 -1.15,0.149 C 53.181,8.709 52.713,8.709 52.777,8.645 40.854,1.13 37.533,1.354 35.728,0.897 32.745,0.302 29.245,0.1 25.864,0.1 c -7.146,0 -13.75,0.903 -13.75,0.903 z m 3.746,20.608 c 0,10e-4 0.001,10e-4 0.001,0 z" /><g
       id="g106"><path
         id="path39"
         style="fill:none;stroke:#000000;stroke-width:0.14px"
         d="m 8.649,1.03 c 0,0 2.144,-0.081 3.465,-0.027 0,0 14.327,-1.959 23.614,-0.106 1.805,0.457 5.126,0.233 17.049,7.748 -0.064,0.065 0.405,0.065 0.468,0.192 0,0 0.745,-0.149 1.15,-0.149 0,0.022 0.34,-0.212 -0.298,-0.468 0,-0.021 9.793,2.086 10.687,5.791 0.032,0.032 0.351,0.532 0.245,0.659 0,0 -0.032,0.575 0.16,0.788 0,0.011 0.223,0.043 0.266,0.16 0.01,0 0.117,0.351 0.128,1.405 0.01,0 -0.118,0.33 -0.49,0.511 0,-0.011 -0.16,0.841 -0.352,1.416 0,0.022 -0.245,0.724 0.192,0.884 -0.011,-0.011 0.085,0.084 0.16,-0.043 0,0.011 0.202,0.085 0.223,0.159 -0.032,-0.01 0.085,0.916 -0.671,1.31 0,0 -0.563,0.574 -4.268,0.654 0,0.017 0.527,-0.016 -2.73,0.176 0,0 0.846,-7.569 -5.605,-7.856 0.032,0.064 -6.163,-0.351 -5.812,7.728 0,0.032 -0.479,0.097 -2.363,-0.031 0.064,0 -17.788,-0.576 -28.006,-0.32 0,0.064 0.83,-7.025 -5.653,-7.632 0.032,0.032 -6.004,-0.447 -5.812,6.77 0.032,0 -1.544,0.095 -2.779,-0.65 0,0 -0.915,-0.532 -1.404,-2.278 -0.022,0 -0.213,-0.447 -0.043,-1.149 0.021,-0.043 0.255,-0.426 0.703,-0.49 0.021,0 -0.011,-0.447 -0.011,-0.447 L 0.809,15.724 c 0,0 -0.038,-1.378 0.154,-2.719 0.032,-0.032 -0.08,-0.016 0.495,-0.687 0,0 0.208,-0.111 0.383,-1.437 0,0.032 0.16,-2.794 0.91,-3.8 0.032,0.032 0.064,0.319 0.384,0.032 -0.032,0 0.383,-0.224 0.893,-0.24 0.033,0.016 0.799,-1.165 6.898,-4.406 0.016,0 -0.894,-0.257 -1.421,-0.463 0.016,0 -0.5,-0.56 -0.83,-0.671 C 8.67,1.333 8.388,1.205 8.649,1.03 Z" /><path
         id="path41"
         style="fill:#333333;fill-rule:nonzero"
         d="m 11.278,2.291 c 0,0 -4.285,1.905 -7.265,4.63 0.021,0.022 5.163,0.533 5.099,1.022 0,0.043 4.215,0.234 4.577,0.298 0,0.022 8.622,0.436 9.261,0.564 0.351,0.054 1.821,0.277 3.96,-0.074 0.077,0.014 0.22,-0.006 0.472,-0.026 0.307,-0.025 0.774,-0.05 1.476,-0.012 0.032,0 11.912,0.847 15.807,1.198 0.033,0.033 1.704,0.139 2.108,0.202 0,0.022 1.128,0.235 2.299,-0.085 -0.021,-0.021 1.704,-0.468 2.811,-0.915 0,0 -7.473,-5.653 -15.042,-7.185 0,0.02 -1.163,-0.252 -3.236,-0.525 -1.999,-0.264 -4.844,-0.527 -8.309,-0.527 -3.972,0 -8.758,0.346 -14.018,1.435 z" /><path
         id="path43"
         style="fill:none;stroke:#000000;stroke-width:0.14px"
         d="m 51.883,9.093 c 0,0 -7.473,-5.653 -15.041,-7.185 0,0.063 -10.96,-2.641 -25.564,0.383 0,0 -4.285,1.905 -7.265,4.63 0.021,0.022 5.163,0.533 5.099,1.022 0,0.043 4.215,0.234 4.577,0.298 0,0.022 8.622,0.436 9.261,0.564 0.351,0.054 1.821,0.277 3.96,-0.074 0.17,0.032 0.67,-0.106 1.948,-0.037 0.032,0 11.912,0.846 15.807,1.197 0.033,0.033 1.704,0.139 2.108,0.202 0,0.022 1.128,0.235 2.299,-0.085 -0.021,-0.021 1.704,-0.468 2.811,-0.915 z" /><path
         id="path45"
         style="fill:#ffffff;fill-rule:nonzero"
         d="m 17.35,1.896 c -0.305,0.461 -1.34,2.364 -1.34,2.364 0,0 0.234,3.853 0.234,3.811 1.895,0.149 6.748,0.469 6.748,0.447 1.959,0.277 3.045,0.042 3.045,0.042 0.575,-0.105 1.661,-0.191 1.661,-0.191 0,0 -0.618,-6.919 -0.639,-6.941 C 26.423,1.385 25.748,1.366 25.062,1.366 21.365,1.367 17.35,1.896 17.35,1.896 Z" /><path
         id="path47"
         style="fill:#ffffff;fill-rule:nonzero"
         d="m 30.343,8.502 c 1.437,0.016 8.59,0.607 8.59,0.607 1.373,0.159 4.056,0.383 4.024,0.367 C 41.791,7.193 36.538,2.338 36.506,2.322 34.143,1.668 29.113,1.444 29.113,1.444 c 0.112,0.512 1.23,7.042 1.23,7.058 z" /><path
         id="path49"
         style="fill:#ffffff;fill-rule:nonzero"
         d="m 44.091,9.54 c 0.766,0.149 2.916,0.277 2.937,0.319 1.384,0.171 2.332,-0.223 2.3,-0.223 C 50.509,9.221 51.276,9.029 51.276,8.997 42.238,3.089 37.427,2.418 37.427,2.418 38.662,3.132 44.091,9.54 44.091,9.54 Z" /><path
         id="path51"
         style="fill:#ffffff;fill-rule:nonzero"
         d="m 13.05,2.663 c -1,0.235 -1.299,0.469 -1.32,0.469 C 9.24,4.431 7.153,6.24 7.153,6.24 6.727,6.73 7.345,6.815 7.345,6.815 c 0.766,0.383 4.662,0.638 4.662,0.617 0.511,0 0.83,-0.404 0.809,-0.426 C 13.625,5.41 15.35,2.939 15.328,2.939 15.561,2.385 14.936,2.387 14.731,2.39 c -0.039,0 -0.063,0 -0.063,-0.003 -1.043,0.17 -1.639,0.276 -1.618,0.276 z" /><path
         id="path53"
         style="fill-rule:nonzero"
         d="m 5.324,19.805 c 0,-2.613 2.119,-4.733 4.734,-4.733 2.614,0 4.733,2.12 4.733,4.733 0,2.615 -2.119,4.734 -4.733,4.734 -2.615,0 -4.734,-2.119 -4.734,-4.734" /><path
         id="path55"
         style="fill-rule:nonzero"
         d="m 47.064,20.136 c 0,-2.742 2.223,-4.964 4.964,-4.964 2.742,0 4.965,2.222 4.965,4.964 0,2.742 -2.223,4.964 -4.965,4.964 -2.741,0 -4.964,-2.222 -4.964,-4.964" /><path
         id="path57"
         style="fill:#ffffff;fill-rule:nonzero"
         d="m 6.621,19.805 c 0,1.899 1.538,3.438 3.437,3.438 1.899,0 3.437,-1.539 3.437,-3.438 0,-1.897 -1.538,-3.437 -3.437,-3.437 -1.899,0 -3.437,1.54 -3.437,3.437 z" /><path
         id="path59"
         style="fill:none;stroke:#b9b9b9;stroke-width:0.07px"
         d="m 6.62,19.805 c 0,-1.898 1.539,-3.437 3.438,-3.437 1.899,0 3.437,1.539 3.437,3.437 0,1.899 -1.538,3.438 -3.437,3.438 -1.899,0 -3.438,-1.539 -3.438,-3.438 z" /><path
         id="path61"
         style="fill:#ffffff;fill-rule:nonzero"
         d="m 48.399,20.136 c 0,1.991 1.614,3.604 3.605,3.604 1.99,0 3.605,-1.613 3.605,-3.604 0,-1.991 -1.615,-3.605 -3.605,-3.605 -1.991,0 -3.605,1.614 -3.605,3.605 z" /><path
         id="path63"
         style="fill:none;stroke:#b9b9b9;stroke-width:0.07px"
         d="m 48.399,20.136 c 0,-1.991 1.614,-3.605 3.605,-3.605 1.991,0 3.605,1.614 3.605,3.605 0,1.991 -1.614,3.604 -3.605,3.604 -1.991,0 -3.605,-1.613 -3.605,-3.604 z" /><path
         id="path65"
         style="fill:#f46154;fill-rule:nonzero;stroke:#000000;stroke-width:0.07px"
         d="m 2.98,7.24 c 0,0 0.277,-0.467 1.725,-0.319 C 4.726,6.943 5.386,6.943 8.75,7.666 8.813,7.692 9.325,7.837 9.048,8.05 9.007,8.095 8.26,8.603 7.919,8.773 7.781,8.839 7.664,9.072 6.302,9.072 6.274,9.087 5.237,9.029 4.79,9.561 4.769,9.604 4.279,10.051 4.13,10.306 4.109,10.328 4.055,10.562 3.587,10.53 3.598,10.54 2.842,10.455 2.607,10.455 2.584,10.45 2.352,10.477 2.363,10.126 2.363,10.126 2.32,9.647 2.31,9.508 2.31,9.497 2.065,8.922 2.98,7.24 Z" /><clipPath
         id="_clip16"><path
           id="path67"
           d="m 17.5,14.559 0.463,0.851 c 0.058,0.091 0.154,0.091 0.154,0.091 2.15,0 25.263,1.144 25.263,1.136 0.231,0.017 0.104,-0.168 0.088,-0.199 -0.319,-0.671 -1.07,-0.735 -1.07,-0.735 L 17.76,14.315 c -0.036,-0.006 -0.067,-0.009 -0.095,-0.009 -0.266,0 -0.165,0.253 -0.165,0.253 z" /></clipPath><g
         id="g72"
         clip-path="url(#_clip16)"><path
           id="path70"
           style="fill:url(#_Linear17);fill-rule:nonzero"
           d="M 43.663,15.667 43.601,16.842 17.339,15.465 17.4,14.291 Z" /></g><path
         id="path74"
         style="fill:#4786b3;fill-opacity:1;stroke:#000000;stroke-width:0.07px"
         d="m 17.76,14.315 24.638,1.388 c 0,0 0.751,0.064 1.07,0.735 0.016,0.031 0.143,0.215 -0.088,0.199 0,0.008 -23.112,-1.136 -25.263,-1.136 0,0 -0.096,0 -0.154,-0.091 L 17.5,14.559 c 0,0 -0.123,-0.308 0.26,-0.244 z" /><path
         id="path76"
         style="fill:#ffffff;fill-rule:nonzero"
         d="m 56.103,10.471 c 0.043,-0.021 2.411,1.571 3.252,2.901 0,0 4.258,0.66 4.663,0.554 0,0 -0.128,-2.065 -5.216,-3.535 0,-0.026 -0.853,-0.209 -1.615,-0.209 -0.47,0 -0.905,0.07 -1.084,0.289 z" /><path
         id="path78"
         style="fill:none;stroke:#000000;stroke-width:0.07px"
         d="m 59.355,13.372 c 0,0 4.258,0.66 4.663,0.554 0,0 -0.128,-2.065 -5.216,-3.535 0,-0.042 -2.231,-0.494 -2.699,0.08 0.043,-0.021 2.411,1.571 3.252,2.901 z" /><path
         id="path80"
         style="fill:url(#_Linear19);fill-rule:nonzero"
         d="m 60.186,15.496 c 3.481,0.175 4.551,0.143 4.551,0.127 -0.368,-0.83 -1.198,-0.877 -1.198,-0.877 -1.757,-0.272 -3.587,-0.321 -3.587,-0.321 0.244,0.592 0.234,1.055 0.234,1.071 z" /><path
         id="path82"
         style="fill:#333333;stroke:#000000;stroke-width:0.07px"
         d="m 59.952,14.425 c 0,0 1.83,0.049 3.587,0.321 0,0 0.83,0.047 1.197,0.877 0,0.016 -1.069,0.048 -4.55,-0.127 0,-0.016 0.01,-0.479 -0.234,-1.071 z" /><path
         id="path84"
         style="fill:#333333;fill-rule:nonzero"
         d="m 60.473,17.555 c -0.053,0.511 -0.564,2.491 -0.586,2.502 -0.021,0.245 0.149,0.224 0.128,0.212 1.022,0.012 2.352,-0.074 2.352,-0.074 0.586,-0.01 0.949,-0.489 0.938,-0.5 0.564,-0.798 1.107,-2.15 1.096,-2.161 -0.32,0.032 -3.928,0.021 -3.928,0.021 z" /><path
         id="path86"
         style="fill:none;stroke:#000000;stroke-width:0.07px"
         d="m 60.473,17.555 c 0,0 3.609,0.011 3.928,-0.021 0.011,0.01 -0.532,1.363 -1.096,2.161 0.011,0.011 -0.352,0.49 -0.938,0.5 0,0 -1.33,0.085 -2.352,0.075 0.021,0.01 -0.149,0.032 -0.127,-0.213 0.021,-0.011 0.532,-1.991 0.585,-2.502 z" /><path
         id="path88"
         style="fill:none;stroke:#000000;stroke-width:0.07px"
         d="m 13.689,8.241 c 0,0 -0.553,1.107 0.086,2.214 0.041,0.043 3.448,6.686 4.683,8.687 0.085,0 0.17,0.893 1.788,0.936 0.043,0.043 16.564,0.384 23.589,0.511 0.128,0 0.894,0.085 1.065,-0.724 0,0.085 1.138,-6.749 -0.267,-9.984" /><path
         id="path90"
         style="fill:none;stroke:#000000;stroke-width:0.07px"
         d="m 28.858,8.693 c 0,0 0.798,1.826 0.904,6.298 0,-0.022 -0.169,0.723 0.107,1.02 l -0.085,2.641 c 0,0 0,1.32 -0.063,1.617" /><path
         id="path92"
         style="fill:none;stroke:#000000;stroke-width:0.07px"
         d="m 11.278,2.291 c 0,0 0.888,-0.671 0.836,-1.288" /><path
         id="path94"
         style="fill:none;stroke:#000000;stroke-width:0.07px"
         d="m 4.055,10.424 c 0,0 0.572,1.804 0.671,2.033 0.043,0.106 0.107,0.447 0.638,0.851 0.043,0.043 1.576,0.958 2.129,1.235" /><path
         id="path96"
         style="fill:none;stroke:#000000;stroke-width:0.07px"
         d="m 1.575,12.158 c 0,0 0.319,0.362 1.299,0.49 -0.022,0 1.022,0.213 0.83,1.405 -0.021,0.064 -0.872,2.895 -1.128,3.833 0.021,0.042 0.021,0.467 -0.618,0.426 0.043,0 -1.618,-0.043 -1.639,-0.15" /><path
         id="path98"
         style="fill:#333333;fill-rule:nonzero"
         d="m 41.248,7.28 c -0.83,0.432 -0.423,2.196 -0.415,2.188 0.056,0.376 0.359,0.336 0.344,0.327 0.494,0 0.91,0.176 0.91,0.176 0,0 -0.408,0.679 -0.416,0.671 -0.087,0.151 0.057,0.207 0.048,0.207 0.168,0.287 1.86,0.352 1.86,0.343 0.2,0 0.296,-0.143 0.296,-0.143 0.168,-0.288 0.175,-0.575 0.175,-0.567 C 44.083,10.107 44.043,9.388 44.043,9.396 43.803,7.695 42.182,7.169 42.167,7.169 42.119,7.167 42.072,7.166 42.027,7.166 c -0.496,0 -0.779,0.114 -0.779,0.114 z" /><path
         id="path100"
         style="fill:none;stroke:#000000;stroke-width:0.07px"
         d="m 41.249,7.28 c 0,0 0.335,-0.135 0.918,-0.111 0.015,0 1.636,0.526 1.876,2.227 0,-0.008 0.039,0.711 0.008,1.086 0,-0.008 -0.008,0.279 -0.176,0.567 0,0 -0.096,0.143 -0.295,0.143 0,0.009 -1.693,-0.056 -1.861,-0.343 0.009,0 -0.135,-0.055 -0.048,-0.208 0.008,0.009 0.416,-0.67 0.416,-0.67 0,0 -0.416,-0.176 -0.91,-0.176 0.015,0.009 -0.288,0.048 -0.344,-0.326 -0.008,0.007 -0.415,-1.757 0.416,-2.189 z" /><path
         id="path102"
         style="fill:none;stroke:#000000;stroke-width:0.07px"
         d="m 53,8.742 c 0,0 7.037,3.119 7.185,6.769 0.011,0.117 0.16,0.735 0.288,2.044" /><path
         id="path104"
         style="fill:none;stroke:#000000;stroke-width:0.07px"
         d="m 55.731,15.688 c 0,0 0.559,-0.24 1.101,-0.24 -0.015,0 2.196,0.048 3.362,0.12" /></g></g><defs
     id="defs204"><linearGradient
       gradientTransform="matrix(0,5.38358,-5.38358,0,7.03588,1.9601)"
       gradientUnits="userSpaceOnUse"
       y2="0"
       x2="1"
       y1="0"
       x1="0"
       id="_Linear1"><stop
         id="stop109"
         style="stop-color:#f2f3ff;stop-opacity:1"
         offset="0%" /><stop
         id="stop111"
         style="stop-color:#edf4ff;stop-opacity:1"
         offset="100%" /></linearGradient><linearGradient
       gradientTransform="matrix(0.711807,0.0373042,-0.0373042,0.711807,64.3895,18.6417)"
       gradientUnits="userSpaceOnUse"
       y2="0"
       x2="1"
       y1="0"
       x1="0"
       id="_Linear3"><stop
         id="stop114"
         style="stop-color:#231f20;stop-opacity:1"
         offset="0%" /><stop
         id="stop116"
         style="stop-color:#595a5c;stop-opacity:1"
         offset="100%" /></linearGradient><linearGradient
       gradientTransform="matrix(15.0294,-0.213439,0.213439,15.0294,38.9602,5.62278)"
       gradientUnits="userSpaceOnUse"
       y2="0"
       x2="1"
       y1="0"
       x1="0"
       id="_Linear5"><stop
         id="stop119"
         style="stop-color:#f2f3ff;stop-opacity:1"
         offset="0%" /><stop
         id="stop121"
         style="stop-color:#edf4ff;stop-opacity:1"
         offset="100%" /></linearGradient><linearGradient
       gradientTransform="matrix(3.61813,-0.0513645,0.0513645,3.61813,51.0367,8.14487)"
       gradientUnits="userSpaceOnUse"
       y2="0"
       x2="1"
       y1="0"
       x1="0"
       id="_Linear7"><stop
         id="stop124"
         style="stop-color:#231f20;stop-opacity:1"
         offset="0%" /><stop
         id="stop126"
         style="stop-color:#414042;stop-opacity:1"
         offset="100%" /></linearGradient><linearGradient
       gradientTransform="matrix(-0.0612456,1.16864,-1.16864,-0.0612456,30.527,14.9797)"
       gradientUnits="userSpaceOnUse"
       y2="0"
       x2="1"
       y1="0"
       x1="0"
       id="_Linear17"><stop
         id="stop177"
         style="stop-color:#25538c;stop-opacity:1"
         offset="0%" /><stop
         id="stop179"
         style="stop-color:#123b70;stop-opacity:1"
         offset="100%" /></linearGradient><linearGradient
       gradientTransform="matrix(4.78472,0,0,4.78472,59.9516,15.0309)"
       gradientUnits="userSpaceOnUse"
       y2="0"
       x2="1"
       y1="0"
       x1="0"
       id="_Linear19"><stop
         id="stop187"
         style="stop-color:#231f20;stop-opacity:1"
         offset="0%" /><stop
         id="stop189"
         style="stop-color:#595a5c;stop-opacity:1"
         offset="100%" /></linearGradient></defs></svg>
