<?xml version="1.0" encoding="UTF-8" standalone="no"?>
<svg
   xmlns:dc="http://purl.org/dc/elements/1.1/"
   xmlns:cc="http://creativecommons.org/ns#"
   xmlns:rdf="http://www.w3.org/1999/02/22-rdf-syntax-ns#"
   xmlns:svg="http://www.w3.org/2000/svg"
   xmlns="http://www.w3.org/2000/svg"
   xmlns:sodipodi="http://sodipodi.sourceforge.net/DTD/sodipodi-0.dtd"
   xmlns:inkscape="http://www.inkscape.org/namespaces/inkscape"
   inkscape:version="1.0 (4035a4fb49, 2020-05-01)"
   sodipodi:docname="voiture--monospace.svg"
   id="svg206"
   style="fill-rule:evenodd;clip-rule:evenodd;stroke-linecap:round;stroke-linejoin:round;"
   xml:space="preserve"
   version="1.1"
   viewBox="0 0 66 26"
   height="100%"
   width="100%"><metadata
     id="metadata210"><rdf:RDF><cc:Work
         rdf:about=""><dc:format>image/svg+xml</dc:format><dc:type
           rdf:resource="http://purl.org/dc/dcmitype/StillImage" /></cc:Work></rdf:RDF></metadata><sodipodi:namedview
     inkscape:current-layer="svg206"
     inkscape:window-maximized="1"
     inkscape:window-y="-8"
     inkscape:window-x="-8"
     inkscape:cy="11.781216"
     inkscape:cx="29.205092"
     inkscape:zoom="16"
     showgrid="false"
     id="namedview208"
     inkscape:window-height="1017"
     inkscape:window-width="1920"
     inkscape:pageshadow="2"
     inkscape:pageopacity="0"
     guidetolerance="10"
     gridtolerance="10"
     objecttolerance="10"
     borderopacity="1"
     bordercolor="#666666"
     pagecolor="#ffffff" /><g
     id="cat_monospace"><path
       id="path2"
       style="fill:url(#_Linear1);fill-rule:nonzero;"
       d="M2.746,7.113c0,0.447 1.703,0.106 1.703,0.106c1.129,-1.809 6.877,-4.704 6.877,-4.704c0,0 -1.491,-0.533 -1.491,-0.555c-5.641,2.832 -7.089,5.153 -7.089,5.153Z" /><path
       id="path4"
       style="fill:#ffffff;stroke:#000;stroke-width:0.14px"
       d="M2.746,7.113c0,0 1.448,-2.321 7.089,-5.153c0,0.022 1.491,0.554 1.491,0.554c0,0 -5.748,2.896 -6.877,4.705c0,0 -1.703,0.341 -1.703,-0.106Z" /><clipPath
       id="_clip2"><path
         id="path6"
         d="M64.614,17.693l-0.277,1.949c0,0 0.49,0.127 0.469,0.138c0.287,0.053 0.148,-0.138 0.148,-0.138c0,0 -0.18,-0.053 -0.074,-0.149c0.106,-0.096 0.022,-0.213 0.022,-0.213c0,0 -0.022,-0.096 0.073,-0.202c0.097,-0.107 0.022,-0.213 0.022,-0.213c0,0 -0.064,-0.118 0.021,-0.192c0.085,-0.075 0.032,-0.202 0.032,-0.202c0,0 -0.106,-0.181 0,-0.223c0.107,-0.044 0.064,-0.203 0.064,-0.203c0,0 -0.106,-0.086 0,-0.213c0.107,-0.128 -0.053,-0.277 -0.053,-0.277l-0.447,0.138Z" /></clipPath><g
       id="g11"
       clip-path="url(#_clip2)"><path
         id="path9"
         style="fill:url(#_Linear3);fill-rule:nonzero;"
         d="M64.448,17.523l0.78,0.041l-0.119,2.27l-0.78,-0.041l0.119,-2.27Z" /></g><path
       id="path13"
       style="fill:#333333;stroke:#000;stroke-width:0.14px"
       d="M65.061,17.555c0,0 0.16,0.149 0.053,0.277c-0.106,0.127 0,0.213 0,0.213c0,0 0.043,0.159 -0.064,0.203c-0.106,0.042 0,0.223 0,0.223c0,0 0.054,0.127 -0.032,0.202c-0.085,0.075 -0.021,0.192 -0.021,0.192c0,0 0.075,0.106 -0.022,0.213c-0.095,0.106 -0.074,0.202 -0.074,0.202c0,0 0.085,0.117 -0.021,0.213c-0.106,0.096 0.074,0.149 0.074,0.149c0,0 0.139,0.191 -0.148,0.138c0.021,-0.011 -0.469,-0.138 -0.469,-0.138l0.277,-1.949l0.447,-0.138Z" /><path
       id="path15"
       style="fill:#333333;fill-rule:nonzero;stroke:#000;stroke-width:0.14px"
       d="M4.109,20.504l1.532,0.426l8.729,0.638l1.746,-0.17l0.894,-7.621l-8.516,-1.448l-5.067,2.555l0.682,5.62Z" /><path
       id="path17"
       style="fill:#333333;fill-rule:nonzero;stroke:#000;stroke-width:0.14px"
       d="M46.007,21.867l1.532,-0.17l8.942,0.383l1.533,-0.341l0.894,-4.94l-3.619,-3.874l-6.728,-0.298l-3.406,2.938l0.852,6.302Z" /><clipPath
       id="_clip4"><path
         id="path19"
         d="M38.916,1.708c-0.008,-0.001 -0.011,-0.002 -0.011,-0.002c0.003,0.001 0.007,0.001 0.011,0.002Zm0.001,0l-0.001,0l0.001,0Zm0.002,0c-0.001,0 -0.001,0 -0.002,0c0.001,0 0.001,0 0.002,0Zm0.012,0.002c-0.004,0 -0.008,-0.001 -0.012,-0.002c0.003,0.001 0.007,0.002 0.012,0.002Zm13.879,7.634c0,0 1.247,-0.657 1.226,-0.677c-10.774,-6.094 -14.752,-6.895 -15.105,-6.957c2.081,0.37 13.879,7.634 13.879,7.634Z" /></clipPath><g
       id="g24"
       clip-path="url(#_clip4)"><path
         id="path22"
         style="fill:url(#_Linear5);fill-rule:nonzero;"
         d="M38.905,1.706l15.05,-0.214l0.111,7.834l-15.05,0.214l-0.111,-7.834Z" /></g><path
       id="path26"
       style="fill:#ffffff;stroke:#000;stroke-width:0.14px"
       d="M38.905,1.706c0,0 3.819,0.563 15.13,6.961c0.022,0.02 -1.225,0.677 -1.225,0.677c0,0 -11.899,-7.326 -13.905,-7.638Z" /><clipPath
       id="_clip6"><path
         id="path28"
         d="M51.141,7.385c0,-0.025 -0.113,0.183 -0.113,0.183c0,0 0.463,0.159 0.639,0.431c-0.016,0 0.439,0.335 0.535,0.359c0.016,0.024 0.463,0 0.567,0.105c0.008,0 0.095,0.151 0,0.23c0.024,0.024 -0.184,0.16 -0.104,0.256c0.016,-0.024 1.916,-0.048 1.916,-0.048l0.08,-0.391c0,0 -0.16,-0.16 -0.351,-0.24c0,0 -0.488,-0.263 -0.839,-0.239c0.016,0 -0.231,-0.12 -0.87,-0.136c0.008,0.016 -0.543,-0.239 -0.543,-0.239c0,0 -0.174,-0.016 -0.246,-0.009c-0.006,-0.009 -0.496,-0.311 -0.496,-0.311c0,0 -0.04,-0.021 -0.083,-0.021c-0.036,0 -0.074,0.015 -0.092,0.07Z" /></clipPath><g
       id="g33"
       clip-path="url(#_clip6)"><path
         id="path31"
         style="fill:url(#_Linear7);fill-rule:nonzero;"
         d="M51.025,7.317l3.618,-0.051l0.024,1.655l-3.619,0.051l-0.023,-1.655Z" /></g><path
       id="path35"
       style="fill:#333333;stroke:#000;stroke-width:0.14px"
       d="M54.31,8.27c0,0 -0.488,-0.263 -0.839,-0.239c0.016,0 -0.231,-0.12 -0.87,-0.136c0.008,0.016 -0.543,-0.239 -0.543,-0.239c0,0 -0.175,-0.016 -0.248,-0.008c0.025,0.008 -0.494,-0.312 -0.494,-0.312c0,0 -0.136,-0.072 -0.176,0.049c0,-0.025 -0.111,0.183 -0.111,0.183c0,0 0.463,0.159 0.638,0.431c-0.016,0 0.439,0.335 0.535,0.359c0.016,0.024 0.463,0 0.567,0.105c0.008,0 0.096,0.151 0,0.23c0.024,0.024 -0.184,0.16 -0.104,0.256c0.016,-0.024 1.916,-0.048 1.916,-0.048l0.08,-0.391c0,0 -0.16,-0.159 -0.351,-0.24Z" /><path
       id="path37"
       style="fill:#4786b3;fill-rule:nonzero;fill-opacity:1"
       d="M12.114,1.003c-1.321,-0.054 -3.465,0.027 -3.465,0.027c-0.261,0.175 0.021,0.302 0.026,0.302c0.33,0.112 0.846,0.672 0.831,0.672c0.526,0.206 1.437,0.463 1.42,0.463c-6.099,3.24 -6.866,4.422 -6.898,4.406c-0.51,0.016 -0.925,0.24 -0.894,0.24c-0.319,0.287 -0.351,0 -0.383,-0.032c-0.75,1.005 -0.91,3.832 -0.91,3.8c-0.175,1.326 -0.383,1.437 -0.383,1.437c-0.575,0.671 -0.463,0.655 -0.495,0.687c-0.192,1.341 -0.154,2.719 -0.154,2.719l0.053,0.011c0,0 0.032,0.447 0.011,0.447c-0.448,0.064 -0.682,0.447 -0.703,0.49c-0.17,0.702 0.021,1.149 0.043,1.149c0.489,1.746 1.404,2.278 1.404,2.278c1.235,0.745 2.811,0.65 2.779,0.65c-0.18,-6.768 5.117,-6.768 5.751,-6.768c0.041,0 0.063,0 0.061,-0.002c6.425,0.601 5.667,7.57 5.653,7.632c10.218,-0.256 28.07,0.32 28.006,0.32c1.884,0.128 2.363,0.063 2.363,0.031c-0.351,-8.079 5.844,-7.664 5.813,-7.728c6.45,0.287 5.604,7.856 5.604,7.856c3.257,-0.191 2.73,-0.159 2.73,-0.176c3.704,-0.08 4.269,-0.654 4.269,-0.654c0.755,-0.394 0.639,-1.32 0.67,-1.31c-0.021,-0.074 -0.223,-0.148 -0.223,-0.159c-0.051,0.086 -0.111,0.071 -0.141,0.055c-0.015,-0.008 -0.022,-0.016 -0.019,-0.012c-0.436,-0.16 -0.192,-0.863 -0.192,-0.884c0.192,-0.575 0.352,-1.427 0.352,-1.416c0.372,-0.181 0.5,-0.511 0.49,-0.511c-0.011,-1.054 -0.118,-1.405 -0.128,-1.405c-0.043,-0.117 -0.267,-0.149 -0.267,-0.16c-0.191,-0.212 -0.159,-0.788 -0.159,-0.788c0.107,-0.127 -0.213,-0.627 -0.245,-0.659c-0.894,-3.705 -10.687,-5.812 -10.687,-5.791c0.638,0.256 0.298,0.489 0.298,0.468c-0.404,0 -1.15,0.149 -1.15,0.149c-0.064,-0.128 -0.532,-0.128 -0.468,-0.192c-11.923,-7.515 -15.244,-7.291 -17.049,-7.748c-2.983,-0.595 -6.483,-0.797 -9.864,-0.797c-7.146,0 -13.75,0.903 -13.75,0.903Zm3.746,20.608c0,0.001 0.001,0.001 0.001,0l-0.001,0Z" /><g
       id="g106"><path
         id="path39"
         style="fill:none;stroke:#000;stroke-width:0.14px;"
         d="M8.649,1.03c0,0 2.144,-0.081 3.465,-0.027c0,0 14.327,-1.959 23.614,-0.106c1.805,0.457 5.126,0.233 17.049,7.748c-0.064,0.065 0.405,0.065 0.468,0.192c0,0 0.745,-0.149 1.15,-0.149c0,0.022 0.34,-0.212 -0.298,-0.468c0,-0.021 9.793,2.086 10.687,5.791c0.032,0.032 0.351,0.532 0.245,0.659c0,0 -0.032,0.575 0.16,0.788c0,0.011 0.223,0.043 0.266,0.16c0.01,0 0.117,0.351 0.128,1.405c0.01,0 -0.118,0.33 -0.49,0.511c0,-0.011 -0.16,0.841 -0.352,1.416c0,0.022 -0.245,0.724 0.192,0.884c-0.011,-0.011 0.085,0.084 0.16,-0.043c0,0.011 0.202,0.085 0.223,0.159c-0.032,-0.01 0.085,0.916 -0.671,1.31c0,0 -0.563,0.574 -4.268,0.654c0,0.017 0.527,-0.016 -2.73,0.176c0,0 0.846,-7.569 -5.605,-7.856c0.032,0.064 -6.163,-0.351 -5.812,7.728c0,0.032 -0.479,0.097 -2.363,-0.031c0.064,0 -17.788,-0.576 -28.006,-0.32c0,0.064 0.83,-7.025 -5.653,-7.632c0.032,0.032 -6.004,-0.447 -5.812,6.77c0.032,0 -1.544,0.095 -2.779,-0.65c0,0 -0.915,-0.532 -1.404,-2.278c-0.022,0 -0.213,-0.447 -0.043,-1.149c0.021,-0.043 0.255,-0.426 0.703,-0.49c0.021,0 -0.011,-0.447 -0.011,-0.447l-0.053,-0.011c0,0 -0.038,-1.378 0.154,-2.719c0.032,-0.032 -0.08,-0.016 0.495,-0.687c0,0 0.208,-0.111 0.383,-1.437c0,0.032 0.16,-2.794 0.91,-3.8c0.032,0.032 0.064,0.319 0.384,0.032c-0.032,0 0.383,-0.224 0.893,-0.24c0.033,0.016 0.799,-1.165 6.898,-4.406c0.016,0 -0.894,-0.257 -1.421,-0.463c0.016,0 -0.5,-0.56 -0.83,-0.671c-0.005,0 -0.287,-0.128 -0.026,-0.303Z" /><path
         id="path41"
         style="fill:#333333;fill-rule:nonzero"
         d="M11.278,2.291c0,0 -4.285,1.905 -7.265,4.63c0.021,0.022 5.163,0.533 5.099,1.022c0,0.043 4.215,0.234 4.577,0.298c0,0.022 8.622,0.436 9.261,0.564c0.351,0.054 1.821,0.277 3.96,-0.074c0.077,0.014 0.22,-0.006 0.472,-0.026c0.307,-0.025 0.774,-0.05 1.476,-0.012c0.032,0 11.912,0.847 15.807,1.198c0.033,0.033 1.704,0.139 2.108,0.202c0,0.022 1.128,0.235 2.299,-0.085c-0.021,-0.021 1.704,-0.468 2.811,-0.915c0,0 -7.473,-5.653 -15.042,-7.185c0,0.02 -1.163,-0.252 -3.236,-0.525c-1.999,-0.264 -4.844,-0.527 -8.309,-0.527c-3.972,0 -8.758,0.346 -14.018,1.435Z" /><path
         id="path43"
         style="fill:none;stroke:#000;stroke-width:0.14px;"
         d="M51.883,9.093c0,0 -7.473,-5.653 -15.041,-7.185c0,0.063 -10.96,-2.641 -25.564,0.383c0,0 -4.285,1.905 -7.265,4.63c0.021,0.022 5.163,0.533 5.099,1.022c0,0.043 4.215,0.234 4.577,0.298c0,0.022 8.622,0.436 9.261,0.564c0.351,0.054 1.821,0.277 3.96,-0.074c0.17,0.032 0.67,-0.106 1.948,-0.037c0.032,0 11.912,0.846 15.807,1.197c0.033,0.033 1.704,0.139 2.108,0.202c0,0.022 1.128,0.235 2.299,-0.085c-0.021,-0.021 1.704,-0.468 2.811,-0.915Z" /><path
         id="path45"
         style="fill:#ffffff;fill-rule:nonzero"
         d="M17.35,1.896c-0.305,0.461 -1.34,2.364 -1.34,2.364c0,0 0.234,3.853 0.234,3.811c1.895,0.149 6.748,0.469 6.748,0.447c1.959,0.277 3.045,0.042 3.045,0.042c0.575,-0.105 1.661,-0.191 1.661,-0.191c0,0 -0.618,-6.919 -0.639,-6.941c-0.636,-0.043 -1.311,-0.062 -1.997,-0.062c-3.697,0.001 -7.712,0.53 -7.712,0.53Z" /><path
         id="path47"
         style="fill:#ffffff;fill-rule:nonzero"
         d="M30.343,8.502c1.437,0.016 8.59,0.607 8.59,0.607c1.373,0.159 4.056,0.383 4.024,0.367c-1.166,-2.283 -6.419,-7.138 -6.451,-7.154c-2.363,-0.654 -7.393,-0.878 -7.393,-0.878c0.112,0.512 1.23,7.042 1.23,7.058Z" /><path
         id="path49"
         style="fill:#ffffff;fill-rule:nonzero"
         d="M44.091,9.54c0.766,0.149 2.916,0.277 2.937,0.319c1.384,0.171 2.332,-0.223 2.3,-0.223c1.181,-0.415 1.948,-0.607 1.948,-0.639c-9.038,-5.908 -13.849,-6.579 -13.849,-6.579c1.235,0.714 6.664,7.122 6.664,7.122Z" /><path
         id="path51"
         style="fill:#ffffff;fill-rule:nonzero"
         d="M13.05,2.663c-1,0.235 -1.299,0.469 -1.32,0.469c-2.49,1.299 -4.577,3.108 -4.577,3.108c-0.426,0.49 0.192,0.575 0.192,0.575c0.766,0.383 4.662,0.638 4.662,0.617c0.511,0 0.83,-0.404 0.809,-0.426c0.809,-1.596 2.534,-4.067 2.512,-4.067c0.233,-0.554 -0.392,-0.552 -0.597,-0.549c-0.039,0 -0.063,0 -0.063,-0.003c-1.043,0.17 -1.639,0.276 -1.618,0.276Z" /><path
         id="path53"
         style="fill-rule:nonzero;"
         d="M5.324,19.805c0,-2.613 2.119,-4.733 4.734,-4.733c2.614,0 4.733,2.12 4.733,4.733c0,2.615 -2.119,4.734 -4.733,4.734c-2.615,0 -4.734,-2.119 -4.734,-4.734" /><path
         id="path55"
         style="fill-rule:nonzero;"
         d="M47.064,20.136c0,-2.742 2.223,-4.964 4.964,-4.964c2.742,0 4.965,2.222 4.965,4.964c0,2.742 -2.223,4.964 -4.965,4.964c-2.741,0 -4.964,-2.222 -4.964,-4.964" /><path
         id="path57"
         style="fill:#ffffff;fill-rule:nonzero"
         d="M6.621,19.805c0,1.899 1.538,3.438 3.437,3.438c1.899,0 3.437,-1.539 3.437,-3.438c0,-1.897 -1.538,-3.437 -3.437,-3.437c-1.899,0 -3.437,1.54 -3.437,3.437Z" /><path
         id="path59"
         style="fill:none;stroke:#b9b9b9;stroke-width:0.07px;"
         d="M6.62,19.805c0,-1.898 1.539,-3.437 3.438,-3.437c1.899,0 3.437,1.539 3.437,3.437c0,1.899 -1.538,3.438 -3.437,3.438c-1.899,0 -3.438,-1.539 -3.438,-3.438Z" /><path
         id="path61"
         style="fill:#ffffff;fill-rule:nonzero"
         d="M48.399,20.136c0,1.991 1.614,3.604 3.605,3.604c1.99,0 3.605,-1.613 3.605,-3.604c0,-1.991 -1.615,-3.605 -3.605,-3.605c-1.991,0 -3.605,1.614 -3.605,3.605Z" /><path
         id="path63"
         style="fill:none;stroke:#b9b9b9;stroke-width:0.07px;"
         d="M48.399,20.136c0,-1.991 1.614,-3.605 3.605,-3.605c1.991,0 3.605,1.614 3.605,3.605c0,1.991 -1.614,3.604 -3.605,3.604c-1.991,0 -3.605,-1.613 -3.605,-3.604Z" /><path
         id="path65"
         style="fill:#f46154;fill-rule:nonzero;stroke:#000;stroke-width:0.07px;"
         d="M2.98,7.24c0,0 0.277,-0.467 1.725,-0.319c0.021,0.022 0.681,0.022 4.045,0.745c0.063,0.026 0.575,0.171 0.298,0.384c-0.041,0.045 -0.788,0.553 -1.129,0.723c-0.138,0.066 -0.255,0.299 -1.617,0.299c-0.028,0.015 -1.065,-0.043 -1.512,0.489c-0.021,0.043 -0.511,0.49 -0.66,0.745c-0.021,0.022 -0.075,0.256 -0.543,0.224c0.011,0.01 -0.745,-0.075 -0.98,-0.075c-0.023,-0.005 -0.255,0.022 -0.244,-0.329c0,0 -0.043,-0.479 -0.053,-0.618c0,-0.011 -0.245,-0.586 0.67,-2.268Z" /><clipPath
         id="_clip16"><path
           id="path67"
           d="M17.5,14.559l0.463,0.851c0.058,0.091 0.154,0.091 0.154,0.091c2.15,0 25.263,1.144 25.263,1.136c0.231,0.017 0.104,-0.168 0.088,-0.199c-0.319,-0.671 -1.07,-0.735 -1.07,-0.735l-24.638,-1.388c-0.036,-0.006 -0.067,-0.009 -0.095,-0.009c-0.266,0 -0.165,0.253 -0.165,0.253Z" /></clipPath><g
         id="g72"
         clip-path="url(#_clip16)"><path
           id="path70"
           style="fill:url(#_Linear17);fill-rule:nonzero;"
           d="M43.663,15.667l-0.062,1.175l-26.262,-1.377l0.061,-1.174l26.263,1.376Z" /></g><path
         id="path74"
         style="fill:#4786b3;stroke:#000;stroke-width:0.07px;fill-opacity:1"
         d="M17.76,14.315l24.638,1.388c0,0 0.751,0.064 1.07,0.735c0.016,0.031 0.143,0.215 -0.088,0.199c0,0.008 -23.112,-1.136 -25.263,-1.136c0,0 -0.096,0 -0.154,-0.091l-0.463,-0.851c0,0 -0.123,-0.308 0.26,-0.244Z" /><path
         id="path76"
         style="fill:#ffffff;fill-rule:nonzero"
         d="M56.103,10.471c0.043,-0.021 2.411,1.571 3.252,2.901c0,0 4.258,0.66 4.663,0.554c0,0 -0.128,-2.065 -5.216,-3.535c0,-0.026 -0.853,-0.209 -1.615,-0.209c-0.47,0 -0.905,0.07 -1.084,0.289Z" /><path
         id="path78"
         style="fill:none;stroke:#000;stroke-width:0.07px;"
         d="M59.355,13.372c0,0 4.258,0.66 4.663,0.554c0,0 -0.128,-2.065 -5.216,-3.535c0,-0.042 -2.231,-0.494 -2.699,0.08c0.043,-0.021 2.411,1.571 3.252,2.901Z" /><path
         id="path80"
         style="fill:url(#_Linear19);fill-rule:nonzero;"
         d="M60.186,15.496c3.481,0.175 4.551,0.143 4.551,0.127c-0.368,-0.83 -1.198,-0.877 -1.198,-0.877c-1.757,-0.272 -3.587,-0.321 -3.587,-0.321c0.244,0.592 0.234,1.055 0.234,1.071Z" /><path
         id="path82"
         style="fill:#333333;stroke:#000;stroke-width:0.07px"
         d="M59.952,14.425c0,0 1.83,0.049 3.587,0.321c0,0 0.83,0.047 1.197,0.877c0,0.016 -1.069,0.048 -4.55,-0.127c0,-0.016 0.01,-0.479 -0.234,-1.071Z" /><path
         id="path84"
         style="fill:#333333;fill-rule:nonzero"
         d="M60.473,17.555c-0.053,0.511 -0.564,2.491 -0.586,2.502c-0.021,0.245 0.149,0.224 0.128,0.212c1.022,0.012 2.352,-0.074 2.352,-0.074c0.586,-0.01 0.949,-0.489 0.938,-0.5c0.564,-0.798 1.107,-2.15 1.096,-2.161c-0.32,0.032 -3.928,0.021 -3.928,0.021Z" /><path
         id="path86"
         style="fill:none;stroke:#000;stroke-width:0.07px;"
         d="M60.473,17.555c0,0 3.609,0.011 3.928,-0.021c0.011,0.01 -0.532,1.363 -1.096,2.161c0.011,0.011 -0.352,0.49 -0.938,0.5c0,0 -1.33,0.085 -2.352,0.075c0.021,0.01 -0.149,0.032 -0.127,-0.213c0.021,-0.011 0.532,-1.991 0.585,-2.502Z" /><path
         id="path88"
         style="fill:none;stroke:#000;stroke-width:0.07px;"
         d="M13.689,8.241c0,0 -0.553,1.107 0.086,2.214c0.041,0.043 3.448,6.686 4.683,8.687c0.085,0 0.17,0.893 1.788,0.936c0.043,0.043 16.564,0.384 23.589,0.511c0.128,0 0.894,0.085 1.065,-0.724c0,0.085 1.138,-6.749 -0.267,-9.984" /><path
         id="path90"
         style="fill:none;stroke:#000;stroke-width:0.07px;"
         d="M28.858,8.693c0,0 0.798,1.826 0.904,6.298c0,-0.022 -0.169,0.723 0.107,1.02l-0.085,2.641c0,0 0,1.32 -0.063,1.617" /><path
         id="path92"
         style="fill:none;stroke:#000;stroke-width:0.07px;"
         d="M11.278,2.291c0,0 0.888,-0.671 0.836,-1.288" /><path
         id="path94"
         style="fill:none;stroke:#000;stroke-width:0.07px;"
         d="M4.055,10.424c0,0 0.572,1.804 0.671,2.033c0.043,0.106 0.107,0.447 0.638,0.851c0.043,0.043 1.576,0.958 2.129,1.235" /><path
         id="path96"
         style="fill:none;stroke:#000;stroke-width:0.07px;"
         d="M1.575,12.158c0,0 0.319,0.362 1.299,0.49c-0.022,0 1.022,0.213 0.83,1.405c-0.021,0.064 -0.872,2.895 -1.128,3.833c0.021,0.042 0.021,0.467 -0.618,0.426c0.043,0 -1.618,-0.043 -1.639,-0.15" /><path
         id="path98"
         style="fill:#333333;fill-rule:nonzero"
         d="M41.248,7.28c-0.83,0.432 -0.423,2.196 -0.415,2.188c0.056,0.376 0.359,0.336 0.344,0.327c0.494,0 0.91,0.176 0.91,0.176c0,0 -0.408,0.679 -0.416,0.671c-0.087,0.151 0.057,0.207 0.048,0.207c0.168,0.287 1.86,0.352 1.86,0.343c0.2,0 0.296,-0.143 0.296,-0.143c0.168,-0.288 0.175,-0.575 0.175,-0.567c0.033,-0.375 -0.007,-1.094 -0.007,-1.086c-0.24,-1.701 -1.861,-2.227 -1.876,-2.227c-0.048,-0.002 -0.095,-0.003 -0.14,-0.003c-0.496,0 -0.779,0.114 -0.779,0.114Z" /><path
         id="path100"
         style="fill:none;stroke:#000;stroke-width:0.07px;"
         d="M41.249,7.28c0,0 0.335,-0.135 0.918,-0.111c0.015,0 1.636,0.526 1.876,2.227c0,-0.008 0.039,0.711 0.008,1.086c0,-0.008 -0.008,0.279 -0.176,0.567c0,0 -0.096,0.143 -0.295,0.143c0,0.009 -1.693,-0.056 -1.861,-0.343c0.009,0 -0.135,-0.055 -0.048,-0.208c0.008,0.009 0.416,-0.67 0.416,-0.67c0,0 -0.416,-0.176 -0.91,-0.176c0.015,0.009 -0.288,0.048 -0.344,-0.326c-0.008,0.007 -0.415,-1.757 0.416,-2.189Z" /><path
         id="path102"
         style="fill:none;stroke:#000;stroke-width:0.07px;"
         d="M53,8.742c0,0 7.037,3.119 7.185,6.769c0.011,0.117 0.16,0.735 0.288,2.044" /><path
         id="path104"
         style="fill:none;stroke:#000;stroke-width:0.07px;"
         d="M55.731,15.688c0,0 0.559,-0.24 1.101,-0.24c-0.015,0 2.196,0.048 3.362,0.12" /></g></g><defs
     id="defs204"><linearGradient
       gradientTransform="matrix(0,5.38358,-5.38358,0,7.03588,1.9601)"
       gradientUnits="userSpaceOnUse"
       y2="0"
       x2="1"
       y1="0"
       x1="0"
       id="_Linear1"><stop
         id="stop109"
         style="stop-color:#f2f3ff;stop-opacity:1"
         offset="0%" /><stop
         id="stop111"
         style="stop-color:#edf4ff;stop-opacity:1"
         offset="100%" /></linearGradient><linearGradient
       gradientTransform="matrix(0.711807,0.0373042,-0.0373042,0.711807,64.3895,18.6417)"
       gradientUnits="userSpaceOnUse"
       y2="0"
       x2="1"
       y1="0"
       x1="0"
       id="_Linear3"><stop
         id="stop114"
         style="stop-color:#231f20;stop-opacity:1"
         offset="0%" /><stop
         id="stop116"
         style="stop-color:#595a5c;stop-opacity:1"
         offset="100%" /></linearGradient><linearGradient
       gradientTransform="matrix(15.0294,-0.213439,0.213439,15.0294,38.9602,5.62278)"
       gradientUnits="userSpaceOnUse"
       y2="0"
       x2="1"
       y1="0"
       x1="0"
       id="_Linear5"><stop
         id="stop119"
         style="stop-color:#f2f3ff;stop-opacity:1"
         offset="0%" /><stop
         id="stop121"
         style="stop-color:#edf4ff;stop-opacity:1"
         offset="100%" /></linearGradient><linearGradient
       gradientTransform="matrix(3.61813,-0.0513645,0.0513645,3.61813,51.0367,8.14487)"
       gradientUnits="userSpaceOnUse"
       y2="0"
       x2="1"
       y1="0"
       x1="0"
       id="_Linear7"><stop
         id="stop124"
         style="stop-color:#231f20;stop-opacity:1"
         offset="0%" /><stop
         id="stop126"
         style="stop-color:#414042;stop-opacity:1"
         offset="100%" /></linearGradient><linearGradient
       gradientTransform="matrix(0,21.9901,-21.9901,0,32.8417,0.100063)"
       gradientUnits="userSpaceOnUse"
       y2="0"
       x2="1"
       y1="0"
       x1="0"
       id="_Linear8"><stop
         id="stop129"
         style="stop-color:#3b6dad;stop-opacity:1"
         offset="0%" /><stop
         id="stop131"
         style="stop-color:#123b70;stop-opacity:1"
         offset="100%" /></linearGradient><linearGradient
       gradientTransform="matrix(0,-9.32647,9.32647,0,27.9477,10.1825)"
       gradientUnits="userSpaceOnUse"
       y2="0"
       x2="1"
       y1="0"
       x1="0"
       id="_Linear9"><stop
         id="stop134"
         style="stop-color:#231f20;stop-opacity:1"
         offset="0%" /><stop
         id="stop136"
         style="stop-color:#3b3b3c;stop-opacity:1"
         offset="100%" /></linearGradient><linearGradient
       gradientTransform="matrix(0,7.28655,-7.28655,0,21.8536,1.36639)"
       gradientUnits="userSpaceOnUse"
       y2="0"
       x2="1"
       y1="0"
       x1="0"
       id="_Linear10"><stop
         id="stop139"
         style="stop-color:#f2f3ff;stop-opacity:1"
         offset="0%" /><stop
         id="stop141"
         style="stop-color:#edf4ff;stop-opacity:1"
         offset="100%" /></linearGradient><linearGradient
       gradientTransform="matrix(0,8.03267,-8.03267,0,36.0353,1.44407)"
       gradientUnits="userSpaceOnUse"
       y2="0"
       x2="1"
       y1="0"
       x1="0"
       id="_Linear11"><stop
         id="stop144"
         style="stop-color:#f2f3ff;stop-opacity:1"
         offset="0%" /><stop
         id="stop146"
         style="stop-color:#edf4ff;stop-opacity:1"
         offset="100%" /></linearGradient><linearGradient
       gradientTransform="matrix(0,7.48344,-7.48344,0,44.3515,2.4185)"
       gradientUnits="userSpaceOnUse"
       y2="0"
       x2="1"
       y1="0"
       x1="0"
       id="_Linear12"><stop
         id="stop149"
         style="stop-color:#f2f3ff;stop-opacity:1"
         offset="0%" /><stop
         id="stop151"
         style="stop-color:#edf4ff;stop-opacity:1"
         offset="100%" /></linearGradient><linearGradient
       gradientTransform="matrix(8.37612,0,0,8.37612,7.00321,4.9101)"
       gradientUnits="userSpaceOnUse"
       y2="0"
       x2="1"
       y1="0"
       x1="0"
       id="_Linear13"><stop
         id="stop154"
         style="stop-color:#f2f3ff;stop-opacity:1"
         offset="0%" /><stop
         id="stop156"
         style="stop-color:#edf4ff;stop-opacity:1"
         offset="100%" /></linearGradient><radialGradient
       gradientTransform="matrix(3.43736,0,0,3.43736,10.0577,19.8055)"
       gradientUnits="userSpaceOnUse"
       r="1"
       cy="0"
       cx="0"
       id="_Radial14"><stop
         id="stop159"
         style="stop-color:#8a8c8e;stop-opacity:1"
         offset="0%" /><stop
         id="stop161"
         style="stop-color:#6b6c6f;stop-opacity:1"
         offset="84%" /><stop
         id="stop163"
         style="stop-color:#4d4d4f;stop-opacity:1"
         offset="96%" /><stop
         id="stop165"
         style="stop-color:#4d4d4f;stop-opacity:1"
         offset="100%" /></radialGradient><radialGradient
       gradientTransform="matrix(3.60483,0,0,3.60483,52.0036,20.1355)"
       gradientUnits="userSpaceOnUse"
       r="1"
       cy="0"
       cx="0"
       id="_Radial15"><stop
         id="stop168"
         style="stop-color:#8a8c8e;stop-opacity:1"
         offset="0%" /><stop
         id="stop170"
         style="stop-color:#6b6c6f;stop-opacity:1"
         offset="84%" /><stop
         id="stop172"
         style="stop-color:#4d4d4f;stop-opacity:1"
         offset="96%" /><stop
         id="stop174"
         style="stop-color:#4d4d4f;stop-opacity:1"
         offset="100%" /></radialGradient><linearGradient
       gradientTransform="matrix(-0.0612456,1.16864,-1.16864,-0.0612456,30.527,14.9797)"
       gradientUnits="userSpaceOnUse"
       y2="0"
       x2="1"
       y1="0"
       x1="0"
       id="_Linear17"><stop
         id="stop177"
         style="stop-color:#25538c;stop-opacity:1"
         offset="0%" /><stop
         id="stop179"
         style="stop-color:#123b70;stop-opacity:1"
         offset="100%" /></linearGradient><linearGradient
       gradientTransform="matrix(0,3.75529,-3.75529,0,60.0605,10.1822)"
       gradientUnits="userSpaceOnUse"
       y2="0"
       x2="1"
       y1="0"
       x1="0"
       id="_Linear18"><stop
         id="stop182"
         style="stop-color:#f2f3ff;stop-opacity:1"
         offset="0%" /><stop
         id="stop184"
         style="stop-color:#edf4ff;stop-opacity:1"
         offset="100%" /></linearGradient><linearGradient
       gradientTransform="matrix(4.78472,0,0,4.78472,59.9516,15.0309)"
       gradientUnits="userSpaceOnUse"
       y2="0"
       x2="1"
       y1="0"
       x1="0"
       id="_Linear19"><stop
         id="stop187"
         style="stop-color:#231f20;stop-opacity:1"
         offset="0%" /><stop
         id="stop189"
         style="stop-color:#595a5c;stop-opacity:1"
         offset="100%" /></linearGradient><linearGradient
       gradientTransform="matrix(4.51561,0,0,4.51561,59.8857,18.9047)"
       gradientUnits="userSpaceOnUse"
       y2="0"
       x2="1"
       y1="0"
       x1="0"
       id="_Linear20"><stop
         id="stop192"
         style="stop-color:#231f20;stop-opacity:1"
         offset="0%" /><stop
         id="stop194"
         style="stop-color:#595a5c;stop-opacity:1"
         offset="100%" /></linearGradient><linearGradient
       gradientTransform="matrix(0,4.02694,-4.02694,0,42.3947,7.16617)"
       gradientUnits="userSpaceOnUse"
       y2="0"
       x2="1"
       y1="0"
       x1="0"
       id="_Linear21"><stop
         id="stop197"
         style="stop-color:#737577;stop-opacity:1"
         offset="0%" /><stop
         id="stop199"
         style="stop-color:#2d2a2b;stop-opacity:1"
         offset="40%" /><stop
         id="stop201"
         style="stop-color:#2d2a2b;stop-opacity:1"
         offset="100%" /></linearGradient></defs></svg>
