<?xml version="1.0" encoding="UTF-8" standalone="no"?>
<svg
   xmlns:dc="http://purl.org/dc/elements/1.1/"
   xmlns:cc="http://creativecommons.org/ns#"
   xmlns:rdf="http://www.w3.org/1999/02/22-rdf-syntax-ns#"
   xmlns:svg="http://www.w3.org/2000/svg"
   xmlns="http://www.w3.org/2000/svg"
   xmlns:sodipodi="http://sodipodi.sourceforge.net/DTD/sodipodi-0.dtd"
   xmlns:inkscape="http://www.inkscape.org/namespaces/inkscape"
   width="355.74844"
   height="150"
   viewBox="0 0 355.74844 150"
   version="1.1"
   xml:space="preserve"
   style="clip-rule:evenodd;fill-rule:evenodd;stroke-linecap:round;stroke-linejoin:round"
   id="svg169"
   sodipodi:docname="utilitaire.svg"
   inkscape:version="1.0 (4035a4fb49, 2020-05-01)"><metadata
     id="metadata173"><rdf:RDF><cc:Work
         rdf:about=""><dc:format>image/svg+xml</dc:format><dc:type
           rdf:resource="http://purl.org/dc/dcmitype/StillImage" /><dc:title></dc:title></cc:Work></rdf:RDF></metadata><sodipodi:namedview
     fit-margin-bottom="0"
     fit-margin-right="0"
     fit-margin-left="0"
     fit-margin-top="0"
     inkscape:document-rotation="0"
     pagecolor="#ffffff"
     bordercolor="#666666"
     borderopacity="1"
     objecttolerance="10"
     gridtolerance="10"
     guidetolerance="10"
     inkscape:pageopacity="0"
     inkscape:pageshadow="2"
     inkscape:window-width="1920"
     inkscape:window-height="1017"
     id="namedview171"
     showgrid="false"
     inkscape:zoom="1.9740064"
     inkscape:cx="195.36437"
     inkscape:cy="51.626454"
     inkscape:window-x="-8"
     inkscape:window-y="-8"
     inkscape:window-maximized="1"
     inkscape:current-layer="svg169" /><g
     transform="matrix(5.9856115,0,0,5.9856115,-0.23937121,-0.23884785)"
     id="cat_utilitaire"><path
       d="m 39.588,1.206 c 0.959,0.404 6.309,4.846 6.309,4.821 2.6,2.22 3.912,2.069 3.912,2.069 C 44.131,2.872 40.548,1.088 40.548,1.088 40.43,1.074 40.325,1.068 40.233,1.068 c -0.447,0 -0.624,0.138 -0.645,0.138 z"
       style="fill:url(#_Linear1);fill-rule:nonzero"
       id="path2" /><path
       d="m 40.547,1.088 c 0,0 3.584,1.784 9.262,7.008 0,0 -1.312,0.151 -3.912,-2.069 0,0.025 -5.35,-4.417 -6.309,-4.821 0.025,0 0.278,-0.202 0.959,-0.118 z"
       style="fill:#ffffff;stroke:#000000;stroke-width:0.12px"
       id="path4" /><path
       d="m 5.795,3.385 c -0.16,0.832 -0.26,4.163 -0.261,4.164 0.017,0.985 0.867,1.027 0.867,1.027 0,0 6.65,0.163 6.637,0.138 0.922,0.013 1.035,-0.87 1.035,-0.87 0,0 0.126,-4.606 0.126,-4.632 -0.025,-0.845 -1.072,-0.87 -1.072,-0.87 L 7.108,2.291 C 5.888,2.3 5.787,3.385 5.795,3.385 Z"
       style="fill:url(#_Linear2);fill-rule:nonzero"
       id="path6" /><path
       d="m 7.108,2.291 6.019,0.051 c 0,0 1.047,0.025 1.072,0.87 0,0.026 -0.126,4.631 -0.126,4.631 0,0 -0.113,0.884 -1.035,0.871 0.013,0.026 -6.637,-0.139 -6.637,-0.139 0,0 -0.85,-0.041 -0.867,-1.026 0,0.009 0.101,-3.331 0.261,-4.164 -0.008,0 0.093,-1.085 1.313,-1.094 z"
       style="fill:none;stroke:#000000;stroke-width:0.12px"
       id="path8" /><path
       d="m 53.267,10.872 1.741,3.079 c 0,0 3.155,1.161 3.155,1.148 0.025,-0.29 -0.126,-0.946 -0.126,-0.959 0.063,-1.425 -2.89,-3.482 -2.89,-3.482 -0.236,-0.155 -0.48,-0.212 -0.712,-0.212 -0.633,0 -1.168,0.426 -1.168,0.426 z"
       style="fill:url(#_Linear3);fill-rule:nonzero"
       id="path10" /><path
       d="m 55.147,10.658 c 0,0 2.953,2.057 2.89,3.482 0,0.013 0.151,0.669 0.126,0.959 0,0.013 -3.155,-1.148 -3.155,-1.148 l -1.741,-3.079 c 0,0 0.997,-0.795 1.88,-0.214 z"
       style="fill:#ffffff;stroke:#000000;stroke-width:0.12px"
       id="path12" /><path
       d="m 44.552,21.581 1.918,0.337 7.504,-0.135 1.346,-0.202 0.824,-5.283 -6.309,-2.928 -6.512,1.162 z"
       style="fill:#333333;fill-rule:nonzero;stroke:#1a171b;stroke-width:0.12px"
       id="path14" /><path
       d="m 5.063,20.74 1.767,0.303 7.016,0.79 1.565,-0.605 0.101,-6.545 -4.997,-1.212 -4.291,0.808 -1.968,3.13 z"
       style="fill:#333333;fill-rule:nonzero;stroke:#1a171b;stroke-width:0.12px"
       id="path16" /><clipPath
       id="_clip4"><path
         d="m 49.557,7.944 1.161,0.884 c 0,0 0.656,-0.051 0.631,-0.076 -0.561,-0.719 -1.208,-0.829 -1.55,-0.829 -0.15,0 -0.242,0.021 -0.242,0.021 z"
         id="path18" /></clipPath><g
       clip-path="url(#_clip4)"
       id="g23"><path
         d="m 49.409,8.428 0.228,-0.747 1.895,0.58 -0.228,0.746 z"
         style="fill:url(#_Linear5);fill-rule:nonzero"
         id="path21" /></g><path
       d="m 49.557,7.945 c 0,0 0.984,-0.228 1.792,0.807 0.025,0.025 -0.631,0.076 -0.631,0.076 z"
       style="fill:#333333;stroke:#1a171b;stroke-width:0.06px"
       id="path25" /><path
       d="m 1.404,4.929 c 0,0 -0.492,2.889 -0.593,6.915 L 1.492,12.084 2.59,10.342 2.54,4.6 c 0,0 -0.833,-0.403 -1.136,0.329 z"
       style="fill:#f46154;fill-rule:nonzero;stroke:#000000;stroke-width:0.12px"
       id="path27" /><path
       d="M 32.068,0.381 C 23.108,0.172 4.239,0.18 4.239,0.146 2.565,0.827 3.05,2.059 3.019,2.089 2.621,2.47 2.269,2.976 2.239,2.998 2.856,3.016 3.117,3.522 3.12,3.503 3.114,3.57 2.456,11.696 2.666,13.522 c -0.236,0.185 -1.59,0.732 -1.59,0.732 -0.455,0.689 0.168,1.287 0.151,1.287 -0.084,1.043 1.085,3.205 0.051,3.155 -0.738,1.101 -0.026,0.833 -0.026,0.833 2.474,0.58 4.064,1.514 4.064,1.514 -0.337,-6.225 4.845,-5.822 4.879,-5.855 5.35,0.37 4.812,6.359 4.812,6.359 0,0 29.713,0.202 29.746,0.236 -0.168,-6.663 5.296,-6.368 5.351,-6.393 5.922,0.37 4.904,6.372 4.892,6.372 1.514,0.038 2.195,-0.467 2.195,-0.467 0.757,-0.151 0.584,-0.34 0.682,-0.467 0.77,-1.198 0.807,-3.786 0.795,-3.786 0.404,-0.504 -0.126,-0.655 0.202,-0.731 0.025,-0.833 -0.867,-2.103 -0.842,-2.116 -0.769,-0.202 -2.397,-1.144 -2.397,-1.144 0,0 -2.549,-1.484 -1.548,-2.406 0.293,-0.357 0.825,-0.128 1.031,-0.008 C 53.979,9.861 51.626,8.601 51.601,8.601 51.349,8.55 50.945,8.576 50.945,8.576 48.421,7.541 47.134,6.279 47.109,6.279 44.232,3.604 40.269,1.223 40.261,1.223 40.286,1.13 40.475,1.115 40.548,1.088 39.208,0.309 37.291,0.1 35.618,0.1 c -1.94,0 -3.55,0.281 -3.55,0.281 z M 2.239,2.998 c -10e-4,0 -10e-4,0 -0.002,0 0,10e-4 10e-4,10e-4 0.002,0 z m 52.959,7.697 c -0.005,-0.007 -0.036,-0.029 -0.084,-0.058 0.029,0.02 0.056,0.039 0.084,0.058 z"
       style="fill:#4786b3;fill-opacity:1;fill-rule:nonzero"
       id="path29" /><path
       d="m 54.083,10.645 c 0.362,-0.441 1.09,0.013 1.115,0.051 C 54.1,9.926 51.626,8.601 51.601,8.601 51.349,8.55 50.945,8.576 50.945,8.576 48.421,7.541 47.134,6.279 47.109,6.279 44.232,3.604 40.269,1.223 40.261,1.223 40.286,1.13 40.475,1.115 40.547,1.088 37.654,-0.594 32.068,0.381 32.068,0.381 23.108,0.172 4.239,0.18 4.239,0.146 2.565,0.827 3.05,2.059 3.019,2.089 2.603,2.488 2.237,3.023 2.237,2.998 2.859,3.014 3.12,3.528 3.12,3.503 c 0,0 -0.665,8.185 -0.454,10.019 -0.236,0.185 -1.59,0.732 -1.59,0.732 -0.455,0.689 0.168,1.287 0.151,1.287 -0.084,1.043 1.085,3.205 0.051,3.155 -0.739,1.101 -0.026,0.833 -0.026,0.833 2.474,0.58 4.064,1.514 4.064,1.514 -0.337,-6.225 4.845,-5.822 4.879,-5.855 5.35,0.37 4.812,6.359 4.812,6.359 0,0 29.713,0.202 29.746,0.236 -0.168,-6.662 5.296,-6.368 5.351,-6.393 5.922,0.37 4.904,6.372 4.892,6.372 1.514,0.038 2.195,-0.467 2.195,-0.467 0.757,-0.151 0.584,-0.341 0.682,-0.467 0.77,-1.198 0.807,-3.785 0.795,-3.785 0.403,-0.505 -0.126,-0.656 0.202,-0.732 0.025,-0.833 -0.867,-2.103 -0.842,-2.116 -0.769,-0.202 -2.397,-1.144 -2.397,-1.144 0,0 -2.549,-1.485 -1.548,-2.406 z"
       style="fill:none;stroke:#1a171b;stroke-width:0.12px"
       id="path31" /><path
       d="m 6.04,20.591 c 0,-2.313 1.875,-4.189 4.189,-4.189 2.314,0 4.189,1.876 4.189,4.189 0,2.314 -1.875,4.189 -4.189,4.189 -2.314,0 -4.189,-1.875 -4.189,-4.189"
       style="fill-rule:nonzero"
       id="path33" /><path
       d="m 45.531,20.706 c 0,-2.426 1.967,-4.393 4.393,-4.393 2.427,0 4.394,1.967 4.394,4.393 0,2.427 -1.967,4.394 -4.394,4.394 -2.426,0 -4.393,-1.967 -4.393,-4.394"
       style="fill-rule:nonzero"
       id="path35" /><path
       d="m 7.187,20.591 c 0,1.68 1.361,3.042 3.042,3.042 1.681,0 3.042,-1.362 3.042,-3.042 0,-1.68 -1.361,-3.043 -3.042,-3.043 -1.681,0 -3.042,1.363 -3.042,3.043 z"
       style="fill:#ffffff;fill-rule:nonzero"
       id="path37" /><path
       d="m 7.187,20.591 c 0,-1.68 1.361,-3.043 3.042,-3.043 1.681,0 3.042,1.363 3.042,3.043 0,1.68 -1.361,3.042 -3.042,3.042 -1.681,0 -3.042,-1.362 -3.042,-3.042 z"
       style="fill:none;stroke:#b9b9b9;stroke-width:0.06px"
       id="path39" /><path
       d="m 46.712,20.706 c 0,1.762 1.429,3.19 3.191,3.19 1.761,0 3.19,-1.428 3.19,-3.19 0,-1.762 -1.429,-3.19 -3.19,-3.19 -1.762,0 -3.191,1.428 -3.191,3.19 z"
       style="fill:#ffffff;fill-rule:nonzero"
       id="path41" /><path
       d="m 46.712,20.706 c 0,-1.762 1.429,-3.19 3.191,-3.19 1.761,0 3.19,1.428 3.19,3.19 0,1.762 -1.429,3.191 -3.19,3.191 -1.762,0 -3.191,-1.429 -3.191,-3.191 z"
       style="fill:none;stroke:#b9b9b9;stroke-width:0.06px"
       id="path43" /><path
       d="m 34.019,1.341 c -1.161,0.017 -1.194,1.161 -1.178,1.161 -0.05,1.447 0.303,3.718 0.303,3.701 0.202,1.784 2.053,2.087 2.036,2.087 1.194,0.471 7.924,2.019 7.908,2.035 2.069,0.152 2.12,-0.909 2.12,-0.909 0,0 0.302,-2.405 0.319,-2.405 C 45.628,6.103 44.989,5.597 44.972,5.564 39.891,1.509 37.872,1.391 37.855,1.391 37.4,1.289 36.736,1.257 36.086,1.257 c -1.054,0 -2.067,0.084 -2.067,0.084 z"
       style="fill:#ffffff;fill-rule:nonzero"
       id="path45" /><path
       d="m 34.019,1.341 c 0,0 2.642,-0.219 3.836,0.05 0.017,0 2.036,0.118 7.117,4.173 0.017,0.034 0.656,0.538 0.555,1.447 -0.017,0 -0.319,2.406 -0.319,2.406 0,0 -0.051,1.06 -2.12,0.908 0.016,-0.016 -6.714,-1.565 -7.908,-2.035 0.017,0 -1.834,-0.303 -2.036,-2.087 0,0.017 -0.353,-2.254 -0.303,-3.701 -0.016,0 0.017,-1.145 1.178,-1.161 z"
       style="fill:none;stroke:#000000;stroke-width:0.47px"
       id="path47" /><path
       d="m 44.419,7.167 c -0.121,0.442 -0.181,0.885 -0.174,0.879 -0.264,1.893 0.132,1.943 0.151,1.943 0.395,0.148 0.96,-0.212 0.972,-0.239 0,0.277 0.176,0.491 0.189,0.479 0.53,0.214 0.855,-0.081 0.896,-0.114 0.214,-0.164 0.233,-0.652 0.239,-0.72 0.041,-0.246 -0.169,-0.241 -0.252,-0.237 -0.02,0.001 -0.033,0.003 -0.033,0 0.005,-0.577 0,-0.607 -0.005,-0.686 -0.014,-0.133 -0.004,-0.429 0.099,-0.611 0.217,0.222 0.281,0.044 0.28,-0.017 C 46.88,6.601 46.27,6.643 46.263,6.645 46.114,6.606 45.971,6.842 45.868,7.078 45.77,7.3 45.708,7.522 45.708,7.516 45.62,6.203 45.002,6.291 45.002,6.291 44.989,6.289 44.976,6.287 44.963,6.287 c -0.241,0 -0.423,0.44 -0.544,0.88 z"
       style="fill:#333333;fill-rule:nonzero"
       id="path49" /><path
       d="m 45.002,6.291 c 0,0 0.618,-0.088 0.706,1.225 0,0.012 0.265,-0.947 0.555,-0.871 -0.012,0 0.619,-0.063 0.518,1.199 10e-4,0.061 -0.063,0.239 -0.28,0.017 -0.104,0.182 -0.113,0.478 -0.099,0.611 0.005,0.079 0.01,0.109 0.005,0.686 0,0.012 0.336,-0.069 0.286,0.237 -0.007,0.068 -0.026,0.556 -0.24,0.72 -0.041,0.032 -0.366,0.328 -0.896,0.114 -0.013,0.012 -0.189,-0.202 -0.189,-0.48 0.012,0.013 -0.568,0.391 -0.972,0.24 0.025,0 -0.429,0.05 -0.151,-1.943 -0.013,0.012 0.248,-1.853 0.757,-1.755 z"
       style="fill:none;stroke:#000000;stroke-width:0.06px"
       id="path51" /><path
       d="m 2.489,0.6 c 0,0.013 -0.467,0.127 -0.845,2.84 0,-0.026 -0.177,0.82 -0.24,1.489 0,0.012 0.555,-0.013 0.656,0.366 0,0 0.164,3.129 -0.277,5.603 0.012,0.025 -0.215,1.173 -0.972,0.946 0.012,0.025 -0.089,1.501 -0.089,1.501 0,0 -0.403,0.404 -0.504,1.704 0.012,0.025 -0.038,2.221 0.088,3.697 0,-0.013 -0.24,0.126 -0.202,0.366 0.013,0.013 0.013,1.022 1.174,1.426 0,0.013 1.463,0.404 4.038,0.505 0,0 -0.19,-1.943 0.542,-3.395 0,0 -1.236,-0.088 -1.792,-0.252 0.026,0.013 -0.694,-0.088 -0.719,-0.745 0,-0.012 -0.454,-12.265 0.892,-16.505 0,0 -1.46,0.063 -1.75,0.454 z"
       style="fill:#333333;fill-rule:nonzero"
       id="path53" /><path
       d="m 4.239,0.146 c 0,0 -1.46,0.063 -1.75,0.454 0,0.013 -0.467,0.127 -0.846,2.84 0,-0.026 -0.176,0.82 -0.239,1.489 0,0.012 0.555,-0.013 0.656,0.366 0,0 0.164,3.129 -0.278,5.602 0.013,0.026 -0.214,1.174 -0.971,0.947 0.012,0.025 -0.089,1.501 -0.089,1.501 0,0 -0.403,0.404 -0.504,1.704 0.012,0.025 -0.038,2.221 0.088,3.697 0,-0.013 -0.24,0.126 -0.202,0.366 0.013,0.013 0.013,1.022 1.174,1.426 0,0.013 1.463,0.404 4.038,0.505 0,0 -0.19,-1.943 0.542,-3.395 0,0 -1.236,-0.088 -1.792,-0.252 0.026,0.013 -0.694,-0.088 -0.719,-0.745 0,-0.012 -0.454,-12.265 0.892,-16.505 z"
       style="fill:none;stroke:#000000;stroke-width:0.12px"
       id="path55" /><clipPath
       id="_clip12"><path
         d="m 15.735,18.174 c 0,0 0.231,1.657 0.248,2.229 0.004,0.017 -0.013,0.249 0.219,0.253 -0.034,0.016 23.201,0.286 27.306,0.454 0.096,0.005 0.421,0 0.505,-0.504 l 0.185,-1.094 c 0,0 0.017,-0.37 -0.286,-0.37 0.017,0 -24.867,-1.027 -27.795,-1.128 0,0 -0.042,-0.005 -0.1,-0.005 -0.119,0 -0.299,0.023 -0.282,0.165 z"
         id="path57" /></clipPath><g
       clip-path="url(#_clip12)"
       id="g62"><path
         d="m 15.626,20.654 0.093,-2.657 28.501,0.995 -0.093,2.657 z"
         style="fill:#333333;fill-rule:nonzero"
         id="path60" /></g><path
       d="m 15.735,18.174 c 0,0 0.231,1.657 0.248,2.229 0.004,0.017 -0.013,0.249 0.219,0.253 -0.034,0.017 23.201,0.286 27.306,0.454 0.096,0.005 0.421,0 0.505,-0.504 l 0.185,-1.094 c 0,0 0.017,-0.37 -0.286,-0.37 0.017,0 -24.867,-1.027 -27.795,-1.128 0,0 -0.408,-0.05 -0.382,0.16 z"
       style="fill:none;stroke:#000000;stroke-width:0.06px"
       id="path64" /><clipPath
       id="_clip14"><path
         d="m 2.18,9.389 c 0,0 0.012,0.41 0.006,0.41 0.025,0.265 0.337,0.274 0.337,0.274 l 14.621,0.185 c 0.403,0 0.185,-0.269 0.185,-0.286 C 16.874,9.4 16.269,9.459 16.269,9.459 L 2.489,9.106 C 2.155,9.106 2.18,9.389 2.18,9.389 Z"
         id="path66" /></clipPath><g
       clip-path="url(#_clip14)"
       id="g71"><path
         d="M 2.121,10.061 2.162,8.886 17.576,9.424 17.535,10.6 Z"
         style="fill:url(#_Linear15);fill-rule:nonzero"
         id="path69" /></g><path
       d="m 2.489,9.106 13.78,0.353 c 0,0 0.605,-0.059 1.06,0.513 0,0.017 0.218,0.286 -0.186,0.286 L 2.523,10.073 c 0,0 -0.312,-0.009 -0.337,-0.274 0.006,0 -0.006,-0.41 -0.006,-0.41 0,0 -0.025,-0.283 0.309,-0.283 z"
       style="fill:#333333;stroke:#000000;stroke-width:0.06px"
       id="path73" /><path
       d="m 3.921,1.471 c 0,0 21.618,0.155 25.253,0.358 0,0.033 1.392,-0.131 1.505,0.866 0,0.025 -0.025,3.748 -0.025,3.748 0,0 0.013,0.593 -0.353,0.984 0,0 -1.906,1.867 -3.268,2.776 0,0.025 -0.493,0.177 -0.644,0.164 C 26.402,10.393 9.488,10.14 3.263,10.039 3.229,10.073 3.568,2.329 3.921,1.471 Z"
       style="fill:none;stroke:#000000;stroke-width:0.06px"
       id="path75" /><path
       d="m 39.942,2.317 0.673,7.234 0.353,0.085 -0.639,-7.084 z"
       style="fill-rule:nonzero;stroke:#000000;stroke-width:0.06px"
       id="path77" /><path
       d="M 15.411,0.685 31.293,0.92 c 0,0 -0.336,15.378 -0.302,17.7 0,0.034 -0.537,0.328 -0.065,2.246 0.033,0.034 -14.752,-0.202 -14.752,-0.202 0,0 -0.164,-0.009 -0.192,-0.233 -0.026,-0.505 -0.139,-1.694 -0.341,-2.723 0.025,-0.025 -0.584,-5.296 -0.508,-7.593 -0.025,-0.025 0.051,-7.176 0.278,-9.43 z"
       style="fill:none;stroke:#000000;stroke-width:0.06px"
       id="path79" /><path
       d="m 47.042,6.237 -0.16,9.683 c 0,0 -2.171,1.312 -2.549,4.568 0,0 -0.048,0.605 -0.817,0.618 -0.303,-0.028 -10.259,-0.208 -10.259,-0.208 0,0 -0.502,-0.139 -0.197,-2.177 v -3.365 c 0,0 0.058,-1.308 -0.656,-2.154 -0.683,-0.809 -0.589,-2.153 -0.589,-2.153 0,0 0.101,-9.986 0.253,-10.676"
       style="fill:none;stroke:#000000;stroke-width:0.06px"
       id="path81" /><path
       d="m 55.033,15.844 -1.589,0.782 c 2.094,1.691 1.589,5.09 1.573,5.09 1.127,0.067 2.254,0 2.254,-0.017 0.942,-0.05 1.127,-0.471 1.127,-0.471 0.842,-0.875 0.825,-4.122 0.8,-4.122 0.558,-0.51 -0.005,-0.903 -0.026,-0.91 -0.051,-0.453 -0.504,-0.68 -0.504,-0.705 -0.732,0.479 -3.635,0.353 -3.635,0.353 z"
       style="fill:#333333;fill-rule:nonzero"
       id="path83" /><path
       d="m 53.444,16.626 1.589,-0.782 c 0,0 2.903,0.126 3.635,-0.354 0,0.026 0.454,0.253 0.504,0.707 -0.025,-0.025 0.606,0.379 0.026,0.909 0.025,0 0.042,3.247 -0.799,4.122 0,0 -0.186,0.421 -1.128,0.471 0,0.017 -1.127,0.084 -2.254,0.017 0.016,0 0.521,-3.399 -1.573,-5.09 z"
       style="fill:none;stroke:#000000;stroke-width:0.06px"
       id="path85" /><path
       d="m 14.502,15.995 31.093,0.101"
       style="fill:none;stroke:#000000;stroke-width:0.06px"
       id="path87" /><path
       d="m 42.756,10.454 c 0,0 13.425,2.853 15.748,4.633"
       style="fill:none;stroke:#000000;stroke-width:0.06px"
       id="path89" /></g><defs
     id="defs167"><linearGradient
       id="_Linear1"
       x1="0"
       y1="0"
       x2="1"
       y2="0"
       gradientUnits="userSpaceOnUse"
       gradientTransform="matrix(10.2211,0,0,10.2211,39.5882,4.58293)"><stop
         offset="0%"
         style="stop-color:#f2f3ff;stop-opacity:1"
         id="stop92" /><stop
         offset="100%"
         style="stop-color:#edf4ff;stop-opacity:1"
         id="stop94" /></linearGradient><linearGradient
       id="_Linear2"
       x1="0"
       y1="0"
       x2="1"
       y2="0"
       gradientUnits="userSpaceOnUse"
       gradientTransform="matrix(8.66495,0,0,8.66495,5.53425,5.50413)"><stop
         offset="0%"
         style="stop-color:#f2f3ff;stop-opacity:1"
         id="stop97" /><stop
         offset="100%"
         style="stop-color:#edf4ff;stop-opacity:1"
         id="stop99" /></linearGradient><linearGradient
       id="_Linear3"
       x1="0"
       y1="0"
       x2="1"
       y2="0"
       gradientUnits="userSpaceOnUse"
       gradientTransform="matrix(4.89893,0,0,4.89893,53.2668,12.7726)"><stop
         offset="0%"
         style="stop-color:#f2f3ff;stop-opacity:1"
         id="stop102" /><stop
         offset="100%"
         style="stop-color:#edf4ff;stop-opacity:1"
         id="stop104" /></linearGradient><linearGradient
       id="_Linear5"
       x1="0"
       y1="0"
       x2="1"
       y2="0"
       gradientUnits="userSpaceOnUse"
       gradientTransform="matrix(0.196165,-0.641628,0.641628,0.196165,50.342,8.71287)"><stop
         offset="0%"
         style="stop-color:#231f20;stop-opacity:1"
         id="stop107" /><stop
         offset="100%"
         style="stop-color:#595a5c;stop-opacity:1"
         id="stop109" /></linearGradient><linearGradient
       id="_Linear15"
       x1="0"
       y1="0"
       x2="1"
       y2="0"
       gradientUnits="userSpaceOnUse"
       gradientTransform="matrix(0.0382989,-1.09674,1.09674,0.0382989,9.76358,10.3258)"><stop
         offset="0%"
         style="stop-color:#231f20;stop-opacity:1"
         id="stop157" /><stop
         offset="100%"
         style="stop-color:#4d4d4f;stop-opacity:1"
         id="stop159" /></linearGradient></defs></svg>
