<?xml version="1.0" encoding="UTF-8" standalone="no"?>
<svg
   xmlns:dc="http://purl.org/dc/elements/1.1/"
   xmlns:cc="http://creativecommons.org/ns#"
   xmlns:rdf="http://www.w3.org/1999/02/22-rdf-syntax-ns#"
   xmlns:svg="http://www.w3.org/2000/svg"
   xmlns="http://www.w3.org/2000/svg"
   xmlns:sodipodi="http://sodipodi.sourceforge.net/DTD/sodipodi-0.dtd"
   xmlns:inkscape="http://www.inkscape.org/namespaces/inkscape"
   inkscape:version="1.0 (4035a4fb49, 2020-05-01)"
   sodipodi:docname="voiture--utilitaire.svg"
   id="svg169"
   style="fill-rule:evenodd;clip-rule:evenodd;stroke-linecap:round;stroke-linejoin:round;"
   xml:space="preserve"
   version="1.1"
   viewBox="0 0 60 26"
   height="100%"
   width="100%"><metadata
     id="metadata173"><rdf:RDF><cc:Work
         rdf:about=""><dc:format>image/svg+xml</dc:format><dc:type
           rdf:resource="http://purl.org/dc/dcmitype/StillImage" /></cc:Work></rdf:RDF></metadata><sodipodi:namedview
     inkscape:current-layer="svg169"
     inkscape:window-maximized="1"
     inkscape:window-y="-8"
     inkscape:window-x="-8"
     inkscape:cy="13.580075"
     inkscape:cx="22.890207"
     inkscape:zoom="15.792051"
     showgrid="false"
     id="namedview171"
     inkscape:window-height="1017"
     inkscape:window-width="1920"
     inkscape:pageshadow="2"
     inkscape:pageopacity="0"
     guidetolerance="10"
     gridtolerance="10"
     objecttolerance="10"
     borderopacity="1"
     bordercolor="#666666"
     pagecolor="#ffffff" /><g
     id="cat_utilitaire"><path
       id="path2"
       style="fill:url(#_Linear1);fill-rule:nonzero;"
       d="M39.588,1.206c0.959,0.404 6.309,4.846 6.309,4.821c2.6,2.22 3.912,2.069 3.912,2.069c-5.678,-5.224 -9.261,-7.008 -9.261,-7.008c-0.118,-0.014 -0.223,-0.02 -0.315,-0.02c-0.447,0 -0.624,0.138 -0.645,0.138Z" /><path
       id="path4"
       style="fill:#ffffff;stroke:#000;stroke-width:0.12px"
       d="M40.547,1.088c0,0 3.584,1.784 9.262,7.008c0,0 -1.312,0.151 -3.912,-2.069c0,0.025 -5.35,-4.417 -6.309,-4.821c0.025,0 0.278,-0.202 0.959,-0.118Z" /><path
       id="path6"
       style="fill:url(#_Linear2);fill-rule:nonzero;"
       d="M5.795,3.385c-0.16,0.832 -0.26,4.163 -0.261,4.164c0.017,0.985 0.867,1.027 0.867,1.027c0,0 6.65,0.163 6.637,0.138c0.922,0.013 1.035,-0.87 1.035,-0.87c0,0 0.126,-4.606 0.126,-4.632c-0.025,-0.845 -1.072,-0.87 -1.072,-0.87l-6.019,-0.051c-1.22,0.009 -1.321,1.094 -1.313,1.094Z" /><path
       id="path8"
       style="fill:none;stroke:#000;stroke-width:0.12px;"
       d="M7.108,2.291l6.019,0.051c0,0 1.047,0.025 1.072,0.87c0,0.026 -0.126,4.631 -0.126,4.631c0,0 -0.113,0.884 -1.035,0.871c0.013,0.026 -6.637,-0.139 -6.637,-0.139c0,0 -0.85,-0.041 -0.867,-1.026c0,0.009 0.101,-3.331 0.261,-4.164c-0.008,0 0.093,-1.085 1.313,-1.094Z" /><path
       id="path10"
       style="fill:url(#_Linear3);fill-rule:nonzero;"
       d="M53.267,10.872l1.741,3.079c0,0 3.155,1.161 3.155,1.148c0.025,-0.29 -0.126,-0.946 -0.126,-0.959c0.063,-1.425 -2.89,-3.482 -2.89,-3.482c-0.236,-0.155 -0.48,-0.212 -0.712,-0.212c-0.633,0 -1.168,0.426 -1.168,0.426Z" /><path
       id="path12"
       style="fill:#ffffff;stroke:#000;stroke-width:0.12px"
       d="M55.147,10.658c0,0 2.953,2.057 2.89,3.482c0,0.013 0.151,0.669 0.126,0.959c0,0.013 -3.155,-1.148 -3.155,-1.148l-1.741,-3.079c0,0 0.997,-0.795 1.88,-0.214Z" /><path
       id="path14"
       style="fill:#333333;fill-rule:nonzero;stroke:#1a171b;stroke-width:0.12px"
       d="M44.552,21.581l1.918,0.337l7.504,-0.135l1.346,-0.202l0.824,-5.283l-6.309,-2.928l-6.512,1.162l1.229,7.049Z" /><path
       id="path16"
       style="fill:#333333;fill-rule:nonzero;stroke:#1a171b;stroke-width:0.12px"
       d="M5.063,20.74l1.767,0.303l7.016,0.79l1.565,-0.605l0.101,-6.545l-4.997,-1.212l-4.291,0.808l-1.968,3.13l0.807,3.331Z" /><clipPath
       id="_clip4"><path
         id="path18"
         d="M49.557,7.944l1.161,0.884c0,0 0.656,-0.051 0.631,-0.076c-0.561,-0.719 -1.208,-0.829 -1.55,-0.829c-0.15,0 -0.242,0.021 -0.242,0.021Z" /></clipPath><g
       id="g23"
       clip-path="url(#_clip4)"><path
         id="path21"
         style="fill:url(#_Linear5);fill-rule:nonzero;"
         d="M49.409,8.428l0.228,-0.747l1.895,0.58l-0.228,0.746l-1.895,-0.579Z" /></g><path
       id="path25"
       style="fill:#333333;stroke:#1a171b;stroke-width:0.06px"
       d="M49.557,7.945c0,0 0.984,-0.228 1.792,0.807c0.025,0.025 -0.631,0.076 -0.631,0.076l-1.161,-0.883Z" /><path
       id="path27"
       style="fill:#f46154;fill-rule:nonzero;stroke:#000;stroke-width:0.12px;"
       d="M1.404,4.929c0,0 -0.492,2.889 -0.593,6.915l0.681,0.24l1.098,-1.742l-0.05,-5.742c0,0 -0.833,-0.403 -1.136,0.329Z" /><path
       id="path29"
       style="fill:#4786b3;fill-rule:nonzero;fill-opacity:1"
       d="M32.068,0.381c-8.96,-0.209 -27.829,-0.201 -27.829,-0.235c-1.674,0.681 -1.189,1.913 -1.22,1.943c-0.398,0.381 -0.75,0.887 -0.78,0.909c0.617,0.018 0.878,0.524 0.881,0.505c-0.006,0.067 -0.664,8.193 -0.454,10.019c-0.236,0.185 -1.59,0.732 -1.59,0.732c-0.455,0.689 0.168,1.287 0.151,1.287c-0.084,1.043 1.085,3.205 0.051,3.155c-0.738,1.101 -0.026,0.833 -0.026,0.833c2.474,0.58 4.064,1.514 4.064,1.514c-0.337,-6.225 4.845,-5.822 4.879,-5.855c5.35,0.37 4.812,6.359 4.812,6.359c0,0 29.713,0.202 29.746,0.236c-0.168,-6.663 5.296,-6.368 5.351,-6.393c5.922,0.37 4.904,6.372 4.892,6.372c1.514,0.038 2.195,-0.467 2.195,-0.467c0.757,-0.151 0.584,-0.34 0.682,-0.467c0.77,-1.198 0.807,-3.786 0.795,-3.786c0.404,-0.504 -0.126,-0.655 0.202,-0.731c0.025,-0.833 -0.867,-2.103 -0.842,-2.116c-0.769,-0.202 -2.397,-1.144 -2.397,-1.144c0,0 -2.549,-1.484 -1.548,-2.406c0.293,-0.357 0.825,-0.128 1.031,-0.008c-1.135,-0.776 -3.488,-2.036 -3.513,-2.036c-0.252,-0.051 -0.656,-0.025 -0.656,-0.025c-2.524,-1.035 -3.811,-2.297 -3.836,-2.297c-2.877,-2.675 -6.84,-5.056 -6.848,-5.056c0.025,-0.093 0.214,-0.108 0.287,-0.135c-1.34,-0.779 -3.257,-0.988 -4.93,-0.988c-1.94,0 -3.55,0.281 -3.55,0.281Zm-29.829,2.617c-0.001,0 -0.001,0 -0.002,0c0,0.001 0.001,0.001 0.002,0Zm52.959,7.697c-0.005,-0.007 -0.036,-0.029 -0.084,-0.058c0.029,0.02 0.056,0.039 0.084,0.058Z" /><path
       id="path31"
       style="fill:none;stroke:#1a171b;stroke-width:0.12px;"
       d="M54.083,10.645c0.362,-0.441 1.09,0.013 1.115,0.051c-1.098,-0.77 -3.572,-2.095 -3.597,-2.095c-0.252,-0.051 -0.656,-0.025 -0.656,-0.025c-2.524,-1.035 -3.811,-2.297 -3.836,-2.297c-2.877,-2.675 -6.84,-5.056 -6.848,-5.056c0.025,-0.093 0.214,-0.108 0.286,-0.135c-2.893,-1.682 -8.479,-0.707 -8.479,-0.707c-8.96,-0.209 -27.829,-0.201 -27.829,-0.235c-1.674,0.681 -1.189,1.913 -1.22,1.943c-0.416,0.399 -0.782,0.934 -0.782,0.909c0.622,0.016 0.883,0.53 0.883,0.505c0,0 -0.665,8.185 -0.454,10.019c-0.236,0.185 -1.59,0.732 -1.59,0.732c-0.455,0.689 0.168,1.287 0.151,1.287c-0.084,1.043 1.085,3.205 0.051,3.155c-0.739,1.101 -0.026,0.833 -0.026,0.833c2.474,0.58 4.064,1.514 4.064,1.514c-0.337,-6.225 4.845,-5.822 4.879,-5.855c5.35,0.37 4.812,6.359 4.812,6.359c0,0 29.713,0.202 29.746,0.236c-0.168,-6.662 5.296,-6.368 5.351,-6.393c5.922,0.37 4.904,6.372 4.892,6.372c1.514,0.038 2.195,-0.467 2.195,-0.467c0.757,-0.151 0.584,-0.341 0.682,-0.467c0.77,-1.198 0.807,-3.785 0.795,-3.785c0.403,-0.505 -0.126,-0.656 0.202,-0.732c0.025,-0.833 -0.867,-2.103 -0.842,-2.116c-0.769,-0.202 -2.397,-1.144 -2.397,-1.144c0,0 -2.549,-1.485 -1.548,-2.406Z" /><path
       id="path33"
       style="fill-rule:nonzero;"
       d="M6.04,20.591c0,-2.313 1.875,-4.189 4.189,-4.189c2.314,0 4.189,1.876 4.189,4.189c0,2.314 -1.875,4.189 -4.189,4.189c-2.314,0 -4.189,-1.875 -4.189,-4.189" /><path
       id="path35"
       style="fill-rule:nonzero;"
       d="M45.531,20.706c0,-2.426 1.967,-4.393 4.393,-4.393c2.427,0 4.394,1.967 4.394,4.393c0,2.427 -1.967,4.394 -4.394,4.394c-2.426,0 -4.393,-1.967 -4.393,-4.394" /><path
       id="path37"
       style="fill:#ffffff;fill-rule:nonzero"
       d="M7.187,20.591c0,1.68 1.361,3.042 3.042,3.042c1.681,0 3.042,-1.362 3.042,-3.042c0,-1.68 -1.361,-3.043 -3.042,-3.043c-1.681,0 -3.042,1.363 -3.042,3.043Z" /><path
       id="path39"
       style="fill:none;stroke:#b9b9b9;stroke-width:0.06px;"
       d="M7.187,20.591c0,-1.68 1.361,-3.043 3.042,-3.043c1.681,0 3.042,1.363 3.042,3.043c0,1.68 -1.361,3.042 -3.042,3.042c-1.681,0 -3.042,-1.362 -3.042,-3.042Z" /><path
       id="path41"
       style="fill:#ffffff;fill-rule:nonzero"
       d="M46.712,20.706c0,1.762 1.429,3.19 3.191,3.19c1.761,0 3.19,-1.428 3.19,-3.19c0,-1.762 -1.429,-3.19 -3.19,-3.19c-1.762,0 -3.191,1.428 -3.191,3.19Z" /><path
       id="path43"
       style="fill:none;stroke:#b9b9b9;stroke-width:0.06px;"
       d="M46.712,20.706c0,-1.762 1.429,-3.19 3.191,-3.19c1.761,0 3.19,1.428 3.19,3.19c0,1.762 -1.429,3.191 -3.19,3.191c-1.762,0 -3.191,-1.429 -3.191,-3.191Z" /><path
       id="path45"
       style="fill:#ffffff;fill-rule:nonzero"
       d="M34.019,1.341c-1.161,0.017 -1.194,1.161 -1.178,1.161c-0.05,1.447 0.303,3.718 0.303,3.701c0.202,1.784 2.053,2.087 2.036,2.087c1.194,0.471 7.924,2.019 7.908,2.035c2.069,0.152 2.12,-0.909 2.12,-0.909c0,0 0.302,-2.405 0.319,-2.405c0.101,-0.908 -0.538,-1.414 -0.555,-1.447c-5.081,-4.055 -7.1,-4.173 -7.117,-4.173c-0.455,-0.102 -1.119,-0.134 -1.769,-0.134c-1.054,0 -2.067,0.084 -2.067,0.084Z" /><path
       id="path47"
       style="fill:none;stroke:#000;stroke-width:0.47px;"
       d="M34.019,1.341c0,0 2.642,-0.219 3.836,0.05c0.017,0 2.036,0.118 7.117,4.173c0.017,0.034 0.656,0.538 0.555,1.447c-0.017,0 -0.319,2.406 -0.319,2.406c0,0 -0.051,1.06 -2.12,0.908c0.016,-0.016 -6.714,-1.565 -7.908,-2.035c0.017,0 -1.834,-0.303 -2.036,-2.087c0,0.017 -0.353,-2.254 -0.303,-3.701c-0.016,0 0.017,-1.145 1.178,-1.161Z" /><path
       id="path49"
       style="fill:#333333;fill-rule:nonzero"
       d="M44.419,7.167c-0.121,0.442 -0.181,0.885 -0.174,0.879c-0.264,1.893 0.132,1.943 0.151,1.943c0.395,0.148 0.96,-0.212 0.972,-0.239c0,0.277 0.176,0.491 0.189,0.479c0.53,0.214 0.855,-0.081 0.896,-0.114c0.214,-0.164 0.233,-0.652 0.239,-0.72c0.041,-0.246 -0.169,-0.241 -0.252,-0.237c-0.02,0.001 -0.033,0.003 -0.033,0c0.005,-0.577 0,-0.607 -0.005,-0.686c-0.014,-0.133 -0.004,-0.429 0.099,-0.611c0.217,0.222 0.281,0.044 0.28,-0.017c0.099,-1.243 -0.511,-1.201 -0.518,-1.199c-0.149,-0.039 -0.292,0.197 -0.395,0.433c-0.098,0.222 -0.16,0.444 -0.16,0.438c-0.088,-1.313 -0.706,-1.225 -0.706,-1.225c-0.013,-0.002 -0.026,-0.004 -0.039,-0.004c-0.241,0 -0.423,0.44 -0.544,0.88Z" /><path
       id="path51"
       style="fill:none;stroke:#000;stroke-width:0.06px;"
       d="M45.002,6.291c0,0 0.618,-0.088 0.706,1.225c0,0.012 0.265,-0.947 0.555,-0.871c-0.012,0 0.619,-0.063 0.518,1.199c0.001,0.061 -0.063,0.239 -0.28,0.017c-0.104,0.182 -0.113,0.478 -0.099,0.611c0.005,0.079 0.01,0.109 0.005,0.686c0,0.012 0.336,-0.069 0.286,0.237c-0.007,0.068 -0.026,0.556 -0.24,0.72c-0.041,0.032 -0.366,0.328 -0.896,0.114c-0.013,0.012 -0.189,-0.202 -0.189,-0.48c0.012,0.013 -0.568,0.391 -0.972,0.24c0.025,0 -0.429,0.05 -0.151,-1.943c-0.013,0.012 0.248,-1.853 0.757,-1.755Z" /><path
       id="path53"
       style="fill:#333333;fill-rule:nonzero"
       d="M2.489,0.6c0,0.013 -0.467,0.127 -0.845,2.84c0,-0.026 -0.177,0.82 -0.24,1.489c0,0.012 0.555,-0.013 0.656,0.366c0,0 0.164,3.129 -0.277,5.603c0.012,0.025 -0.215,1.173 -0.972,0.946c0.012,0.025 -0.089,1.501 -0.089,1.501c0,0 -0.403,0.404 -0.504,1.704c0.012,0.025 -0.038,2.221 0.088,3.697c0,-0.013 -0.24,0.126 -0.202,0.366c0.013,0.013 0.013,1.022 1.174,1.426c0,0.013 1.463,0.404 4.038,0.505c0,0 -0.19,-1.943 0.542,-3.395c0,0 -1.236,-0.088 -1.792,-0.252c0.026,0.013 -0.694,-0.088 -0.719,-0.745c0,-0.012 -0.454,-12.265 0.892,-16.505c0,0 -1.46,0.063 -1.75,0.454Z" /><path
       id="path55"
       style="fill:none;stroke:#000;stroke-width:0.12px;"
       d="M4.239,0.146c0,0 -1.46,0.063 -1.75,0.454c0,0.013 -0.467,0.127 -0.846,2.84c0,-0.026 -0.176,0.82 -0.239,1.489c0,0.012 0.555,-0.013 0.656,0.366c0,0 0.164,3.129 -0.278,5.602c0.013,0.026 -0.214,1.174 -0.971,0.947c0.012,0.025 -0.089,1.501 -0.089,1.501c0,0 -0.403,0.404 -0.504,1.704c0.012,0.025 -0.038,2.221 0.088,3.697c0,-0.013 -0.24,0.126 -0.202,0.366c0.013,0.013 0.013,1.022 1.174,1.426c0,0.013 1.463,0.404 4.038,0.505c0,0 -0.19,-1.943 0.542,-3.395c0,0 -1.236,-0.088 -1.792,-0.252c0.026,0.013 -0.694,-0.088 -0.719,-0.745c0,-0.012 -0.454,-12.265 0.892,-16.505Z" /><clipPath
       id="_clip12"><path
         id="path57"
         d="M15.735,18.174c0,0 0.231,1.657 0.248,2.229c0.004,0.017 -0.013,0.249 0.219,0.253c-0.034,0.016 23.201,0.286 27.306,0.454c0.096,0.005 0.421,0 0.505,-0.504l0.185,-1.094c0,0 0.017,-0.37 -0.286,-0.37c0.017,0 -24.867,-1.027 -27.795,-1.128c0,0 -0.042,-0.005 -0.1,-0.005c-0.119,0 -0.299,0.023 -0.282,0.165Z" /></clipPath><g
       id="g62"
       clip-path="url(#_clip12)"><path
         id="path60"
         style="fill:#333333;fill-rule:nonzero"
         d="M15.626,20.654l0.093,-2.657l28.501,0.995l-0.093,2.657l-28.501,-0.995Z" /></g><path
       id="path64"
       style="fill:none;stroke:#000;stroke-width:0.06px;"
       d="M15.735,18.174c0,0 0.231,1.657 0.248,2.229c0.004,0.017 -0.013,0.249 0.219,0.253c-0.034,0.017 23.201,0.286 27.306,0.454c0.096,0.005 0.421,0 0.505,-0.504l0.185,-1.094c0,0 0.017,-0.37 -0.286,-0.37c0.017,0 -24.867,-1.027 -27.795,-1.128c0,0 -0.408,-0.05 -0.382,0.16Z" /><clipPath
       id="_clip14"><path
         id="path66"
         d="M2.18,9.389c0,0 0.012,0.41 0.006,0.41c0.025,0.265 0.337,0.274 0.337,0.274l14.621,0.185c0.403,0 0.185,-0.269 0.185,-0.286c-0.455,-0.572 -1.06,-0.513 -1.06,-0.513l-13.78,-0.353c-0.334,0 -0.309,0.283 -0.309,0.283Z" /></clipPath><g
       id="g71"
       clip-path="url(#_clip14)"><path
         id="path69"
         style="fill:url(#_Linear15);fill-rule:nonzero;"
         d="M2.121,10.061l0.041,-1.175l15.414,0.538l-0.041,1.176l-15.414,-0.539Z" /></g><path
       id="path73"
       style="fill:#333333;stroke:#000;stroke-width:0.06px"
       d="M2.489,9.106l13.78,0.353c0,0 0.605,-0.059 1.06,0.513c0,0.017 0.218,0.286 -0.186,0.286l-14.62,-0.185c0,0 -0.312,-0.009 -0.337,-0.274c0.006,0 -0.006,-0.41 -0.006,-0.41c0,0 -0.025,-0.283 0.309,-0.283Z" /><path
       id="path75"
       style="fill:none;stroke:#000;stroke-width:0.06px;"
       d="M3.921,1.471c0,0 21.618,0.155 25.253,0.358c0,0.033 1.392,-0.131 1.505,0.866c0,0.025 -0.025,3.748 -0.025,3.748c0,0 0.013,0.593 -0.353,0.984c0,0 -1.906,1.867 -3.268,2.776c0,0.025 -0.493,0.177 -0.644,0.164c0.013,0.026 -16.901,-0.227 -23.126,-0.328c-0.034,0.034 0.305,-7.71 0.658,-8.568Z" /><path
       id="path77"
       style="fill-rule:nonzero;stroke:#000;stroke-width:0.06px;"
       d="M39.942,2.317l0.673,7.234l0.353,0.085l-0.639,-7.084l-0.387,-0.235Z" /><path
       id="path79"
       style="fill:none;stroke:#000;stroke-width:0.06px;"
       d="M15.411,0.685l15.882,0.235c0,0 -0.336,15.378 -0.302,17.7c0,0.034 -0.537,0.328 -0.065,2.246c0.033,0.034 -14.752,-0.202 -14.752,-0.202c0,0 -0.164,-0.009 -0.192,-0.233c-0.026,-0.505 -0.139,-1.694 -0.341,-2.723c0.025,-0.025 -0.584,-5.296 -0.508,-7.593c-0.025,-0.025 0.051,-7.176 0.278,-9.43Z" /><path
       id="path81"
       style="fill:none;stroke:#000;stroke-width:0.06px;"
       d="M47.042,6.237l-0.16,9.683c0,0 -2.171,1.312 -2.549,4.568c0,0 -0.048,0.605 -0.817,0.618c-0.303,-0.028 -10.259,-0.208 -10.259,-0.208c0,0 -0.502,-0.139 -0.197,-2.177l0,-3.365c0,0 0.058,-1.308 -0.656,-2.154c-0.683,-0.809 -0.589,-2.153 -0.589,-2.153c0,0 0.101,-9.986 0.253,-10.676" /><path
       id="path83"
       style="fill:#333333;fill-rule:nonzero"
       d="M55.033,15.844l-1.589,0.782c2.094,1.691 1.589,5.09 1.573,5.09c1.127,0.067 2.254,0 2.254,-0.017c0.942,-0.05 1.127,-0.471 1.127,-0.471c0.842,-0.875 0.825,-4.122 0.8,-4.122c0.558,-0.51 -0.005,-0.903 -0.026,-0.91c-0.051,-0.453 -0.504,-0.68 -0.504,-0.705c-0.732,0.479 -3.635,0.353 -3.635,0.353Z" /><path
       id="path85"
       style="fill:none;stroke:#000;stroke-width:0.06px;"
       d="M53.444,16.626l1.589,-0.782c0,0 2.903,0.126 3.635,-0.354c0,0.026 0.454,0.253 0.504,0.707c-0.025,-0.025 0.606,0.379 0.026,0.909c0.025,0 0.042,3.247 -0.799,4.122c0,0 -0.186,0.421 -1.128,0.471c0,0.017 -1.127,0.084 -2.254,0.017c0.016,0 0.521,-3.399 -1.573,-5.09Z" /><path
       id="path87"
       style="fill:none;stroke:#000;stroke-width:0.06px;"
       d="M14.502,15.995l31.093,0.101" /><path
       id="path89"
       style="fill:none;stroke:#000;stroke-width:0.06px;"
       d="M42.756,10.454c0,0 13.425,2.853 15.748,4.633" /></g><defs
     id="defs167"><linearGradient
       gradientTransform="matrix(10.2211,0,0,10.2211,39.5882,4.58293)"
       gradientUnits="userSpaceOnUse"
       y2="0"
       x2="1"
       y1="0"
       x1="0"
       id="_Linear1"><stop
         id="stop92"
         style="stop-color:#f2f3ff;stop-opacity:1"
         offset="0%" /><stop
         id="stop94"
         style="stop-color:#edf4ff;stop-opacity:1"
         offset="100%" /></linearGradient><linearGradient
       gradientTransform="matrix(8.66495,0,0,8.66495,5.53425,5.50413)"
       gradientUnits="userSpaceOnUse"
       y2="0"
       x2="1"
       y1="0"
       x1="0"
       id="_Linear2"><stop
         id="stop97"
         style="stop-color:#f2f3ff;stop-opacity:1"
         offset="0%" /><stop
         id="stop99"
         style="stop-color:#edf4ff;stop-opacity:1"
         offset="100%" /></linearGradient><linearGradient
       gradientTransform="matrix(4.89893,0,0,4.89893,53.2668,12.7726)"
       gradientUnits="userSpaceOnUse"
       y2="0"
       x2="1"
       y1="0"
       x1="0"
       id="_Linear3"><stop
         id="stop102"
         style="stop-color:#f2f3ff;stop-opacity:1"
         offset="0%" /><stop
         id="stop104"
         style="stop-color:#edf4ff;stop-opacity:1"
         offset="100%" /></linearGradient><linearGradient
       gradientTransform="matrix(0.196165,-0.641628,0.641628,0.196165,50.342,8.71287)"
       gradientUnits="userSpaceOnUse"
       y2="0"
       x2="1"
       y1="0"
       x1="0"
       id="_Linear5"><stop
         id="stop107"
         style="stop-color:#231f20;stop-opacity:1"
         offset="0%" /><stop
         id="stop109"
         style="stop-color:#595a5c;stop-opacity:1"
         offset="100%" /></linearGradient><linearGradient
       gradientTransform="matrix(0,21.6831,-21.6831,0,29.8898,0.100015)"
       gradientUnits="userSpaceOnUse"
       y2="0"
       x2="1"
       y1="0"
       x1="0"
       id="_Linear6"><stop
         id="stop112"
         style="stop-color:#3b6dad;stop-opacity:1"
         offset="0%" /><stop
         id="stop114"
         style="stop-color:#123b70;stop-opacity:1"
         offset="100%" /></linearGradient><radialGradient
       gradientTransform="matrix(3.04235,0,0,3.04235,10.2291,20.5906)"
       gradientUnits="userSpaceOnUse"
       r="1"
       cy="0"
       cx="0"
       id="_Radial7"><stop
         id="stop117"
         style="stop-color:#8a8c8e;stop-opacity:1"
         offset="0%" /><stop
         id="stop119"
         style="stop-color:#6b6c6f;stop-opacity:1"
         offset="84%" /><stop
         id="stop121"
         style="stop-color:#4d4d4f;stop-opacity:1"
         offset="96%" /><stop
         id="stop123"
         style="stop-color:#4d4d4f;stop-opacity:1"
         offset="100%" /></radialGradient><radialGradient
       gradientTransform="matrix(3.19053,0,0,3.19053,49.9024,20.706)"
       gradientUnits="userSpaceOnUse"
       r="1"
       cy="0"
       cx="0"
       id="_Radial8"><stop
         id="stop126"
         style="stop-color:#8a8c8e;stop-opacity:1"
         offset="0%" /><stop
         id="stop128"
         style="stop-color:#6b6c6f;stop-opacity:1"
         offset="84%" /><stop
         id="stop130"
         style="stop-color:#4d4d4f;stop-opacity:1"
         offset="96%" /><stop
         id="stop132"
         style="stop-color:#4d4d4f;stop-opacity:1"
         offset="100%" /></radialGradient><linearGradient
       gradientTransform="matrix(12.7019,0,0,12.7019,32.8363,5.79844)"
       gradientUnits="userSpaceOnUse"
       y2="0"
       x2="1"
       y1="0"
       x1="0"
       id="_Linear9"><stop
         id="stop135"
         style="stop-color:#f2f3ff;stop-opacity:1"
         offset="0%" /><stop
         id="stop137"
         style="stop-color:#edf4ff;stop-opacity:1"
         offset="100%" /></linearGradient><linearGradient
       gradientTransform="matrix(0,4.01841,-4.01841,0,45.4731,6.28754)"
       gradientUnits="userSpaceOnUse"
       y2="0"
       x2="1"
       y1="0"
       x1="0"
       id="_Linear10"><stop
         id="stop140"
         style="stop-color:#97999c;stop-opacity:1"
         offset="0%" /><stop
         id="stop142"
         style="stop-color:#595a5c;stop-opacity:1"
         offset="15%" /><stop
         id="stop144"
         style="stop-color:#2d2a2b;stop-opacity:1"
         offset="100%" /></linearGradient><linearGradient
       gradientTransform="matrix(0,-20.8967,20.8967,0,2.97909,21.0429)"
       gradientUnits="userSpaceOnUse"
       y2="0"
       x2="1"
       y1="0"
       x1="0"
       id="_Linear11"><stop
         id="stop147"
         style="stop-color:#231f20;stop-opacity:1"
         offset="0%" /><stop
         id="stop149"
         style="stop-color:#595a5c;stop-opacity:1"
         offset="100%" /></linearGradient><linearGradient
       gradientTransform="matrix(0.0921263,-2.63815,2.63815,0.0921263,29.8854,21.134)"
       gradientUnits="userSpaceOnUse"
       y2="0"
       x2="1"
       y1="0"
       x1="0"
       id="_Linear13"><stop
         id="stop152"
         style="stop-color:#231f20;stop-opacity:1"
         offset="0%" /><stop
         id="stop154"
         style="stop-color:#3b3b3c;stop-opacity:1"
         offset="100%" /></linearGradient><linearGradient
       gradientTransform="matrix(0.0382989,-1.09674,1.09674,0.0382989,9.76358,10.3258)"
       gradientUnits="userSpaceOnUse"
       y2="0"
       x2="1"
       y1="0"
       x1="0"
       id="_Linear15"><stop
         id="stop157"
         style="stop-color:#231f20;stop-opacity:1"
         offset="0%" /><stop
         id="stop159"
         style="stop-color:#4d4d4f;stop-opacity:1"
         offset="100%" /></linearGradient><linearGradient
       gradientTransform="matrix(0,-6.25468,6.25468,0,56.4437,21.7452)"
       gradientUnits="userSpaceOnUse"
       y2="0"
       x2="1"
       y1="0"
       x1="0"
       id="_Linear16"><stop
         id="stop162"
         style="stop-color:#231f20;stop-opacity:1"
         offset="0%" /><stop
         id="stop164"
         style="stop-color:#414042;stop-opacity:1"
         offset="100%" /></linearGradient></defs></svg>
